M48
; DRILL file {KiCad 9.0.0} date 2025-04-06T23:20:58+0200
; FORMAT={-:-/ absolute / metric / decimal}
; #@! TF.CreationDate,2025-04-06T23:20:58+02:00
; #@! TF.GenerationSoftware,Kicad,Pcbnew,9.0.0
; #@! TF.FileFunction,Plated,1,4,PTH
FMAT,2
METRIC
; #@! TA.AperFunction,Plated,PTH,ViaDrill
T1C0.300
; #@! TA.AperFunction,Plated,PTH,ComponentDrill
T2C0.460
; #@! TA.AperFunction,Plated,PTH,ComponentDrill
T3C0.700
%
G90
G05
T1
X79.925Y-53.27
X79.99Y-43.77
X80.675Y-53.27
X80.74Y-43.77
X81.425Y-53.27
X81.49Y-43.77
X82.175Y-44.27
X82.175Y-45.02
X82.175Y-45.77
X82.24Y-51.27
X82.24Y-52.02
X82.24Y-52.77
X82.49Y-39.77
X82.75Y-47.5
X82.75Y-49.5
X83.49Y-46.27
X84.49Y-55.02
X84.99Y-46.27
X85.99Y-46.27
X86.74Y-50.52
X87.24Y-46.27
X87.49Y-53.77
X87.49Y-55.02
X87.74Y-50.52
X88.832Y-54.862
X88.99Y-47.52
X88.99Y-50.532
X89.49Y-43.82
X89.55Y-53.52
X89.95Y-50.52
X90.69Y-54.862
X90.707Y-46.987
X90.74Y-53.52
X90.99Y-50.961
X91.49Y-46.02
X91.49Y-47.52
X91.49Y-53.52
X91.99Y-50.961
X92.24Y-46.52
X93.99Y-44.681
X94.19Y-57.85
X95.29Y-57.82
X95.75Y-52.25
X96.175Y-57.52
X96.49Y-39.52
X96.49Y-40.52
X96.49Y-41.52
X96.74Y-52.27
X97.75Y-52.25
X98.99Y-54.52
X98.99Y-56.19
X98.99Y-57.52
X99.138Y-45.682
X99.49Y-39.52
X99.49Y-40.52
X99.49Y-42.52
X99.49Y-47.06
X99.514Y-41.52
X99.521Y-50.997
X101.74Y-56.5
X101.99Y-52.27
X101.99Y-53.52
X104.113Y-49.114
X104.24Y-45.62
X104.75Y-49.75
X105.003Y-46.56
X105.49Y-45.52
X106.49Y-54.72
X107.59Y-55.12
X107.75Y-49.5
X107.75Y-51.0
X109.25Y-49.5
X109.48Y-55.5
X110.5Y-42.25
X110.5Y-52.0
X110.5Y-55.5
X111.351Y-51.102
X111.5Y-54.5
X112.5Y-43.0
X112.5Y-53.75
X113.25Y-52.75
X113.5Y-44.0
X115.5Y-46.5
X116.5Y-47.5
X116.5Y-48.5
X117.49Y-52.27
T2
X118.99Y-44.12
X118.99Y-52.88
T3
X78.975Y-42.65G85X77.175Y-42.65
G05
X78.975Y-54.35G85X77.175Y-54.35
G05
M30
