G04 #@! TF.GenerationSoftware,KiCad,Pcbnew,9.0.0*
G04 #@! TF.CreationDate,2025-04-06T23:20:39+02:00*
G04 #@! TF.ProjectId,RF-to-USB,52462d74-6f2d-4555-9342-2e6b69636164,rev?*
G04 #@! TF.SameCoordinates,Original*
G04 #@! TF.FileFunction,Copper,L1,Top*
G04 #@! TF.FilePolarity,Positive*
%FSLAX46Y46*%
G04 Gerber Fmt 4.6, Leading zero omitted, Abs format (unit mm)*
G04 Created by KiCad (PCBNEW 9.0.0) date 2025-04-06 23:20:39*
%MOMM*%
%LPD*%
G01*
G04 APERTURE LIST*
G04 Aperture macros list*
%AMRoundRect*
0 Rectangle with rounded corners*
0 $1 Rounding radius*
0 $2 $3 $4 $5 $6 $7 $8 $9 X,Y pos of 4 corners*
0 Add a 4 corners polygon primitive as box body*
4,1,4,$2,$3,$4,$5,$6,$7,$8,$9,$2,$3,0*
0 Add four circle primitives for the rounded corners*
1,1,$1+$1,$2,$3*
1,1,$1+$1,$4,$5*
1,1,$1+$1,$6,$7*
1,1,$1+$1,$8,$9*
0 Add four rect primitives between the rounded corners*
20,1,$1+$1,$2,$3,$4,$5,0*
20,1,$1+$1,$4,$5,$6,$7,0*
20,1,$1+$1,$6,$7,$8,$9,0*
20,1,$1+$1,$8,$9,$2,$3,0*%
G04 Aperture macros list end*
G04 #@! TA.AperFunction,SMDPad,CuDef*
%ADD10RoundRect,0.060000X-0.940000X-0.140000X0.940000X-0.140000X0.940000X0.140000X-0.940000X0.140000X0*%
G04 #@! TD*
G04 #@! TA.AperFunction,SMDPad,CuDef*
%ADD11RoundRect,0.300000X0.700000X0.300000X-0.700000X0.300000X-0.700000X-0.300000X0.700000X-0.300000X0*%
G04 #@! TD*
G04 #@! TA.AperFunction,HeatsinkPad*
%ADD12O,3.200000X1.300000*%
G04 #@! TD*
G04 #@! TA.AperFunction,SMDPad,CuDef*
%ADD13RoundRect,0.210000X-0.590000X-0.490000X0.590000X-0.490000X0.590000X0.490000X-0.590000X0.490000X0*%
G04 #@! TD*
G04 #@! TA.AperFunction,SMDPad,CuDef*
%ADD14RoundRect,0.237500X-0.287500X-0.237500X0.287500X-0.237500X0.287500X0.237500X-0.287500X0.237500X0*%
G04 #@! TD*
G04 #@! TA.AperFunction,SMDPad,CuDef*
%ADD15R,5.080000X2.420000*%
G04 #@! TD*
G04 #@! TA.AperFunction,SMDPad,CuDef*
%ADD16R,0.950000X0.460000*%
G04 #@! TD*
G04 #@! TA.AperFunction,ComponentPad*
%ADD17C,0.970000*%
G04 #@! TD*
G04 #@! TA.AperFunction,ViaPad*
%ADD18C,0.700000*%
G04 #@! TD*
G04 #@! TA.AperFunction,Conductor*
%ADD19C,0.345000*%
G04 #@! TD*
G04 #@! TA.AperFunction,Conductor*
%ADD20C,0.280000*%
G04 #@! TD*
G04 #@! TA.AperFunction,Conductor*
%ADD21C,0.500000*%
G04 #@! TD*
G04 APERTURE END LIST*
D10*
X102000000Y-50300000D03*
X102000000Y-49650000D03*
X102000000Y-49000000D03*
X102000000Y-48350000D03*
X102000000Y-47700000D03*
X102000000Y-47050000D03*
X102000000Y-46400000D03*
X102000000Y-45750000D03*
X102000000Y-45100000D03*
X102000000Y-44450000D03*
X102000000Y-43800000D03*
X102000000Y-43150000D03*
X102000000Y-42500000D03*
X102000000Y-41850000D03*
X102000000Y-41200000D03*
D11*
X80675000Y-52000000D03*
X80675000Y-49500000D03*
X80675000Y-47500000D03*
X80675000Y-45000000D03*
D12*
X78075000Y-54350000D03*
X78075000Y-42650000D03*
D13*
X100400000Y-56500000D03*
X107600000Y-56500000D03*
X100400000Y-53500000D03*
X107600000Y-53500000D03*
X85900000Y-56500000D03*
X93100000Y-56500000D03*
X85900000Y-53500000D03*
X93100000Y-53500000D03*
D14*
X96000000Y-53910000D03*
X97750000Y-53910000D03*
X96000000Y-56500000D03*
X97750000Y-56500000D03*
D15*
X122430000Y-52880000D03*
X122430000Y-44120000D03*
D16*
X119440000Y-52880000D03*
X119440000Y-44120000D03*
D17*
X118990000Y-52880000D03*
X118990000Y-44120000D03*
D18*
X82750000Y-47500000D03*
X82750000Y-49500000D03*
X90706684Y-46986684D03*
X92240000Y-46520000D03*
X91490000Y-47520000D03*
X99490000Y-40520000D03*
X86740000Y-50520000D03*
X99490000Y-39520000D03*
X87740000Y-50520000D03*
X106490000Y-54720000D03*
X109250000Y-49500000D03*
X83490000Y-46270000D03*
X107750000Y-49500000D03*
X110500000Y-55500000D03*
X101990000Y-52270000D03*
X96490000Y-40520000D03*
X112500000Y-43000000D03*
X113250000Y-52750000D03*
X110500000Y-42250000D03*
X111500000Y-54500000D03*
X82175000Y-45770000D03*
X105490000Y-45520000D03*
X94190000Y-57850000D03*
X85990000Y-46270000D03*
X111351119Y-51102413D03*
X116500000Y-48500000D03*
X88990000Y-47520000D03*
X88832500Y-54862500D03*
X117490000Y-52270000D03*
X87490000Y-53770000D03*
X80740000Y-43770000D03*
X116500000Y-47500000D03*
X99521300Y-50997108D03*
X91490000Y-46020000D03*
X89550000Y-53520000D03*
X107750000Y-51000000D03*
X87240000Y-46270000D03*
X84990000Y-46270000D03*
X98990000Y-57520000D03*
X109480000Y-55500000D03*
X115500000Y-46500000D03*
X82175000Y-45020000D03*
X96490000Y-39520000D03*
X79990000Y-43770000D03*
X104240000Y-45619997D03*
X113500000Y-44000000D03*
X96490000Y-41520000D03*
X95290000Y-57820000D03*
X81490000Y-43770000D03*
X101990000Y-53520000D03*
X82175000Y-44270000D03*
X82240000Y-52770000D03*
X81425000Y-53270000D03*
X82240000Y-52020000D03*
X80675000Y-53270000D03*
X79925000Y-53270000D03*
X82240000Y-51270000D03*
X90990000Y-50961000D03*
X91490000Y-53520000D03*
X99137557Y-45682185D03*
X110500000Y-52000000D03*
X97750000Y-52250000D03*
X90740000Y-53520000D03*
X107590000Y-55120000D03*
X87490000Y-55020000D03*
X90690000Y-54862500D03*
X112500000Y-53750000D03*
X89490000Y-43820000D03*
X98990000Y-54520000D03*
X95750000Y-52250000D03*
X93990000Y-44680589D03*
X105002625Y-46560000D03*
X104112896Y-49114309D03*
X91990000Y-50961000D03*
X99490000Y-42520000D03*
X104750000Y-49750000D03*
X99490000Y-47060000D03*
X96740000Y-52270000D03*
X82490000Y-39770000D03*
X88990000Y-50532096D03*
X99514191Y-41520000D03*
X89950000Y-50520000D03*
X101740000Y-56500000D03*
X84490000Y-55020000D03*
X98990000Y-56190000D03*
X96175000Y-57520000D03*
D19*
X82750000Y-47500000D02*
X80675000Y-47500000D01*
X82750000Y-49500000D02*
X80675000Y-49500000D01*
D20*
X90706684Y-46986684D02*
X90706684Y-45053316D01*
X99357222Y-43270000D02*
X100537222Y-44450000D01*
X92490000Y-43270000D02*
X99357222Y-43270000D01*
X100537222Y-44450000D02*
X102000000Y-44450000D01*
X90706684Y-45053316D02*
X92490000Y-43270000D01*
X102000000Y-45100000D02*
X100506986Y-45100000D01*
X100506986Y-45100000D02*
X99426986Y-44020000D01*
X99426986Y-44020000D02*
X95990000Y-44020000D01*
X93490000Y-46520000D02*
X92240000Y-46520000D01*
X95990000Y-44020000D02*
X93490000Y-46520000D01*
X99201178Y-44770000D02*
X100181178Y-45750000D01*
X96490000Y-44770000D02*
X99201178Y-44770000D01*
X91490000Y-47520000D02*
X93740000Y-47520000D01*
X100181178Y-45750000D02*
X102000000Y-45750000D01*
X93740000Y-47520000D02*
X96490000Y-44770000D01*
X99490000Y-40520000D02*
X100820000Y-41850000D01*
X100820000Y-41850000D02*
X102000000Y-41850000D01*
X99250236Y-48350000D02*
X99170236Y-48270000D01*
X88990000Y-48270000D02*
X86740000Y-50520000D01*
X102000000Y-48350000D02*
X99250236Y-48350000D01*
X99170236Y-48270000D02*
X88990000Y-48270000D01*
X99490000Y-39520000D02*
X100320000Y-39520000D01*
X100320000Y-39520000D02*
X102000000Y-41200000D01*
X99220000Y-49000000D02*
X99028000Y-48808000D01*
X89452000Y-48808000D02*
X87740000Y-50520000D01*
X99028000Y-48808000D02*
X89452000Y-48808000D01*
X102000000Y-49000000D02*
X99220000Y-49000000D01*
D21*
X82155000Y-45000000D02*
X82175000Y-45020000D01*
X80675000Y-45000000D02*
X80675000Y-43835000D01*
D20*
X105490000Y-45520000D02*
X104339997Y-45520000D01*
D21*
X80675000Y-45000000D02*
X81445000Y-45000000D01*
X80675000Y-44585000D02*
X81490000Y-43770000D01*
X80675000Y-45000000D02*
X80675000Y-44455000D01*
D20*
X103699000Y-47050000D02*
X104240000Y-46509000D01*
D21*
X80675000Y-44455000D02*
X79990000Y-43770000D01*
X81445000Y-45000000D02*
X82175000Y-44270000D01*
X80675000Y-43835000D02*
X80740000Y-43770000D01*
D20*
X102000000Y-47050000D02*
X103699000Y-47050000D01*
X104240000Y-46509000D02*
X104240000Y-45619997D01*
D21*
X80675000Y-45000000D02*
X80675000Y-44585000D01*
X80675000Y-45000000D02*
X82155000Y-45000000D01*
X80675000Y-45000000D02*
X81405000Y-45000000D01*
X81405000Y-45000000D02*
X82175000Y-45770000D01*
D20*
X104339997Y-45520000D02*
X104240000Y-45619997D01*
D21*
X81405000Y-51270000D02*
X80675000Y-52000000D01*
X81445000Y-52770000D02*
X80675000Y-52000000D01*
X80695000Y-52020000D02*
X80675000Y-52000000D01*
X80675000Y-53270000D02*
X80675000Y-52000000D01*
X82240000Y-52770000D02*
X81445000Y-52770000D01*
X81425000Y-52750000D02*
X80675000Y-52000000D01*
X82240000Y-52020000D02*
X80695000Y-52020000D01*
X79925000Y-52750000D02*
X80675000Y-52000000D01*
X82240000Y-51270000D02*
X81405000Y-51270000D01*
X81425000Y-53270000D02*
X81425000Y-52750000D01*
X79925000Y-53270000D02*
X79925000Y-52750000D01*
D20*
X95466296Y-53094000D02*
X96934000Y-53094000D01*
X96934000Y-53094000D02*
X97750000Y-53910000D01*
X94240000Y-50270000D02*
X95059000Y-51089000D01*
X95059000Y-52686704D02*
X95466296Y-53094000D01*
X90990000Y-51020000D02*
X90990000Y-50961000D01*
X91681000Y-50270000D02*
X94240000Y-50270000D01*
X90990000Y-50961000D02*
X91681000Y-50270000D01*
X95059000Y-51089000D02*
X95059000Y-52686704D01*
X103862625Y-47700000D02*
X102000000Y-47700000D01*
X100629836Y-46369000D02*
X100240000Y-46758836D01*
X100670000Y-47700000D02*
X100240000Y-47270000D01*
X101969000Y-46369000D02*
X100629836Y-46369000D01*
X99137557Y-45682185D02*
X99163349Y-45682185D01*
X97750000Y-51780000D02*
X97750000Y-52250000D01*
X105002625Y-46560000D02*
X103862625Y-47700000D01*
X95750000Y-51760000D02*
X95931000Y-51579000D01*
X95750000Y-52250000D02*
X95750000Y-51760000D01*
X98990000Y-53490000D02*
X97750000Y-52250000D01*
X102000000Y-47700000D02*
X100670000Y-47700000D01*
X99163349Y-45682185D02*
X100240000Y-46758836D01*
X95931000Y-51579000D02*
X97549000Y-51579000D01*
X97549000Y-51579000D02*
X97750000Y-51780000D01*
X102000000Y-46400000D02*
X101969000Y-46369000D01*
X98990000Y-54520000D02*
X98990000Y-53490000D01*
X100240000Y-47270000D02*
X100240000Y-46758836D01*
X106740000Y-46770000D02*
X106740000Y-45020000D01*
X104059000Y-50036222D02*
X104463778Y-50441000D01*
X104463778Y-50441000D02*
X105036222Y-50441000D01*
X106740000Y-45020000D02*
X104870000Y-43150000D01*
X105036222Y-50441000D02*
X105441000Y-50036222D01*
X104112896Y-49114309D02*
X104059000Y-49168205D01*
X105441000Y-50036222D02*
X105441000Y-48069000D01*
X104059000Y-49168205D02*
X104059000Y-50036222D01*
X105441000Y-48069000D02*
X106740000Y-46770000D01*
X104870000Y-43150000D02*
X102000000Y-43150000D01*
X91990000Y-50961000D02*
X93372061Y-50961000D01*
X94490000Y-52078939D02*
X94490000Y-54770000D01*
X94490000Y-54770000D02*
X95240000Y-55520000D01*
X97750000Y-56500000D02*
X98018659Y-56500000D01*
X96770000Y-55520000D02*
X97750000Y-56500000D01*
X93372061Y-50961000D02*
X94490000Y-52078939D01*
X95240000Y-55520000D02*
X96770000Y-55520000D01*
X106240000Y-45270000D02*
X104770000Y-43800000D01*
X100770000Y-43800000D02*
X102000000Y-43800000D01*
X104803896Y-49696104D02*
X104803896Y-47956104D01*
X104750000Y-49750000D02*
X104803896Y-49696104D01*
X106240000Y-46520000D02*
X106240000Y-45270000D01*
X99490000Y-42520000D02*
X100770000Y-43800000D01*
X104770000Y-43800000D02*
X102000000Y-43800000D01*
X104803896Y-47956104D02*
X106240000Y-46520000D01*
X98759000Y-49289000D02*
X90203778Y-49289000D01*
X99120000Y-49650000D02*
X98759000Y-49289000D01*
X88990000Y-50502778D02*
X88990000Y-50532096D01*
X90203778Y-49289000D02*
X88990000Y-50502778D01*
X102000000Y-49650000D02*
X99120000Y-49650000D01*
X100950000Y-42520000D02*
X100970000Y-42500000D01*
X99514191Y-41520000D02*
X100514191Y-42520000D01*
X100970000Y-42500000D02*
X102000000Y-42500000D01*
X100514191Y-42520000D02*
X100950000Y-42520000D01*
X99020000Y-50300000D02*
X102000000Y-50300000D01*
X98490000Y-49770000D02*
X99020000Y-50300000D01*
X90700000Y-49770000D02*
X98490000Y-49770000D01*
X89950000Y-50520000D02*
X90700000Y-49770000D01*
D21*
X101740000Y-56500000D02*
X100400000Y-56500000D01*
X107600000Y-56500000D02*
X101740000Y-56500000D01*
X93100000Y-56500000D02*
X85900000Y-56500000D01*
D20*
X85900000Y-56430000D02*
X84490000Y-55020000D01*
X85900000Y-56500000D02*
X85900000Y-56430000D01*
X97820000Y-55120000D02*
X98890000Y-56190000D01*
X97210000Y-55120000D02*
X97820000Y-55120000D01*
X96000000Y-53910000D02*
X97210000Y-55120000D01*
X96000000Y-56853790D02*
X96000000Y-56500000D01*
X96175000Y-57028790D02*
X96000000Y-56853790D01*
X96175000Y-57235000D02*
X96175000Y-57028790D01*
G04 #@! TA.AperFunction,Conductor*
G36*
X81746061Y-43270597D02*
G01*
X81922941Y-43288018D01*
X81946769Y-43292757D01*
X82111001Y-43342576D01*
X82133453Y-43351877D01*
X82222554Y-43399502D01*
X82284798Y-43432772D01*
X82305010Y-43446277D01*
X82437666Y-43555145D01*
X82454854Y-43572333D01*
X82563722Y-43704989D01*
X82577227Y-43725201D01*
X82658121Y-43876543D01*
X82667424Y-43899001D01*
X82717240Y-44063224D01*
X82721982Y-44087065D01*
X82739403Y-44263938D01*
X82740000Y-44276092D01*
X82740000Y-45263907D01*
X82739403Y-45276061D01*
X82721982Y-45452934D01*
X82717240Y-45476775D01*
X82667424Y-45640998D01*
X82658121Y-45663456D01*
X82577227Y-45814798D01*
X82563722Y-45835010D01*
X82454854Y-45967666D01*
X82437666Y-45984854D01*
X82305010Y-46093722D01*
X82284798Y-46107227D01*
X82133456Y-46188121D01*
X82110998Y-46197424D01*
X81946775Y-46247240D01*
X81922934Y-46251982D01*
X81746061Y-46269403D01*
X81733907Y-46270000D01*
X80246093Y-46270000D01*
X80233939Y-46269403D01*
X80057065Y-46251982D01*
X80033224Y-46247240D01*
X79869001Y-46197424D01*
X79846543Y-46188121D01*
X79695201Y-46107227D01*
X79674989Y-46093722D01*
X79542333Y-45984854D01*
X79525145Y-45967666D01*
X79416277Y-45835010D01*
X79402772Y-45814798D01*
X79321878Y-45663456D01*
X79312575Y-45640998D01*
X79262757Y-45476769D01*
X79258018Y-45452941D01*
X79240597Y-45276061D01*
X79240000Y-45263907D01*
X79240000Y-44276092D01*
X79240597Y-44263938D01*
X79258018Y-44087056D01*
X79262757Y-44063232D01*
X79312577Y-43898994D01*
X79321870Y-43876558D01*
X79371625Y-43783473D01*
X79420583Y-43733635D01*
X79442656Y-43724003D01*
X79466639Y-43716211D01*
X79627994Y-43633996D01*
X79774501Y-43527553D01*
X79902553Y-43399501D01*
X79940613Y-43347115D01*
X79958401Y-43333398D01*
X79972961Y-43316289D01*
X79992333Y-43307231D01*
X79995940Y-43304451D01*
X80004923Y-43301344D01*
X80033228Y-43292758D01*
X80057052Y-43288019D01*
X80233939Y-43270597D01*
X80246093Y-43270000D01*
X81733907Y-43270000D01*
X81746061Y-43270597D01*
G37*
G04 #@! TD.AperFunction*
G04 #@! TA.AperFunction,Conductor*
G36*
X87100984Y-55779439D02*
G01*
X87151786Y-55800481D01*
X87241918Y-55837816D01*
X87406228Y-55870499D01*
X87406232Y-55870500D01*
X87406233Y-55870500D01*
X87573768Y-55870500D01*
X87573769Y-55870499D01*
X87738082Y-55837816D01*
X87844033Y-55793929D01*
X87879016Y-55779439D01*
X87926469Y-55770000D01*
X93866000Y-55770000D01*
X93933039Y-55789685D01*
X93978794Y-55842489D01*
X93990000Y-55894000D01*
X93990000Y-56929413D01*
X93970315Y-56996452D01*
X93917511Y-57042207D01*
X93913453Y-57043974D01*
X93787139Y-57096295D01*
X93647837Y-57189373D01*
X93647834Y-57189376D01*
X93603532Y-57233680D01*
X93542209Y-57267166D01*
X93515850Y-57270000D01*
X85114000Y-57270000D01*
X85046961Y-57250315D01*
X85001206Y-57197511D01*
X84990000Y-57146000D01*
X84990000Y-55894000D01*
X85009685Y-55826961D01*
X85062489Y-55781206D01*
X85114000Y-55770000D01*
X87053531Y-55770000D01*
X87100984Y-55779439D01*
G37*
G04 #@! TD.AperFunction*
G04 #@! TA.AperFunction,Conductor*
G36*
X107061359Y-55789685D02*
G01*
X107063211Y-55790898D01*
X107187137Y-55873703D01*
X107341918Y-55937816D01*
X107506228Y-55970499D01*
X107506232Y-55970500D01*
X107506233Y-55970500D01*
X107673768Y-55970500D01*
X107673769Y-55970499D01*
X107838082Y-55937816D01*
X107992863Y-55873703D01*
X108116789Y-55790898D01*
X108134835Y-55785247D01*
X108150745Y-55775023D01*
X108181706Y-55770571D01*
X108183467Y-55770020D01*
X108185680Y-55770000D01*
X108366000Y-55770000D01*
X108433039Y-55789685D01*
X108478794Y-55842489D01*
X108490000Y-55894000D01*
X108490000Y-57146000D01*
X108470315Y-57213039D01*
X108417511Y-57258794D01*
X108366000Y-57270000D01*
X99889876Y-57270000D01*
X99822837Y-57250315D01*
X99777082Y-57197511D01*
X99775315Y-57193454D01*
X99743703Y-57117137D01*
X99650626Y-56977837D01*
X99650623Y-56977834D01*
X99615470Y-56942682D01*
X99581984Y-56881360D01*
X99586968Y-56811668D01*
X99615470Y-56767318D01*
X99650626Y-56732162D01*
X99673661Y-56697688D01*
X99743703Y-56592863D01*
X99807816Y-56438082D01*
X99840500Y-56273767D01*
X99840500Y-56106233D01*
X99807816Y-55941918D01*
X99807623Y-55941453D01*
X99807595Y-55941192D01*
X99806048Y-55936091D01*
X99807015Y-55935797D01*
X99800154Y-55871987D01*
X99831427Y-55809507D01*
X99891515Y-55773853D01*
X99922184Y-55770000D01*
X106994320Y-55770000D01*
X107061359Y-55789685D01*
G37*
G04 #@! TD.AperFunction*
G04 #@! TA.AperFunction,Conductor*
G36*
X90735828Y-51777927D02*
G01*
X90736095Y-51777049D01*
X90741925Y-51778818D01*
X90906228Y-51811499D01*
X90906232Y-51811500D01*
X90906233Y-51811500D01*
X91073768Y-51811500D01*
X91073769Y-51811499D01*
X91128538Y-51800605D01*
X91238074Y-51778818D01*
X91238077Y-51778816D01*
X91238082Y-51778816D01*
X91238085Y-51778814D01*
X91243905Y-51777049D01*
X91244171Y-51777927D01*
X91284030Y-51770000D01*
X91695970Y-51770000D01*
X91735828Y-51777927D01*
X91736095Y-51777049D01*
X91741925Y-51778818D01*
X91906228Y-51811499D01*
X91906232Y-51811500D01*
X91906233Y-51811500D01*
X92073768Y-51811500D01*
X92073769Y-51811499D01*
X92238082Y-51778816D01*
X92238091Y-51778812D01*
X92243912Y-51777047D01*
X92244179Y-51777928D01*
X92284031Y-51770000D01*
X93223895Y-51770000D01*
X93290934Y-51789685D01*
X93311576Y-51806319D01*
X93813181Y-52307924D01*
X93846666Y-52369247D01*
X93849500Y-52395605D01*
X93849500Y-54146000D01*
X93829815Y-54213039D01*
X93777011Y-54258794D01*
X93725500Y-54270000D01*
X92242151Y-54270000D01*
X92175112Y-54250315D01*
X92129357Y-54197511D01*
X92119413Y-54128353D01*
X92147291Y-54067307D01*
X92146761Y-54066872D01*
X92148405Y-54064868D01*
X92148438Y-54064797D01*
X92148656Y-54064562D01*
X92150626Y-54062162D01*
X92243703Y-53922863D01*
X92307816Y-53768082D01*
X92340500Y-53603767D01*
X92340500Y-53436233D01*
X92307816Y-53271918D01*
X92243703Y-53117137D01*
X92212537Y-53070494D01*
X92150626Y-52977837D01*
X92032162Y-52859373D01*
X91892860Y-52766295D01*
X91738082Y-52702184D01*
X91738074Y-52702182D01*
X91573771Y-52669500D01*
X91573767Y-52669500D01*
X91406233Y-52669500D01*
X91406228Y-52669500D01*
X91241925Y-52702182D01*
X91241913Y-52702185D01*
X91162452Y-52735099D01*
X91092983Y-52742568D01*
X91067548Y-52735099D01*
X90988086Y-52702185D01*
X90988074Y-52702182D01*
X90823771Y-52669500D01*
X90823767Y-52669500D01*
X90656233Y-52669500D01*
X90656228Y-52669500D01*
X90491925Y-52702182D01*
X90491917Y-52702184D01*
X90337139Y-52766295D01*
X90197837Y-52859373D01*
X90079373Y-52977837D01*
X89986295Y-53117139D01*
X89922184Y-53271917D01*
X89922182Y-53271925D01*
X89889500Y-53436228D01*
X89889500Y-53603771D01*
X89922182Y-53768074D01*
X89922184Y-53768082D01*
X89986295Y-53922860D01*
X90079373Y-54062162D01*
X90083239Y-54066872D01*
X90081140Y-54068594D01*
X90109015Y-54119642D01*
X90104031Y-54189334D01*
X90062159Y-54245267D01*
X89996695Y-54269684D01*
X89987849Y-54270000D01*
X87926469Y-54270000D01*
X87879016Y-54260561D01*
X87738082Y-54202184D01*
X87738074Y-54202182D01*
X87573771Y-54169500D01*
X87573767Y-54169500D01*
X87406233Y-54169500D01*
X87406228Y-54169500D01*
X87241925Y-54202182D01*
X87241917Y-54202184D01*
X87100984Y-54260561D01*
X87053531Y-54270000D01*
X85114000Y-54270000D01*
X85046961Y-54250315D01*
X85001206Y-54197511D01*
X84990000Y-54146000D01*
X84990000Y-51894000D01*
X85009685Y-51826961D01*
X85062489Y-51781206D01*
X85114000Y-51770000D01*
X90695970Y-51770000D01*
X90735828Y-51777927D01*
G37*
G04 #@! TD.AperFunction*
G04 #@! TA.AperFunction,Conductor*
G36*
X108433039Y-52789685D02*
G01*
X108478794Y-52842489D01*
X108490000Y-52894000D01*
X108490000Y-54146000D01*
X108470315Y-54213039D01*
X108417511Y-54258794D01*
X108366000Y-54270000D01*
X107676281Y-54270000D01*
X107673767Y-54269500D01*
X107506233Y-54269500D01*
X107503719Y-54270000D01*
X99895799Y-54270000D01*
X99828760Y-54250315D01*
X99783005Y-54197511D01*
X99777879Y-54184352D01*
X99765405Y-54146000D01*
X99636580Y-53749907D01*
X99630500Y-53711555D01*
X99630500Y-53426913D01*
X99630499Y-53426911D01*
X99605887Y-53303180D01*
X99605886Y-53303173D01*
X99605884Y-53303168D01*
X99557605Y-53186611D01*
X99557603Y-53186607D01*
X99510898Y-53116708D01*
X99505247Y-53098663D01*
X99495023Y-53082753D01*
X99490571Y-53051791D01*
X99490020Y-53050031D01*
X99490000Y-53047818D01*
X99490000Y-52894000D01*
X99509685Y-52826961D01*
X99562489Y-52781206D01*
X99614000Y-52770000D01*
X108366000Y-52770000D01*
X108433039Y-52789685D01*
G37*
G04 #@! TD.AperFunction*
G04 #@! TA.AperFunction,Conductor*
G36*
X81746061Y-50770597D02*
G01*
X81922941Y-50788018D01*
X81946769Y-50792757D01*
X82111001Y-50842576D01*
X82133453Y-50851877D01*
X82284798Y-50932772D01*
X82305010Y-50946277D01*
X82437666Y-51055145D01*
X82454854Y-51072333D01*
X82563722Y-51204989D01*
X82577227Y-51225201D01*
X82658121Y-51376543D01*
X82667424Y-51399001D01*
X82717240Y-51563224D01*
X82721982Y-51587065D01*
X82739403Y-51763938D01*
X82740000Y-51776092D01*
X82740000Y-52763907D01*
X82739403Y-52776061D01*
X82721982Y-52952934D01*
X82717240Y-52976775D01*
X82667424Y-53140998D01*
X82658121Y-53163456D01*
X82577227Y-53314798D01*
X82563722Y-53335010D01*
X82454854Y-53467666D01*
X82437666Y-53484854D01*
X82305010Y-53593722D01*
X82284798Y-53607227D01*
X82133456Y-53688121D01*
X82110998Y-53697424D01*
X81946775Y-53747240D01*
X81922934Y-53751982D01*
X81746061Y-53769403D01*
X81733907Y-53770000D01*
X80246093Y-53770000D01*
X80233939Y-53769403D01*
X80210926Y-53767136D01*
X80064611Y-53752725D01*
X79999824Y-53726564D01*
X79976450Y-53702210D01*
X79902553Y-53600499D01*
X79774501Y-53472447D01*
X79774499Y-53472445D01*
X79774494Y-53472441D01*
X79627997Y-53366006D01*
X79627996Y-53366005D01*
X79627994Y-53366004D01*
X79567165Y-53335010D01*
X79466639Y-53283788D01*
X79466636Y-53283787D01*
X79416788Y-53267591D01*
X79392426Y-53250932D01*
X79366646Y-53236556D01*
X79361844Y-53230021D01*
X79359112Y-53228153D01*
X79345748Y-53208114D01*
X79321877Y-53163453D01*
X79312575Y-53140998D01*
X79262757Y-52976769D01*
X79258018Y-52952941D01*
X79240597Y-52776061D01*
X79240000Y-52763907D01*
X79240000Y-51776092D01*
X79240597Y-51763938D01*
X79258018Y-51587056D01*
X79262757Y-51563232D01*
X79312577Y-51398994D01*
X79321875Y-51376549D01*
X79402775Y-51225195D01*
X79416272Y-51204995D01*
X79525149Y-51072328D01*
X79542328Y-51055149D01*
X79674995Y-50946272D01*
X79695195Y-50932775D01*
X79846549Y-50851875D01*
X79868994Y-50842577D01*
X80033232Y-50792757D01*
X80057056Y-50788018D01*
X80233939Y-50770597D01*
X80246093Y-50770000D01*
X81733907Y-50770000D01*
X81746061Y-50770597D01*
G37*
G04 #@! TD.AperFunction*
G04 #@! TA.AperFunction,Conductor*
G36*
X82678525Y-47161149D02*
G01*
X82684011Y-47168226D01*
X82684194Y-47168995D01*
X82750532Y-47497685D01*
X82750532Y-47502315D01*
X82684194Y-47831004D01*
X82679198Y-47838435D01*
X82670410Y-47840158D01*
X82669641Y-47839975D01*
X82065341Y-47674854D01*
X82058264Y-47669368D01*
X82056725Y-47663568D01*
X82056725Y-47336431D01*
X82060152Y-47328158D01*
X82065338Y-47325146D01*
X82669643Y-47160024D01*
X82678525Y-47161149D01*
G37*
G04 #@! TD.AperFunction*
G04 #@! TA.AperFunction,Conductor*
G36*
X82678525Y-49161149D02*
G01*
X82684011Y-49168226D01*
X82684194Y-49168995D01*
X82750532Y-49497685D01*
X82750532Y-49502315D01*
X82684194Y-49831004D01*
X82679198Y-49838435D01*
X82670410Y-49840158D01*
X82669641Y-49839975D01*
X82065341Y-49674854D01*
X82058264Y-49669368D01*
X82056725Y-49663568D01*
X82056725Y-49336431D01*
X82060152Y-49328158D01*
X82065338Y-49325146D01*
X82669643Y-49160024D01*
X82678525Y-49161149D01*
G37*
G04 #@! TD.AperFunction*
G04 #@! TA.AperFunction,Conductor*
G36*
X90846459Y-46296836D02*
G01*
X90849312Y-46301490D01*
X91045896Y-46905912D01*
X91045196Y-46914840D01*
X91038389Y-46920657D01*
X91037085Y-46921000D01*
X90708999Y-46987216D01*
X90704369Y-46987216D01*
X90376282Y-46921000D01*
X90368851Y-46916004D01*
X90367128Y-46907216D01*
X90367471Y-46905912D01*
X90564056Y-46301490D01*
X90569873Y-46294683D01*
X90575182Y-46293409D01*
X90838186Y-46293409D01*
X90846459Y-46296836D01*
G37*
G04 #@! TD.AperFunction*
G04 #@! TA.AperFunction,Conductor*
G36*
X92320771Y-46180787D02*
G01*
X92925195Y-46377372D01*
X92932001Y-46383188D01*
X92933275Y-46388497D01*
X92933275Y-46651502D01*
X92929848Y-46659775D01*
X92925194Y-46662628D01*
X92320771Y-46859212D01*
X92311843Y-46858512D01*
X92306026Y-46851705D01*
X92305685Y-46850412D01*
X92239467Y-46522313D01*
X92239467Y-46517685D01*
X92305684Y-46189596D01*
X92310679Y-46182167D01*
X92319467Y-46180444D01*
X92320771Y-46180787D01*
G37*
G04 #@! TD.AperFunction*
G04 #@! TA.AperFunction,Conductor*
G36*
X91570771Y-47180787D02*
G01*
X92175195Y-47377372D01*
X92182001Y-47383188D01*
X92183275Y-47388497D01*
X92183275Y-47651502D01*
X92179848Y-47659775D01*
X92175194Y-47662628D01*
X91570771Y-47859212D01*
X91561843Y-47858512D01*
X91556026Y-47851705D01*
X91555685Y-47850412D01*
X91489467Y-47522313D01*
X91489467Y-47517685D01*
X91555684Y-47189596D01*
X91560679Y-47182167D01*
X91569467Y-47180444D01*
X91570771Y-47180787D01*
G37*
G04 #@! TD.AperFunction*
G04 #@! TA.AperFunction,Conductor*
G36*
X99786292Y-40336088D02*
G01*
X99786972Y-40337252D01*
X100028191Y-40811014D01*
X100075358Y-40903650D01*
X100076058Y-40912578D01*
X100073205Y-40917232D01*
X99889849Y-41100588D01*
X99881576Y-41104015D01*
X99873303Y-41100588D01*
X99852207Y-41079492D01*
X99852202Y-41079488D01*
X99726678Y-41007016D01*
X99726674Y-41007014D01*
X99630398Y-40981218D01*
X99628117Y-40980343D01*
X99492365Y-40911224D01*
X99307252Y-40816972D01*
X99301435Y-40810165D01*
X99302135Y-40801237D01*
X99302805Y-40800089D01*
X99487989Y-40521255D01*
X99491255Y-40517989D01*
X99770075Y-40332814D01*
X99778861Y-40331092D01*
X99786292Y-40336088D01*
G37*
G04 #@! TD.AperFunction*
G04 #@! TA.AperFunction,Conductor*
G36*
X87137232Y-49936794D02*
G01*
X87323205Y-50122767D01*
X87326632Y-50131040D01*
X87325358Y-50136349D01*
X87305692Y-50174972D01*
X87303540Y-50177935D01*
X87299490Y-50181985D01*
X87227016Y-50307512D01*
X87227014Y-50307516D01*
X87214901Y-50352726D01*
X87214026Y-50355007D01*
X87036972Y-50702747D01*
X87030165Y-50708564D01*
X87021237Y-50707864D01*
X87020077Y-50707186D01*
X86741258Y-50522012D01*
X86737987Y-50518741D01*
X86552814Y-50239924D01*
X86551092Y-50231138D01*
X86556088Y-50223707D01*
X86557240Y-50223033D01*
X87123653Y-49934640D01*
X87132578Y-49933941D01*
X87137232Y-49936794D01*
G37*
G04 #@! TD.AperFunction*
G04 #@! TA.AperFunction,Conductor*
G36*
X99570771Y-39180787D02*
G01*
X100175195Y-39377372D01*
X100182001Y-39383188D01*
X100183275Y-39388497D01*
X100183275Y-39651502D01*
X100179848Y-39659775D01*
X100175194Y-39662628D01*
X99570771Y-39859212D01*
X99561843Y-39858512D01*
X99556026Y-39851705D01*
X99555685Y-39850412D01*
X99489467Y-39522313D01*
X99489467Y-39517685D01*
X99555684Y-39189596D01*
X99560679Y-39182167D01*
X99569467Y-39180444D01*
X99570771Y-39180787D01*
G37*
G04 #@! TD.AperFunction*
G04 #@! TA.AperFunction,Conductor*
G36*
X88137232Y-49936794D02*
G01*
X88323205Y-50122767D01*
X88326632Y-50131040D01*
X88325358Y-50136349D01*
X88036972Y-50702747D01*
X88030165Y-50708564D01*
X88021237Y-50707864D01*
X88020077Y-50707186D01*
X87741258Y-50522012D01*
X87737987Y-50518741D01*
X87552814Y-50239924D01*
X87551092Y-50231138D01*
X87556088Y-50223707D01*
X87557240Y-50223033D01*
X88123653Y-49934640D01*
X88132578Y-49933941D01*
X88137232Y-49936794D01*
G37*
G04 #@! TD.AperFunction*
G04 #@! TA.AperFunction,Conductor*
G36*
X81083275Y-43838282D02*
G01*
X80925000Y-44463275D01*
X80425000Y-44463275D01*
X80396725Y-43838282D01*
X80740000Y-43769000D01*
X81083275Y-43838282D01*
G37*
G04 #@! TD.AperFunction*
G04 #@! TA.AperFunction,Conductor*
G36*
X104910386Y-45378354D02*
G01*
X104917973Y-45383109D01*
X104920138Y-45389890D01*
X104920138Y-45652876D01*
X104916711Y-45661149D01*
X104913810Y-45663270D01*
X104443718Y-45906221D01*
X104434795Y-45906975D01*
X104428633Y-45902350D01*
X104266638Y-45661149D01*
X104241720Y-45624048D01*
X104239953Y-45615273D01*
X104306040Y-45287829D01*
X104311036Y-45280399D01*
X104319455Y-45278608D01*
X104910386Y-45378354D01*
G37*
G04 #@! TD.AperFunction*
G04 #@! TA.AperFunction,Conductor*
G36*
X105418156Y-45181487D02*
G01*
X105423973Y-45188294D01*
X105424316Y-45189598D01*
X105490532Y-45517685D01*
X105490532Y-45522315D01*
X105424316Y-45850401D01*
X105419320Y-45857832D01*
X105410532Y-45859555D01*
X105409228Y-45859212D01*
X104804806Y-45662628D01*
X104797999Y-45656811D01*
X104796725Y-45651502D01*
X104796725Y-45388497D01*
X104800152Y-45380224D01*
X104804803Y-45377372D01*
X105409228Y-45180787D01*
X105418156Y-45181487D01*
G37*
G04 #@! TD.AperFunction*
G04 #@! TA.AperFunction,Conductor*
G36*
X81490707Y-43769293D02*
G01*
X81684450Y-44061014D01*
X81176558Y-44436996D01*
X80823004Y-44083442D01*
X81198986Y-43575550D01*
X81490707Y-43769293D01*
G37*
G04 #@! TD.AperFunction*
G04 #@! TA.AperFunction,Conductor*
G36*
X80656996Y-44083442D02*
G01*
X80303442Y-44436996D01*
X79795550Y-44061014D01*
X79989293Y-43769293D01*
X80281014Y-43575550D01*
X80656996Y-44083442D01*
G37*
G04 #@! TD.AperFunction*
G04 #@! TA.AperFunction,Conductor*
G36*
X82175707Y-44269293D02*
G01*
X82369450Y-44561014D01*
X81861558Y-44936996D01*
X81508004Y-44583442D01*
X81883986Y-44075550D01*
X82175707Y-44269293D01*
G37*
G04 #@! TD.AperFunction*
G04 #@! TA.AperFunction,Conductor*
G36*
X104570402Y-45685680D02*
G01*
X104577832Y-45690676D01*
X104579555Y-45699464D01*
X104579212Y-45700768D01*
X104382628Y-46305191D01*
X104376811Y-46311998D01*
X104371502Y-46313272D01*
X104108498Y-46313272D01*
X104100225Y-46309845D01*
X104097372Y-46305191D01*
X103900787Y-45700768D01*
X103901487Y-45691840D01*
X103908294Y-45686023D01*
X103909583Y-45685683D01*
X104237686Y-45619464D01*
X104242314Y-45619464D01*
X104570402Y-45685680D01*
G37*
G04 #@! TD.AperFunction*
G04 #@! TA.AperFunction,Conductor*
G36*
X82176000Y-45020000D02*
G01*
X82106718Y-45363275D01*
X81481725Y-45250000D01*
X81481725Y-44750000D01*
X82106718Y-44676725D01*
X82176000Y-45020000D01*
G37*
G04 #@! TD.AperFunction*
G04 #@! TA.AperFunction,Conductor*
G36*
X82369450Y-45478986D02*
G01*
X82175707Y-45770707D01*
X81883986Y-45964450D01*
X81508004Y-45456558D01*
X81861558Y-45103004D01*
X82369450Y-45478986D01*
G37*
G04 #@! TD.AperFunction*
G04 #@! TA.AperFunction,Conductor*
G36*
X81018275Y-53201718D02*
G01*
X80675000Y-53271000D01*
X80331725Y-53201718D01*
X80425000Y-52576725D01*
X80925000Y-52576725D01*
X81018275Y-53201718D01*
G37*
G04 #@! TD.AperFunction*
G04 #@! TA.AperFunction,Conductor*
G36*
X82241000Y-52770000D02*
G01*
X82171718Y-53113275D01*
X81546725Y-53020000D01*
X81546725Y-52520000D01*
X82171718Y-52426725D01*
X82241000Y-52770000D01*
G37*
G04 #@! TD.AperFunction*
G04 #@! TA.AperFunction,Conductor*
G36*
X82241000Y-52020000D02*
G01*
X82171718Y-52363275D01*
X81546725Y-52270000D01*
X81546725Y-51770000D01*
X82171718Y-51676725D01*
X82241000Y-52020000D01*
G37*
G04 #@! TD.AperFunction*
G04 #@! TA.AperFunction,Conductor*
G36*
X82241000Y-51270000D02*
G01*
X82171718Y-51613275D01*
X81546725Y-51520000D01*
X81546725Y-51020000D01*
X82171718Y-50926725D01*
X82241000Y-51270000D01*
G37*
G04 #@! TD.AperFunction*
G04 #@! TA.AperFunction,Conductor*
G36*
X81768275Y-53201718D02*
G01*
X81425707Y-53270707D01*
X81081725Y-53201718D01*
X81125700Y-52804252D01*
X81479252Y-52450700D01*
X81768275Y-53201718D01*
G37*
G04 #@! TD.AperFunction*
G04 #@! TA.AperFunction,Conductor*
G36*
X80224300Y-52804252D02*
G01*
X80268275Y-53201718D01*
X79924293Y-53270707D01*
X79581725Y-53201718D01*
X79870748Y-52450700D01*
X80224300Y-52804252D01*
G37*
G04 #@! TD.AperFunction*
G04 #@! TA.AperFunction,Conductor*
G36*
X91387232Y-50377794D02*
G01*
X91573205Y-50563767D01*
X91576632Y-50572040D01*
X91575358Y-50577349D01*
X91555692Y-50615972D01*
X91553540Y-50618935D01*
X91549490Y-50622985D01*
X91477016Y-50748512D01*
X91477014Y-50748516D01*
X91464901Y-50793726D01*
X91464026Y-50796007D01*
X91286972Y-51143747D01*
X91280165Y-51149564D01*
X91271237Y-51148864D01*
X91270077Y-51148186D01*
X90991258Y-50963012D01*
X90987987Y-50959741D01*
X90802814Y-50680924D01*
X90801092Y-50672138D01*
X90806088Y-50664707D01*
X90807240Y-50664033D01*
X91373653Y-50375640D01*
X91382578Y-50374941D01*
X91387232Y-50377794D01*
G37*
G04 #@! TD.AperFunction*
G04 #@! TA.AperFunction,Conductor*
G36*
X97697501Y-51533286D02*
G01*
X97699006Y-51535133D01*
X98034655Y-52045874D01*
X98036334Y-52054670D01*
X98031404Y-52062010D01*
X97754754Y-52247986D01*
X97745977Y-52249758D01*
X97745926Y-52249748D01*
X97418053Y-52183990D01*
X97410616Y-52179003D01*
X97408855Y-52170361D01*
X97429180Y-52062010D01*
X97492459Y-51724670D01*
X97495682Y-51718559D01*
X97680956Y-51533285D01*
X97689228Y-51529859D01*
X97697501Y-51533286D01*
G37*
G04 #@! TD.AperFunction*
G04 #@! TA.AperFunction,Conductor*
G36*
X104721387Y-46372135D02*
G01*
X104722542Y-46372810D01*
X105001366Y-46557987D01*
X105004638Y-46561259D01*
X105189809Y-46840073D01*
X105191532Y-46848861D01*
X105186536Y-46856292D01*
X105185372Y-46856972D01*
X104618974Y-47145358D01*
X104610046Y-47146058D01*
X104605392Y-47143205D01*
X104419419Y-46957232D01*
X104415992Y-46948959D01*
X104417264Y-46943655D01*
X104705653Y-46377250D01*
X104712459Y-46371435D01*
X104721387Y-46372135D01*
G37*
G04 #@! TD.AperFunction*
G04 #@! TA.AperFunction,Conductor*
G36*
X95803070Y-51526023D02*
G01*
X95805151Y-51527677D01*
X95990294Y-51712820D01*
X95993458Y-51718628D01*
X96090774Y-52170114D01*
X96089168Y-52178923D01*
X96081802Y-52184016D01*
X96081638Y-52184051D01*
X95754073Y-52249748D01*
X95745287Y-52248014D01*
X95745245Y-52247986D01*
X95468370Y-52061858D01*
X95463415Y-52054398D01*
X95464970Y-52045956D01*
X95669143Y-51718628D01*
X95786951Y-51529757D01*
X95794237Y-51524552D01*
X95803070Y-51526023D01*
G37*
G04 #@! TD.AperFunction*
G04 #@! TA.AperFunction,Conductor*
G36*
X98046292Y-52066088D02*
G01*
X98046972Y-52067252D01*
X98288191Y-52541014D01*
X98335358Y-52633650D01*
X98336058Y-52642578D01*
X98333205Y-52647232D01*
X98147232Y-52833205D01*
X98138959Y-52836632D01*
X98133651Y-52835358D01*
X97567252Y-52546972D01*
X97561435Y-52540165D01*
X97562135Y-52531237D01*
X97562805Y-52530089D01*
X97747989Y-52251255D01*
X97751255Y-52247989D01*
X98030075Y-52062814D01*
X98038861Y-52061092D01*
X98046292Y-52066088D01*
G37*
G04 #@! TD.AperFunction*
G04 #@! TA.AperFunction,Conductor*
G36*
X99434138Y-45498081D02*
G01*
X99434673Y-45498970D01*
X99735496Y-46052834D01*
X99736434Y-46061739D01*
X99733488Y-46066691D01*
X99547522Y-46252657D01*
X99539249Y-46256084D01*
X99534215Y-46254946D01*
X98955279Y-45979000D01*
X98949285Y-45972347D01*
X98949751Y-45963404D01*
X98950561Y-45961974D01*
X99135546Y-45683440D01*
X99138812Y-45680174D01*
X99417921Y-45494807D01*
X99426707Y-45493085D01*
X99434138Y-45498081D01*
G37*
G04 #@! TD.AperFunction*
G04 #@! TA.AperFunction,Conductor*
G36*
X99129775Y-53830152D02*
G01*
X99132628Y-53834806D01*
X99329212Y-54439228D01*
X99328512Y-54448156D01*
X99321705Y-54453973D01*
X99320401Y-54454316D01*
X98992315Y-54520532D01*
X98987685Y-54520532D01*
X98659598Y-54454316D01*
X98652167Y-54449320D01*
X98650444Y-54440532D01*
X98650787Y-54439228D01*
X98847372Y-53834806D01*
X98853189Y-53827999D01*
X98858498Y-53826725D01*
X99121502Y-53826725D01*
X99129775Y-53830152D01*
G37*
G04 #@! TD.AperFunction*
G04 #@! TA.AperFunction,Conductor*
G36*
X104442269Y-49179785D02*
G01*
X104449700Y-49184781D01*
X104451423Y-49193569D01*
X104450774Y-49195706D01*
X104399229Y-49320971D01*
X104396682Y-49324792D01*
X104309492Y-49411983D01*
X104309488Y-49411988D01*
X104237016Y-49537512D01*
X104237014Y-49537516D01*
X104199500Y-49677522D01*
X104199500Y-49795884D01*
X104196073Y-49804157D01*
X104187800Y-49807584D01*
X103928233Y-49807584D01*
X103919960Y-49804157D01*
X103916854Y-49798604D01*
X103772439Y-49194381D01*
X103773848Y-49185538D01*
X103781098Y-49180282D01*
X103781459Y-49180201D01*
X104110582Y-49113776D01*
X104115210Y-49113776D01*
X104442269Y-49179785D01*
G37*
G04 #@! TD.AperFunction*
G04 #@! TA.AperFunction,Conductor*
G36*
X92070771Y-50621787D02*
G01*
X92675195Y-50818372D01*
X92682001Y-50824188D01*
X92683275Y-50829497D01*
X92683275Y-51092502D01*
X92679848Y-51100775D01*
X92675194Y-51103628D01*
X92070771Y-51300212D01*
X92061843Y-51299512D01*
X92056026Y-51292705D01*
X92055685Y-51291412D01*
X91989467Y-50963313D01*
X91989467Y-50958685D01*
X92055684Y-50630596D01*
X92060679Y-50623167D01*
X92069467Y-50621444D01*
X92070771Y-50621787D01*
G37*
G04 #@! TD.AperFunction*
G04 #@! TA.AperFunction,Conductor*
G36*
X104942936Y-49060152D02*
G01*
X104946042Y-49065705D01*
X105090456Y-49669927D01*
X105089047Y-49678770D01*
X105081797Y-49684026D01*
X105081392Y-49684116D01*
X104752315Y-49750532D01*
X104747685Y-49750532D01*
X104423108Y-49685024D01*
X104422782Y-49684805D01*
X104422395Y-49684856D01*
X104419113Y-49682338D01*
X104415677Y-49680028D01*
X104415601Y-49679644D01*
X104415290Y-49679405D01*
X104414749Y-49675298D01*
X104413954Y-49671240D01*
X104414112Y-49670565D01*
X104419146Y-49651779D01*
X104419616Y-49650388D01*
X104445322Y-49587914D01*
X104445996Y-49586546D01*
X104473160Y-49539496D01*
X104475012Y-49537082D01*
X104541994Y-49470101D01*
X104567675Y-49438773D01*
X104570222Y-49434952D01*
X104589269Y-49399170D01*
X104601815Y-49368677D01*
X104602496Y-49367294D01*
X104625880Y-49326794D01*
X104638433Y-49279939D01*
X104638911Y-49278526D01*
X104640814Y-49273905D01*
X104647406Y-49255423D01*
X104648055Y-49253286D01*
X104650268Y-49245444D01*
X104650562Y-49235878D01*
X104650954Y-49233214D01*
X104663396Y-49186784D01*
X104663396Y-49068425D01*
X104666823Y-49060152D01*
X104675096Y-49056725D01*
X104934663Y-49056725D01*
X104942936Y-49060152D01*
G37*
G04 #@! TD.AperFunction*
G04 #@! TA.AperFunction,Conductor*
G36*
X99786292Y-42336088D02*
G01*
X99786972Y-42337252D01*
X100028191Y-42811014D01*
X100075358Y-42903650D01*
X100076058Y-42912578D01*
X100073205Y-42917232D01*
X99887232Y-43103205D01*
X99878959Y-43106632D01*
X99873651Y-43105358D01*
X99307252Y-42816972D01*
X99301435Y-42810165D01*
X99302135Y-42801237D01*
X99302805Y-42800089D01*
X99487989Y-42521255D01*
X99491255Y-42517989D01*
X99770075Y-42332814D01*
X99778861Y-42331092D01*
X99786292Y-42336088D01*
G37*
G04 #@! TD.AperFunction*
G04 #@! TA.AperFunction,Conductor*
G36*
X89372767Y-49934425D02*
G01*
X89556635Y-50118293D01*
X89560062Y-50126566D01*
X89556635Y-50134839D01*
X89509492Y-50181983D01*
X89509488Y-50181988D01*
X89437016Y-50307512D01*
X89437014Y-50307516D01*
X89399500Y-50447522D01*
X89399500Y-50473055D01*
X89398379Y-50478052D01*
X89286793Y-50714310D01*
X89280162Y-50720327D01*
X89271217Y-50719892D01*
X89269741Y-50719059D01*
X88991259Y-50534109D01*
X88987987Y-50530837D01*
X88802598Y-50251694D01*
X88800875Y-50242906D01*
X88805871Y-50235475D01*
X88806706Y-50234969D01*
X89358874Y-49932436D01*
X89367774Y-49931467D01*
X89372767Y-49934425D01*
G37*
G04 #@! TD.AperFunction*
G04 #@! TA.AperFunction,Conductor*
G36*
X99810483Y-41336088D02*
G01*
X99811163Y-41337252D01*
X100052382Y-41811014D01*
X100099549Y-41903650D01*
X100100249Y-41912578D01*
X100097396Y-41917232D01*
X99911423Y-42103205D01*
X99903150Y-42106632D01*
X99897842Y-42105358D01*
X99331443Y-41816972D01*
X99325626Y-41810165D01*
X99326326Y-41801237D01*
X99326996Y-41800089D01*
X99512180Y-41521255D01*
X99515446Y-41517989D01*
X99794266Y-41332814D01*
X99803052Y-41331092D01*
X99810483Y-41336088D01*
G37*
G04 #@! TD.AperFunction*
G04 #@! TA.AperFunction,Conductor*
G36*
X90347232Y-49936794D02*
G01*
X90533205Y-50122767D01*
X90536632Y-50131040D01*
X90535358Y-50136349D01*
X90246972Y-50702747D01*
X90240165Y-50708564D01*
X90231237Y-50707864D01*
X90230077Y-50707186D01*
X89951258Y-50522012D01*
X89947987Y-50518741D01*
X89762814Y-50239924D01*
X89761092Y-50231138D01*
X89766088Y-50223707D01*
X89767240Y-50223033D01*
X90333653Y-49934640D01*
X90342578Y-49933941D01*
X90347232Y-49936794D01*
G37*
G04 #@! TD.AperFunction*
G04 #@! TA.AperFunction,Conductor*
G36*
X101741000Y-56500000D02*
G01*
X101671718Y-56843275D01*
X101046725Y-56750000D01*
X101046725Y-56250000D01*
X101671718Y-56156725D01*
X101741000Y-56500000D01*
G37*
G04 #@! TD.AperFunction*
G04 #@! TA.AperFunction,Conductor*
G36*
X102433275Y-56250000D02*
G01*
X102433275Y-56750000D01*
X101808282Y-56843275D01*
X101739000Y-56500000D01*
X101808282Y-56156725D01*
X102433275Y-56250000D01*
G37*
G04 #@! TD.AperFunction*
G04 #@! TA.AperFunction,Conductor*
G36*
X84786292Y-54836088D02*
G01*
X84786972Y-54837252D01*
X85028191Y-55311014D01*
X85075358Y-55403650D01*
X85076058Y-55412578D01*
X85073205Y-55417232D01*
X84887232Y-55603205D01*
X84878959Y-55606632D01*
X84873651Y-55605358D01*
X84307252Y-55316972D01*
X84301435Y-55310165D01*
X84302135Y-55301237D01*
X84302805Y-55300089D01*
X84487989Y-55021255D01*
X84491255Y-55017989D01*
X84770075Y-54832814D01*
X84778861Y-54831092D01*
X84786292Y-54836088D01*
G37*
G04 #@! TD.AperFunction*
G04 #@! TA.AperFunction,Conductor*
G36*
X98556578Y-55654218D02*
G01*
X98563486Y-55656869D01*
X99049095Y-55843200D01*
X99055592Y-55849363D01*
X99056385Y-55856378D01*
X98991647Y-56185917D01*
X98986689Y-56193375D01*
X98986639Y-56193408D01*
X98708832Y-56377910D01*
X98700044Y-56379633D01*
X98692613Y-56374637D01*
X98692547Y-56374537D01*
X98356659Y-55857433D01*
X98355026Y-55848629D01*
X98358196Y-55842789D01*
X98544117Y-55656868D01*
X98552389Y-55653442D01*
X98556578Y-55654218D01*
G37*
G04 #@! TD.AperFunction*
G04 #@! TA.AperFunction,Conductor*
G36*
X96137235Y-56797338D02*
G01*
X96138896Y-56799431D01*
X96256303Y-56988262D01*
X96460052Y-57315961D01*
X96461510Y-57324796D01*
X96456643Y-57331849D01*
X96179754Y-57517986D01*
X96170977Y-57519758D01*
X96170926Y-57519748D01*
X95843380Y-57454055D01*
X95835943Y-57449068D01*
X95834209Y-57440282D01*
X95932394Y-56988260D01*
X95935552Y-56982475D01*
X96120690Y-56797337D01*
X96128962Y-56793911D01*
X96137235Y-56797338D01*
G37*
G04 #@! TD.AperFunction*
M02*
