G04 #@! TF.GenerationSoftware,KiCad,Pcbnew,9.0.0*
G04 #@! TF.CreationDate,2025-04-06T23:20:39+02:00*
G04 #@! TF.ProjectId,RF-to-USB,52462d74-6f2d-4555-9342-2e6b69636164,rev?*
G04 #@! TF.SameCoordinates,Original*
G04 #@! TF.FileFunction,Copper,L2,Inr*
G04 #@! TF.FilePolarity,Positive*
%FSLAX46Y46*%
G04 Gerber Fmt 4.6, Leading zero omitted, Abs format (unit mm)*
G04 Created by KiCad (PCBNEW 9.0.0) date 2025-04-06 23:20:39*
%MOMM*%
%LPD*%
G01*
G04 APERTURE LIST*
G04 #@! TA.AperFunction,HeatsinkPad*
%ADD10O,3.200000X1.300000*%
G04 #@! TD*
G04 #@! TA.AperFunction,ComponentPad*
%ADD11C,0.970000*%
G04 #@! TD*
G04 #@! TA.AperFunction,ViaPad*
%ADD12C,0.700000*%
G04 #@! TD*
G04 APERTURE END LIST*
D10*
X78075000Y-54350000D03*
X78075000Y-42650000D03*
D11*
X118990000Y-52880000D03*
X118990000Y-44120000D03*
D12*
X82750000Y-47500000D03*
X82750000Y-49500000D03*
X90706684Y-46986684D03*
X92240000Y-46520000D03*
X91490000Y-47520000D03*
X99490000Y-40520000D03*
X86740000Y-50520000D03*
X99490000Y-39520000D03*
X87740000Y-50520000D03*
X106490000Y-54720000D03*
X109250000Y-49500000D03*
X83490000Y-46270000D03*
X107750000Y-49500000D03*
X110500000Y-55500000D03*
X101990000Y-52270000D03*
X96490000Y-40520000D03*
X112500000Y-43000000D03*
X113250000Y-52750000D03*
X110500000Y-42250000D03*
X111500000Y-54500000D03*
X82175000Y-45770000D03*
X105490000Y-45520000D03*
X94190000Y-57850000D03*
X85990000Y-46270000D03*
X111351119Y-51102413D03*
X116500000Y-48500000D03*
X88990000Y-47520000D03*
X88832500Y-54862500D03*
X117490000Y-52270000D03*
X87490000Y-53770000D03*
X80740000Y-43770000D03*
X116500000Y-47500000D03*
X99521300Y-50997108D03*
X91490000Y-46020000D03*
X89550000Y-53520000D03*
X107750000Y-51000000D03*
X87240000Y-46270000D03*
X84990000Y-46270000D03*
X98990000Y-57520000D03*
X109480000Y-55500000D03*
X115500000Y-46500000D03*
X82175000Y-45020000D03*
X96490000Y-39520000D03*
X79990000Y-43770000D03*
X104240000Y-45619997D03*
X113500000Y-44000000D03*
X96490000Y-41520000D03*
X95290000Y-57820000D03*
X81490000Y-43770000D03*
X101990000Y-53520000D03*
X82175000Y-44270000D03*
X82240000Y-52770000D03*
X81425000Y-53270000D03*
X82240000Y-52020000D03*
X80675000Y-53270000D03*
X79925000Y-53270000D03*
X82240000Y-51270000D03*
X90990000Y-50961000D03*
X91490000Y-53520000D03*
X99137557Y-45682185D03*
X110500000Y-52000000D03*
X97750000Y-52250000D03*
X90740000Y-53520000D03*
X107590000Y-55120000D03*
X87490000Y-55020000D03*
X90690000Y-54862500D03*
X112500000Y-53750000D03*
X89490000Y-43820000D03*
X98990000Y-54520000D03*
X95750000Y-52250000D03*
X93990000Y-44680589D03*
X105002625Y-46560000D03*
X104112896Y-49114309D03*
X91990000Y-50961000D03*
X99490000Y-42520000D03*
X104750000Y-49750000D03*
X99490000Y-47060000D03*
X96740000Y-52270000D03*
X82490000Y-39770000D03*
X88990000Y-50532096D03*
X99514191Y-41520000D03*
X89950000Y-50520000D03*
X101740000Y-56500000D03*
X84490000Y-55020000D03*
X98990000Y-56190000D03*
X96175000Y-57520000D03*
G04 #@! TA.AperFunction,Conductor*
G36*
X82068366Y-38820185D02*
G01*
X82114121Y-38872989D01*
X82124065Y-38942147D01*
X82095040Y-39005703D01*
X82070218Y-39027602D01*
X81947838Y-39109373D01*
X81947834Y-39109376D01*
X81829373Y-39227837D01*
X81736295Y-39367139D01*
X81672184Y-39521917D01*
X81672182Y-39521925D01*
X81639500Y-39686228D01*
X81639500Y-39853771D01*
X81672182Y-40018074D01*
X81672184Y-40018082D01*
X81736295Y-40172860D01*
X81829373Y-40312162D01*
X81947837Y-40430626D01*
X82040494Y-40492537D01*
X82087137Y-40523703D01*
X82241918Y-40587816D01*
X82406228Y-40620499D01*
X82406232Y-40620500D01*
X82406233Y-40620500D01*
X82573768Y-40620500D01*
X82573769Y-40620499D01*
X82738082Y-40587816D01*
X82892863Y-40523703D01*
X83032162Y-40430626D01*
X83150626Y-40312162D01*
X83243703Y-40172863D01*
X83307816Y-40018082D01*
X83340500Y-39853767D01*
X83340500Y-39686233D01*
X83307816Y-39521918D01*
X83243703Y-39367137D01*
X83180084Y-39271925D01*
X83150626Y-39227837D01*
X83032165Y-39109376D01*
X83032161Y-39109373D01*
X82909782Y-39027602D01*
X82864977Y-38973990D01*
X82856270Y-38904665D01*
X82886424Y-38841638D01*
X82945867Y-38804918D01*
X82978673Y-38800500D01*
X98715880Y-38800500D01*
X98782919Y-38820185D01*
X98828674Y-38872989D01*
X98838618Y-38942147D01*
X98818982Y-38993391D01*
X98736295Y-39117139D01*
X98672184Y-39271917D01*
X98672182Y-39271925D01*
X98639500Y-39436228D01*
X98639500Y-39603771D01*
X98672182Y-39768074D01*
X98672184Y-39768082D01*
X98736295Y-39922859D01*
X98736302Y-39922872D01*
X98755170Y-39951111D01*
X98776047Y-40017789D01*
X98757561Y-40085168D01*
X98755170Y-40088889D01*
X98736302Y-40117127D01*
X98736295Y-40117140D01*
X98672184Y-40271917D01*
X98672182Y-40271925D01*
X98639500Y-40436228D01*
X98639500Y-40603771D01*
X98672182Y-40768074D01*
X98672184Y-40768082D01*
X98736295Y-40922859D01*
X98736300Y-40922869D01*
X98767265Y-40969211D01*
X98788143Y-41035889D01*
X98769658Y-41103269D01*
X98767268Y-41106988D01*
X98760488Y-41117135D01*
X98696375Y-41271917D01*
X98696373Y-41271925D01*
X98663691Y-41436228D01*
X98663691Y-41603771D01*
X98696373Y-41768074D01*
X98696375Y-41768082D01*
X98760487Y-41922861D01*
X98767267Y-41933009D01*
X98788143Y-41999687D01*
X98769656Y-42067067D01*
X98767267Y-42070786D01*
X98736295Y-42117139D01*
X98672184Y-42271917D01*
X98672182Y-42271925D01*
X98639500Y-42436228D01*
X98639500Y-42603771D01*
X98672182Y-42768074D01*
X98672184Y-42768082D01*
X98736295Y-42922860D01*
X98829373Y-43062162D01*
X98947837Y-43180626D01*
X99040494Y-43242537D01*
X99087137Y-43273703D01*
X99087138Y-43273703D01*
X99087139Y-43273704D01*
X99122201Y-43288227D01*
X99241918Y-43337816D01*
X99406228Y-43370499D01*
X99406232Y-43370500D01*
X99406233Y-43370500D01*
X99573768Y-43370500D01*
X99573769Y-43370499D01*
X99738082Y-43337816D01*
X99892863Y-43273703D01*
X99901039Y-43268240D01*
X118491794Y-43268240D01*
X118990000Y-43766446D01*
X118990001Y-43766446D01*
X119488205Y-43268241D01*
X119488204Y-43268240D01*
X119456575Y-43247106D01*
X119456568Y-43247102D01*
X119277314Y-43172853D01*
X119277306Y-43172851D01*
X119087017Y-43135000D01*
X118892983Y-43135000D01*
X118702693Y-43172851D01*
X118702685Y-43172853D01*
X118523428Y-43247103D01*
X118523426Y-43247104D01*
X118491794Y-43268240D01*
X99901039Y-43268240D01*
X99986181Y-43211349D01*
X99986184Y-43211348D01*
X100002161Y-43200671D01*
X100032162Y-43180626D01*
X100150626Y-43062162D01*
X100243703Y-42922863D01*
X100307816Y-42768082D01*
X100340500Y-42603767D01*
X100340500Y-42436233D01*
X100307816Y-42271918D01*
X100243703Y-42117137D01*
X100236925Y-42106993D01*
X100216046Y-42040319D01*
X100234529Y-41972938D01*
X100236909Y-41969234D01*
X100267894Y-41922863D01*
X100332007Y-41768082D01*
X100364691Y-41603767D01*
X100364691Y-41436233D01*
X100332007Y-41271918D01*
X100267894Y-41117137D01*
X100267892Y-41117134D01*
X100267890Y-41117130D01*
X100236925Y-41070788D01*
X100216047Y-41004111D01*
X100234531Y-40936731D01*
X100236928Y-40933002D01*
X100243703Y-40922863D01*
X100307816Y-40768082D01*
X100340500Y-40603767D01*
X100340500Y-40436233D01*
X100307816Y-40271918D01*
X100243703Y-40117137D01*
X100224828Y-40088889D01*
X100203951Y-40022214D01*
X100222435Y-39954834D01*
X100224829Y-39951109D01*
X100243703Y-39922863D01*
X100307816Y-39768082D01*
X100340500Y-39603767D01*
X100340500Y-39436233D01*
X100307816Y-39271918D01*
X100243703Y-39117137D01*
X100161017Y-38993390D01*
X100140140Y-38926713D01*
X100158625Y-38859333D01*
X100210603Y-38812643D01*
X100264120Y-38800500D01*
X123452405Y-38800500D01*
X123495572Y-38800500D01*
X123504418Y-38800816D01*
X123733020Y-38817165D01*
X123750529Y-38819683D01*
X123970144Y-38867458D01*
X123987103Y-38872437D01*
X124197694Y-38950983D01*
X124213777Y-38958327D01*
X124411036Y-39066040D01*
X124425919Y-39075605D01*
X124605836Y-39210289D01*
X124619207Y-39221875D01*
X124778124Y-39380792D01*
X124789710Y-39394163D01*
X124924394Y-39574080D01*
X124933959Y-39588963D01*
X125041669Y-39786217D01*
X125049019Y-39802311D01*
X125127559Y-40012887D01*
X125132543Y-40029862D01*
X125180316Y-40249470D01*
X125182834Y-40266982D01*
X125199184Y-40495581D01*
X125199500Y-40504427D01*
X125199500Y-56495572D01*
X125199184Y-56504418D01*
X125182834Y-56733017D01*
X125180316Y-56750529D01*
X125132543Y-56970137D01*
X125127559Y-56987112D01*
X125049019Y-57197688D01*
X125041669Y-57213782D01*
X124933959Y-57411036D01*
X124924394Y-57425919D01*
X124789710Y-57605836D01*
X124778124Y-57619207D01*
X124619207Y-57778124D01*
X124605836Y-57789710D01*
X124425919Y-57924394D01*
X124411036Y-57933959D01*
X124213782Y-58041669D01*
X124197688Y-58049019D01*
X123987112Y-58127559D01*
X123970137Y-58132543D01*
X123750529Y-58180316D01*
X123733017Y-58182834D01*
X123504418Y-58199184D01*
X123495572Y-58199500D01*
X96975848Y-58199500D01*
X96908809Y-58179815D01*
X96863054Y-58127011D01*
X96853110Y-58057853D01*
X96872745Y-58006610D01*
X96878377Y-57998180D01*
X96928703Y-57922863D01*
X96992816Y-57768082D01*
X97025500Y-57603767D01*
X97025500Y-57436233D01*
X96992816Y-57271918D01*
X96928703Y-57117137D01*
X96877495Y-57040499D01*
X96835626Y-56977837D01*
X96717162Y-56859373D01*
X96577860Y-56766295D01*
X96423082Y-56702184D01*
X96423074Y-56702182D01*
X96258771Y-56669500D01*
X96258767Y-56669500D01*
X96091233Y-56669500D01*
X96091228Y-56669500D01*
X95926925Y-56702182D01*
X95926917Y-56702184D01*
X95772139Y-56766295D01*
X95632837Y-56859373D01*
X95514373Y-56977837D01*
X95421295Y-57117139D01*
X95357184Y-57271917D01*
X95357182Y-57271925D01*
X95324500Y-57436228D01*
X95324500Y-57603771D01*
X95342112Y-57692311D01*
X95357184Y-57768082D01*
X95421297Y-57922863D01*
X95465072Y-57988377D01*
X95477255Y-58006610D01*
X95498132Y-58073287D01*
X95479647Y-58140667D01*
X95427668Y-58187357D01*
X95374152Y-58199500D01*
X77504428Y-58199500D01*
X77495582Y-58199184D01*
X77266982Y-58182834D01*
X77249470Y-58180316D01*
X77029862Y-58132543D01*
X77012887Y-58127559D01*
X76802311Y-58049019D01*
X76786217Y-58041669D01*
X76588963Y-57933959D01*
X76574080Y-57924394D01*
X76394163Y-57789710D01*
X76380792Y-57778124D01*
X76221875Y-57619207D01*
X76210289Y-57605836D01*
X76075605Y-57425919D01*
X76066040Y-57411036D01*
X75958327Y-57213777D01*
X75950983Y-57197694D01*
X75872437Y-56987103D01*
X75867458Y-56970144D01*
X75819683Y-56750529D01*
X75817165Y-56733017D01*
X75812622Y-56669500D01*
X75800816Y-56504418D01*
X75800500Y-56495572D01*
X75800500Y-54779612D01*
X75820185Y-54712573D01*
X75872989Y-54666818D01*
X75942147Y-54656874D01*
X76005703Y-54685899D01*
X76042431Y-54741295D01*
X76058786Y-54791633D01*
X76058788Y-54791639D01*
X76099693Y-54871917D01*
X76137578Y-54946271D01*
X76141006Y-54952997D01*
X76247441Y-55099494D01*
X76247445Y-55099499D01*
X76375500Y-55227554D01*
X76375505Y-55227558D01*
X76436865Y-55272138D01*
X76522006Y-55333996D01*
X76596954Y-55372184D01*
X76683360Y-55416211D01*
X76683363Y-55416212D01*
X76745180Y-55436297D01*
X76855591Y-55472171D01*
X76938429Y-55485291D01*
X77034449Y-55500500D01*
X77034454Y-55500500D01*
X79115551Y-55500500D01*
X79202259Y-55486765D01*
X79294409Y-55472171D01*
X79466639Y-55416211D01*
X79627994Y-55333996D01*
X79774501Y-55227553D01*
X79902553Y-55099501D01*
X80008996Y-54952994D01*
X80017539Y-54936228D01*
X83639500Y-54936228D01*
X83639500Y-55103771D01*
X83672182Y-55268074D01*
X83672184Y-55268082D01*
X83736295Y-55422860D01*
X83829373Y-55562162D01*
X83947837Y-55680626D01*
X84040494Y-55742537D01*
X84087137Y-55773703D01*
X84241918Y-55837816D01*
X84406228Y-55870499D01*
X84406232Y-55870500D01*
X84406233Y-55870500D01*
X84573768Y-55870500D01*
X84573769Y-55870499D01*
X84738082Y-55837816D01*
X84892863Y-55773703D01*
X85032162Y-55680626D01*
X85150626Y-55562162D01*
X85243703Y-55422863D01*
X85307816Y-55268082D01*
X85340500Y-55103767D01*
X85340500Y-54936233D01*
X85340499Y-54936228D01*
X86639500Y-54936228D01*
X86639500Y-55103771D01*
X86672182Y-55268074D01*
X86672184Y-55268082D01*
X86736295Y-55422860D01*
X86829373Y-55562162D01*
X86947837Y-55680626D01*
X87040494Y-55742537D01*
X87087137Y-55773703D01*
X87241918Y-55837816D01*
X87406228Y-55870499D01*
X87406232Y-55870500D01*
X87406233Y-55870500D01*
X87573768Y-55870500D01*
X87573769Y-55870499D01*
X87738082Y-55837816D01*
X87892863Y-55773703D01*
X88032162Y-55680626D01*
X88150626Y-55562162D01*
X88243703Y-55422863D01*
X88307816Y-55268082D01*
X88340500Y-55103767D01*
X88340500Y-54936233D01*
X88328091Y-54873846D01*
X88312773Y-54796837D01*
X88312771Y-54796831D01*
X88309170Y-54778728D01*
X89839500Y-54778728D01*
X89839500Y-54946271D01*
X89872182Y-55110574D01*
X89872184Y-55110582D01*
X89936295Y-55265360D01*
X90029373Y-55404662D01*
X90147837Y-55523126D01*
X90206259Y-55562162D01*
X90287137Y-55616203D01*
X90441918Y-55680316D01*
X90606228Y-55712999D01*
X90606232Y-55713000D01*
X90606233Y-55713000D01*
X90773768Y-55713000D01*
X90773769Y-55712999D01*
X90938082Y-55680316D01*
X91092863Y-55616203D01*
X91232162Y-55523126D01*
X91350626Y-55404662D01*
X91443703Y-55265363D01*
X91507816Y-55110582D01*
X91540500Y-54946267D01*
X91540500Y-54778733D01*
X91507816Y-54614418D01*
X91477308Y-54540767D01*
X91469840Y-54471301D01*
X91487396Y-54436228D01*
X98139500Y-54436228D01*
X98139500Y-54603771D01*
X98172182Y-54768074D01*
X98172184Y-54768082D01*
X98236295Y-54922860D01*
X98329373Y-55062162D01*
X98447834Y-55180623D01*
X98447838Y-55180626D01*
X98554503Y-55251898D01*
X98599308Y-55305510D01*
X98608015Y-55374835D01*
X98577860Y-55437863D01*
X98554503Y-55458102D01*
X98447838Y-55529373D01*
X98447834Y-55529376D01*
X98329373Y-55647837D01*
X98236295Y-55787139D01*
X98172184Y-55941917D01*
X98172182Y-55941925D01*
X98139500Y-56106228D01*
X98139500Y-56273771D01*
X98172182Y-56438074D01*
X98172184Y-56438082D01*
X98236295Y-56592860D01*
X98329373Y-56732162D01*
X98447837Y-56850626D01*
X98526011Y-56902860D01*
X98587137Y-56943703D01*
X98741918Y-57007816D01*
X98906228Y-57040499D01*
X98906232Y-57040500D01*
X98906233Y-57040500D01*
X99073768Y-57040500D01*
X99073769Y-57040499D01*
X99238082Y-57007816D01*
X99392863Y-56943703D01*
X99532162Y-56850626D01*
X99650626Y-56732162D01*
X99743703Y-56592863D01*
X99807816Y-56438082D01*
X99812163Y-56416228D01*
X100889500Y-56416228D01*
X100889500Y-56583771D01*
X100922182Y-56748074D01*
X100922184Y-56748082D01*
X100986295Y-56902860D01*
X101079373Y-57042162D01*
X101197837Y-57160626D01*
X101277391Y-57213782D01*
X101337137Y-57253703D01*
X101491918Y-57317816D01*
X101656228Y-57350499D01*
X101656232Y-57350500D01*
X101656233Y-57350500D01*
X101823768Y-57350500D01*
X101823769Y-57350499D01*
X101988082Y-57317816D01*
X102142863Y-57253703D01*
X102282162Y-57160626D01*
X102400626Y-57042162D01*
X102493703Y-56902863D01*
X102557816Y-56748082D01*
X102590500Y-56583767D01*
X102590500Y-56416233D01*
X102557816Y-56251918D01*
X102493703Y-56097137D01*
X102409086Y-55970499D01*
X102400626Y-55957837D01*
X102282162Y-55839373D01*
X102142860Y-55746295D01*
X101988082Y-55682184D01*
X101988074Y-55682182D01*
X101823771Y-55649500D01*
X101823767Y-55649500D01*
X101656233Y-55649500D01*
X101656228Y-55649500D01*
X101491925Y-55682182D01*
X101491917Y-55682184D01*
X101337139Y-55746295D01*
X101197837Y-55839373D01*
X101079373Y-55957837D01*
X100986295Y-56097139D01*
X100922184Y-56251917D01*
X100922182Y-56251925D01*
X100889500Y-56416228D01*
X99812163Y-56416228D01*
X99840500Y-56273767D01*
X99840500Y-56106233D01*
X99807816Y-55941918D01*
X99743703Y-55787137D01*
X99694166Y-55713000D01*
X99650626Y-55647837D01*
X99532162Y-55529373D01*
X99425496Y-55458102D01*
X99380691Y-55404490D01*
X99371984Y-55335165D01*
X99402138Y-55272138D01*
X99425496Y-55251898D01*
X99461924Y-55227558D01*
X99532162Y-55180626D01*
X99650626Y-55062162D01*
X99667955Y-55036228D01*
X106739500Y-55036228D01*
X106739500Y-55203771D01*
X106772182Y-55368074D01*
X106772184Y-55368082D01*
X106836295Y-55522860D01*
X106929373Y-55662162D01*
X107047837Y-55780626D01*
X107133430Y-55837817D01*
X107187137Y-55873703D01*
X107341918Y-55937816D01*
X107506228Y-55970499D01*
X107506232Y-55970500D01*
X107506233Y-55970500D01*
X107673768Y-55970500D01*
X107673769Y-55970499D01*
X107838082Y-55937816D01*
X107992863Y-55873703D01*
X108132162Y-55780626D01*
X108250626Y-55662162D01*
X108343703Y-55522863D01*
X108407816Y-55368082D01*
X108440500Y-55203767D01*
X108440500Y-55036233D01*
X108407816Y-54871918D01*
X108343703Y-54717137D01*
X108278403Y-54619409D01*
X108250626Y-54577837D01*
X108132162Y-54459373D01*
X107992860Y-54366295D01*
X107838082Y-54302184D01*
X107838074Y-54302182D01*
X107673771Y-54269500D01*
X107673767Y-54269500D01*
X107506233Y-54269500D01*
X107506228Y-54269500D01*
X107341925Y-54302182D01*
X107341917Y-54302184D01*
X107187139Y-54366295D01*
X107047837Y-54459373D01*
X106929373Y-54577837D01*
X106836295Y-54717139D01*
X106772184Y-54871917D01*
X106772182Y-54871925D01*
X106739500Y-55036228D01*
X99667955Y-55036228D01*
X99743703Y-54922863D01*
X99807816Y-54768082D01*
X99840500Y-54603767D01*
X99840500Y-54436233D01*
X99807816Y-54271918D01*
X99743703Y-54117137D01*
X99705547Y-54060032D01*
X99650626Y-53977837D01*
X99532162Y-53859373D01*
X99395522Y-53768074D01*
X99392863Y-53766297D01*
X99392858Y-53766295D01*
X99238082Y-53702184D01*
X99238074Y-53702182D01*
X99073771Y-53669500D01*
X99073767Y-53669500D01*
X98906233Y-53669500D01*
X98906228Y-53669500D01*
X98741925Y-53702182D01*
X98741917Y-53702184D01*
X98587139Y-53766295D01*
X98447837Y-53859373D01*
X98329373Y-53977837D01*
X98236295Y-54117139D01*
X98172184Y-54271917D01*
X98172182Y-54271925D01*
X98139500Y-54436228D01*
X91487396Y-54436228D01*
X91501114Y-54408822D01*
X91561203Y-54373169D01*
X91567854Y-54372003D01*
X91567792Y-54371689D01*
X91646565Y-54356019D01*
X91738082Y-54337816D01*
X91892863Y-54273703D01*
X92032162Y-54180626D01*
X92150626Y-54062162D01*
X92243703Y-53922863D01*
X92307816Y-53768082D01*
X92328076Y-53666228D01*
X111649500Y-53666228D01*
X111649500Y-53833771D01*
X111682182Y-53998074D01*
X111682184Y-53998082D01*
X111746295Y-54152860D01*
X111839373Y-54292162D01*
X111957837Y-54410626D01*
X112030793Y-54459373D01*
X112097137Y-54503703D01*
X112251918Y-54567816D01*
X112416228Y-54600499D01*
X112416232Y-54600500D01*
X112416233Y-54600500D01*
X112583768Y-54600500D01*
X112583769Y-54600499D01*
X112748082Y-54567816D01*
X112902863Y-54503703D01*
X113042162Y-54410626D01*
X113160626Y-54292162D01*
X113253703Y-54152863D01*
X113317816Y-53998082D01*
X113350500Y-53833767D01*
X113350500Y-53731758D01*
X118491794Y-53731758D01*
X118491794Y-53731759D01*
X118523431Y-53752898D01*
X118702681Y-53827145D01*
X118702693Y-53827148D01*
X118892981Y-53864999D01*
X118892984Y-53865000D01*
X119087016Y-53865000D01*
X119087018Y-53864999D01*
X119277306Y-53827148D01*
X119277318Y-53827145D01*
X119456565Y-53752899D01*
X119488204Y-53731758D01*
X118990001Y-53233554D01*
X118990000Y-53233554D01*
X118491794Y-53731758D01*
X113350500Y-53731758D01*
X113350500Y-53666233D01*
X113317816Y-53501918D01*
X113266572Y-53378205D01*
X113253704Y-53347139D01*
X113253322Y-53346568D01*
X113203443Y-53271918D01*
X113160626Y-53207837D01*
X113042162Y-53089373D01*
X112902860Y-52996295D01*
X112748082Y-52932184D01*
X112748074Y-52932182D01*
X112583770Y-52899500D01*
X112583767Y-52899500D01*
X112416233Y-52899500D01*
X112416228Y-52899500D01*
X112251925Y-52932182D01*
X112251917Y-52932184D01*
X112097139Y-52996295D01*
X111957837Y-53089373D01*
X111839373Y-53207837D01*
X111746295Y-53347139D01*
X111682184Y-53501917D01*
X111682182Y-53501925D01*
X111649500Y-53666228D01*
X92328076Y-53666228D01*
X92340500Y-53603767D01*
X92340500Y-53436233D01*
X92307816Y-53271918D01*
X92243703Y-53117137D01*
X92181272Y-53023703D01*
X92150626Y-52977837D01*
X92032162Y-52859373D01*
X91892860Y-52766295D01*
X91738082Y-52702184D01*
X91738074Y-52702182D01*
X91573771Y-52669500D01*
X91573767Y-52669500D01*
X91406233Y-52669500D01*
X91406228Y-52669500D01*
X91241925Y-52702182D01*
X91241913Y-52702185D01*
X91162452Y-52735099D01*
X91092983Y-52742568D01*
X91067548Y-52735099D01*
X90988086Y-52702185D01*
X90988074Y-52702182D01*
X90823771Y-52669500D01*
X90823767Y-52669500D01*
X90656233Y-52669500D01*
X90656228Y-52669500D01*
X90491925Y-52702182D01*
X90491917Y-52702184D01*
X90337139Y-52766295D01*
X90197837Y-52859373D01*
X90079373Y-52977837D01*
X89986295Y-53117139D01*
X89922184Y-53271917D01*
X89922182Y-53271925D01*
X89889500Y-53436228D01*
X89889500Y-53603771D01*
X89922182Y-53768074D01*
X89922184Y-53768082D01*
X89986295Y-53922860D01*
X90079373Y-54062162D01*
X90095780Y-54078569D01*
X90129265Y-54139892D01*
X90124281Y-54209584D01*
X90095780Y-54253931D01*
X90029376Y-54320334D01*
X90029373Y-54320337D01*
X89936295Y-54459639D01*
X89872184Y-54614417D01*
X89872182Y-54614425D01*
X89839500Y-54778728D01*
X88309170Y-54778728D01*
X88307816Y-54771918D01*
X88243703Y-54617137D01*
X88192677Y-54540771D01*
X88150626Y-54477837D01*
X88032162Y-54359373D01*
X87892860Y-54266295D01*
X87738082Y-54202184D01*
X87738074Y-54202182D01*
X87573771Y-54169500D01*
X87573767Y-54169500D01*
X87406233Y-54169500D01*
X87406228Y-54169500D01*
X87241925Y-54202182D01*
X87241917Y-54202184D01*
X87087139Y-54266295D01*
X86947837Y-54359373D01*
X86829373Y-54477837D01*
X86736295Y-54617139D01*
X86672184Y-54771917D01*
X86672182Y-54771925D01*
X86639500Y-54936228D01*
X85340499Y-54936228D01*
X85307816Y-54771918D01*
X85243703Y-54617137D01*
X85192677Y-54540771D01*
X85150626Y-54477837D01*
X85032162Y-54359373D01*
X84892860Y-54266295D01*
X84738082Y-54202184D01*
X84738074Y-54202182D01*
X84573771Y-54169500D01*
X84573767Y-54169500D01*
X84406233Y-54169500D01*
X84406228Y-54169500D01*
X84241925Y-54202182D01*
X84241917Y-54202184D01*
X84087139Y-54266295D01*
X83947837Y-54359373D01*
X83829373Y-54477837D01*
X83736295Y-54617139D01*
X83672184Y-54771917D01*
X83672182Y-54771925D01*
X83639500Y-54936228D01*
X80017539Y-54936228D01*
X80091211Y-54791639D01*
X80147171Y-54619409D01*
X80170629Y-54471301D01*
X80175500Y-54440551D01*
X80175500Y-54259456D01*
X80174625Y-54253931D01*
X80165131Y-54193990D01*
X80168900Y-54164824D01*
X80169951Y-54135431D01*
X80173326Y-54130569D01*
X80174085Y-54124701D01*
X80193024Y-54102201D01*
X80209802Y-54078040D01*
X80216916Y-54073819D01*
X80219081Y-54071248D01*
X80240150Y-54060034D01*
X80252552Y-54054898D01*
X80322022Y-54047432D01*
X80347453Y-54054900D01*
X80426918Y-54087816D01*
X80574326Y-54117137D01*
X80591228Y-54120499D01*
X80591232Y-54120500D01*
X80591233Y-54120500D01*
X80758768Y-54120500D01*
X80758769Y-54120499D01*
X80923082Y-54087816D01*
X81002547Y-54054899D01*
X81072015Y-54047430D01*
X81097450Y-54054899D01*
X81109843Y-54060032D01*
X81176912Y-54087814D01*
X81176914Y-54087814D01*
X81176918Y-54087816D01*
X81324326Y-54117137D01*
X81341228Y-54120499D01*
X81341232Y-54120500D01*
X81341233Y-54120500D01*
X81508768Y-54120500D01*
X81508769Y-54120499D01*
X81673082Y-54087816D01*
X81827863Y-54023703D01*
X81967162Y-53930626D01*
X82085626Y-53812162D01*
X82176868Y-53675608D01*
X82230480Y-53630804D01*
X82279970Y-53620500D01*
X82323768Y-53620500D01*
X82323769Y-53620499D01*
X82488082Y-53587816D01*
X82642863Y-53523703D01*
X82782162Y-53430626D01*
X82900626Y-53312162D01*
X82993703Y-53172863D01*
X83057816Y-53018082D01*
X83090500Y-52853767D01*
X83090500Y-52686233D01*
X83057816Y-52521918D01*
X83047939Y-52498074D01*
X83028931Y-52452185D01*
X83024899Y-52442452D01*
X83022371Y-52418941D01*
X83015467Y-52396319D01*
X83018341Y-52381458D01*
X83017430Y-52372985D01*
X83020118Y-52361332D01*
X83022099Y-52354307D01*
X83057816Y-52268082D01*
X83078076Y-52166228D01*
X94899500Y-52166228D01*
X94899500Y-52333771D01*
X94932182Y-52498074D01*
X94932184Y-52498082D01*
X94996295Y-52652860D01*
X95089373Y-52792162D01*
X95207837Y-52910626D01*
X95269965Y-52952138D01*
X95347137Y-53003703D01*
X95347138Y-53003703D01*
X95347139Y-53003704D01*
X95363027Y-53010285D01*
X95501918Y-53067816D01*
X95662161Y-53099690D01*
X95666228Y-53100499D01*
X95666232Y-53100500D01*
X95666233Y-53100500D01*
X95833768Y-53100500D01*
X95833769Y-53100499D01*
X95998082Y-53067816D01*
X96152863Y-53003703D01*
X96161144Y-52998169D01*
X96227820Y-52977292D01*
X96295200Y-52995776D01*
X96298918Y-52998165D01*
X96337137Y-53023703D01*
X96491918Y-53087816D01*
X96639326Y-53117137D01*
X96656228Y-53120499D01*
X96656232Y-53120500D01*
X96656233Y-53120500D01*
X96823768Y-53120500D01*
X96823769Y-53120499D01*
X96988082Y-53087816D01*
X97142863Y-53023703D01*
X97191074Y-52991488D01*
X97257749Y-52970610D01*
X97325129Y-52989093D01*
X97328845Y-52991480D01*
X97347137Y-53003703D01*
X97501918Y-53067816D01*
X97662161Y-53099690D01*
X97666228Y-53100499D01*
X97666232Y-53100500D01*
X97666233Y-53100500D01*
X97833768Y-53100500D01*
X97833769Y-53100499D01*
X97998082Y-53067816D01*
X98152863Y-53003703D01*
X98292162Y-52910626D01*
X98410626Y-52792162D01*
X98503703Y-52652863D01*
X98567816Y-52498082D01*
X98600500Y-52333767D01*
X98600500Y-52166233D01*
X98567816Y-52001918D01*
X98532322Y-51916228D01*
X109649500Y-51916228D01*
X109649500Y-52083771D01*
X109682182Y-52248074D01*
X109682184Y-52248082D01*
X109746295Y-52402860D01*
X109839373Y-52542162D01*
X109957837Y-52660626D01*
X110020035Y-52702185D01*
X110097137Y-52753703D01*
X110097138Y-52753703D01*
X110097139Y-52753704D01*
X110127536Y-52766295D01*
X110251918Y-52817816D01*
X110416228Y-52850499D01*
X110416232Y-52850500D01*
X110416233Y-52850500D01*
X110583768Y-52850500D01*
X110583769Y-52850499D01*
X110748082Y-52817816D01*
X110832180Y-52782981D01*
X118005000Y-52782981D01*
X118005000Y-52977018D01*
X118042851Y-53167306D01*
X118042853Y-53167314D01*
X118117102Y-53346568D01*
X118117106Y-53346575D01*
X118138240Y-53378204D01*
X118138241Y-53378205D01*
X118636446Y-52880000D01*
X118590696Y-52834250D01*
X118760000Y-52834250D01*
X118760000Y-52925750D01*
X118795015Y-53010285D01*
X118859715Y-53074985D01*
X118944250Y-53110000D01*
X119035750Y-53110000D01*
X119120285Y-53074985D01*
X119184985Y-53010285D01*
X119220000Y-52925750D01*
X119220000Y-52879999D01*
X119343554Y-52879999D01*
X119343554Y-52880000D01*
X119841758Y-53378204D01*
X119862899Y-53346565D01*
X119937145Y-53167318D01*
X119937148Y-53167306D01*
X119974999Y-52977018D01*
X119975000Y-52977016D01*
X119975000Y-52782983D01*
X119974999Y-52782981D01*
X119937148Y-52592693D01*
X119937145Y-52592681D01*
X119862898Y-52413431D01*
X119841758Y-52381794D01*
X119343554Y-52879999D01*
X119220000Y-52879999D01*
X119220000Y-52834250D01*
X119184985Y-52749715D01*
X119120285Y-52685015D01*
X119035750Y-52650000D01*
X118944250Y-52650000D01*
X118859715Y-52685015D01*
X118795015Y-52749715D01*
X118760000Y-52834250D01*
X118590696Y-52834250D01*
X118138240Y-52381794D01*
X118117104Y-52413426D01*
X118117103Y-52413428D01*
X118042853Y-52592685D01*
X118042851Y-52592693D01*
X118005000Y-52782981D01*
X110832180Y-52782981D01*
X110902863Y-52753703D01*
X111042162Y-52660626D01*
X111160626Y-52542162D01*
X111253703Y-52402863D01*
X111317816Y-52248082D01*
X111350500Y-52083767D01*
X111350500Y-52028240D01*
X118491794Y-52028240D01*
X118990000Y-52526446D01*
X118990001Y-52526446D01*
X119488205Y-52028241D01*
X119488204Y-52028240D01*
X119456575Y-52007106D01*
X119456568Y-52007102D01*
X119277314Y-51932853D01*
X119277306Y-51932851D01*
X119087017Y-51895000D01*
X118892983Y-51895000D01*
X118702693Y-51932851D01*
X118702685Y-51932853D01*
X118523428Y-52007103D01*
X118523426Y-52007104D01*
X118491794Y-52028240D01*
X111350500Y-52028240D01*
X111350500Y-51916233D01*
X111317816Y-51751918D01*
X111261473Y-51615896D01*
X111253704Y-51597139D01*
X111160626Y-51457837D01*
X111042162Y-51339373D01*
X110902860Y-51246295D01*
X110748082Y-51182184D01*
X110748074Y-51182182D01*
X110583771Y-51149500D01*
X110583767Y-51149500D01*
X110416233Y-51149500D01*
X110416228Y-51149500D01*
X110251925Y-51182182D01*
X110251917Y-51182184D01*
X110097139Y-51246295D01*
X109957837Y-51339373D01*
X109839373Y-51457837D01*
X109746295Y-51597139D01*
X109682184Y-51751917D01*
X109682182Y-51751925D01*
X109649500Y-51916228D01*
X98532322Y-51916228D01*
X98503703Y-51847137D01*
X98440084Y-51751925D01*
X98410626Y-51707837D01*
X98292162Y-51589373D01*
X98152860Y-51496295D01*
X97998082Y-51432184D01*
X97998074Y-51432182D01*
X97833771Y-51399500D01*
X97833767Y-51399500D01*
X97666233Y-51399500D01*
X97666228Y-51399500D01*
X97501925Y-51432182D01*
X97501917Y-51432184D01*
X97347138Y-51496296D01*
X97347136Y-51496297D01*
X97298922Y-51528512D01*
X97232244Y-51549389D01*
X97164864Y-51530903D01*
X97161142Y-51528511D01*
X97154717Y-51524218D01*
X97142863Y-51516297D01*
X97142862Y-51516296D01*
X97142860Y-51516295D01*
X96988082Y-51452184D01*
X96988074Y-51452182D01*
X96823771Y-51419500D01*
X96823767Y-51419500D01*
X96656233Y-51419500D01*
X96656228Y-51419500D01*
X96491925Y-51452182D01*
X96491917Y-51452184D01*
X96337135Y-51516297D01*
X96337131Y-51516299D01*
X96328849Y-51521833D01*
X96262171Y-51542707D01*
X96194792Y-51524218D01*
X96191074Y-51521829D01*
X96152860Y-51496295D01*
X95998082Y-51432184D01*
X95998074Y-51432182D01*
X95833771Y-51399500D01*
X95833767Y-51399500D01*
X95666233Y-51399500D01*
X95666228Y-51399500D01*
X95501925Y-51432182D01*
X95501917Y-51432184D01*
X95347139Y-51496295D01*
X95207837Y-51589373D01*
X95089373Y-51707837D01*
X94996295Y-51847139D01*
X94932184Y-52001917D01*
X94932182Y-52001925D01*
X94899500Y-52166228D01*
X83078076Y-52166228D01*
X83090500Y-52103767D01*
X83090500Y-51936233D01*
X83057816Y-51771918D01*
X83049534Y-51751925D01*
X83026298Y-51695829D01*
X83024899Y-51692452D01*
X83017430Y-51622985D01*
X83024899Y-51597549D01*
X83057816Y-51518082D01*
X83090500Y-51353767D01*
X83090500Y-51186233D01*
X83057816Y-51021918D01*
X82993703Y-50867137D01*
X82962537Y-50820494D01*
X82900626Y-50727837D01*
X82782165Y-50609376D01*
X82782157Y-50609370D01*
X82734613Y-50577602D01*
X82689807Y-50523990D01*
X82681100Y-50454665D01*
X82689921Y-50436228D01*
X85889500Y-50436228D01*
X85889500Y-50603771D01*
X85922182Y-50768074D01*
X85922184Y-50768082D01*
X85986295Y-50922860D01*
X86079373Y-51062162D01*
X86197837Y-51180626D01*
X86277644Y-51233951D01*
X86337137Y-51273703D01*
X86491918Y-51337816D01*
X86656228Y-51370499D01*
X86656232Y-51370500D01*
X86656233Y-51370500D01*
X86823768Y-51370500D01*
X86823769Y-51370499D01*
X86988082Y-51337816D01*
X87142863Y-51273703D01*
X87171109Y-51254828D01*
X87237786Y-51233951D01*
X87305166Y-51252435D01*
X87308879Y-51254821D01*
X87337137Y-51273703D01*
X87491918Y-51337816D01*
X87656228Y-51370499D01*
X87656232Y-51370500D01*
X87656233Y-51370500D01*
X87823768Y-51370500D01*
X87823769Y-51370499D01*
X87988082Y-51337816D01*
X88142863Y-51273703D01*
X88264059Y-51192722D01*
X88287227Y-51177242D01*
X88288391Y-51178985D01*
X88343921Y-51155387D01*
X88412791Y-51167163D01*
X88445984Y-51190869D01*
X88447837Y-51192722D01*
X88509541Y-51233951D01*
X88587137Y-51285799D01*
X88741918Y-51349912D01*
X88906228Y-51382595D01*
X88906232Y-51382596D01*
X88906233Y-51382596D01*
X89073768Y-51382596D01*
X89073769Y-51382595D01*
X89238082Y-51349912D01*
X89392863Y-51285799D01*
X89410160Y-51274240D01*
X89476833Y-51253362D01*
X89541611Y-51271130D01*
X89541770Y-51270834D01*
X89543074Y-51271531D01*
X89544214Y-51271844D01*
X89546954Y-51273605D01*
X89547133Y-51273700D01*
X89547137Y-51273703D01*
X89701918Y-51337816D01*
X89866228Y-51370499D01*
X89866232Y-51370500D01*
X89866233Y-51370500D01*
X90033768Y-51370500D01*
X90033768Y-51370499D01*
X90135188Y-51350326D01*
X90204780Y-51356553D01*
X90259957Y-51399416D01*
X90262482Y-51403052D01*
X90329373Y-51503161D01*
X90329376Y-51503165D01*
X90447837Y-51621626D01*
X90515770Y-51667017D01*
X90587137Y-51714703D01*
X90741918Y-51778816D01*
X90906228Y-51811499D01*
X90906232Y-51811500D01*
X90906233Y-51811500D01*
X91073768Y-51811500D01*
X91073769Y-51811499D01*
X91238082Y-51778816D01*
X91392863Y-51714703D01*
X91421109Y-51695828D01*
X91487786Y-51674951D01*
X91555166Y-51693435D01*
X91558879Y-51695821D01*
X91587137Y-51714703D01*
X91741918Y-51778816D01*
X91906228Y-51811499D01*
X91906232Y-51811500D01*
X91906233Y-51811500D01*
X92073768Y-51811500D01*
X92073769Y-51811499D01*
X92238082Y-51778816D01*
X92392863Y-51714703D01*
X92532162Y-51621626D01*
X92650626Y-51503162D01*
X92743703Y-51363863D01*
X92807816Y-51209082D01*
X92840500Y-51044767D01*
X92840500Y-50877233D01*
X92807816Y-50712918D01*
X92743703Y-50558137D01*
X92707331Y-50503703D01*
X92650626Y-50418837D01*
X92532162Y-50300373D01*
X92392860Y-50207295D01*
X92238082Y-50143184D01*
X92238074Y-50143182D01*
X92073771Y-50110500D01*
X92073767Y-50110500D01*
X91906233Y-50110500D01*
X91906228Y-50110500D01*
X91741925Y-50143182D01*
X91741917Y-50143184D01*
X91587140Y-50207295D01*
X91587127Y-50207302D01*
X91558889Y-50226170D01*
X91492211Y-50247047D01*
X91424832Y-50228561D01*
X91421111Y-50226170D01*
X91392872Y-50207302D01*
X91392859Y-50207295D01*
X91238082Y-50143184D01*
X91238074Y-50143182D01*
X91073771Y-50110500D01*
X91073767Y-50110500D01*
X90906233Y-50110500D01*
X90872866Y-50117137D01*
X90804809Y-50130674D01*
X90735218Y-50124445D01*
X90680041Y-50081582D01*
X90677517Y-50077947D01*
X90610626Y-49977838D01*
X90610623Y-49977834D01*
X90492162Y-49859373D01*
X90352860Y-49766295D01*
X90198082Y-49702184D01*
X90198074Y-49702182D01*
X90033771Y-49669500D01*
X90033767Y-49669500D01*
X89866233Y-49669500D01*
X89866228Y-49669500D01*
X89701925Y-49702182D01*
X89701917Y-49702184D01*
X89547138Y-49766296D01*
X89529835Y-49777857D01*
X89463157Y-49798732D01*
X89398399Y-49780964D01*
X89398238Y-49781266D01*
X89396908Y-49780555D01*
X89395777Y-49780245D01*
X89393054Y-49778495D01*
X89392859Y-49778391D01*
X89238082Y-49714280D01*
X89238074Y-49714278D01*
X89073771Y-49681596D01*
X89073767Y-49681596D01*
X88906233Y-49681596D01*
X88906228Y-49681596D01*
X88741925Y-49714278D01*
X88741917Y-49714280D01*
X88587139Y-49778391D01*
X88442773Y-49874854D01*
X88441614Y-49873120D01*
X88386017Y-49896715D01*
X88317153Y-49884905D01*
X88284015Y-49861226D01*
X88282162Y-49859373D01*
X88142860Y-49766295D01*
X87988082Y-49702184D01*
X87988074Y-49702182D01*
X87823771Y-49669500D01*
X87823767Y-49669500D01*
X87656233Y-49669500D01*
X87656228Y-49669500D01*
X87491925Y-49702182D01*
X87491917Y-49702184D01*
X87337140Y-49766295D01*
X87337127Y-49766302D01*
X87308889Y-49785170D01*
X87242211Y-49806047D01*
X87174832Y-49787561D01*
X87171111Y-49785170D01*
X87142872Y-49766302D01*
X87142859Y-49766295D01*
X86988082Y-49702184D01*
X86988074Y-49702182D01*
X86823771Y-49669500D01*
X86823767Y-49669500D01*
X86656233Y-49669500D01*
X86656228Y-49669500D01*
X86491925Y-49702182D01*
X86491917Y-49702184D01*
X86337139Y-49766295D01*
X86197837Y-49859373D01*
X86079373Y-49977837D01*
X85986295Y-50117139D01*
X85922184Y-50271917D01*
X85922182Y-50271925D01*
X85889500Y-50436228D01*
X82689921Y-50436228D01*
X82711254Y-50391638D01*
X82770697Y-50354918D01*
X82803503Y-50350500D01*
X82833768Y-50350500D01*
X82833769Y-50350499D01*
X82998082Y-50317816D01*
X83152863Y-50253703D01*
X83292162Y-50160626D01*
X83410626Y-50042162D01*
X83503703Y-49902863D01*
X83567816Y-49748082D01*
X83600500Y-49583767D01*
X83600500Y-49416233D01*
X83567816Y-49251918D01*
X83503703Y-49097137D01*
X83498515Y-49089373D01*
X83459202Y-49030537D01*
X103262396Y-49030537D01*
X103262396Y-49198080D01*
X103295078Y-49362383D01*
X103295080Y-49362391D01*
X103359191Y-49517169D01*
X103452269Y-49656471D01*
X103570733Y-49774935D01*
X103617296Y-49806047D01*
X103710033Y-49868012D01*
X103710034Y-49868012D01*
X103710035Y-49868013D01*
X103865705Y-49932494D01*
X103920108Y-49976335D01*
X103932813Y-49999602D01*
X103996295Y-50152860D01*
X104089373Y-50292162D01*
X104207837Y-50410626D01*
X104300494Y-50472537D01*
X104347137Y-50503703D01*
X104501918Y-50567816D01*
X104666228Y-50600499D01*
X104666232Y-50600500D01*
X104666233Y-50600500D01*
X104833768Y-50600500D01*
X104833769Y-50600499D01*
X104998082Y-50567816D01*
X105152863Y-50503703D01*
X105292162Y-50410626D01*
X105410626Y-50292162D01*
X105503703Y-50152863D01*
X105567816Y-49998082D01*
X105600500Y-49833767D01*
X105600500Y-49666233D01*
X105567816Y-49501918D01*
X105518227Y-49382201D01*
X105503704Y-49347139D01*
X105410626Y-49207837D01*
X105292162Y-49089373D01*
X105152860Y-48996295D01*
X104997190Y-48931814D01*
X104942786Y-48887973D01*
X104930082Y-48864706D01*
X104866600Y-48711448D01*
X104773522Y-48572146D01*
X104655058Y-48453682D01*
X104515756Y-48360604D01*
X104360978Y-48296493D01*
X104360970Y-48296491D01*
X104196667Y-48263809D01*
X104196663Y-48263809D01*
X104029129Y-48263809D01*
X104029124Y-48263809D01*
X103864821Y-48296491D01*
X103864813Y-48296493D01*
X103710035Y-48360604D01*
X103570733Y-48453682D01*
X103452269Y-48572146D01*
X103359191Y-48711448D01*
X103295080Y-48866226D01*
X103295078Y-48866234D01*
X103262396Y-49030537D01*
X83459202Y-49030537D01*
X83410629Y-48957842D01*
X83410623Y-48957834D01*
X83292162Y-48839373D01*
X83152860Y-48746295D01*
X82998082Y-48682184D01*
X82998074Y-48682182D01*
X82833771Y-48649500D01*
X82833767Y-48649500D01*
X82666233Y-48649500D01*
X82666228Y-48649500D01*
X82501925Y-48682182D01*
X82501917Y-48682184D01*
X82347139Y-48746295D01*
X82207837Y-48839373D01*
X82089373Y-48957837D01*
X81996295Y-49097139D01*
X81932184Y-49251917D01*
X81932182Y-49251925D01*
X81899500Y-49416228D01*
X81899500Y-49583771D01*
X81932182Y-49748074D01*
X81932184Y-49748082D01*
X81996295Y-49902860D01*
X82089373Y-50042162D01*
X82207834Y-50160623D01*
X82207842Y-50160629D01*
X82255387Y-50192398D01*
X82300193Y-50246010D01*
X82308900Y-50315335D01*
X82278746Y-50378362D01*
X82219303Y-50415082D01*
X82186497Y-50419500D01*
X82156228Y-50419500D01*
X81991925Y-50452182D01*
X81991917Y-50452184D01*
X81837139Y-50516295D01*
X81697837Y-50609373D01*
X81579373Y-50727837D01*
X81486295Y-50867139D01*
X81422184Y-51021917D01*
X81422182Y-51021925D01*
X81389500Y-51186228D01*
X81389500Y-51353771D01*
X81422182Y-51518074D01*
X81422185Y-51518086D01*
X81455099Y-51597548D01*
X81462568Y-51667017D01*
X81455099Y-51692452D01*
X81422185Y-51771913D01*
X81422182Y-51771925D01*
X81389500Y-51936228D01*
X81389500Y-52103771D01*
X81423372Y-52274057D01*
X81421267Y-52274475D01*
X81421804Y-52334643D01*
X81384555Y-52393756D01*
X81326712Y-52422387D01*
X81176923Y-52452182D01*
X81176913Y-52452185D01*
X81097452Y-52485099D01*
X81027983Y-52492568D01*
X81002548Y-52485099D01*
X80923086Y-52452185D01*
X80923074Y-52452182D01*
X80758771Y-52419500D01*
X80758767Y-52419500D01*
X80591233Y-52419500D01*
X80591228Y-52419500D01*
X80426925Y-52452182D01*
X80426913Y-52452185D01*
X80347452Y-52485099D01*
X80277983Y-52492568D01*
X80252548Y-52485099D01*
X80173086Y-52452185D01*
X80173074Y-52452182D01*
X80008771Y-52419500D01*
X80008767Y-52419500D01*
X79841233Y-52419500D01*
X79841228Y-52419500D01*
X79676925Y-52452182D01*
X79676917Y-52452184D01*
X79522139Y-52516295D01*
X79382837Y-52609373D01*
X79264373Y-52727837D01*
X79171295Y-52867139D01*
X79108776Y-53018074D01*
X79107184Y-53021918D01*
X79091713Y-53099692D01*
X79059330Y-53161602D01*
X78998614Y-53196176D01*
X78970097Y-53199500D01*
X77034449Y-53199500D01*
X76855589Y-53227829D01*
X76683363Y-53283787D01*
X76683360Y-53283788D01*
X76522002Y-53366006D01*
X76375505Y-53472441D01*
X76375500Y-53472445D01*
X76247445Y-53600500D01*
X76247441Y-53600505D01*
X76141006Y-53747002D01*
X76058788Y-53908360D01*
X76058787Y-53908363D01*
X76042431Y-53958705D01*
X76002994Y-54016380D01*
X75938635Y-54043579D01*
X75869789Y-54031665D01*
X75818313Y-53984420D01*
X75800500Y-53920387D01*
X75800500Y-50661304D01*
X77174500Y-50661304D01*
X77174500Y-50838695D01*
X77209103Y-51012658D01*
X77209106Y-51012667D01*
X77276983Y-51176540D01*
X77276990Y-51176553D01*
X77375535Y-51324034D01*
X77375538Y-51324038D01*
X77500961Y-51449461D01*
X77500965Y-51449464D01*
X77648446Y-51548009D01*
X77648459Y-51548016D01*
X77768042Y-51597548D01*
X77812334Y-51615894D01*
X77812336Y-51615894D01*
X77812341Y-51615896D01*
X77986304Y-51650499D01*
X77986307Y-51650500D01*
X77986309Y-51650500D01*
X78163693Y-51650500D01*
X78163694Y-51650499D01*
X78221682Y-51638964D01*
X78337658Y-51615896D01*
X78337661Y-51615894D01*
X78337666Y-51615894D01*
X78501547Y-51548013D01*
X78649035Y-51449464D01*
X78774464Y-51324035D01*
X78873013Y-51176547D01*
X78940894Y-51012666D01*
X78975500Y-50838691D01*
X78975500Y-50661309D01*
X78975500Y-50661306D01*
X78975499Y-50661304D01*
X78940896Y-50487341D01*
X78940893Y-50487332D01*
X78873016Y-50323459D01*
X78873009Y-50323446D01*
X78774464Y-50175965D01*
X78774461Y-50175961D01*
X78649038Y-50050538D01*
X78649034Y-50050535D01*
X78501553Y-49951990D01*
X78501540Y-49951983D01*
X78337667Y-49884106D01*
X78337658Y-49884103D01*
X78163694Y-49849500D01*
X78163691Y-49849500D01*
X77986309Y-49849500D01*
X77986306Y-49849500D01*
X77812341Y-49884103D01*
X77812332Y-49884106D01*
X77648459Y-49951983D01*
X77648446Y-49951990D01*
X77500965Y-50050535D01*
X77500961Y-50050538D01*
X77375538Y-50175961D01*
X77375535Y-50175965D01*
X77276990Y-50323446D01*
X77276983Y-50323459D01*
X77209106Y-50487332D01*
X77209103Y-50487341D01*
X77174500Y-50661304D01*
X75800500Y-50661304D01*
X75800500Y-47416228D01*
X81899500Y-47416228D01*
X81899500Y-47583771D01*
X81932182Y-47748074D01*
X81932184Y-47748082D01*
X81996295Y-47902860D01*
X82089373Y-48042162D01*
X82207837Y-48160626D01*
X82300494Y-48222537D01*
X82347137Y-48253703D01*
X82501918Y-48317816D01*
X82602461Y-48337815D01*
X82666228Y-48350499D01*
X82666232Y-48350500D01*
X82666233Y-48350500D01*
X82833768Y-48350500D01*
X82833769Y-48350499D01*
X82998082Y-48317816D01*
X83152863Y-48253703D01*
X83292162Y-48160626D01*
X83410626Y-48042162D01*
X83503703Y-47902863D01*
X83567816Y-47748082D01*
X83600500Y-47583767D01*
X83600500Y-47416233D01*
X83567816Y-47251918D01*
X83511473Y-47115896D01*
X83503704Y-47097139D01*
X83485874Y-47070455D01*
X83410626Y-46957838D01*
X83410625Y-46957837D01*
X83410623Y-46957834D01*
X83355701Y-46902912D01*
X89856184Y-46902912D01*
X89856184Y-47070455D01*
X89888866Y-47234758D01*
X89888868Y-47234766D01*
X89952979Y-47389544D01*
X90046057Y-47528846D01*
X90164521Y-47647310D01*
X90257178Y-47709221D01*
X90303821Y-47740387D01*
X90458602Y-47804500D01*
X90622917Y-47837184D01*
X90622922Y-47837184D01*
X90628978Y-47837781D01*
X90628725Y-47840347D01*
X90684992Y-47856869D01*
X90730747Y-47909673D01*
X90732513Y-47913730D01*
X90736293Y-47922856D01*
X90736295Y-47922860D01*
X90829373Y-48062162D01*
X90947837Y-48180626D01*
X91040494Y-48242537D01*
X91087137Y-48273703D01*
X91241918Y-48337816D01*
X91406228Y-48370499D01*
X91406232Y-48370500D01*
X91406233Y-48370500D01*
X91573768Y-48370500D01*
X91573769Y-48370499D01*
X91738082Y-48337816D01*
X91892863Y-48273703D01*
X92032162Y-48180626D01*
X92150626Y-48062162D01*
X92243703Y-47922863D01*
X92307816Y-47768082D01*
X92340500Y-47603767D01*
X92340500Y-47468935D01*
X92360185Y-47401896D01*
X92412989Y-47356141D01*
X92440302Y-47347319D01*
X92488082Y-47337816D01*
X92642863Y-47273703D01*
X92782162Y-47180626D01*
X92900626Y-47062162D01*
X92993703Y-46922863D01*
X93057816Y-46768082D01*
X93090500Y-46603767D01*
X93090500Y-46436233D01*
X93057816Y-46271918D01*
X92993703Y-46117137D01*
X92962537Y-46070494D01*
X92900626Y-45977837D01*
X92782162Y-45859373D01*
X92642860Y-45766295D01*
X92488082Y-45702184D01*
X92488074Y-45702182D01*
X92323771Y-45669500D01*
X92323767Y-45669500D01*
X92156233Y-45669500D01*
X92156228Y-45669500D01*
X91991925Y-45702182D01*
X91991917Y-45702184D01*
X91837139Y-45766295D01*
X91697837Y-45859373D01*
X91579373Y-45977837D01*
X91486295Y-46117139D01*
X91424866Y-46265442D01*
X91381025Y-46319846D01*
X91314730Y-46341910D01*
X91247031Y-46324630D01*
X91241415Y-46321092D01*
X91141845Y-46254562D01*
X91109547Y-46232981D01*
X91109544Y-46232979D01*
X91109543Y-46232979D01*
X90954766Y-46168868D01*
X90954758Y-46168866D01*
X90790455Y-46136184D01*
X90790451Y-46136184D01*
X90622917Y-46136184D01*
X90622912Y-46136184D01*
X90458609Y-46168866D01*
X90458601Y-46168868D01*
X90303823Y-46232979D01*
X90164521Y-46326057D01*
X90046057Y-46444521D01*
X89952979Y-46583823D01*
X89888868Y-46738601D01*
X89888866Y-46738609D01*
X89856184Y-46902912D01*
X83355701Y-46902912D01*
X83292162Y-46839373D01*
X83152860Y-46746295D01*
X82998082Y-46682184D01*
X82998074Y-46682182D01*
X82833771Y-46649500D01*
X82833767Y-46649500D01*
X82666233Y-46649500D01*
X82666228Y-46649500D01*
X82501925Y-46682182D01*
X82501917Y-46682184D01*
X82347139Y-46746295D01*
X82207837Y-46839373D01*
X82089373Y-46957837D01*
X81996295Y-47097139D01*
X81932184Y-47251917D01*
X81932182Y-47251925D01*
X81899500Y-47416228D01*
X75800500Y-47416228D01*
X75800500Y-46161304D01*
X77174500Y-46161304D01*
X77174500Y-46338695D01*
X77209103Y-46512658D01*
X77209106Y-46512667D01*
X77276983Y-46676540D01*
X77276990Y-46676553D01*
X77375535Y-46824034D01*
X77375538Y-46824038D01*
X77500961Y-46949461D01*
X77500965Y-46949464D01*
X77648446Y-47048009D01*
X77648459Y-47048016D01*
X77702633Y-47070455D01*
X77812334Y-47115894D01*
X77812336Y-47115894D01*
X77812341Y-47115896D01*
X77986304Y-47150499D01*
X77986307Y-47150500D01*
X77986309Y-47150500D01*
X78163693Y-47150500D01*
X78163694Y-47150499D01*
X78221682Y-47138964D01*
X78337658Y-47115896D01*
X78337661Y-47115894D01*
X78337666Y-47115894D01*
X78501547Y-47048013D01*
X78649035Y-46949464D01*
X78774464Y-46824035D01*
X78873013Y-46676547D01*
X78940894Y-46512666D01*
X78945475Y-46489640D01*
X78975499Y-46338695D01*
X78975500Y-46338693D01*
X78975500Y-46161306D01*
X78975499Y-46161304D01*
X78940896Y-45987341D01*
X78940893Y-45987332D01*
X78873016Y-45823459D01*
X78873009Y-45823446D01*
X78774464Y-45675965D01*
X78774461Y-45675961D01*
X78696913Y-45598413D01*
X98287057Y-45598413D01*
X98287057Y-45765956D01*
X98319739Y-45930259D01*
X98319741Y-45930267D01*
X98383852Y-46085045D01*
X98476930Y-46224347D01*
X98595394Y-46342811D01*
X98734904Y-46436028D01*
X98779709Y-46489640D01*
X98788416Y-46558965D01*
X98769116Y-46608020D01*
X98736295Y-46657140D01*
X98672184Y-46811917D01*
X98672182Y-46811925D01*
X98639500Y-46976228D01*
X98639500Y-47143771D01*
X98672182Y-47308074D01*
X98672184Y-47308082D01*
X98736295Y-47462860D01*
X98829373Y-47602162D01*
X98947837Y-47720626D01*
X99040494Y-47782537D01*
X99087137Y-47813703D01*
X99241918Y-47877816D01*
X99367824Y-47902860D01*
X99406228Y-47910499D01*
X99406232Y-47910500D01*
X99406233Y-47910500D01*
X99573768Y-47910500D01*
X99573769Y-47910499D01*
X99738082Y-47877816D01*
X99892863Y-47813703D01*
X100032162Y-47720626D01*
X100150626Y-47602162D01*
X100243703Y-47462863D01*
X100307816Y-47308082D01*
X100340500Y-47143767D01*
X100340500Y-46976233D01*
X100307816Y-46811918D01*
X100243703Y-46657137D01*
X100234770Y-46643768D01*
X100164791Y-46539036D01*
X100164788Y-46539033D01*
X100150623Y-46517834D01*
X100109017Y-46476228D01*
X104152125Y-46476228D01*
X104152125Y-46643771D01*
X104184807Y-46808074D01*
X104184809Y-46808082D01*
X104248920Y-46962860D01*
X104341998Y-47102162D01*
X104460462Y-47220626D01*
X104553119Y-47282537D01*
X104599762Y-47313703D01*
X104754543Y-47377816D01*
X104918853Y-47410499D01*
X104918857Y-47410500D01*
X104918858Y-47410500D01*
X105086393Y-47410500D01*
X105086394Y-47410499D01*
X105250707Y-47377816D01*
X105405488Y-47313703D01*
X105544787Y-47220626D01*
X105663251Y-47102162D01*
X105756328Y-46962863D01*
X105820441Y-46808082D01*
X105853125Y-46643767D01*
X105853125Y-46476233D01*
X105820441Y-46311918D01*
X105756328Y-46157137D01*
X105725162Y-46110494D01*
X105663251Y-46017837D01*
X105544787Y-45899373D01*
X105405485Y-45806295D01*
X105250707Y-45742184D01*
X105250699Y-45742182D01*
X105086396Y-45709500D01*
X105086392Y-45709500D01*
X104918858Y-45709500D01*
X104918853Y-45709500D01*
X104754550Y-45742182D01*
X104754542Y-45742184D01*
X104599764Y-45806295D01*
X104460462Y-45899373D01*
X104341998Y-46017837D01*
X104248920Y-46157139D01*
X104184809Y-46311917D01*
X104184807Y-46311925D01*
X104152125Y-46476228D01*
X100109017Y-46476228D01*
X100032165Y-46399376D01*
X100032161Y-46399373D01*
X99892652Y-46306156D01*
X99847847Y-46252544D01*
X99839140Y-46183219D01*
X99858440Y-46134165D01*
X99891260Y-46085048D01*
X99955373Y-45930267D01*
X99988057Y-45765952D01*
X99988057Y-45598418D01*
X99955373Y-45434103D01*
X99891260Y-45279322D01*
X99853460Y-45222751D01*
X99798183Y-45140022D01*
X99679724Y-45021563D01*
X99679717Y-45021557D01*
X99605187Y-44971758D01*
X118491794Y-44971758D01*
X118491794Y-44971759D01*
X118523431Y-44992898D01*
X118702681Y-45067145D01*
X118702693Y-45067148D01*
X118892981Y-45104999D01*
X118892984Y-45105000D01*
X119087016Y-45105000D01*
X119087018Y-45104999D01*
X119277306Y-45067148D01*
X119277318Y-45067145D01*
X119456565Y-44992899D01*
X119488204Y-44971758D01*
X118990001Y-44473554D01*
X118990000Y-44473554D01*
X118491794Y-44971758D01*
X99605187Y-44971758D01*
X99540417Y-44928480D01*
X99385639Y-44864369D01*
X99385631Y-44864367D01*
X99221328Y-44831685D01*
X99221324Y-44831685D01*
X99053790Y-44831685D01*
X99053785Y-44831685D01*
X98889482Y-44864367D01*
X98889474Y-44864369D01*
X98734696Y-44928480D01*
X98595394Y-45021558D01*
X98476930Y-45140022D01*
X98383852Y-45279324D01*
X98319741Y-45434102D01*
X98319739Y-45434110D01*
X98287057Y-45598413D01*
X78696913Y-45598413D01*
X78649038Y-45550538D01*
X78649034Y-45550535D01*
X78501553Y-45451990D01*
X78501540Y-45451983D01*
X78337667Y-45384106D01*
X78337658Y-45384103D01*
X78163694Y-45349500D01*
X78163691Y-45349500D01*
X77986309Y-45349500D01*
X77986306Y-45349500D01*
X77812341Y-45384103D01*
X77812332Y-45384106D01*
X77648459Y-45451983D01*
X77648446Y-45451990D01*
X77500965Y-45550535D01*
X77500961Y-45550538D01*
X77375538Y-45675961D01*
X77375535Y-45675965D01*
X77276990Y-45823446D01*
X77276983Y-45823459D01*
X77209106Y-45987332D01*
X77209103Y-45987341D01*
X77174500Y-46161304D01*
X75800500Y-46161304D01*
X75800500Y-43079612D01*
X75820185Y-43012573D01*
X75872989Y-42966818D01*
X75942147Y-42956874D01*
X76005703Y-42985899D01*
X76042431Y-43041295D01*
X76058786Y-43091633D01*
X76058788Y-43091639D01*
X76093301Y-43159373D01*
X76138002Y-43247103D01*
X76141006Y-43252997D01*
X76247441Y-43399494D01*
X76247445Y-43399499D01*
X76375500Y-43527554D01*
X76375505Y-43527558D01*
X76436572Y-43571925D01*
X76522006Y-43633996D01*
X76627484Y-43687740D01*
X76683360Y-43716211D01*
X76683363Y-43716212D01*
X76744968Y-43736228D01*
X76855591Y-43772171D01*
X76938429Y-43785291D01*
X77034449Y-43800500D01*
X77034454Y-43800500D01*
X79115551Y-43800500D01*
X79202259Y-43786765D01*
X79294409Y-43772171D01*
X79405032Y-43736228D01*
X88639500Y-43736228D01*
X88639500Y-43903771D01*
X88672182Y-44068074D01*
X88672184Y-44068082D01*
X88736295Y-44222860D01*
X88829373Y-44362162D01*
X88947837Y-44480626D01*
X89040494Y-44542537D01*
X89087137Y-44573703D01*
X89241918Y-44637816D01*
X89406228Y-44670499D01*
X89406232Y-44670500D01*
X89406233Y-44670500D01*
X89573768Y-44670500D01*
X89573769Y-44670499D01*
X89738082Y-44637816D01*
X89837061Y-44596817D01*
X93139500Y-44596817D01*
X93139500Y-44764360D01*
X93172182Y-44928663D01*
X93172184Y-44928671D01*
X93236295Y-45083449D01*
X93329373Y-45222751D01*
X93447837Y-45341215D01*
X93540494Y-45403126D01*
X93587137Y-45434292D01*
X93741918Y-45498405D01*
X93906228Y-45531088D01*
X93906232Y-45531089D01*
X93906233Y-45531089D01*
X94073768Y-45531089D01*
X94073769Y-45531088D01*
X94238082Y-45498405D01*
X94392863Y-45434292D01*
X94532162Y-45341215D01*
X94650626Y-45222751D01*
X94743703Y-45083452D01*
X94807816Y-44928671D01*
X94840500Y-44764356D01*
X94840500Y-44596822D01*
X94807816Y-44432507D01*
X94743703Y-44277726D01*
X94668883Y-44165750D01*
X94650626Y-44138426D01*
X94535181Y-44022981D01*
X118005000Y-44022981D01*
X118005000Y-44217018D01*
X118042851Y-44407306D01*
X118042853Y-44407314D01*
X118117102Y-44586568D01*
X118117106Y-44586575D01*
X118138240Y-44618204D01*
X118138241Y-44618205D01*
X118636446Y-44120000D01*
X118590696Y-44074250D01*
X118760000Y-44074250D01*
X118760000Y-44165750D01*
X118795015Y-44250285D01*
X118859715Y-44314985D01*
X118944250Y-44350000D01*
X119035750Y-44350000D01*
X119120285Y-44314985D01*
X119184985Y-44250285D01*
X119220000Y-44165750D01*
X119220000Y-44119999D01*
X119343554Y-44119999D01*
X119343554Y-44120000D01*
X119841758Y-44618204D01*
X119862899Y-44586565D01*
X119937145Y-44407318D01*
X119937148Y-44407306D01*
X119974999Y-44217018D01*
X119975000Y-44217016D01*
X119975000Y-44022983D01*
X119974999Y-44022981D01*
X119937148Y-43832693D01*
X119937145Y-43832681D01*
X119862898Y-43653431D01*
X119841758Y-43621794D01*
X119343554Y-44119999D01*
X119220000Y-44119999D01*
X119220000Y-44074250D01*
X119184985Y-43989715D01*
X119120285Y-43925015D01*
X119035750Y-43890000D01*
X118944250Y-43890000D01*
X118859715Y-43925015D01*
X118795015Y-43989715D01*
X118760000Y-44074250D01*
X118590696Y-44074250D01*
X118138240Y-43621794D01*
X118117104Y-43653426D01*
X118117103Y-43653428D01*
X118042853Y-43832685D01*
X118042851Y-43832693D01*
X118005000Y-44022981D01*
X94535181Y-44022981D01*
X94532162Y-44019962D01*
X94392860Y-43926884D01*
X94238082Y-43862773D01*
X94238074Y-43862771D01*
X94073771Y-43830089D01*
X94073767Y-43830089D01*
X93906233Y-43830089D01*
X93906228Y-43830089D01*
X93741925Y-43862771D01*
X93741917Y-43862773D01*
X93587139Y-43926884D01*
X93447837Y-44019962D01*
X93329373Y-44138426D01*
X93236295Y-44277728D01*
X93172184Y-44432506D01*
X93172182Y-44432514D01*
X93139500Y-44596817D01*
X89837061Y-44596817D01*
X89892863Y-44573703D01*
X90032162Y-44480626D01*
X90150626Y-44362162D01*
X90243703Y-44222863D01*
X90307816Y-44068082D01*
X90340500Y-43903767D01*
X90340500Y-43736233D01*
X90307816Y-43571918D01*
X90243703Y-43417137D01*
X90190702Y-43337815D01*
X90150626Y-43277837D01*
X90032162Y-43159373D01*
X89892860Y-43066295D01*
X89738082Y-43002184D01*
X89738074Y-43002182D01*
X89573771Y-42969500D01*
X89573767Y-42969500D01*
X89406233Y-42969500D01*
X89406228Y-42969500D01*
X89241925Y-43002182D01*
X89241917Y-43002184D01*
X89087139Y-43066295D01*
X88947837Y-43159373D01*
X88829373Y-43277837D01*
X88736295Y-43417139D01*
X88672184Y-43571917D01*
X88672182Y-43571925D01*
X88639500Y-43736228D01*
X79405032Y-43736228D01*
X79466639Y-43716211D01*
X79627994Y-43633996D01*
X79632321Y-43630851D01*
X79633741Y-43629821D01*
X79633742Y-43629820D01*
X79774494Y-43527558D01*
X79774492Y-43527558D01*
X79774501Y-43527553D01*
X79902553Y-43399501D01*
X80008996Y-43252994D01*
X80091211Y-43091639D01*
X80147171Y-42919409D01*
X80171139Y-42768082D01*
X80175500Y-42740551D01*
X80175500Y-42559448D01*
X80155984Y-42436233D01*
X80147171Y-42380591D01*
X80111861Y-42271917D01*
X80091212Y-42208363D01*
X80091211Y-42208360D01*
X80062740Y-42152484D01*
X80008996Y-42047006D01*
X79926173Y-41933009D01*
X79902558Y-41900505D01*
X79902554Y-41900500D01*
X79774499Y-41772445D01*
X79774494Y-41772441D01*
X79627997Y-41666006D01*
X79627996Y-41666005D01*
X79627994Y-41666004D01*
X79576300Y-41639664D01*
X79466639Y-41583788D01*
X79466636Y-41583787D01*
X79294410Y-41527829D01*
X79115551Y-41499500D01*
X79115546Y-41499500D01*
X77034454Y-41499500D01*
X77034449Y-41499500D01*
X76855589Y-41527829D01*
X76683363Y-41583787D01*
X76683360Y-41583788D01*
X76522002Y-41666006D01*
X76375505Y-41772441D01*
X76375500Y-41772445D01*
X76247445Y-41900500D01*
X76247441Y-41900505D01*
X76141006Y-42047002D01*
X76058788Y-42208360D01*
X76058787Y-42208363D01*
X76042431Y-42258705D01*
X76002994Y-42316380D01*
X75938635Y-42343579D01*
X75869789Y-42331665D01*
X75818313Y-42284420D01*
X75800500Y-42220387D01*
X75800500Y-40504427D01*
X75800816Y-40495581D01*
X75803329Y-40460438D01*
X75817165Y-40266977D01*
X75819683Y-40249470D01*
X75848470Y-40117140D01*
X75867459Y-40029851D01*
X75872436Y-40012900D01*
X75950985Y-39802299D01*
X75958325Y-39786227D01*
X76066044Y-39588956D01*
X76075600Y-39574086D01*
X76210294Y-39394156D01*
X76221868Y-39380799D01*
X76380799Y-39221868D01*
X76394156Y-39210294D01*
X76574086Y-39075600D01*
X76588956Y-39066044D01*
X76786227Y-38958325D01*
X76802299Y-38950985D01*
X77012900Y-38872436D01*
X77029851Y-38867459D01*
X77249472Y-38819682D01*
X77266977Y-38817165D01*
X77495582Y-38800816D01*
X77504428Y-38800500D01*
X77547595Y-38800500D01*
X82001327Y-38800500D01*
X82068366Y-38820185D01*
G37*
G04 #@! TD.AperFunction*
M02*
