%TF.GenerationSoftware,KiCad,Pcbnew,9.0.0*%
%TF.CreationDate,2025-04-06T23:20:58+02:00*%
%TF.ProjectId,RF-to-USB,52462d74-6f2d-4555-9342-2e6b69636164,rev?*%
%TF.SameCoordinates,Original*%
%TF.FileFunction,Drillmap*%
%TF.FilePolarity,Positive*%
%FSLAX45Y45*%
G04 Gerber Fmt 4.5, Leading zero omitted, Abs format (unit mm)*
G04 Created by KiCad (PCBNEW 9.0.0) date 2025-04-06 23:20:58*
%MOMM*%
%LPD*%
G01*
G04 APERTURE LIST*
%ADD10C,0.050000*%
%ADD11C,0.200000*%
%ADD12C,0.110000*%
G04 APERTURE END LIST*
D10*
X7750000Y-3850000D02*
X12350000Y-3850000D01*
X12350000Y-3850000D02*
G75*
G02*
X12550000Y-4050000I0J-200000D01*
G01*
X12550000Y-5650000D02*
G75*
G02*
X12350000Y-5850000I-200000J0D01*
G01*
X12350000Y-5850000D02*
X7750000Y-5850000D01*
X7550000Y-4050000D02*
G75*
G02*
X7750000Y-3850000I200000J0D01*
G01*
X7750000Y-5850000D02*
G75*
G02*
X7550000Y-5650000I0J200000D01*
G01*
X12550000Y-4050000D02*
X12550000Y-5650000D01*
X7550000Y-5650000D02*
X7550000Y-4050000D01*
D11*
D12*
X7752500Y-4570000D02*
X7862500Y-4680000D01*
X7862500Y-4570000D02*
X7752500Y-4680000D01*
X7752500Y-5020000D02*
X7862500Y-5130000D01*
X7862500Y-5020000D02*
X7752500Y-5130000D01*
D11*
X7808277Y-6163984D02*
X7808277Y-5963984D01*
X7808277Y-5963984D02*
X7855896Y-5963984D01*
X7855896Y-5963984D02*
X7884467Y-5973508D01*
X7884467Y-5973508D02*
X7903515Y-5992555D01*
X7903515Y-5992555D02*
X7913039Y-6011603D01*
X7913039Y-6011603D02*
X7922562Y-6049698D01*
X7922562Y-6049698D02*
X7922562Y-6078269D01*
X7922562Y-6078269D02*
X7913039Y-6116365D01*
X7913039Y-6116365D02*
X7903515Y-6135412D01*
X7903515Y-6135412D02*
X7884467Y-6154460D01*
X7884467Y-6154460D02*
X7855896Y-6163984D01*
X7855896Y-6163984D02*
X7808277Y-6163984D01*
X8008277Y-6163984D02*
X8008277Y-6030650D01*
X8008277Y-6068746D02*
X8017801Y-6049698D01*
X8017801Y-6049698D02*
X8027324Y-6040174D01*
X8027324Y-6040174D02*
X8046372Y-6030650D01*
X8046372Y-6030650D02*
X8065420Y-6030650D01*
X8132086Y-6163984D02*
X8132086Y-6030650D01*
X8132086Y-5963984D02*
X8122562Y-5973508D01*
X8122562Y-5973508D02*
X8132086Y-5983031D01*
X8132086Y-5983031D02*
X8141610Y-5973508D01*
X8141610Y-5973508D02*
X8132086Y-5963984D01*
X8132086Y-5963984D02*
X8132086Y-5983031D01*
X8255896Y-6163984D02*
X8236848Y-6154460D01*
X8236848Y-6154460D02*
X8227324Y-6135412D01*
X8227324Y-6135412D02*
X8227324Y-5963984D01*
X8360658Y-6163984D02*
X8341610Y-6154460D01*
X8341610Y-6154460D02*
X8332086Y-6135412D01*
X8332086Y-6135412D02*
X8332086Y-5963984D01*
X8589229Y-6163984D02*
X8589229Y-5963984D01*
X8589229Y-5963984D02*
X8655896Y-6106841D01*
X8655896Y-6106841D02*
X8722563Y-5963984D01*
X8722563Y-5963984D02*
X8722563Y-6163984D01*
X8903515Y-6163984D02*
X8903515Y-6059222D01*
X8903515Y-6059222D02*
X8893991Y-6040174D01*
X8893991Y-6040174D02*
X8874944Y-6030650D01*
X8874944Y-6030650D02*
X8836848Y-6030650D01*
X8836848Y-6030650D02*
X8817801Y-6040174D01*
X8903515Y-6154460D02*
X8884467Y-6163984D01*
X8884467Y-6163984D02*
X8836848Y-6163984D01*
X8836848Y-6163984D02*
X8817801Y-6154460D01*
X8817801Y-6154460D02*
X8808277Y-6135412D01*
X8808277Y-6135412D02*
X8808277Y-6116365D01*
X8808277Y-6116365D02*
X8817801Y-6097317D01*
X8817801Y-6097317D02*
X8836848Y-6087793D01*
X8836848Y-6087793D02*
X8884467Y-6087793D01*
X8884467Y-6087793D02*
X8903515Y-6078269D01*
X8998753Y-6030650D02*
X8998753Y-6230650D01*
X8998753Y-6040174D02*
X9017801Y-6030650D01*
X9017801Y-6030650D02*
X9055896Y-6030650D01*
X9055896Y-6030650D02*
X9074944Y-6040174D01*
X9074944Y-6040174D02*
X9084467Y-6049698D01*
X9084467Y-6049698D02*
X9093991Y-6068746D01*
X9093991Y-6068746D02*
X9093991Y-6125888D01*
X9093991Y-6125888D02*
X9084467Y-6144936D01*
X9084467Y-6144936D02*
X9074944Y-6154460D01*
X9074944Y-6154460D02*
X9055896Y-6163984D01*
X9055896Y-6163984D02*
X9017801Y-6163984D01*
X9017801Y-6163984D02*
X8998753Y-6154460D01*
X9179705Y-6144936D02*
X9189229Y-6154460D01*
X9189229Y-6154460D02*
X9179705Y-6163984D01*
X9179705Y-6163984D02*
X9170182Y-6154460D01*
X9170182Y-6154460D02*
X9179705Y-6144936D01*
X9179705Y-6144936D02*
X9179705Y-6163984D01*
X9179705Y-6040174D02*
X9189229Y-6049698D01*
X9189229Y-6049698D02*
X9179705Y-6059222D01*
X9179705Y-6059222D02*
X9170182Y-6049698D01*
X9170182Y-6049698D02*
X9179705Y-6040174D01*
X9179705Y-6040174D02*
X9179705Y-6059222D01*
D12*
X7437500Y-6437500D02*
X7547500Y-6547500D01*
X7547500Y-6437500D02*
X7437500Y-6547500D01*
D11*
X7913039Y-6583984D02*
X7798753Y-6583984D01*
X7855896Y-6583984D02*
X7855896Y-6383984D01*
X7855896Y-6383984D02*
X7836848Y-6412555D01*
X7836848Y-6412555D02*
X7817801Y-6431603D01*
X7817801Y-6431603D02*
X7798753Y-6441127D01*
X7998753Y-6564936D02*
X8008277Y-6574460D01*
X8008277Y-6574460D02*
X7998753Y-6583984D01*
X7998753Y-6583984D02*
X7989229Y-6574460D01*
X7989229Y-6574460D02*
X7998753Y-6564936D01*
X7998753Y-6564936D02*
X7998753Y-6583984D01*
X8198753Y-6583984D02*
X8084467Y-6583984D01*
X8141610Y-6583984D02*
X8141610Y-6383984D01*
X8141610Y-6383984D02*
X8122562Y-6412555D01*
X8122562Y-6412555D02*
X8103515Y-6431603D01*
X8103515Y-6431603D02*
X8084467Y-6441127D01*
X8322562Y-6383984D02*
X8341610Y-6383984D01*
X8341610Y-6383984D02*
X8360658Y-6393508D01*
X8360658Y-6393508D02*
X8370182Y-6403031D01*
X8370182Y-6403031D02*
X8379705Y-6422079D01*
X8379705Y-6422079D02*
X8389229Y-6460174D01*
X8389229Y-6460174D02*
X8389229Y-6507793D01*
X8389229Y-6507793D02*
X8379705Y-6545888D01*
X8379705Y-6545888D02*
X8370182Y-6564936D01*
X8370182Y-6564936D02*
X8360658Y-6574460D01*
X8360658Y-6574460D02*
X8341610Y-6583984D01*
X8341610Y-6583984D02*
X8322562Y-6583984D01*
X8322562Y-6583984D02*
X8303515Y-6574460D01*
X8303515Y-6574460D02*
X8293991Y-6564936D01*
X8293991Y-6564936D02*
X8284467Y-6545888D01*
X8284467Y-6545888D02*
X8274943Y-6507793D01*
X8274943Y-6507793D02*
X8274943Y-6460174D01*
X8274943Y-6460174D02*
X8284467Y-6422079D01*
X8284467Y-6422079D02*
X8293991Y-6403031D01*
X8293991Y-6403031D02*
X8303515Y-6393508D01*
X8303515Y-6393508D02*
X8322562Y-6383984D01*
X8513039Y-6383984D02*
X8532086Y-6383984D01*
X8532086Y-6383984D02*
X8551134Y-6393508D01*
X8551134Y-6393508D02*
X8560658Y-6403031D01*
X8560658Y-6403031D02*
X8570182Y-6422079D01*
X8570182Y-6422079D02*
X8579705Y-6460174D01*
X8579705Y-6460174D02*
X8579705Y-6507793D01*
X8579705Y-6507793D02*
X8570182Y-6545888D01*
X8570182Y-6545888D02*
X8560658Y-6564936D01*
X8560658Y-6564936D02*
X8551134Y-6574460D01*
X8551134Y-6574460D02*
X8532086Y-6583984D01*
X8532086Y-6583984D02*
X8513039Y-6583984D01*
X8513039Y-6583984D02*
X8493991Y-6574460D01*
X8493991Y-6574460D02*
X8484467Y-6564936D01*
X8484467Y-6564936D02*
X8474944Y-6545888D01*
X8474944Y-6545888D02*
X8465420Y-6507793D01*
X8465420Y-6507793D02*
X8465420Y-6460174D01*
X8465420Y-6460174D02*
X8474944Y-6422079D01*
X8474944Y-6422079D02*
X8484467Y-6403031D01*
X8484467Y-6403031D02*
X8493991Y-6393508D01*
X8493991Y-6393508D02*
X8513039Y-6383984D01*
X8665420Y-6583984D02*
X8665420Y-6450650D01*
X8665420Y-6469698D02*
X8674944Y-6460174D01*
X8674944Y-6460174D02*
X8693991Y-6450650D01*
X8693991Y-6450650D02*
X8722563Y-6450650D01*
X8722563Y-6450650D02*
X8741610Y-6460174D01*
X8741610Y-6460174D02*
X8751134Y-6479222D01*
X8751134Y-6479222D02*
X8751134Y-6583984D01*
X8751134Y-6479222D02*
X8760658Y-6460174D01*
X8760658Y-6460174D02*
X8779705Y-6450650D01*
X8779705Y-6450650D02*
X8808277Y-6450650D01*
X8808277Y-6450650D02*
X8827325Y-6460174D01*
X8827325Y-6460174D02*
X8836848Y-6479222D01*
X8836848Y-6479222D02*
X8836848Y-6583984D01*
X8932086Y-6583984D02*
X8932086Y-6450650D01*
X8932086Y-6469698D02*
X8941610Y-6460174D01*
X8941610Y-6460174D02*
X8960658Y-6450650D01*
X8960658Y-6450650D02*
X8989229Y-6450650D01*
X8989229Y-6450650D02*
X9008277Y-6460174D01*
X9008277Y-6460174D02*
X9017801Y-6479222D01*
X9017801Y-6479222D02*
X9017801Y-6583984D01*
X9017801Y-6479222D02*
X9027325Y-6460174D01*
X9027325Y-6460174D02*
X9046372Y-6450650D01*
X9046372Y-6450650D02*
X9074944Y-6450650D01*
X9074944Y-6450650D02*
X9093991Y-6460174D01*
X9093991Y-6460174D02*
X9103515Y-6479222D01*
X9103515Y-6479222D02*
X9103515Y-6583984D01*
X9493991Y-6374460D02*
X9322563Y-6631603D01*
X9751134Y-6383984D02*
X9770182Y-6383984D01*
X9770182Y-6383984D02*
X9789229Y-6393508D01*
X9789229Y-6393508D02*
X9798753Y-6403031D01*
X9798753Y-6403031D02*
X9808277Y-6422079D01*
X9808277Y-6422079D02*
X9817801Y-6460174D01*
X9817801Y-6460174D02*
X9817801Y-6507793D01*
X9817801Y-6507793D02*
X9808277Y-6545888D01*
X9808277Y-6545888D02*
X9798753Y-6564936D01*
X9798753Y-6564936D02*
X9789229Y-6574460D01*
X9789229Y-6574460D02*
X9770182Y-6583984D01*
X9770182Y-6583984D02*
X9751134Y-6583984D01*
X9751134Y-6583984D02*
X9732087Y-6574460D01*
X9732087Y-6574460D02*
X9722563Y-6564936D01*
X9722563Y-6564936D02*
X9713039Y-6545888D01*
X9713039Y-6545888D02*
X9703515Y-6507793D01*
X9703515Y-6507793D02*
X9703515Y-6460174D01*
X9703515Y-6460174D02*
X9713039Y-6422079D01*
X9713039Y-6422079D02*
X9722563Y-6403031D01*
X9722563Y-6403031D02*
X9732087Y-6393508D01*
X9732087Y-6393508D02*
X9751134Y-6383984D01*
X9903515Y-6564936D02*
X9913039Y-6574460D01*
X9913039Y-6574460D02*
X9903515Y-6583984D01*
X9903515Y-6583984D02*
X9893991Y-6574460D01*
X9893991Y-6574460D02*
X9903515Y-6564936D01*
X9903515Y-6564936D02*
X9903515Y-6583984D01*
X10036848Y-6383984D02*
X10055896Y-6383984D01*
X10055896Y-6383984D02*
X10074944Y-6393508D01*
X10074944Y-6393508D02*
X10084468Y-6403031D01*
X10084468Y-6403031D02*
X10093991Y-6422079D01*
X10093991Y-6422079D02*
X10103515Y-6460174D01*
X10103515Y-6460174D02*
X10103515Y-6507793D01*
X10103515Y-6507793D02*
X10093991Y-6545888D01*
X10093991Y-6545888D02*
X10084468Y-6564936D01*
X10084468Y-6564936D02*
X10074944Y-6574460D01*
X10074944Y-6574460D02*
X10055896Y-6583984D01*
X10055896Y-6583984D02*
X10036848Y-6583984D01*
X10036848Y-6583984D02*
X10017801Y-6574460D01*
X10017801Y-6574460D02*
X10008277Y-6564936D01*
X10008277Y-6564936D02*
X9998753Y-6545888D01*
X9998753Y-6545888D02*
X9989229Y-6507793D01*
X9989229Y-6507793D02*
X9989229Y-6460174D01*
X9989229Y-6460174D02*
X9998753Y-6422079D01*
X9998753Y-6422079D02*
X10008277Y-6403031D01*
X10008277Y-6403031D02*
X10017801Y-6393508D01*
X10017801Y-6393508D02*
X10036848Y-6383984D01*
X10274944Y-6450650D02*
X10274944Y-6583984D01*
X10227325Y-6374460D02*
X10179706Y-6517317D01*
X10179706Y-6517317D02*
X10303515Y-6517317D01*
X10360658Y-6383984D02*
X10484468Y-6383984D01*
X10484468Y-6383984D02*
X10417801Y-6460174D01*
X10417801Y-6460174D02*
X10446372Y-6460174D01*
X10446372Y-6460174D02*
X10465420Y-6469698D01*
X10465420Y-6469698D02*
X10474944Y-6479222D01*
X10474944Y-6479222D02*
X10484468Y-6498269D01*
X10484468Y-6498269D02*
X10484468Y-6545888D01*
X10484468Y-6545888D02*
X10474944Y-6564936D01*
X10474944Y-6564936D02*
X10465420Y-6574460D01*
X10465420Y-6574460D02*
X10446372Y-6583984D01*
X10446372Y-6583984D02*
X10389229Y-6583984D01*
X10389229Y-6583984D02*
X10370182Y-6574460D01*
X10370182Y-6574460D02*
X10360658Y-6564936D01*
X10551134Y-6383984D02*
X10674944Y-6383984D01*
X10674944Y-6383984D02*
X10608277Y-6460174D01*
X10608277Y-6460174D02*
X10636849Y-6460174D01*
X10636849Y-6460174D02*
X10655896Y-6469698D01*
X10655896Y-6469698D02*
X10665420Y-6479222D01*
X10665420Y-6479222D02*
X10674944Y-6498269D01*
X10674944Y-6498269D02*
X10674944Y-6545888D01*
X10674944Y-6545888D02*
X10665420Y-6564936D01*
X10665420Y-6564936D02*
X10655896Y-6574460D01*
X10655896Y-6574460D02*
X10636849Y-6583984D01*
X10636849Y-6583984D02*
X10579706Y-6583984D01*
X10579706Y-6583984D02*
X10560658Y-6574460D01*
X10560658Y-6574460D02*
X10551134Y-6564936D01*
X10751134Y-6383984D02*
X10751134Y-6422079D01*
X10827325Y-6383984D02*
X10827325Y-6422079D01*
X11122563Y-6660174D02*
X11113039Y-6650650D01*
X11113039Y-6650650D02*
X11093991Y-6622079D01*
X11093991Y-6622079D02*
X11084468Y-6603031D01*
X11084468Y-6603031D02*
X11074944Y-6574460D01*
X11074944Y-6574460D02*
X11065420Y-6526841D01*
X11065420Y-6526841D02*
X11065420Y-6488746D01*
X11065420Y-6488746D02*
X11074944Y-6441127D01*
X11074944Y-6441127D02*
X11084468Y-6412555D01*
X11084468Y-6412555D02*
X11093991Y-6393508D01*
X11093991Y-6393508D02*
X11113039Y-6364936D01*
X11113039Y-6364936D02*
X11122563Y-6355412D01*
X11189229Y-6403031D02*
X11198753Y-6393508D01*
X11198753Y-6393508D02*
X11217801Y-6383984D01*
X11217801Y-6383984D02*
X11265420Y-6383984D01*
X11265420Y-6383984D02*
X11284468Y-6393508D01*
X11284468Y-6393508D02*
X11293991Y-6403031D01*
X11293991Y-6403031D02*
X11303515Y-6422079D01*
X11303515Y-6422079D02*
X11303515Y-6441127D01*
X11303515Y-6441127D02*
X11293991Y-6469698D01*
X11293991Y-6469698D02*
X11179706Y-6583984D01*
X11179706Y-6583984D02*
X11303515Y-6583984D01*
X11541610Y-6583984D02*
X11541610Y-6383984D01*
X11627325Y-6583984D02*
X11627325Y-6479222D01*
X11627325Y-6479222D02*
X11617801Y-6460174D01*
X11617801Y-6460174D02*
X11598753Y-6450650D01*
X11598753Y-6450650D02*
X11570182Y-6450650D01*
X11570182Y-6450650D02*
X11551134Y-6460174D01*
X11551134Y-6460174D02*
X11541610Y-6469698D01*
X11751134Y-6583984D02*
X11732087Y-6574460D01*
X11732087Y-6574460D02*
X11722563Y-6564936D01*
X11722563Y-6564936D02*
X11713039Y-6545888D01*
X11713039Y-6545888D02*
X11713039Y-6488746D01*
X11713039Y-6488746D02*
X11722563Y-6469698D01*
X11722563Y-6469698D02*
X11732087Y-6460174D01*
X11732087Y-6460174D02*
X11751134Y-6450650D01*
X11751134Y-6450650D02*
X11779706Y-6450650D01*
X11779706Y-6450650D02*
X11798753Y-6460174D01*
X11798753Y-6460174D02*
X11808277Y-6469698D01*
X11808277Y-6469698D02*
X11817801Y-6488746D01*
X11817801Y-6488746D02*
X11817801Y-6545888D01*
X11817801Y-6545888D02*
X11808277Y-6564936D01*
X11808277Y-6564936D02*
X11798753Y-6574460D01*
X11798753Y-6574460D02*
X11779706Y-6583984D01*
X11779706Y-6583984D02*
X11751134Y-6583984D01*
X11932087Y-6583984D02*
X11913039Y-6574460D01*
X11913039Y-6574460D02*
X11903515Y-6555412D01*
X11903515Y-6555412D02*
X11903515Y-6383984D01*
X12084468Y-6574460D02*
X12065420Y-6583984D01*
X12065420Y-6583984D02*
X12027325Y-6583984D01*
X12027325Y-6583984D02*
X12008277Y-6574460D01*
X12008277Y-6574460D02*
X11998753Y-6555412D01*
X11998753Y-6555412D02*
X11998753Y-6479222D01*
X11998753Y-6479222D02*
X12008277Y-6460174D01*
X12008277Y-6460174D02*
X12027325Y-6450650D01*
X12027325Y-6450650D02*
X12065420Y-6450650D01*
X12065420Y-6450650D02*
X12084468Y-6460174D01*
X12084468Y-6460174D02*
X12093991Y-6479222D01*
X12093991Y-6479222D02*
X12093991Y-6498269D01*
X12093991Y-6498269D02*
X11998753Y-6517317D01*
X12170182Y-6574460D02*
X12189230Y-6583984D01*
X12189230Y-6583984D02*
X12227325Y-6583984D01*
X12227325Y-6583984D02*
X12246372Y-6574460D01*
X12246372Y-6574460D02*
X12255896Y-6555412D01*
X12255896Y-6555412D02*
X12255896Y-6545888D01*
X12255896Y-6545888D02*
X12246372Y-6526841D01*
X12246372Y-6526841D02*
X12227325Y-6517317D01*
X12227325Y-6517317D02*
X12198753Y-6517317D01*
X12198753Y-6517317D02*
X12179706Y-6507793D01*
X12179706Y-6507793D02*
X12170182Y-6488746D01*
X12170182Y-6488746D02*
X12170182Y-6479222D01*
X12170182Y-6479222D02*
X12179706Y-6460174D01*
X12179706Y-6460174D02*
X12198753Y-6450650D01*
X12198753Y-6450650D02*
X12227325Y-6450650D01*
X12227325Y-6450650D02*
X12246372Y-6460174D01*
X12322563Y-6660174D02*
X12332087Y-6650650D01*
X12332087Y-6650650D02*
X12351134Y-6622079D01*
X12351134Y-6622079D02*
X12360658Y-6603031D01*
X12360658Y-6603031D02*
X12370182Y-6574460D01*
X12370182Y-6574460D02*
X12379706Y-6526841D01*
X12379706Y-6526841D02*
X12379706Y-6488746D01*
X12379706Y-6488746D02*
X12370182Y-6441127D01*
X12370182Y-6441127D02*
X12360658Y-6412555D01*
X12360658Y-6412555D02*
X12351134Y-6393508D01*
X12351134Y-6393508D02*
X12332087Y-6364936D01*
X12332087Y-6364936D02*
X12322563Y-6355412D01*
X12684468Y-6660174D02*
X12674944Y-6650650D01*
X12674944Y-6650650D02*
X12655896Y-6622079D01*
X12655896Y-6622079D02*
X12646372Y-6603031D01*
X12646372Y-6603031D02*
X12636849Y-6574460D01*
X12636849Y-6574460D02*
X12627325Y-6526841D01*
X12627325Y-6526841D02*
X12627325Y-6488746D01*
X12627325Y-6488746D02*
X12636849Y-6441127D01*
X12636849Y-6441127D02*
X12646372Y-6412555D01*
X12646372Y-6412555D02*
X12655896Y-6393508D01*
X12655896Y-6393508D02*
X12674944Y-6364936D01*
X12674944Y-6364936D02*
X12684468Y-6355412D01*
X12760658Y-6450650D02*
X12760658Y-6583984D01*
X12760658Y-6469698D02*
X12770182Y-6460174D01*
X12770182Y-6460174D02*
X12789230Y-6450650D01*
X12789230Y-6450650D02*
X12817801Y-6450650D01*
X12817801Y-6450650D02*
X12836849Y-6460174D01*
X12836849Y-6460174D02*
X12846372Y-6479222D01*
X12846372Y-6479222D02*
X12846372Y-6583984D01*
X12970182Y-6583984D02*
X12951134Y-6574460D01*
X12951134Y-6574460D02*
X12941611Y-6564936D01*
X12941611Y-6564936D02*
X12932087Y-6545888D01*
X12932087Y-6545888D02*
X12932087Y-6488746D01*
X12932087Y-6488746D02*
X12941611Y-6469698D01*
X12941611Y-6469698D02*
X12951134Y-6460174D01*
X12951134Y-6460174D02*
X12970182Y-6450650D01*
X12970182Y-6450650D02*
X12998753Y-6450650D01*
X12998753Y-6450650D02*
X13017801Y-6460174D01*
X13017801Y-6460174D02*
X13027325Y-6469698D01*
X13027325Y-6469698D02*
X13036849Y-6488746D01*
X13036849Y-6488746D02*
X13036849Y-6545888D01*
X13036849Y-6545888D02*
X13027325Y-6564936D01*
X13027325Y-6564936D02*
X13017801Y-6574460D01*
X13017801Y-6574460D02*
X12998753Y-6583984D01*
X12998753Y-6583984D02*
X12970182Y-6583984D01*
X13093992Y-6450650D02*
X13170182Y-6450650D01*
X13122563Y-6383984D02*
X13122563Y-6555412D01*
X13122563Y-6555412D02*
X13132087Y-6574460D01*
X13132087Y-6574460D02*
X13151134Y-6583984D01*
X13151134Y-6583984D02*
X13170182Y-6583984D01*
X13389230Y-6450650D02*
X13389230Y-6650650D01*
X13389230Y-6460174D02*
X13408277Y-6450650D01*
X13408277Y-6450650D02*
X13446373Y-6450650D01*
X13446373Y-6450650D02*
X13465420Y-6460174D01*
X13465420Y-6460174D02*
X13474944Y-6469698D01*
X13474944Y-6469698D02*
X13484468Y-6488746D01*
X13484468Y-6488746D02*
X13484468Y-6545888D01*
X13484468Y-6545888D02*
X13474944Y-6564936D01*
X13474944Y-6564936D02*
X13465420Y-6574460D01*
X13465420Y-6574460D02*
X13446373Y-6583984D01*
X13446373Y-6583984D02*
X13408277Y-6583984D01*
X13408277Y-6583984D02*
X13389230Y-6574460D01*
X13598753Y-6583984D02*
X13579706Y-6574460D01*
X13579706Y-6574460D02*
X13570182Y-6555412D01*
X13570182Y-6555412D02*
X13570182Y-6383984D01*
X13760658Y-6583984D02*
X13760658Y-6479222D01*
X13760658Y-6479222D02*
X13751134Y-6460174D01*
X13751134Y-6460174D02*
X13732087Y-6450650D01*
X13732087Y-6450650D02*
X13693992Y-6450650D01*
X13693992Y-6450650D02*
X13674944Y-6460174D01*
X13760658Y-6574460D02*
X13741611Y-6583984D01*
X13741611Y-6583984D02*
X13693992Y-6583984D01*
X13693992Y-6583984D02*
X13674944Y-6574460D01*
X13674944Y-6574460D02*
X13665420Y-6555412D01*
X13665420Y-6555412D02*
X13665420Y-6536365D01*
X13665420Y-6536365D02*
X13674944Y-6517317D01*
X13674944Y-6517317D02*
X13693992Y-6507793D01*
X13693992Y-6507793D02*
X13741611Y-6507793D01*
X13741611Y-6507793D02*
X13760658Y-6498269D01*
X13827325Y-6450650D02*
X13903515Y-6450650D01*
X13855896Y-6383984D02*
X13855896Y-6555412D01*
X13855896Y-6555412D02*
X13865420Y-6574460D01*
X13865420Y-6574460D02*
X13884468Y-6583984D01*
X13884468Y-6583984D02*
X13903515Y-6583984D01*
X14046373Y-6574460D02*
X14027325Y-6583984D01*
X14027325Y-6583984D02*
X13989230Y-6583984D01*
X13989230Y-6583984D02*
X13970182Y-6574460D01*
X13970182Y-6574460D02*
X13960658Y-6555412D01*
X13960658Y-6555412D02*
X13960658Y-6479222D01*
X13960658Y-6479222D02*
X13970182Y-6460174D01*
X13970182Y-6460174D02*
X13989230Y-6450650D01*
X13989230Y-6450650D02*
X14027325Y-6450650D01*
X14027325Y-6450650D02*
X14046373Y-6460174D01*
X14046373Y-6460174D02*
X14055896Y-6479222D01*
X14055896Y-6479222D02*
X14055896Y-6498269D01*
X14055896Y-6498269D02*
X13960658Y-6517317D01*
X14227325Y-6583984D02*
X14227325Y-6383984D01*
X14227325Y-6574460D02*
X14208277Y-6583984D01*
X14208277Y-6583984D02*
X14170182Y-6583984D01*
X14170182Y-6583984D02*
X14151134Y-6574460D01*
X14151134Y-6574460D02*
X14141611Y-6564936D01*
X14141611Y-6564936D02*
X14132087Y-6545888D01*
X14132087Y-6545888D02*
X14132087Y-6488746D01*
X14132087Y-6488746D02*
X14141611Y-6469698D01*
X14141611Y-6469698D02*
X14151134Y-6460174D01*
X14151134Y-6460174D02*
X14170182Y-6450650D01*
X14170182Y-6450650D02*
X14208277Y-6450650D01*
X14208277Y-6450650D02*
X14227325Y-6460174D01*
X14303515Y-6660174D02*
X14313039Y-6650650D01*
X14313039Y-6650650D02*
X14332087Y-6622079D01*
X14332087Y-6622079D02*
X14341611Y-6603031D01*
X14341611Y-6603031D02*
X14351134Y-6574460D01*
X14351134Y-6574460D02*
X14360658Y-6526841D01*
X14360658Y-6526841D02*
X14360658Y-6488746D01*
X14360658Y-6488746D02*
X14351134Y-6441127D01*
X14351134Y-6441127D02*
X14341611Y-6412555D01*
X14341611Y-6412555D02*
X14332087Y-6393508D01*
X14332087Y-6393508D02*
X14313039Y-6364936D01*
X14313039Y-6364936D02*
X14303515Y-6355412D01*
M02*
