G04 #@! TF.GenerationSoftware,KiCad,Pcbnew,9.0.0*
G04 #@! TF.CreationDate,2025-04-06T23:20:39+02:00*
G04 #@! TF.ProjectId,RF-to-USB,52462d74-6f2d-4555-9342-2e6b69636164,rev?*
G04 #@! TF.SameCoordinates,Original*
G04 #@! TF.FileFunction,Legend,Bot*
G04 #@! TF.FilePolarity,Positive*
%FSLAX46Y46*%
G04 Gerber Fmt 4.6, Leading zero omitted, Abs format (unit mm)*
G04 Created by KiCad (PCBNEW 9.0.0) date 2025-04-06 23:20:39*
%MOMM*%
%LPD*%
G01*
G04 APERTURE LIST*
G04 Aperture macros list*
%AMRoundRect*
0 Rectangle with rounded corners*
0 $1 Rounding radius*
0 $2 $3 $4 $5 $6 $7 $8 $9 X,Y pos of 4 corners*
0 Add a 4 corners polygon primitive as box body*
4,1,4,$2,$3,$4,$5,$6,$7,$8,$9,$2,$3,0*
0 Add four circle primitives for the rounded corners*
1,1,$1+$1,$2,$3*
1,1,$1+$1,$4,$5*
1,1,$1+$1,$6,$7*
1,1,$1+$1,$8,$9*
0 Add four rect primitives between the rounded corners*
20,1,$1+$1,$2,$3,$4,$5,0*
20,1,$1+$1,$4,$5,$6,$7,0*
20,1,$1+$1,$6,$7,$8,$9,0*
20,1,$1+$1,$8,$9,$2,$3,0*%
G04 Aperture macros list end*
%ADD10C,0.100000*%
%ADD11C,0.120000*%
%ADD12C,1.100000*%
%ADD13O,3.200000X1.300000*%
%ADD14RoundRect,0.140000X-0.140000X-0.170000X0.140000X-0.170000X0.140000X0.170000X-0.140000X0.170000X0*%
%ADD15RoundRect,0.147500X-0.147500X-0.172500X0.147500X-0.172500X0.147500X0.172500X-0.147500X0.172500X0*%
%ADD16RoundRect,0.200000X0.200000X0.275000X-0.200000X0.275000X-0.200000X-0.275000X0.200000X-0.275000X0*%
%ADD17RoundRect,0.150000X-0.150000X0.512500X-0.150000X-0.512500X0.150000X-0.512500X0.150000X0.512500X0*%
%ADD18RoundRect,0.147500X0.172500X-0.147500X0.172500X0.147500X-0.172500X0.147500X-0.172500X-0.147500X0*%
%ADD19RoundRect,0.140000X0.140000X0.170000X-0.140000X0.170000X-0.140000X-0.170000X0.140000X-0.170000X0*%
%ADD20RoundRect,0.135000X0.185000X-0.135000X0.185000X0.135000X-0.185000X0.135000X-0.185000X-0.135000X0*%
%ADD21R,5.080000X2.290000*%
%ADD22R,5.080000X2.420000*%
%ADD23RoundRect,0.140000X0.170000X-0.140000X0.170000X0.140000X-0.170000X0.140000X-0.170000X-0.140000X0*%
%ADD24RoundRect,0.225000X-0.225000X-0.250000X0.225000X-0.250000X0.225000X0.250000X-0.225000X0.250000X0*%
%ADD25RoundRect,0.140000X0.021213X-0.219203X0.219203X-0.021213X-0.021213X0.219203X-0.219203X0.021213X0*%
%ADD26R,1.400000X1.150000*%
%ADD27RoundRect,0.135000X0.135000X0.185000X-0.135000X0.185000X-0.135000X-0.185000X0.135000X-0.185000X0*%
%ADD28RoundRect,0.140000X-0.021213X0.219203X-0.219203X0.021213X0.021213X-0.219203X0.219203X-0.021213X0*%
%ADD29RoundRect,0.218750X0.218750X0.381250X-0.218750X0.381250X-0.218750X-0.381250X0.218750X-0.381250X0*%
%ADD30RoundRect,0.062500X-0.350000X-0.062500X0.350000X-0.062500X0.350000X0.062500X-0.350000X0.062500X0*%
%ADD31RoundRect,0.062500X-0.062500X-0.350000X0.062500X-0.350000X0.062500X0.350000X-0.062500X0.350000X0*%
%ADD32R,2.500000X2.500000*%
%ADD33RoundRect,0.135000X-0.135000X-0.185000X0.135000X-0.185000X0.135000X0.185000X-0.135000X0.185000X0*%
%ADD34R,0.740000X2.400000*%
%ADD35RoundRect,0.135000X-0.185000X0.135000X-0.185000X-0.135000X0.185000X-0.135000X0.185000X0.135000X0*%
%ADD36RoundRect,0.140000X-0.170000X0.140000X-0.170000X-0.140000X0.170000X-0.140000X0.170000X0.140000X0*%
%ADD37RoundRect,0.140000X0.219203X0.021213X0.021213X0.219203X-0.219203X-0.021213X-0.021213X-0.219203X0*%
%ADD38RoundRect,0.062500X0.062500X-0.375000X0.062500X0.375000X-0.062500X0.375000X-0.062500X-0.375000X0*%
%ADD39RoundRect,0.062500X0.375000X-0.062500X0.375000X0.062500X-0.375000X0.062500X-0.375000X-0.062500X0*%
%ADD40R,3.450000X3.450000*%
%ADD41RoundRect,0.250000X-0.375000X-0.625000X0.375000X-0.625000X0.375000X0.625000X-0.375000X0.625000X0*%
%ADD42RoundRect,0.150000X0.512500X0.150000X-0.512500X0.150000X-0.512500X-0.150000X0.512500X-0.150000X0*%
G04 APERTURE END LIST*
D10*
X105764285Y-47288704D02*
X105802381Y-47326800D01*
X105802381Y-47326800D02*
X105916666Y-47364895D01*
X105916666Y-47364895D02*
X105992857Y-47364895D01*
X105992857Y-47364895D02*
X106107143Y-47326800D01*
X106107143Y-47326800D02*
X106183333Y-47250609D01*
X106183333Y-47250609D02*
X106221428Y-47174419D01*
X106221428Y-47174419D02*
X106259524Y-47022038D01*
X106259524Y-47022038D02*
X106259524Y-46907752D01*
X106259524Y-46907752D02*
X106221428Y-46755371D01*
X106221428Y-46755371D02*
X106183333Y-46679180D01*
X106183333Y-46679180D02*
X106107143Y-46602990D01*
X106107143Y-46602990D02*
X105992857Y-46564895D01*
X105992857Y-46564895D02*
X105916666Y-46564895D01*
X105916666Y-46564895D02*
X105802381Y-46602990D01*
X105802381Y-46602990D02*
X105764285Y-46641085D01*
X105002381Y-47364895D02*
X105459524Y-47364895D01*
X105230952Y-47364895D02*
X105230952Y-46564895D01*
X105230952Y-46564895D02*
X105307143Y-46679180D01*
X105307143Y-46679180D02*
X105383333Y-46755371D01*
X105383333Y-46755371D02*
X105459524Y-46793466D01*
X104240476Y-47364895D02*
X104697619Y-47364895D01*
X104469047Y-47364895D02*
X104469047Y-46564895D01*
X104469047Y-46564895D02*
X104545238Y-46679180D01*
X104545238Y-46679180D02*
X104621428Y-46755371D01*
X104621428Y-46755371D02*
X104697619Y-46793466D01*
X113633333Y-52034895D02*
X114014285Y-52034895D01*
X114014285Y-52034895D02*
X114014285Y-51234895D01*
X113442857Y-51234895D02*
X112947619Y-51234895D01*
X112947619Y-51234895D02*
X113214285Y-51539657D01*
X113214285Y-51539657D02*
X113100000Y-51539657D01*
X113100000Y-51539657D02*
X113023809Y-51577752D01*
X113023809Y-51577752D02*
X112985714Y-51615847D01*
X112985714Y-51615847D02*
X112947619Y-51692038D01*
X112947619Y-51692038D02*
X112947619Y-51882514D01*
X112947619Y-51882514D02*
X112985714Y-51958704D01*
X112985714Y-51958704D02*
X113023809Y-51996800D01*
X113023809Y-51996800D02*
X113100000Y-52034895D01*
X113100000Y-52034895D02*
X113328571Y-52034895D01*
X113328571Y-52034895D02*
X113404762Y-51996800D01*
X113404762Y-51996800D02*
X113442857Y-51958704D01*
X98633332Y-57364895D02*
X98899999Y-56983942D01*
X99090475Y-57364895D02*
X99090475Y-56564895D01*
X99090475Y-56564895D02*
X98785713Y-56564895D01*
X98785713Y-56564895D02*
X98709523Y-56602990D01*
X98709523Y-56602990D02*
X98671428Y-56641085D01*
X98671428Y-56641085D02*
X98633332Y-56717276D01*
X98633332Y-56717276D02*
X98633332Y-56831561D01*
X98633332Y-56831561D02*
X98671428Y-56907752D01*
X98671428Y-56907752D02*
X98709523Y-56945847D01*
X98709523Y-56945847D02*
X98785713Y-56983942D01*
X98785713Y-56983942D02*
X99090475Y-56983942D01*
X98366666Y-56564895D02*
X97871428Y-56564895D01*
X97871428Y-56564895D02*
X98138094Y-56869657D01*
X98138094Y-56869657D02*
X98023809Y-56869657D01*
X98023809Y-56869657D02*
X97947618Y-56907752D01*
X97947618Y-56907752D02*
X97909523Y-56945847D01*
X97909523Y-56945847D02*
X97871428Y-57022038D01*
X97871428Y-57022038D02*
X97871428Y-57212514D01*
X97871428Y-57212514D02*
X97909523Y-57288704D01*
X97909523Y-57288704D02*
X97947618Y-57326800D01*
X97947618Y-57326800D02*
X98023809Y-57364895D01*
X98023809Y-57364895D02*
X98252380Y-57364895D01*
X98252380Y-57364895D02*
X98328571Y-57326800D01*
X98328571Y-57326800D02*
X98366666Y-57288704D01*
X91109523Y-52564895D02*
X91109523Y-53212514D01*
X91109523Y-53212514D02*
X91071428Y-53288704D01*
X91071428Y-53288704D02*
X91033333Y-53326800D01*
X91033333Y-53326800D02*
X90957142Y-53364895D01*
X90957142Y-53364895D02*
X90804761Y-53364895D01*
X90804761Y-53364895D02*
X90728571Y-53326800D01*
X90728571Y-53326800D02*
X90690476Y-53288704D01*
X90690476Y-53288704D02*
X90652380Y-53212514D01*
X90652380Y-53212514D02*
X90652380Y-52564895D01*
X90347619Y-52564895D02*
X89852381Y-52564895D01*
X89852381Y-52564895D02*
X90119047Y-52869657D01*
X90119047Y-52869657D02*
X90004762Y-52869657D01*
X90004762Y-52869657D02*
X89928571Y-52907752D01*
X89928571Y-52907752D02*
X89890476Y-52945847D01*
X89890476Y-52945847D02*
X89852381Y-53022038D01*
X89852381Y-53022038D02*
X89852381Y-53212514D01*
X89852381Y-53212514D02*
X89890476Y-53288704D01*
X89890476Y-53288704D02*
X89928571Y-53326800D01*
X89928571Y-53326800D02*
X90004762Y-53364895D01*
X90004762Y-53364895D02*
X90233333Y-53364895D01*
X90233333Y-53364895D02*
X90309524Y-53326800D01*
X90309524Y-53326800D02*
X90347619Y-53288704D01*
X113633333Y-47864895D02*
X114014285Y-47864895D01*
X114014285Y-47864895D02*
X114014285Y-47064895D01*
X113404762Y-47141085D02*
X113366666Y-47102990D01*
X113366666Y-47102990D02*
X113290476Y-47064895D01*
X113290476Y-47064895D02*
X113100000Y-47064895D01*
X113100000Y-47064895D02*
X113023809Y-47102990D01*
X113023809Y-47102990D02*
X112985714Y-47141085D01*
X112985714Y-47141085D02*
X112947619Y-47217276D01*
X112947619Y-47217276D02*
X112947619Y-47293466D01*
X112947619Y-47293466D02*
X112985714Y-47407752D01*
X112985714Y-47407752D02*
X113442857Y-47864895D01*
X113442857Y-47864895D02*
X112947619Y-47864895D01*
X101004285Y-57288704D02*
X101042381Y-57326800D01*
X101042381Y-57326800D02*
X101156666Y-57364895D01*
X101156666Y-57364895D02*
X101232857Y-57364895D01*
X101232857Y-57364895D02*
X101347143Y-57326800D01*
X101347143Y-57326800D02*
X101423333Y-57250609D01*
X101423333Y-57250609D02*
X101461428Y-57174419D01*
X101461428Y-57174419D02*
X101499524Y-57022038D01*
X101499524Y-57022038D02*
X101499524Y-56907752D01*
X101499524Y-56907752D02*
X101461428Y-56755371D01*
X101461428Y-56755371D02*
X101423333Y-56679180D01*
X101423333Y-56679180D02*
X101347143Y-56602990D01*
X101347143Y-56602990D02*
X101232857Y-56564895D01*
X101232857Y-56564895D02*
X101156666Y-56564895D01*
X101156666Y-56564895D02*
X101042381Y-56602990D01*
X101042381Y-56602990D02*
X101004285Y-56641085D01*
X100699524Y-56641085D02*
X100661428Y-56602990D01*
X100661428Y-56602990D02*
X100585238Y-56564895D01*
X100585238Y-56564895D02*
X100394762Y-56564895D01*
X100394762Y-56564895D02*
X100318571Y-56602990D01*
X100318571Y-56602990D02*
X100280476Y-56641085D01*
X100280476Y-56641085D02*
X100242381Y-56717276D01*
X100242381Y-56717276D02*
X100242381Y-56793466D01*
X100242381Y-56793466D02*
X100280476Y-56907752D01*
X100280476Y-56907752D02*
X100737619Y-57364895D01*
X100737619Y-57364895D02*
X100242381Y-57364895D01*
X99556666Y-56564895D02*
X99709047Y-56564895D01*
X99709047Y-56564895D02*
X99785238Y-56602990D01*
X99785238Y-56602990D02*
X99823333Y-56641085D01*
X99823333Y-56641085D02*
X99899523Y-56755371D01*
X99899523Y-56755371D02*
X99937619Y-56907752D01*
X99937619Y-56907752D02*
X99937619Y-57212514D01*
X99937619Y-57212514D02*
X99899523Y-57288704D01*
X99899523Y-57288704D02*
X99861428Y-57326800D01*
X99861428Y-57326800D02*
X99785238Y-57364895D01*
X99785238Y-57364895D02*
X99632857Y-57364895D01*
X99632857Y-57364895D02*
X99556666Y-57326800D01*
X99556666Y-57326800D02*
X99518571Y-57288704D01*
X99518571Y-57288704D02*
X99480476Y-57212514D01*
X99480476Y-57212514D02*
X99480476Y-57022038D01*
X99480476Y-57022038D02*
X99518571Y-56945847D01*
X99518571Y-56945847D02*
X99556666Y-56907752D01*
X99556666Y-56907752D02*
X99632857Y-56869657D01*
X99632857Y-56869657D02*
X99785238Y-56869657D01*
X99785238Y-56869657D02*
X99861428Y-56907752D01*
X99861428Y-56907752D02*
X99899523Y-56945847D01*
X99899523Y-56945847D02*
X99937619Y-57022038D01*
X109133332Y-55788704D02*
X109171428Y-55826800D01*
X109171428Y-55826800D02*
X109285713Y-55864895D01*
X109285713Y-55864895D02*
X109361904Y-55864895D01*
X109361904Y-55864895D02*
X109476190Y-55826800D01*
X109476190Y-55826800D02*
X109552380Y-55750609D01*
X109552380Y-55750609D02*
X109590475Y-55674419D01*
X109590475Y-55674419D02*
X109628571Y-55522038D01*
X109628571Y-55522038D02*
X109628571Y-55407752D01*
X109628571Y-55407752D02*
X109590475Y-55255371D01*
X109590475Y-55255371D02*
X109552380Y-55179180D01*
X109552380Y-55179180D02*
X109476190Y-55102990D01*
X109476190Y-55102990D02*
X109361904Y-55064895D01*
X109361904Y-55064895D02*
X109285713Y-55064895D01*
X109285713Y-55064895D02*
X109171428Y-55102990D01*
X109171428Y-55102990D02*
X109133332Y-55141085D01*
X108676190Y-55407752D02*
X108752380Y-55369657D01*
X108752380Y-55369657D02*
X108790475Y-55331561D01*
X108790475Y-55331561D02*
X108828571Y-55255371D01*
X108828571Y-55255371D02*
X108828571Y-55217276D01*
X108828571Y-55217276D02*
X108790475Y-55141085D01*
X108790475Y-55141085D02*
X108752380Y-55102990D01*
X108752380Y-55102990D02*
X108676190Y-55064895D01*
X108676190Y-55064895D02*
X108523809Y-55064895D01*
X108523809Y-55064895D02*
X108447618Y-55102990D01*
X108447618Y-55102990D02*
X108409523Y-55141085D01*
X108409523Y-55141085D02*
X108371428Y-55217276D01*
X108371428Y-55217276D02*
X108371428Y-55255371D01*
X108371428Y-55255371D02*
X108409523Y-55331561D01*
X108409523Y-55331561D02*
X108447618Y-55369657D01*
X108447618Y-55369657D02*
X108523809Y-55407752D01*
X108523809Y-55407752D02*
X108676190Y-55407752D01*
X108676190Y-55407752D02*
X108752380Y-55445847D01*
X108752380Y-55445847D02*
X108790475Y-55483942D01*
X108790475Y-55483942D02*
X108828571Y-55560133D01*
X108828571Y-55560133D02*
X108828571Y-55712514D01*
X108828571Y-55712514D02*
X108790475Y-55788704D01*
X108790475Y-55788704D02*
X108752380Y-55826800D01*
X108752380Y-55826800D02*
X108676190Y-55864895D01*
X108676190Y-55864895D02*
X108523809Y-55864895D01*
X108523809Y-55864895D02*
X108447618Y-55826800D01*
X108447618Y-55826800D02*
X108409523Y-55788704D01*
X108409523Y-55788704D02*
X108371428Y-55712514D01*
X108371428Y-55712514D02*
X108371428Y-55560133D01*
X108371428Y-55560133D02*
X108409523Y-55483942D01*
X108409523Y-55483942D02*
X108447618Y-55445847D01*
X108447618Y-55445847D02*
X108523809Y-55407752D01*
X99614895Y-50366667D02*
X99233942Y-50100000D01*
X99614895Y-49909524D02*
X98814895Y-49909524D01*
X98814895Y-49909524D02*
X98814895Y-50214286D01*
X98814895Y-50214286D02*
X98852990Y-50290476D01*
X98852990Y-50290476D02*
X98891085Y-50328571D01*
X98891085Y-50328571D02*
X98967276Y-50366667D01*
X98967276Y-50366667D02*
X99081561Y-50366667D01*
X99081561Y-50366667D02*
X99157752Y-50328571D01*
X99157752Y-50328571D02*
X99195847Y-50290476D01*
X99195847Y-50290476D02*
X99233942Y-50214286D01*
X99233942Y-50214286D02*
X99233942Y-49909524D01*
X99614895Y-51128571D02*
X99614895Y-50671428D01*
X99614895Y-50900000D02*
X98814895Y-50900000D01*
X98814895Y-50900000D02*
X98929180Y-50823809D01*
X98929180Y-50823809D02*
X99005371Y-50747619D01*
X99005371Y-50747619D02*
X99043466Y-50671428D01*
X122476666Y-55064895D02*
X122476666Y-55636323D01*
X122476666Y-55636323D02*
X122514761Y-55750609D01*
X122514761Y-55750609D02*
X122590952Y-55826800D01*
X122590952Y-55826800D02*
X122705237Y-55864895D01*
X122705237Y-55864895D02*
X122781428Y-55864895D01*
X122133809Y-55141085D02*
X122095713Y-55102990D01*
X122095713Y-55102990D02*
X122019523Y-55064895D01*
X122019523Y-55064895D02*
X121829047Y-55064895D01*
X121829047Y-55064895D02*
X121752856Y-55102990D01*
X121752856Y-55102990D02*
X121714761Y-55141085D01*
X121714761Y-55141085D02*
X121676666Y-55217276D01*
X121676666Y-55217276D02*
X121676666Y-55293466D01*
X121676666Y-55293466D02*
X121714761Y-55407752D01*
X121714761Y-55407752D02*
X122171904Y-55864895D01*
X122171904Y-55864895D02*
X121676666Y-55864895D01*
X113948704Y-43985714D02*
X113986800Y-43947618D01*
X113986800Y-43947618D02*
X114024895Y-43833333D01*
X114024895Y-43833333D02*
X114024895Y-43757142D01*
X114024895Y-43757142D02*
X113986800Y-43642856D01*
X113986800Y-43642856D02*
X113910609Y-43566666D01*
X113910609Y-43566666D02*
X113834419Y-43528571D01*
X113834419Y-43528571D02*
X113682038Y-43490475D01*
X113682038Y-43490475D02*
X113567752Y-43490475D01*
X113567752Y-43490475D02*
X113415371Y-43528571D01*
X113415371Y-43528571D02*
X113339180Y-43566666D01*
X113339180Y-43566666D02*
X113262990Y-43642856D01*
X113262990Y-43642856D02*
X113224895Y-43757142D01*
X113224895Y-43757142D02*
X113224895Y-43833333D01*
X113224895Y-43833333D02*
X113262990Y-43947618D01*
X113262990Y-43947618D02*
X113301085Y-43985714D01*
X114024895Y-44747618D02*
X114024895Y-44290475D01*
X114024895Y-44519047D02*
X113224895Y-44519047D01*
X113224895Y-44519047D02*
X113339180Y-44442856D01*
X113339180Y-44442856D02*
X113415371Y-44366666D01*
X113415371Y-44366666D02*
X113453466Y-44290475D01*
X113224895Y-45014285D02*
X113224895Y-45547619D01*
X113224895Y-45547619D02*
X114024895Y-45204761D01*
X94133332Y-53788704D02*
X94171428Y-53826800D01*
X94171428Y-53826800D02*
X94285713Y-53864895D01*
X94285713Y-53864895D02*
X94361904Y-53864895D01*
X94361904Y-53864895D02*
X94476190Y-53826800D01*
X94476190Y-53826800D02*
X94552380Y-53750609D01*
X94552380Y-53750609D02*
X94590475Y-53674419D01*
X94590475Y-53674419D02*
X94628571Y-53522038D01*
X94628571Y-53522038D02*
X94628571Y-53407752D01*
X94628571Y-53407752D02*
X94590475Y-53255371D01*
X94590475Y-53255371D02*
X94552380Y-53179180D01*
X94552380Y-53179180D02*
X94476190Y-53102990D01*
X94476190Y-53102990D02*
X94361904Y-53064895D01*
X94361904Y-53064895D02*
X94285713Y-53064895D01*
X94285713Y-53064895D02*
X94171428Y-53102990D01*
X94171428Y-53102990D02*
X94133332Y-53141085D01*
X93828571Y-53141085D02*
X93790475Y-53102990D01*
X93790475Y-53102990D02*
X93714285Y-53064895D01*
X93714285Y-53064895D02*
X93523809Y-53064895D01*
X93523809Y-53064895D02*
X93447618Y-53102990D01*
X93447618Y-53102990D02*
X93409523Y-53141085D01*
X93409523Y-53141085D02*
X93371428Y-53217276D01*
X93371428Y-53217276D02*
X93371428Y-53293466D01*
X93371428Y-53293466D02*
X93409523Y-53407752D01*
X93409523Y-53407752D02*
X93866666Y-53864895D01*
X93866666Y-53864895D02*
X93371428Y-53864895D01*
X84004285Y-54058704D02*
X84042381Y-54096800D01*
X84042381Y-54096800D02*
X84156666Y-54134895D01*
X84156666Y-54134895D02*
X84232857Y-54134895D01*
X84232857Y-54134895D02*
X84347143Y-54096800D01*
X84347143Y-54096800D02*
X84423333Y-54020609D01*
X84423333Y-54020609D02*
X84461428Y-53944419D01*
X84461428Y-53944419D02*
X84499524Y-53792038D01*
X84499524Y-53792038D02*
X84499524Y-53677752D01*
X84499524Y-53677752D02*
X84461428Y-53525371D01*
X84461428Y-53525371D02*
X84423333Y-53449180D01*
X84423333Y-53449180D02*
X84347143Y-53372990D01*
X84347143Y-53372990D02*
X84232857Y-53334895D01*
X84232857Y-53334895D02*
X84156666Y-53334895D01*
X84156666Y-53334895D02*
X84042381Y-53372990D01*
X84042381Y-53372990D02*
X84004285Y-53411085D01*
X83699524Y-53411085D02*
X83661428Y-53372990D01*
X83661428Y-53372990D02*
X83585238Y-53334895D01*
X83585238Y-53334895D02*
X83394762Y-53334895D01*
X83394762Y-53334895D02*
X83318571Y-53372990D01*
X83318571Y-53372990D02*
X83280476Y-53411085D01*
X83280476Y-53411085D02*
X83242381Y-53487276D01*
X83242381Y-53487276D02*
X83242381Y-53563466D01*
X83242381Y-53563466D02*
X83280476Y-53677752D01*
X83280476Y-53677752D02*
X83737619Y-54134895D01*
X83737619Y-54134895D02*
X83242381Y-54134895D01*
X82518571Y-53334895D02*
X82899523Y-53334895D01*
X82899523Y-53334895D02*
X82937619Y-53715847D01*
X82937619Y-53715847D02*
X82899523Y-53677752D01*
X82899523Y-53677752D02*
X82823333Y-53639657D01*
X82823333Y-53639657D02*
X82632857Y-53639657D01*
X82632857Y-53639657D02*
X82556666Y-53677752D01*
X82556666Y-53677752D02*
X82518571Y-53715847D01*
X82518571Y-53715847D02*
X82480476Y-53792038D01*
X82480476Y-53792038D02*
X82480476Y-53982514D01*
X82480476Y-53982514D02*
X82518571Y-54058704D01*
X82518571Y-54058704D02*
X82556666Y-54096800D01*
X82556666Y-54096800D02*
X82632857Y-54134895D01*
X82632857Y-54134895D02*
X82823333Y-54134895D01*
X82823333Y-54134895D02*
X82899523Y-54096800D01*
X82899523Y-54096800D02*
X82937619Y-54058704D01*
X100097242Y-51134211D02*
X100097242Y-51188086D01*
X100097242Y-51188086D02*
X100151117Y-51295836D01*
X100151117Y-51295836D02*
X100204992Y-51349710D01*
X100204992Y-51349710D02*
X100312741Y-51403585D01*
X100312741Y-51403585D02*
X100420491Y-51403585D01*
X100420491Y-51403585D02*
X100501303Y-51376648D01*
X100501303Y-51376648D02*
X100635990Y-51295836D01*
X100635990Y-51295836D02*
X100716802Y-51215023D01*
X100716802Y-51215023D02*
X100797614Y-51080336D01*
X100797614Y-51080336D02*
X100824552Y-50999524D01*
X100824552Y-50999524D02*
X100824552Y-50891775D01*
X100824552Y-50891775D02*
X100770677Y-50784025D01*
X100770677Y-50784025D02*
X100716802Y-50730150D01*
X100716802Y-50730150D02*
X100609053Y-50676275D01*
X100609053Y-50676275D02*
X100555178Y-50676275D01*
X99935618Y-50326089D02*
X99558494Y-50703213D01*
X100285804Y-50245277D02*
X100016430Y-50784025D01*
X100016430Y-50784025D02*
X99666244Y-50433839D01*
X109880951Y-42033942D02*
X109880951Y-42414895D01*
X110147618Y-41614895D02*
X109880951Y-42033942D01*
X109880951Y-42033942D02*
X109614285Y-41614895D01*
X108928571Y-42414895D02*
X109385714Y-42414895D01*
X109157142Y-42414895D02*
X109157142Y-41614895D01*
X109157142Y-41614895D02*
X109233333Y-41729180D01*
X109233333Y-41729180D02*
X109309523Y-41805371D01*
X109309523Y-41805371D02*
X109385714Y-41843466D01*
X113573723Y-54482014D02*
X113573723Y-54535888D01*
X113573723Y-54535888D02*
X113627598Y-54643638D01*
X113627598Y-54643638D02*
X113681473Y-54697513D01*
X113681473Y-54697513D02*
X113789223Y-54751388D01*
X113789223Y-54751388D02*
X113896972Y-54751388D01*
X113896972Y-54751388D02*
X113977785Y-54724450D01*
X113977785Y-54724450D02*
X114112472Y-54643638D01*
X114112472Y-54643638D02*
X114193284Y-54562826D01*
X114193284Y-54562826D02*
X114274096Y-54428139D01*
X114274096Y-54428139D02*
X114301033Y-54347327D01*
X114301033Y-54347327D02*
X114301033Y-54239577D01*
X114301033Y-54239577D02*
X114247159Y-54131827D01*
X114247159Y-54131827D02*
X114193284Y-54077953D01*
X114193284Y-54077953D02*
X114085534Y-54024078D01*
X114085534Y-54024078D02*
X114031659Y-54024078D01*
X112981101Y-53997140D02*
X113304349Y-54320389D01*
X113142725Y-54158765D02*
X113708410Y-53593079D01*
X113708410Y-53593079D02*
X113681473Y-53727766D01*
X113681473Y-53727766D02*
X113681473Y-53835516D01*
X113681473Y-53835516D02*
X113708410Y-53916328D01*
X113196600Y-53081269D02*
X113142725Y-53027394D01*
X113142725Y-53027394D02*
X113061913Y-53000456D01*
X113061913Y-53000456D02*
X113008038Y-53000456D01*
X113008038Y-53000456D02*
X112927226Y-53027394D01*
X112927226Y-53027394D02*
X112792539Y-53108206D01*
X112792539Y-53108206D02*
X112657852Y-53242893D01*
X112657852Y-53242893D02*
X112577039Y-53377580D01*
X112577039Y-53377580D02*
X112550102Y-53458392D01*
X112550102Y-53458392D02*
X112550102Y-53512267D01*
X112550102Y-53512267D02*
X112577039Y-53593079D01*
X112577039Y-53593079D02*
X112630914Y-53646954D01*
X112630914Y-53646954D02*
X112711726Y-53673891D01*
X112711726Y-53673891D02*
X112765601Y-53673891D01*
X112765601Y-53673891D02*
X112846413Y-53646954D01*
X112846413Y-53646954D02*
X112981100Y-53566142D01*
X112981100Y-53566142D02*
X113115788Y-53431455D01*
X113115788Y-53431455D02*
X113196600Y-53296768D01*
X113196600Y-53296768D02*
X113223537Y-53215956D01*
X113223537Y-53215956D02*
X113223537Y-53162081D01*
X113223537Y-53162081D02*
X113196600Y-53081269D01*
X111883332Y-47364895D02*
X112149999Y-46983942D01*
X112340475Y-47364895D02*
X112340475Y-46564895D01*
X112340475Y-46564895D02*
X112035713Y-46564895D01*
X112035713Y-46564895D02*
X111959523Y-46602990D01*
X111959523Y-46602990D02*
X111921428Y-46641085D01*
X111921428Y-46641085D02*
X111883332Y-46717276D01*
X111883332Y-46717276D02*
X111883332Y-46831561D01*
X111883332Y-46831561D02*
X111921428Y-46907752D01*
X111921428Y-46907752D02*
X111959523Y-46945847D01*
X111959523Y-46945847D02*
X112035713Y-46983942D01*
X112035713Y-46983942D02*
X112340475Y-46983942D01*
X111159523Y-46564895D02*
X111540475Y-46564895D01*
X111540475Y-46564895D02*
X111578571Y-46945847D01*
X111578571Y-46945847D02*
X111540475Y-46907752D01*
X111540475Y-46907752D02*
X111464285Y-46869657D01*
X111464285Y-46869657D02*
X111273809Y-46869657D01*
X111273809Y-46869657D02*
X111197618Y-46907752D01*
X111197618Y-46907752D02*
X111159523Y-46945847D01*
X111159523Y-46945847D02*
X111121428Y-47022038D01*
X111121428Y-47022038D02*
X111121428Y-47212514D01*
X111121428Y-47212514D02*
X111159523Y-47288704D01*
X111159523Y-47288704D02*
X111197618Y-47326800D01*
X111197618Y-47326800D02*
X111273809Y-47364895D01*
X111273809Y-47364895D02*
X111464285Y-47364895D01*
X111464285Y-47364895D02*
X111540475Y-47326800D01*
X111540475Y-47326800D02*
X111578571Y-47288704D01*
X94023332Y-54718704D02*
X94061428Y-54756800D01*
X94061428Y-54756800D02*
X94175713Y-54794895D01*
X94175713Y-54794895D02*
X94251904Y-54794895D01*
X94251904Y-54794895D02*
X94366190Y-54756800D01*
X94366190Y-54756800D02*
X94442380Y-54680609D01*
X94442380Y-54680609D02*
X94480475Y-54604419D01*
X94480475Y-54604419D02*
X94518571Y-54452038D01*
X94518571Y-54452038D02*
X94518571Y-54337752D01*
X94518571Y-54337752D02*
X94480475Y-54185371D01*
X94480475Y-54185371D02*
X94442380Y-54109180D01*
X94442380Y-54109180D02*
X94366190Y-54032990D01*
X94366190Y-54032990D02*
X94251904Y-53994895D01*
X94251904Y-53994895D02*
X94175713Y-53994895D01*
X94175713Y-53994895D02*
X94061428Y-54032990D01*
X94061428Y-54032990D02*
X94023332Y-54071085D01*
X93337618Y-53994895D02*
X93489999Y-53994895D01*
X93489999Y-53994895D02*
X93566190Y-54032990D01*
X93566190Y-54032990D02*
X93604285Y-54071085D01*
X93604285Y-54071085D02*
X93680475Y-54185371D01*
X93680475Y-54185371D02*
X93718571Y-54337752D01*
X93718571Y-54337752D02*
X93718571Y-54642514D01*
X93718571Y-54642514D02*
X93680475Y-54718704D01*
X93680475Y-54718704D02*
X93642380Y-54756800D01*
X93642380Y-54756800D02*
X93566190Y-54794895D01*
X93566190Y-54794895D02*
X93413809Y-54794895D01*
X93413809Y-54794895D02*
X93337618Y-54756800D01*
X93337618Y-54756800D02*
X93299523Y-54718704D01*
X93299523Y-54718704D02*
X93261428Y-54642514D01*
X93261428Y-54642514D02*
X93261428Y-54452038D01*
X93261428Y-54452038D02*
X93299523Y-54375847D01*
X93299523Y-54375847D02*
X93337618Y-54337752D01*
X93337618Y-54337752D02*
X93413809Y-54299657D01*
X93413809Y-54299657D02*
X93566190Y-54299657D01*
X93566190Y-54299657D02*
X93642380Y-54337752D01*
X93642380Y-54337752D02*
X93680475Y-54375847D01*
X93680475Y-54375847D02*
X93718571Y-54452038D01*
X117288704Y-47985714D02*
X117326800Y-47947618D01*
X117326800Y-47947618D02*
X117364895Y-47833333D01*
X117364895Y-47833333D02*
X117364895Y-47757142D01*
X117364895Y-47757142D02*
X117326800Y-47642856D01*
X117326800Y-47642856D02*
X117250609Y-47566666D01*
X117250609Y-47566666D02*
X117174419Y-47528571D01*
X117174419Y-47528571D02*
X117022038Y-47490475D01*
X117022038Y-47490475D02*
X116907752Y-47490475D01*
X116907752Y-47490475D02*
X116755371Y-47528571D01*
X116755371Y-47528571D02*
X116679180Y-47566666D01*
X116679180Y-47566666D02*
X116602990Y-47642856D01*
X116602990Y-47642856D02*
X116564895Y-47757142D01*
X116564895Y-47757142D02*
X116564895Y-47833333D01*
X116564895Y-47833333D02*
X116602990Y-47947618D01*
X116602990Y-47947618D02*
X116641085Y-47985714D01*
X117364895Y-48747618D02*
X117364895Y-48290475D01*
X117364895Y-48519047D02*
X116564895Y-48519047D01*
X116564895Y-48519047D02*
X116679180Y-48442856D01*
X116679180Y-48442856D02*
X116755371Y-48366666D01*
X116755371Y-48366666D02*
X116793466Y-48290475D01*
X116564895Y-49471428D02*
X116564895Y-49090476D01*
X116564895Y-49090476D02*
X116945847Y-49052380D01*
X116945847Y-49052380D02*
X116907752Y-49090476D01*
X116907752Y-49090476D02*
X116869657Y-49166666D01*
X116869657Y-49166666D02*
X116869657Y-49357142D01*
X116869657Y-49357142D02*
X116907752Y-49433333D01*
X116907752Y-49433333D02*
X116945847Y-49471428D01*
X116945847Y-49471428D02*
X117022038Y-49509523D01*
X117022038Y-49509523D02*
X117212514Y-49509523D01*
X117212514Y-49509523D02*
X117288704Y-49471428D01*
X117288704Y-49471428D02*
X117326800Y-49433333D01*
X117326800Y-49433333D02*
X117364895Y-49357142D01*
X117364895Y-49357142D02*
X117364895Y-49166666D01*
X117364895Y-49166666D02*
X117326800Y-49090476D01*
X117326800Y-49090476D02*
X117288704Y-49052380D01*
X92584285Y-51768704D02*
X92622381Y-51806800D01*
X92622381Y-51806800D02*
X92736666Y-51844895D01*
X92736666Y-51844895D02*
X92812857Y-51844895D01*
X92812857Y-51844895D02*
X92927143Y-51806800D01*
X92927143Y-51806800D02*
X93003333Y-51730609D01*
X93003333Y-51730609D02*
X93041428Y-51654419D01*
X93041428Y-51654419D02*
X93079524Y-51502038D01*
X93079524Y-51502038D02*
X93079524Y-51387752D01*
X93079524Y-51387752D02*
X93041428Y-51235371D01*
X93041428Y-51235371D02*
X93003333Y-51159180D01*
X93003333Y-51159180D02*
X92927143Y-51082990D01*
X92927143Y-51082990D02*
X92812857Y-51044895D01*
X92812857Y-51044895D02*
X92736666Y-51044895D01*
X92736666Y-51044895D02*
X92622381Y-51082990D01*
X92622381Y-51082990D02*
X92584285Y-51121085D01*
X91822381Y-51844895D02*
X92279524Y-51844895D01*
X92050952Y-51844895D02*
X92050952Y-51044895D01*
X92050952Y-51044895D02*
X92127143Y-51159180D01*
X92127143Y-51159180D02*
X92203333Y-51235371D01*
X92203333Y-51235371D02*
X92279524Y-51273466D01*
X91441428Y-51844895D02*
X91289047Y-51844895D01*
X91289047Y-51844895D02*
X91212857Y-51806800D01*
X91212857Y-51806800D02*
X91174761Y-51768704D01*
X91174761Y-51768704D02*
X91098571Y-51654419D01*
X91098571Y-51654419D02*
X91060476Y-51502038D01*
X91060476Y-51502038D02*
X91060476Y-51197276D01*
X91060476Y-51197276D02*
X91098571Y-51121085D01*
X91098571Y-51121085D02*
X91136666Y-51082990D01*
X91136666Y-51082990D02*
X91212857Y-51044895D01*
X91212857Y-51044895D02*
X91365238Y-51044895D01*
X91365238Y-51044895D02*
X91441428Y-51082990D01*
X91441428Y-51082990D02*
X91479523Y-51121085D01*
X91479523Y-51121085D02*
X91517619Y-51197276D01*
X91517619Y-51197276D02*
X91517619Y-51387752D01*
X91517619Y-51387752D02*
X91479523Y-51463942D01*
X91479523Y-51463942D02*
X91441428Y-51502038D01*
X91441428Y-51502038D02*
X91365238Y-51540133D01*
X91365238Y-51540133D02*
X91212857Y-51540133D01*
X91212857Y-51540133D02*
X91136666Y-51502038D01*
X91136666Y-51502038D02*
X91098571Y-51463942D01*
X91098571Y-51463942D02*
X91060476Y-51387752D01*
X91968181Y-44309620D02*
X92022056Y-44309620D01*
X92022056Y-44309620D02*
X92129806Y-44255745D01*
X92129806Y-44255745D02*
X92183680Y-44201870D01*
X92183680Y-44201870D02*
X92237555Y-44094121D01*
X92237555Y-44094121D02*
X92237555Y-43986371D01*
X92237555Y-43986371D02*
X92210618Y-43905559D01*
X92210618Y-43905559D02*
X92129806Y-43770872D01*
X92129806Y-43770872D02*
X92048993Y-43690060D01*
X92048993Y-43690060D02*
X91914306Y-43609248D01*
X91914306Y-43609248D02*
X91833494Y-43582310D01*
X91833494Y-43582310D02*
X91725745Y-43582310D01*
X91725745Y-43582310D02*
X91617995Y-43636185D01*
X91617995Y-43636185D02*
X91564120Y-43690060D01*
X91564120Y-43690060D02*
X91510245Y-43797809D01*
X91510245Y-43797809D02*
X91510245Y-43851684D01*
X90944560Y-44309620D02*
X91213934Y-44040246D01*
X91213934Y-44040246D02*
X91510245Y-44282683D01*
X91510245Y-44282683D02*
X91456371Y-44282683D01*
X91456371Y-44282683D02*
X91375558Y-44309620D01*
X91375558Y-44309620D02*
X91240871Y-44444307D01*
X91240871Y-44444307D02*
X91213934Y-44525119D01*
X91213934Y-44525119D02*
X91213934Y-44578994D01*
X91213934Y-44578994D02*
X91240871Y-44659806D01*
X91240871Y-44659806D02*
X91375558Y-44794493D01*
X91375558Y-44794493D02*
X91456371Y-44821431D01*
X91456371Y-44821431D02*
X91510245Y-44821431D01*
X91510245Y-44821431D02*
X91591058Y-44794493D01*
X91591058Y-44794493D02*
X91725745Y-44659806D01*
X91725745Y-44659806D02*
X91752682Y-44578994D01*
X91752682Y-44578994D02*
X91752682Y-44525119D01*
X111864895Y-49866666D02*
X111864895Y-49485714D01*
X111864895Y-49485714D02*
X111064895Y-49485714D01*
X111864895Y-50552380D02*
X111864895Y-50095237D01*
X111864895Y-50323809D02*
X111064895Y-50323809D01*
X111064895Y-50323809D02*
X111179180Y-50247618D01*
X111179180Y-50247618D02*
X111255371Y-50171428D01*
X111255371Y-50171428D02*
X111293466Y-50095237D01*
X87666666Y-55395847D02*
X87933332Y-55395847D01*
X87933332Y-55814895D02*
X87933332Y-55014895D01*
X87933332Y-55014895D02*
X87552380Y-55014895D01*
X86980952Y-55395847D02*
X86866666Y-55433942D01*
X86866666Y-55433942D02*
X86828571Y-55472038D01*
X86828571Y-55472038D02*
X86790475Y-55548228D01*
X86790475Y-55548228D02*
X86790475Y-55662514D01*
X86790475Y-55662514D02*
X86828571Y-55738704D01*
X86828571Y-55738704D02*
X86866666Y-55776800D01*
X86866666Y-55776800D02*
X86942856Y-55814895D01*
X86942856Y-55814895D02*
X87247618Y-55814895D01*
X87247618Y-55814895D02*
X87247618Y-55014895D01*
X87247618Y-55014895D02*
X86980952Y-55014895D01*
X86980952Y-55014895D02*
X86904761Y-55052990D01*
X86904761Y-55052990D02*
X86866666Y-55091085D01*
X86866666Y-55091085D02*
X86828571Y-55167276D01*
X86828571Y-55167276D02*
X86828571Y-55243466D01*
X86828571Y-55243466D02*
X86866666Y-55319657D01*
X86866666Y-55319657D02*
X86904761Y-55357752D01*
X86904761Y-55357752D02*
X86980952Y-55395847D01*
X86980952Y-55395847D02*
X87247618Y-55395847D01*
X86028571Y-55814895D02*
X86485714Y-55814895D01*
X86257142Y-55814895D02*
X86257142Y-55014895D01*
X86257142Y-55014895D02*
X86333333Y-55129180D01*
X86333333Y-55129180D02*
X86409523Y-55205371D01*
X86409523Y-55205371D02*
X86485714Y-55243466D01*
X116514285Y-51948704D02*
X116552381Y-51986800D01*
X116552381Y-51986800D02*
X116666666Y-52024895D01*
X116666666Y-52024895D02*
X116742857Y-52024895D01*
X116742857Y-52024895D02*
X116857143Y-51986800D01*
X116857143Y-51986800D02*
X116933333Y-51910609D01*
X116933333Y-51910609D02*
X116971428Y-51834419D01*
X116971428Y-51834419D02*
X117009524Y-51682038D01*
X117009524Y-51682038D02*
X117009524Y-51567752D01*
X117009524Y-51567752D02*
X116971428Y-51415371D01*
X116971428Y-51415371D02*
X116933333Y-51339180D01*
X116933333Y-51339180D02*
X116857143Y-51262990D01*
X116857143Y-51262990D02*
X116742857Y-51224895D01*
X116742857Y-51224895D02*
X116666666Y-51224895D01*
X116666666Y-51224895D02*
X116552381Y-51262990D01*
X116552381Y-51262990D02*
X116514285Y-51301085D01*
X115752381Y-52024895D02*
X116209524Y-52024895D01*
X115980952Y-52024895D02*
X115980952Y-51224895D01*
X115980952Y-51224895D02*
X116057143Y-51339180D01*
X116057143Y-51339180D02*
X116133333Y-51415371D01*
X116133333Y-51415371D02*
X116209524Y-51453466D01*
X115485714Y-51224895D02*
X114990476Y-51224895D01*
X114990476Y-51224895D02*
X115257142Y-51529657D01*
X115257142Y-51529657D02*
X115142857Y-51529657D01*
X115142857Y-51529657D02*
X115066666Y-51567752D01*
X115066666Y-51567752D02*
X115028571Y-51605847D01*
X115028571Y-51605847D02*
X114990476Y-51682038D01*
X114990476Y-51682038D02*
X114990476Y-51872514D01*
X114990476Y-51872514D02*
X115028571Y-51948704D01*
X115028571Y-51948704D02*
X115066666Y-51986800D01*
X115066666Y-51986800D02*
X115142857Y-52024895D01*
X115142857Y-52024895D02*
X115371428Y-52024895D01*
X115371428Y-52024895D02*
X115447619Y-51986800D01*
X115447619Y-51986800D02*
X115485714Y-51948704D01*
X98504285Y-38648704D02*
X98542381Y-38686800D01*
X98542381Y-38686800D02*
X98656666Y-38724895D01*
X98656666Y-38724895D02*
X98732857Y-38724895D01*
X98732857Y-38724895D02*
X98847143Y-38686800D01*
X98847143Y-38686800D02*
X98923333Y-38610609D01*
X98923333Y-38610609D02*
X98961428Y-38534419D01*
X98961428Y-38534419D02*
X98999524Y-38382038D01*
X98999524Y-38382038D02*
X98999524Y-38267752D01*
X98999524Y-38267752D02*
X98961428Y-38115371D01*
X98961428Y-38115371D02*
X98923333Y-38039180D01*
X98923333Y-38039180D02*
X98847143Y-37962990D01*
X98847143Y-37962990D02*
X98732857Y-37924895D01*
X98732857Y-37924895D02*
X98656666Y-37924895D01*
X98656666Y-37924895D02*
X98542381Y-37962990D01*
X98542381Y-37962990D02*
X98504285Y-38001085D01*
X98199524Y-38001085D02*
X98161428Y-37962990D01*
X98161428Y-37962990D02*
X98085238Y-37924895D01*
X98085238Y-37924895D02*
X97894762Y-37924895D01*
X97894762Y-37924895D02*
X97818571Y-37962990D01*
X97818571Y-37962990D02*
X97780476Y-38001085D01*
X97780476Y-38001085D02*
X97742381Y-38077276D01*
X97742381Y-38077276D02*
X97742381Y-38153466D01*
X97742381Y-38153466D02*
X97780476Y-38267752D01*
X97780476Y-38267752D02*
X98237619Y-38724895D01*
X98237619Y-38724895D02*
X97742381Y-38724895D01*
X97437619Y-38001085D02*
X97399523Y-37962990D01*
X97399523Y-37962990D02*
X97323333Y-37924895D01*
X97323333Y-37924895D02*
X97132857Y-37924895D01*
X97132857Y-37924895D02*
X97056666Y-37962990D01*
X97056666Y-37962990D02*
X97018571Y-38001085D01*
X97018571Y-38001085D02*
X96980476Y-38077276D01*
X96980476Y-38077276D02*
X96980476Y-38153466D01*
X96980476Y-38153466D02*
X97018571Y-38267752D01*
X97018571Y-38267752D02*
X97475714Y-38724895D01*
X97475714Y-38724895D02*
X96980476Y-38724895D01*
X109062023Y-53074895D02*
X109062023Y-53722514D01*
X109062023Y-53722514D02*
X109023928Y-53798704D01*
X109023928Y-53798704D02*
X108985833Y-53836800D01*
X108985833Y-53836800D02*
X108909642Y-53874895D01*
X108909642Y-53874895D02*
X108757261Y-53874895D01*
X108757261Y-53874895D02*
X108681071Y-53836800D01*
X108681071Y-53836800D02*
X108642976Y-53798704D01*
X108642976Y-53798704D02*
X108604880Y-53722514D01*
X108604880Y-53722514D02*
X108604880Y-53074895D01*
X107804881Y-53874895D02*
X108262024Y-53874895D01*
X108033452Y-53874895D02*
X108033452Y-53074895D01*
X108033452Y-53074895D02*
X108109643Y-53189180D01*
X108109643Y-53189180D02*
X108185833Y-53265371D01*
X108185833Y-53265371D02*
X108262024Y-53303466D01*
X84123332Y-55884895D02*
X84389999Y-55503942D01*
X84580475Y-55884895D02*
X84580475Y-55084895D01*
X84580475Y-55084895D02*
X84275713Y-55084895D01*
X84275713Y-55084895D02*
X84199523Y-55122990D01*
X84199523Y-55122990D02*
X84161428Y-55161085D01*
X84161428Y-55161085D02*
X84123332Y-55237276D01*
X84123332Y-55237276D02*
X84123332Y-55351561D01*
X84123332Y-55351561D02*
X84161428Y-55427752D01*
X84161428Y-55427752D02*
X84199523Y-55465847D01*
X84199523Y-55465847D02*
X84275713Y-55503942D01*
X84275713Y-55503942D02*
X84580475Y-55503942D01*
X83856666Y-55084895D02*
X83323332Y-55084895D01*
X83323332Y-55084895D02*
X83666190Y-55884895D01*
X81266666Y-39064895D02*
X81266666Y-39636323D01*
X81266666Y-39636323D02*
X81304761Y-39750609D01*
X81304761Y-39750609D02*
X81380952Y-39826800D01*
X81380952Y-39826800D02*
X81495237Y-39864895D01*
X81495237Y-39864895D02*
X81571428Y-39864895D01*
X80961904Y-39064895D02*
X80466666Y-39064895D01*
X80466666Y-39064895D02*
X80733332Y-39369657D01*
X80733332Y-39369657D02*
X80619047Y-39369657D01*
X80619047Y-39369657D02*
X80542856Y-39407752D01*
X80542856Y-39407752D02*
X80504761Y-39445847D01*
X80504761Y-39445847D02*
X80466666Y-39522038D01*
X80466666Y-39522038D02*
X80466666Y-39712514D01*
X80466666Y-39712514D02*
X80504761Y-39788704D01*
X80504761Y-39788704D02*
X80542856Y-39826800D01*
X80542856Y-39826800D02*
X80619047Y-39864895D01*
X80619047Y-39864895D02*
X80847618Y-39864895D01*
X80847618Y-39864895D02*
X80923809Y-39826800D01*
X80923809Y-39826800D02*
X80961904Y-39788704D01*
X116514285Y-46288704D02*
X116552381Y-46326800D01*
X116552381Y-46326800D02*
X116666666Y-46364895D01*
X116666666Y-46364895D02*
X116742857Y-46364895D01*
X116742857Y-46364895D02*
X116857143Y-46326800D01*
X116857143Y-46326800D02*
X116933333Y-46250609D01*
X116933333Y-46250609D02*
X116971428Y-46174419D01*
X116971428Y-46174419D02*
X117009524Y-46022038D01*
X117009524Y-46022038D02*
X117009524Y-45907752D01*
X117009524Y-45907752D02*
X116971428Y-45755371D01*
X116971428Y-45755371D02*
X116933333Y-45679180D01*
X116933333Y-45679180D02*
X116857143Y-45602990D01*
X116857143Y-45602990D02*
X116742857Y-45564895D01*
X116742857Y-45564895D02*
X116666666Y-45564895D01*
X116666666Y-45564895D02*
X116552381Y-45602990D01*
X116552381Y-45602990D02*
X116514285Y-45641085D01*
X115752381Y-46364895D02*
X116209524Y-46364895D01*
X115980952Y-46364895D02*
X115980952Y-45564895D01*
X115980952Y-45564895D02*
X116057143Y-45679180D01*
X116057143Y-45679180D02*
X116133333Y-45755371D01*
X116133333Y-45755371D02*
X116209524Y-45793466D01*
X115066666Y-45564895D02*
X115219047Y-45564895D01*
X115219047Y-45564895D02*
X115295238Y-45602990D01*
X115295238Y-45602990D02*
X115333333Y-45641085D01*
X115333333Y-45641085D02*
X115409523Y-45755371D01*
X115409523Y-45755371D02*
X115447619Y-45907752D01*
X115447619Y-45907752D02*
X115447619Y-46212514D01*
X115447619Y-46212514D02*
X115409523Y-46288704D01*
X115409523Y-46288704D02*
X115371428Y-46326800D01*
X115371428Y-46326800D02*
X115295238Y-46364895D01*
X115295238Y-46364895D02*
X115142857Y-46364895D01*
X115142857Y-46364895D02*
X115066666Y-46326800D01*
X115066666Y-46326800D02*
X115028571Y-46288704D01*
X115028571Y-46288704D02*
X114990476Y-46212514D01*
X114990476Y-46212514D02*
X114990476Y-46022038D01*
X114990476Y-46022038D02*
X115028571Y-45945847D01*
X115028571Y-45945847D02*
X115066666Y-45907752D01*
X115066666Y-45907752D02*
X115142857Y-45869657D01*
X115142857Y-45869657D02*
X115295238Y-45869657D01*
X115295238Y-45869657D02*
X115371428Y-45907752D01*
X115371428Y-45907752D02*
X115409523Y-45945847D01*
X115409523Y-45945847D02*
X115447619Y-46022038D01*
X105014285Y-53788704D02*
X105052381Y-53826800D01*
X105052381Y-53826800D02*
X105166666Y-53864895D01*
X105166666Y-53864895D02*
X105242857Y-53864895D01*
X105242857Y-53864895D02*
X105357143Y-53826800D01*
X105357143Y-53826800D02*
X105433333Y-53750609D01*
X105433333Y-53750609D02*
X105471428Y-53674419D01*
X105471428Y-53674419D02*
X105509524Y-53522038D01*
X105509524Y-53522038D02*
X105509524Y-53407752D01*
X105509524Y-53407752D02*
X105471428Y-53255371D01*
X105471428Y-53255371D02*
X105433333Y-53179180D01*
X105433333Y-53179180D02*
X105357143Y-53102990D01*
X105357143Y-53102990D02*
X105242857Y-53064895D01*
X105242857Y-53064895D02*
X105166666Y-53064895D01*
X105166666Y-53064895D02*
X105052381Y-53102990D01*
X105052381Y-53102990D02*
X105014285Y-53141085D01*
X104252381Y-53864895D02*
X104709524Y-53864895D01*
X104480952Y-53864895D02*
X104480952Y-53064895D01*
X104480952Y-53064895D02*
X104557143Y-53179180D01*
X104557143Y-53179180D02*
X104633333Y-53255371D01*
X104633333Y-53255371D02*
X104709524Y-53293466D01*
X103947619Y-53141085D02*
X103909523Y-53102990D01*
X103909523Y-53102990D02*
X103833333Y-53064895D01*
X103833333Y-53064895D02*
X103642857Y-53064895D01*
X103642857Y-53064895D02*
X103566666Y-53102990D01*
X103566666Y-53102990D02*
X103528571Y-53141085D01*
X103528571Y-53141085D02*
X103490476Y-53217276D01*
X103490476Y-53217276D02*
X103490476Y-53293466D01*
X103490476Y-53293466D02*
X103528571Y-53407752D01*
X103528571Y-53407752D02*
X103985714Y-53864895D01*
X103985714Y-53864895D02*
X103490476Y-53864895D01*
X97133332Y-52934895D02*
X97399999Y-52553942D01*
X97590475Y-52934895D02*
X97590475Y-52134895D01*
X97590475Y-52134895D02*
X97285713Y-52134895D01*
X97285713Y-52134895D02*
X97209523Y-52172990D01*
X97209523Y-52172990D02*
X97171428Y-52211085D01*
X97171428Y-52211085D02*
X97133332Y-52287276D01*
X97133332Y-52287276D02*
X97133332Y-52401561D01*
X97133332Y-52401561D02*
X97171428Y-52477752D01*
X97171428Y-52477752D02*
X97209523Y-52515847D01*
X97209523Y-52515847D02*
X97285713Y-52553942D01*
X97285713Y-52553942D02*
X97590475Y-52553942D01*
X96828571Y-52211085D02*
X96790475Y-52172990D01*
X96790475Y-52172990D02*
X96714285Y-52134895D01*
X96714285Y-52134895D02*
X96523809Y-52134895D01*
X96523809Y-52134895D02*
X96447618Y-52172990D01*
X96447618Y-52172990D02*
X96409523Y-52211085D01*
X96409523Y-52211085D02*
X96371428Y-52287276D01*
X96371428Y-52287276D02*
X96371428Y-52363466D01*
X96371428Y-52363466D02*
X96409523Y-52477752D01*
X96409523Y-52477752D02*
X96866666Y-52934895D01*
X96866666Y-52934895D02*
X96371428Y-52934895D01*
X111133332Y-55864895D02*
X111399999Y-55483942D01*
X111590475Y-55864895D02*
X111590475Y-55064895D01*
X111590475Y-55064895D02*
X111285713Y-55064895D01*
X111285713Y-55064895D02*
X111209523Y-55102990D01*
X111209523Y-55102990D02*
X111171428Y-55141085D01*
X111171428Y-55141085D02*
X111133332Y-55217276D01*
X111133332Y-55217276D02*
X111133332Y-55331561D01*
X111133332Y-55331561D02*
X111171428Y-55407752D01*
X111171428Y-55407752D02*
X111209523Y-55445847D01*
X111209523Y-55445847D02*
X111285713Y-55483942D01*
X111285713Y-55483942D02*
X111590475Y-55483942D01*
X110447618Y-55331561D02*
X110447618Y-55864895D01*
X110638094Y-55026800D02*
X110828571Y-55598228D01*
X110828571Y-55598228D02*
X110333332Y-55598228D01*
X80628704Y-42366667D02*
X80666800Y-42328571D01*
X80666800Y-42328571D02*
X80704895Y-42214286D01*
X80704895Y-42214286D02*
X80704895Y-42138095D01*
X80704895Y-42138095D02*
X80666800Y-42023809D01*
X80666800Y-42023809D02*
X80590609Y-41947619D01*
X80590609Y-41947619D02*
X80514419Y-41909524D01*
X80514419Y-41909524D02*
X80362038Y-41871428D01*
X80362038Y-41871428D02*
X80247752Y-41871428D01*
X80247752Y-41871428D02*
X80095371Y-41909524D01*
X80095371Y-41909524D02*
X80019180Y-41947619D01*
X80019180Y-41947619D02*
X79942990Y-42023809D01*
X79942990Y-42023809D02*
X79904895Y-42138095D01*
X79904895Y-42138095D02*
X79904895Y-42214286D01*
X79904895Y-42214286D02*
X79942990Y-42328571D01*
X79942990Y-42328571D02*
X79981085Y-42366667D01*
X79904895Y-42633333D02*
X79904895Y-43166667D01*
X79904895Y-43166667D02*
X80704895Y-42823809D01*
X99854285Y-45578704D02*
X99892381Y-45616800D01*
X99892381Y-45616800D02*
X100006666Y-45654895D01*
X100006666Y-45654895D02*
X100082857Y-45654895D01*
X100082857Y-45654895D02*
X100197143Y-45616800D01*
X100197143Y-45616800D02*
X100273333Y-45540609D01*
X100273333Y-45540609D02*
X100311428Y-45464419D01*
X100311428Y-45464419D02*
X100349524Y-45312038D01*
X100349524Y-45312038D02*
X100349524Y-45197752D01*
X100349524Y-45197752D02*
X100311428Y-45045371D01*
X100311428Y-45045371D02*
X100273333Y-44969180D01*
X100273333Y-44969180D02*
X100197143Y-44892990D01*
X100197143Y-44892990D02*
X100082857Y-44854895D01*
X100082857Y-44854895D02*
X100006666Y-44854895D01*
X100006666Y-44854895D02*
X99892381Y-44892990D01*
X99892381Y-44892990D02*
X99854285Y-44931085D01*
X99549524Y-44931085D02*
X99511428Y-44892990D01*
X99511428Y-44892990D02*
X99435238Y-44854895D01*
X99435238Y-44854895D02*
X99244762Y-44854895D01*
X99244762Y-44854895D02*
X99168571Y-44892990D01*
X99168571Y-44892990D02*
X99130476Y-44931085D01*
X99130476Y-44931085D02*
X99092381Y-45007276D01*
X99092381Y-45007276D02*
X99092381Y-45083466D01*
X99092381Y-45083466D02*
X99130476Y-45197752D01*
X99130476Y-45197752D02*
X99587619Y-45654895D01*
X99587619Y-45654895D02*
X99092381Y-45654895D01*
X98406666Y-45121561D02*
X98406666Y-45654895D01*
X98597142Y-44816800D02*
X98787619Y-45388228D01*
X98787619Y-45388228D02*
X98292380Y-45388228D01*
X98719753Y-43017556D02*
X98719753Y-43071430D01*
X98719753Y-43071430D02*
X98773628Y-43179180D01*
X98773628Y-43179180D02*
X98827503Y-43233055D01*
X98827503Y-43233055D02*
X98935253Y-43286930D01*
X98935253Y-43286930D02*
X99043002Y-43286930D01*
X99043002Y-43286930D02*
X99123815Y-43259992D01*
X99123815Y-43259992D02*
X99258502Y-43179180D01*
X99258502Y-43179180D02*
X99339314Y-43098368D01*
X99339314Y-43098368D02*
X99420126Y-42963681D01*
X99420126Y-42963681D02*
X99447063Y-42882869D01*
X99447063Y-42882869D02*
X99447063Y-42775119D01*
X99447063Y-42775119D02*
X99393189Y-42667369D01*
X99393189Y-42667369D02*
X99339314Y-42613495D01*
X99339314Y-42613495D02*
X99231564Y-42559620D01*
X99231564Y-42559620D02*
X99177689Y-42559620D01*
X98962190Y-42344121D02*
X98962190Y-42290246D01*
X98962190Y-42290246D02*
X98935253Y-42209434D01*
X98935253Y-42209434D02*
X98800566Y-42074747D01*
X98800566Y-42074747D02*
X98719753Y-42047809D01*
X98719753Y-42047809D02*
X98665879Y-42047809D01*
X98665879Y-42047809D02*
X98585066Y-42074747D01*
X98585066Y-42074747D02*
X98531192Y-42128621D01*
X98531192Y-42128621D02*
X98477317Y-42236371D01*
X98477317Y-42236371D02*
X98477317Y-42882869D01*
X98477317Y-42882869D02*
X98127131Y-42532682D01*
X98504254Y-41778435D02*
X98154068Y-41428249D01*
X98154068Y-41428249D02*
X98127130Y-41832310D01*
X98127130Y-41832310D02*
X98046318Y-41751498D01*
X98046318Y-41751498D02*
X97965506Y-41724560D01*
X97965506Y-41724560D02*
X97911631Y-41724560D01*
X97911631Y-41724560D02*
X97830819Y-41751498D01*
X97830819Y-41751498D02*
X97696132Y-41886185D01*
X97696132Y-41886185D02*
X97669195Y-41966997D01*
X97669195Y-41966997D02*
X97669195Y-42020872D01*
X97669195Y-42020872D02*
X97696132Y-42101684D01*
X97696132Y-42101684D02*
X97857756Y-42263308D01*
X97857756Y-42263308D02*
X97938569Y-42290246D01*
X97938569Y-42290246D02*
X97992443Y-42290246D01*
X99394895Y-45390476D02*
X100042514Y-45390476D01*
X100042514Y-45390476D02*
X100118704Y-45428571D01*
X100118704Y-45428571D02*
X100156800Y-45466666D01*
X100156800Y-45466666D02*
X100194895Y-45542857D01*
X100194895Y-45542857D02*
X100194895Y-45695238D01*
X100194895Y-45695238D02*
X100156800Y-45771428D01*
X100156800Y-45771428D02*
X100118704Y-45809523D01*
X100118704Y-45809523D02*
X100042514Y-45847619D01*
X100042514Y-45847619D02*
X99394895Y-45847619D01*
X99471085Y-46190475D02*
X99432990Y-46228571D01*
X99432990Y-46228571D02*
X99394895Y-46304761D01*
X99394895Y-46304761D02*
X99394895Y-46495237D01*
X99394895Y-46495237D02*
X99432990Y-46571428D01*
X99432990Y-46571428D02*
X99471085Y-46609523D01*
X99471085Y-46609523D02*
X99547276Y-46647618D01*
X99547276Y-46647618D02*
X99623466Y-46647618D01*
X99623466Y-46647618D02*
X99737752Y-46609523D01*
X99737752Y-46609523D02*
X100194895Y-46152380D01*
X100194895Y-46152380D02*
X100194895Y-46647618D01*
X79266666Y-56945847D02*
X79533332Y-56945847D01*
X79533332Y-57364895D02*
X79533332Y-56564895D01*
X79533332Y-56564895D02*
X79152380Y-56564895D01*
X78428571Y-57364895D02*
X78885714Y-57364895D01*
X78657142Y-57364895D02*
X78657142Y-56564895D01*
X78657142Y-56564895D02*
X78733333Y-56679180D01*
X78733333Y-56679180D02*
X78809523Y-56755371D01*
X78809523Y-56755371D02*
X78885714Y-56793466D01*
X105628704Y-43985714D02*
X105666800Y-43947618D01*
X105666800Y-43947618D02*
X105704895Y-43833333D01*
X105704895Y-43833333D02*
X105704895Y-43757142D01*
X105704895Y-43757142D02*
X105666800Y-43642856D01*
X105666800Y-43642856D02*
X105590609Y-43566666D01*
X105590609Y-43566666D02*
X105514419Y-43528571D01*
X105514419Y-43528571D02*
X105362038Y-43490475D01*
X105362038Y-43490475D02*
X105247752Y-43490475D01*
X105247752Y-43490475D02*
X105095371Y-43528571D01*
X105095371Y-43528571D02*
X105019180Y-43566666D01*
X105019180Y-43566666D02*
X104942990Y-43642856D01*
X104942990Y-43642856D02*
X104904895Y-43757142D01*
X104904895Y-43757142D02*
X104904895Y-43833333D01*
X104904895Y-43833333D02*
X104942990Y-43947618D01*
X104942990Y-43947618D02*
X104981085Y-43985714D01*
X105704895Y-44747618D02*
X105704895Y-44290475D01*
X105704895Y-44519047D02*
X104904895Y-44519047D01*
X104904895Y-44519047D02*
X105019180Y-44442856D01*
X105019180Y-44442856D02*
X105095371Y-44366666D01*
X105095371Y-44366666D02*
X105133466Y-44290475D01*
X105247752Y-45204761D02*
X105209657Y-45128571D01*
X105209657Y-45128571D02*
X105171561Y-45090476D01*
X105171561Y-45090476D02*
X105095371Y-45052380D01*
X105095371Y-45052380D02*
X105057276Y-45052380D01*
X105057276Y-45052380D02*
X104981085Y-45090476D01*
X104981085Y-45090476D02*
X104942990Y-45128571D01*
X104942990Y-45128571D02*
X104904895Y-45204761D01*
X104904895Y-45204761D02*
X104904895Y-45357142D01*
X104904895Y-45357142D02*
X104942990Y-45433333D01*
X104942990Y-45433333D02*
X104981085Y-45471428D01*
X104981085Y-45471428D02*
X105057276Y-45509523D01*
X105057276Y-45509523D02*
X105095371Y-45509523D01*
X105095371Y-45509523D02*
X105171561Y-45471428D01*
X105171561Y-45471428D02*
X105209657Y-45433333D01*
X105209657Y-45433333D02*
X105247752Y-45357142D01*
X105247752Y-45357142D02*
X105247752Y-45204761D01*
X105247752Y-45204761D02*
X105285847Y-45128571D01*
X105285847Y-45128571D02*
X105323942Y-45090476D01*
X105323942Y-45090476D02*
X105400133Y-45052380D01*
X105400133Y-45052380D02*
X105552514Y-45052380D01*
X105552514Y-45052380D02*
X105628704Y-45090476D01*
X105628704Y-45090476D02*
X105666800Y-45128571D01*
X105666800Y-45128571D02*
X105704895Y-45204761D01*
X105704895Y-45204761D02*
X105704895Y-45357142D01*
X105704895Y-45357142D02*
X105666800Y-45433333D01*
X105666800Y-45433333D02*
X105628704Y-45471428D01*
X105628704Y-45471428D02*
X105552514Y-45509523D01*
X105552514Y-45509523D02*
X105400133Y-45509523D01*
X105400133Y-45509523D02*
X105323942Y-45471428D01*
X105323942Y-45471428D02*
X105285847Y-45433333D01*
X105285847Y-45433333D02*
X105247752Y-45357142D01*
X86609523Y-50564895D02*
X86609523Y-51212514D01*
X86609523Y-51212514D02*
X86571428Y-51288704D01*
X86571428Y-51288704D02*
X86533333Y-51326800D01*
X86533333Y-51326800D02*
X86457142Y-51364895D01*
X86457142Y-51364895D02*
X86304761Y-51364895D01*
X86304761Y-51364895D02*
X86228571Y-51326800D01*
X86228571Y-51326800D02*
X86190476Y-51288704D01*
X86190476Y-51288704D02*
X86152380Y-51212514D01*
X86152380Y-51212514D02*
X86152380Y-50564895D01*
X85428571Y-50831561D02*
X85428571Y-51364895D01*
X85619047Y-50526800D02*
X85809524Y-51098228D01*
X85809524Y-51098228D02*
X85314285Y-51098228D01*
X118014285Y-53288704D02*
X118052381Y-53326800D01*
X118052381Y-53326800D02*
X118166666Y-53364895D01*
X118166666Y-53364895D02*
X118242857Y-53364895D01*
X118242857Y-53364895D02*
X118357143Y-53326800D01*
X118357143Y-53326800D02*
X118433333Y-53250609D01*
X118433333Y-53250609D02*
X118471428Y-53174419D01*
X118471428Y-53174419D02*
X118509524Y-53022038D01*
X118509524Y-53022038D02*
X118509524Y-52907752D01*
X118509524Y-52907752D02*
X118471428Y-52755371D01*
X118471428Y-52755371D02*
X118433333Y-52679180D01*
X118433333Y-52679180D02*
X118357143Y-52602990D01*
X118357143Y-52602990D02*
X118242857Y-52564895D01*
X118242857Y-52564895D02*
X118166666Y-52564895D01*
X118166666Y-52564895D02*
X118052381Y-52602990D01*
X118052381Y-52602990D02*
X118014285Y-52641085D01*
X117252381Y-53364895D02*
X117709524Y-53364895D01*
X117480952Y-53364895D02*
X117480952Y-52564895D01*
X117480952Y-52564895D02*
X117557143Y-52679180D01*
X117557143Y-52679180D02*
X117633333Y-52755371D01*
X117633333Y-52755371D02*
X117709524Y-52793466D01*
X116566666Y-52831561D02*
X116566666Y-53364895D01*
X116757142Y-52526800D02*
X116947619Y-53098228D01*
X116947619Y-53098228D02*
X116452380Y-53098228D01*
X100523332Y-41864895D02*
X100789999Y-41483942D01*
X100980475Y-41864895D02*
X100980475Y-41064895D01*
X100980475Y-41064895D02*
X100675713Y-41064895D01*
X100675713Y-41064895D02*
X100599523Y-41102990D01*
X100599523Y-41102990D02*
X100561428Y-41141085D01*
X100561428Y-41141085D02*
X100523332Y-41217276D01*
X100523332Y-41217276D02*
X100523332Y-41331561D01*
X100523332Y-41331561D02*
X100561428Y-41407752D01*
X100561428Y-41407752D02*
X100599523Y-41445847D01*
X100599523Y-41445847D02*
X100675713Y-41483942D01*
X100675713Y-41483942D02*
X100980475Y-41483942D01*
X99837618Y-41064895D02*
X99989999Y-41064895D01*
X99989999Y-41064895D02*
X100066190Y-41102990D01*
X100066190Y-41102990D02*
X100104285Y-41141085D01*
X100104285Y-41141085D02*
X100180475Y-41255371D01*
X100180475Y-41255371D02*
X100218571Y-41407752D01*
X100218571Y-41407752D02*
X100218571Y-41712514D01*
X100218571Y-41712514D02*
X100180475Y-41788704D01*
X100180475Y-41788704D02*
X100142380Y-41826800D01*
X100142380Y-41826800D02*
X100066190Y-41864895D01*
X100066190Y-41864895D02*
X99913809Y-41864895D01*
X99913809Y-41864895D02*
X99837618Y-41826800D01*
X99837618Y-41826800D02*
X99799523Y-41788704D01*
X99799523Y-41788704D02*
X99761428Y-41712514D01*
X99761428Y-41712514D02*
X99761428Y-41522038D01*
X99761428Y-41522038D02*
X99799523Y-41445847D01*
X99799523Y-41445847D02*
X99837618Y-41407752D01*
X99837618Y-41407752D02*
X99913809Y-41369657D01*
X99913809Y-41369657D02*
X100066190Y-41369657D01*
X100066190Y-41369657D02*
X100142380Y-41407752D01*
X100142380Y-41407752D02*
X100180475Y-41445847D01*
X100180475Y-41445847D02*
X100218571Y-41522038D01*
X90354285Y-51798704D02*
X90392381Y-51836800D01*
X90392381Y-51836800D02*
X90506666Y-51874895D01*
X90506666Y-51874895D02*
X90582857Y-51874895D01*
X90582857Y-51874895D02*
X90697143Y-51836800D01*
X90697143Y-51836800D02*
X90773333Y-51760609D01*
X90773333Y-51760609D02*
X90811428Y-51684419D01*
X90811428Y-51684419D02*
X90849524Y-51532038D01*
X90849524Y-51532038D02*
X90849524Y-51417752D01*
X90849524Y-51417752D02*
X90811428Y-51265371D01*
X90811428Y-51265371D02*
X90773333Y-51189180D01*
X90773333Y-51189180D02*
X90697143Y-51112990D01*
X90697143Y-51112990D02*
X90582857Y-51074895D01*
X90582857Y-51074895D02*
X90506666Y-51074895D01*
X90506666Y-51074895D02*
X90392381Y-51112990D01*
X90392381Y-51112990D02*
X90354285Y-51151085D01*
X90049524Y-51151085D02*
X90011428Y-51112990D01*
X90011428Y-51112990D02*
X89935238Y-51074895D01*
X89935238Y-51074895D02*
X89744762Y-51074895D01*
X89744762Y-51074895D02*
X89668571Y-51112990D01*
X89668571Y-51112990D02*
X89630476Y-51151085D01*
X89630476Y-51151085D02*
X89592381Y-51227276D01*
X89592381Y-51227276D02*
X89592381Y-51303466D01*
X89592381Y-51303466D02*
X89630476Y-51417752D01*
X89630476Y-51417752D02*
X90087619Y-51874895D01*
X90087619Y-51874895D02*
X89592381Y-51874895D01*
X89097142Y-51074895D02*
X89020952Y-51074895D01*
X89020952Y-51074895D02*
X88944761Y-51112990D01*
X88944761Y-51112990D02*
X88906666Y-51151085D01*
X88906666Y-51151085D02*
X88868571Y-51227276D01*
X88868571Y-51227276D02*
X88830476Y-51379657D01*
X88830476Y-51379657D02*
X88830476Y-51570133D01*
X88830476Y-51570133D02*
X88868571Y-51722514D01*
X88868571Y-51722514D02*
X88906666Y-51798704D01*
X88906666Y-51798704D02*
X88944761Y-51836800D01*
X88944761Y-51836800D02*
X89020952Y-51874895D01*
X89020952Y-51874895D02*
X89097142Y-51874895D01*
X89097142Y-51874895D02*
X89173333Y-51836800D01*
X89173333Y-51836800D02*
X89211428Y-51798704D01*
X89211428Y-51798704D02*
X89249523Y-51722514D01*
X89249523Y-51722514D02*
X89287619Y-51570133D01*
X89287619Y-51570133D02*
X89287619Y-51379657D01*
X89287619Y-51379657D02*
X89249523Y-51227276D01*
X89249523Y-51227276D02*
X89211428Y-51151085D01*
X89211428Y-51151085D02*
X89173333Y-51112990D01*
X89173333Y-51112990D02*
X89097142Y-51074895D01*
X100623332Y-53694895D02*
X100889999Y-53313942D01*
X101080475Y-53694895D02*
X101080475Y-52894895D01*
X101080475Y-52894895D02*
X100775713Y-52894895D01*
X100775713Y-52894895D02*
X100699523Y-52932990D01*
X100699523Y-52932990D02*
X100661428Y-52971085D01*
X100661428Y-52971085D02*
X100623332Y-53047276D01*
X100623332Y-53047276D02*
X100623332Y-53161561D01*
X100623332Y-53161561D02*
X100661428Y-53237752D01*
X100661428Y-53237752D02*
X100699523Y-53275847D01*
X100699523Y-53275847D02*
X100775713Y-53313942D01*
X100775713Y-53313942D02*
X101080475Y-53313942D01*
X100166190Y-53237752D02*
X100242380Y-53199657D01*
X100242380Y-53199657D02*
X100280475Y-53161561D01*
X100280475Y-53161561D02*
X100318571Y-53085371D01*
X100318571Y-53085371D02*
X100318571Y-53047276D01*
X100318571Y-53047276D02*
X100280475Y-52971085D01*
X100280475Y-52971085D02*
X100242380Y-52932990D01*
X100242380Y-52932990D02*
X100166190Y-52894895D01*
X100166190Y-52894895D02*
X100013809Y-52894895D01*
X100013809Y-52894895D02*
X99937618Y-52932990D01*
X99937618Y-52932990D02*
X99899523Y-52971085D01*
X99899523Y-52971085D02*
X99861428Y-53047276D01*
X99861428Y-53047276D02*
X99861428Y-53085371D01*
X99861428Y-53085371D02*
X99899523Y-53161561D01*
X99899523Y-53161561D02*
X99937618Y-53199657D01*
X99937618Y-53199657D02*
X100013809Y-53237752D01*
X100013809Y-53237752D02*
X100166190Y-53237752D01*
X100166190Y-53237752D02*
X100242380Y-53275847D01*
X100242380Y-53275847D02*
X100280475Y-53313942D01*
X100280475Y-53313942D02*
X100318571Y-53390133D01*
X100318571Y-53390133D02*
X100318571Y-53542514D01*
X100318571Y-53542514D02*
X100280475Y-53618704D01*
X100280475Y-53618704D02*
X100242380Y-53656800D01*
X100242380Y-53656800D02*
X100166190Y-53694895D01*
X100166190Y-53694895D02*
X100013809Y-53694895D01*
X100013809Y-53694895D02*
X99937618Y-53656800D01*
X99937618Y-53656800D02*
X99899523Y-53618704D01*
X99899523Y-53618704D02*
X99861428Y-53542514D01*
X99861428Y-53542514D02*
X99861428Y-53390133D01*
X99861428Y-53390133D02*
X99899523Y-53313942D01*
X99899523Y-53313942D02*
X99937618Y-53275847D01*
X99937618Y-53275847D02*
X100013809Y-53237752D01*
X102044349Y-52111318D02*
X102044349Y-52165193D01*
X102044349Y-52165193D02*
X102098224Y-52272943D01*
X102098224Y-52272943D02*
X102152099Y-52326817D01*
X102152099Y-52326817D02*
X102259848Y-52380692D01*
X102259848Y-52380692D02*
X102367598Y-52380692D01*
X102367598Y-52380692D02*
X102448410Y-52353755D01*
X102448410Y-52353755D02*
X102583097Y-52272943D01*
X102583097Y-52272943D02*
X102663909Y-52192130D01*
X102663909Y-52192130D02*
X102744721Y-52057443D01*
X102744721Y-52057443D02*
X102771659Y-51976631D01*
X102771659Y-51976631D02*
X102771659Y-51868882D01*
X102771659Y-51868882D02*
X102717784Y-51761132D01*
X102717784Y-51761132D02*
X102663909Y-51707257D01*
X102663909Y-51707257D02*
X102556160Y-51653382D01*
X102556160Y-51653382D02*
X102502285Y-51653382D01*
X102367598Y-51410946D02*
X102017412Y-51060760D01*
X102017412Y-51060760D02*
X101990474Y-51464821D01*
X101990474Y-51464821D02*
X101909662Y-51384008D01*
X101909662Y-51384008D02*
X101828850Y-51357071D01*
X101828850Y-51357071D02*
X101774975Y-51357071D01*
X101774975Y-51357071D02*
X101694163Y-51384008D01*
X101694163Y-51384008D02*
X101559476Y-51518695D01*
X101559476Y-51518695D02*
X101532538Y-51599508D01*
X101532538Y-51599508D02*
X101532538Y-51653382D01*
X101532538Y-51653382D02*
X101559476Y-51734195D01*
X101559476Y-51734195D02*
X101721100Y-51895819D01*
X101721100Y-51895819D02*
X101801912Y-51922756D01*
X101801912Y-51922756D02*
X101855787Y-51922756D01*
X107133332Y-55148704D02*
X107171428Y-55186800D01*
X107171428Y-55186800D02*
X107285713Y-55224895D01*
X107285713Y-55224895D02*
X107361904Y-55224895D01*
X107361904Y-55224895D02*
X107476190Y-55186800D01*
X107476190Y-55186800D02*
X107552380Y-55110609D01*
X107552380Y-55110609D02*
X107590475Y-55034419D01*
X107590475Y-55034419D02*
X107628571Y-54882038D01*
X107628571Y-54882038D02*
X107628571Y-54767752D01*
X107628571Y-54767752D02*
X107590475Y-54615371D01*
X107590475Y-54615371D02*
X107552380Y-54539180D01*
X107552380Y-54539180D02*
X107476190Y-54462990D01*
X107476190Y-54462990D02*
X107361904Y-54424895D01*
X107361904Y-54424895D02*
X107285713Y-54424895D01*
X107285713Y-54424895D02*
X107171428Y-54462990D01*
X107171428Y-54462990D02*
X107133332Y-54501085D01*
X106752380Y-55224895D02*
X106599999Y-55224895D01*
X106599999Y-55224895D02*
X106523809Y-55186800D01*
X106523809Y-55186800D02*
X106485713Y-55148704D01*
X106485713Y-55148704D02*
X106409523Y-55034419D01*
X106409523Y-55034419D02*
X106371428Y-54882038D01*
X106371428Y-54882038D02*
X106371428Y-54577276D01*
X106371428Y-54577276D02*
X106409523Y-54501085D01*
X106409523Y-54501085D02*
X106447618Y-54462990D01*
X106447618Y-54462990D02*
X106523809Y-54424895D01*
X106523809Y-54424895D02*
X106676190Y-54424895D01*
X106676190Y-54424895D02*
X106752380Y-54462990D01*
X106752380Y-54462990D02*
X106790475Y-54501085D01*
X106790475Y-54501085D02*
X106828571Y-54577276D01*
X106828571Y-54577276D02*
X106828571Y-54767752D01*
X106828571Y-54767752D02*
X106790475Y-54843942D01*
X106790475Y-54843942D02*
X106752380Y-54882038D01*
X106752380Y-54882038D02*
X106676190Y-54920133D01*
X106676190Y-54920133D02*
X106523809Y-54920133D01*
X106523809Y-54920133D02*
X106447618Y-54882038D01*
X106447618Y-54882038D02*
X106409523Y-54843942D01*
X106409523Y-54843942D02*
X106371428Y-54767752D01*
X96633332Y-57288704D02*
X96671428Y-57326800D01*
X96671428Y-57326800D02*
X96785713Y-57364895D01*
X96785713Y-57364895D02*
X96861904Y-57364895D01*
X96861904Y-57364895D02*
X96976190Y-57326800D01*
X96976190Y-57326800D02*
X97052380Y-57250609D01*
X97052380Y-57250609D02*
X97090475Y-57174419D01*
X97090475Y-57174419D02*
X97128571Y-57022038D01*
X97128571Y-57022038D02*
X97128571Y-56907752D01*
X97128571Y-56907752D02*
X97090475Y-56755371D01*
X97090475Y-56755371D02*
X97052380Y-56679180D01*
X97052380Y-56679180D02*
X96976190Y-56602990D01*
X96976190Y-56602990D02*
X96861904Y-56564895D01*
X96861904Y-56564895D02*
X96785713Y-56564895D01*
X96785713Y-56564895D02*
X96671428Y-56602990D01*
X96671428Y-56602990D02*
X96633332Y-56641085D01*
X95871428Y-57364895D02*
X96328571Y-57364895D01*
X96099999Y-57364895D02*
X96099999Y-56564895D01*
X96099999Y-56564895D02*
X96176190Y-56679180D01*
X96176190Y-56679180D02*
X96252380Y-56755371D01*
X96252380Y-56755371D02*
X96328571Y-56793466D01*
X101104285Y-40828704D02*
X101142381Y-40866800D01*
X101142381Y-40866800D02*
X101256666Y-40904895D01*
X101256666Y-40904895D02*
X101332857Y-40904895D01*
X101332857Y-40904895D02*
X101447143Y-40866800D01*
X101447143Y-40866800D02*
X101523333Y-40790609D01*
X101523333Y-40790609D02*
X101561428Y-40714419D01*
X101561428Y-40714419D02*
X101599524Y-40562038D01*
X101599524Y-40562038D02*
X101599524Y-40447752D01*
X101599524Y-40447752D02*
X101561428Y-40295371D01*
X101561428Y-40295371D02*
X101523333Y-40219180D01*
X101523333Y-40219180D02*
X101447143Y-40142990D01*
X101447143Y-40142990D02*
X101332857Y-40104895D01*
X101332857Y-40104895D02*
X101256666Y-40104895D01*
X101256666Y-40104895D02*
X101142381Y-40142990D01*
X101142381Y-40142990D02*
X101104285Y-40181085D01*
X100799524Y-40181085D02*
X100761428Y-40142990D01*
X100761428Y-40142990D02*
X100685238Y-40104895D01*
X100685238Y-40104895D02*
X100494762Y-40104895D01*
X100494762Y-40104895D02*
X100418571Y-40142990D01*
X100418571Y-40142990D02*
X100380476Y-40181085D01*
X100380476Y-40181085D02*
X100342381Y-40257276D01*
X100342381Y-40257276D02*
X100342381Y-40333466D01*
X100342381Y-40333466D02*
X100380476Y-40447752D01*
X100380476Y-40447752D02*
X100837619Y-40904895D01*
X100837619Y-40904895D02*
X100342381Y-40904895D01*
X99580476Y-40904895D02*
X100037619Y-40904895D01*
X99809047Y-40904895D02*
X99809047Y-40104895D01*
X99809047Y-40104895D02*
X99885238Y-40219180D01*
X99885238Y-40219180D02*
X99961428Y-40295371D01*
X99961428Y-40295371D02*
X100037619Y-40333466D01*
D11*
X107642164Y-46640000D02*
X107857836Y-46640000D01*
X107642164Y-47360000D02*
X107857836Y-47360000D01*
X97237258Y-54977500D02*
X96762742Y-54977500D01*
X97237258Y-56022500D02*
X96762742Y-56022500D01*
X88940000Y-56000000D02*
X88940000Y-55200000D01*
X88940000Y-56000000D02*
X88940000Y-56800000D01*
X92060000Y-56000000D02*
X92060000Y-55200000D01*
X92060000Y-56000000D02*
X92060000Y-56800000D01*
X88990000Y-54700000D02*
X88660000Y-54940000D01*
X88660000Y-54460000D01*
X88990000Y-54700000D01*
G36*
X88990000Y-54700000D02*
G01*
X88660000Y-54940000D01*
X88660000Y-54460000D01*
X88990000Y-54700000D01*
G37*
X100597836Y-55140000D02*
X100382164Y-55140000D01*
X100597836Y-55860000D02*
X100382164Y-55860000D01*
X108892164Y-54140000D02*
X109107836Y-54140000D01*
X108892164Y-54860000D02*
X109107836Y-54860000D01*
X100370000Y-50653641D02*
X100370000Y-50346359D01*
X101130000Y-50653641D02*
X101130000Y-50346359D01*
X118210000Y-48250000D02*
X118210000Y-48750000D01*
X118210000Y-48750000D02*
X118710000Y-48500000D01*
X118710000Y-48500000D02*
X118210000Y-48250000D01*
X112140000Y-44607836D02*
X112140000Y-44392164D01*
X112860000Y-44607836D02*
X112860000Y-44392164D01*
X93859420Y-54490000D02*
X94140580Y-54490000D01*
X93859420Y-55510000D02*
X94140580Y-55510000D01*
X85882164Y-53410000D02*
X86097836Y-53410000D01*
X85882164Y-54130000D02*
X86097836Y-54130000D01*
X99169190Y-52071693D02*
X99321693Y-51919190D01*
X99678307Y-52580810D02*
X99830810Y-52428307D01*
X111500000Y-42925000D02*
X111500000Y-46075000D01*
X111500000Y-46075000D02*
X107500000Y-46075000D01*
X111669190Y-52321693D02*
X111821693Y-52169190D01*
X112178307Y-52830810D02*
X112330810Y-52678307D01*
X109903641Y-46620000D02*
X109596359Y-46620000D01*
X109903641Y-47380000D02*
X109596359Y-47380000D01*
X93782164Y-52910000D02*
X93997836Y-52910000D01*
X93782164Y-53630000D02*
X93997836Y-53630000D01*
X114892164Y-48140000D02*
X115107836Y-48140000D01*
X114892164Y-48860000D02*
X115107836Y-48860000D01*
X89577836Y-51160000D02*
X89362164Y-51160000D01*
X89577836Y-51880000D02*
X89362164Y-51880000D01*
X92311693Y-44689190D02*
X92159190Y-44841693D01*
X92820810Y-45198307D02*
X92668307Y-45350810D01*
X87399622Y-56440000D02*
X86600378Y-56440000D01*
X87399622Y-57560000D02*
X86600378Y-57560000D01*
X115892164Y-50140000D02*
X116107836Y-50140000D01*
X115892164Y-50860000D02*
X116107836Y-50860000D01*
X98097836Y-39160000D02*
X97882164Y-39160000D01*
X98097836Y-39880000D02*
X97882164Y-39880000D01*
X106342500Y-48100000D02*
X106342500Y-48825000D01*
X106342500Y-51595000D02*
X106342500Y-52080000D01*
X107067500Y-48100000D02*
X106342500Y-48100000D01*
X107067500Y-52320000D02*
X106642500Y-52320000D01*
X109837500Y-48100000D02*
X110562500Y-48100000D01*
X109837500Y-52320000D02*
X110562500Y-52320000D01*
X110562500Y-48100000D02*
X110562500Y-48825000D01*
X110562500Y-52320000D02*
X110562500Y-51595000D01*
X106582500Y-52650000D02*
X106102500Y-52650000D01*
X106342500Y-52320000D01*
X106582500Y-52650000D01*
G36*
X106582500Y-52650000D02*
G01*
X106102500Y-52650000D01*
X106342500Y-52320000D01*
X106582500Y-52650000D01*
G37*
X85836359Y-54640000D02*
X86143641Y-54640000D01*
X85836359Y-55400000D02*
X86143641Y-55400000D01*
X82765000Y-44265000D02*
X82765000Y-40735000D01*
X82830000Y-40735000D02*
X82765000Y-40735000D01*
X82830000Y-44265000D02*
X82765000Y-44265000D01*
X89170000Y-45590000D02*
X89170000Y-44265000D01*
X89235000Y-40735000D02*
X89170000Y-40735000D01*
X89235000Y-44265000D02*
X89170000Y-44265000D01*
X89235000Y-44265000D02*
X89235000Y-40735000D01*
X114892164Y-47170000D02*
X115107836Y-47170000D01*
X114892164Y-47890000D02*
X115107836Y-47890000D01*
X107107836Y-53140000D02*
X106892164Y-53140000D01*
X107107836Y-53860000D02*
X106892164Y-53860000D01*
X97237258Y-53477500D02*
X96762742Y-53477500D01*
X97237258Y-54522500D02*
X96762742Y-54522500D01*
X110120000Y-53846359D02*
X110120000Y-54153641D01*
X110880000Y-53846359D02*
X110880000Y-54153641D01*
X81140000Y-42392164D02*
X81140000Y-42607836D01*
X81860000Y-42392164D02*
X81860000Y-42607836D01*
X101847836Y-44910000D02*
X101632164Y-44910000D01*
X101847836Y-45630000D02*
X101632164Y-45630000D01*
X97561693Y-43600810D02*
X97409190Y-43448307D01*
X98070810Y-43091693D02*
X97918307Y-42939190D01*
X93390000Y-45890000D02*
X93865000Y-45890000D01*
X93390000Y-46365000D02*
X93390000Y-45890000D01*
X93390000Y-50635000D02*
X93390000Y-51110000D01*
X93390000Y-51110000D02*
X93865000Y-51110000D01*
X98135000Y-51110000D02*
X98370000Y-51110000D01*
X98610000Y-45890000D02*
X98135000Y-45890000D01*
X98610000Y-46365000D02*
X98610000Y-45890000D01*
X98610000Y-50635000D02*
X98610000Y-50810000D01*
X98940000Y-51350000D02*
X98610000Y-51110000D01*
X98940000Y-50870000D01*
X98940000Y-51350000D01*
G36*
X98940000Y-51350000D02*
G01*
X98610000Y-51110000D01*
X98940000Y-50870000D01*
X98940000Y-51350000D01*
G37*
X81897936Y-56090000D02*
X83102064Y-56090000D01*
X81897936Y-57910000D02*
X83102064Y-57910000D01*
X106140000Y-44392164D02*
X106140000Y-44607836D01*
X106860000Y-44392164D02*
X106860000Y-44607836D01*
X86000000Y-46940000D02*
X85200000Y-46940000D01*
X86000000Y-46940000D02*
X86800000Y-46940000D01*
X86000000Y-50060000D02*
X85200000Y-50060000D01*
X86000000Y-50060000D02*
X86800000Y-50060000D01*
X87300000Y-46990000D02*
X87060000Y-46660000D01*
X87540000Y-46660000D01*
X87300000Y-46990000D01*
G36*
X87300000Y-46990000D02*
G01*
X87060000Y-46660000D01*
X87540000Y-46660000D01*
X87300000Y-46990000D01*
G37*
X117140000Y-50892164D02*
X117140000Y-51107836D01*
X117860000Y-50892164D02*
X117860000Y-51107836D01*
X97836359Y-41140000D02*
X98143641Y-41140000D01*
X97836359Y-41900000D02*
X98143641Y-41900000D01*
X87347836Y-51160000D02*
X87132164Y-51160000D01*
X87347836Y-51880000D02*
X87132164Y-51880000D01*
X100643641Y-54120000D02*
X100336359Y-54120000D01*
X100643641Y-54880000D02*
X100336359Y-54880000D01*
X100409190Y-52341693D02*
X100561693Y-52189190D01*
X100918307Y-52850810D02*
X101070810Y-52698307D01*
X108892164Y-53140000D02*
X109107836Y-53140000D01*
X108892164Y-53860000D02*
X109107836Y-53860000D01*
X93859420Y-56490000D02*
X94140580Y-56490000D01*
X93859420Y-57510000D02*
X94140580Y-57510000D01*
X98097836Y-40160000D02*
X97882164Y-40160000D01*
X98097836Y-40880000D02*
X97882164Y-40880000D01*
%LPC*%
D12*
X78075000Y-50750000D03*
X78075000Y-46250000D03*
D13*
X78075000Y-54350000D03*
X78075000Y-42650000D03*
D14*
X107270000Y-47000000D03*
X108230000Y-47000000D03*
D15*
X113515000Y-50500000D03*
X114485000Y-50500000D03*
D16*
X97825000Y-55500000D03*
X96175000Y-55500000D03*
D17*
X89550000Y-54862500D03*
X91450000Y-54862500D03*
X90500000Y-57137500D03*
D18*
X113500000Y-49485000D03*
X113500000Y-48515000D03*
D19*
X100970000Y-55500000D03*
X100010000Y-55500000D03*
D14*
X108520000Y-54500000D03*
X109480000Y-54500000D03*
D20*
X100750000Y-51010000D03*
X100750000Y-49990000D03*
D21*
X122430000Y-48500000D03*
D22*
X122430000Y-52880000D03*
X122430000Y-44120000D03*
D23*
X112500000Y-44980000D03*
X112500000Y-44020000D03*
D24*
X93225000Y-55000000D03*
X94775000Y-55000000D03*
D14*
X85510000Y-53770000D03*
X86470000Y-53770000D03*
D25*
X99160589Y-52589411D03*
X99839411Y-51910589D03*
D26*
X110600000Y-45300000D03*
X108400000Y-45300000D03*
X108400000Y-43700000D03*
X110600000Y-43700000D03*
D25*
X111660589Y-52839411D03*
X112339411Y-52160589D03*
D27*
X110260000Y-47000000D03*
X109240000Y-47000000D03*
D14*
X93410000Y-53270000D03*
X94370000Y-53270000D03*
X114520000Y-48500000D03*
X115480000Y-48500000D03*
D19*
X89950000Y-51520000D03*
X88990000Y-51520000D03*
D28*
X92829411Y-44680589D03*
X92150589Y-45359411D03*
D18*
X112500000Y-50485000D03*
X112500000Y-49515000D03*
D29*
X88062500Y-57000000D03*
X85937500Y-57000000D03*
D14*
X115520000Y-50500000D03*
X116480000Y-50500000D03*
D19*
X98470000Y-39520000D03*
X97510000Y-39520000D03*
D30*
X106515000Y-51210000D03*
X106515000Y-50710000D03*
X106515000Y-50210000D03*
X106515000Y-49710000D03*
X106515000Y-49210000D03*
D31*
X107452500Y-48272500D03*
X107952500Y-48272500D03*
X108452500Y-48272500D03*
X108952500Y-48272500D03*
X109452500Y-48272500D03*
D30*
X110390000Y-49210000D03*
X110390000Y-49710000D03*
X110390000Y-50210000D03*
X110390000Y-50710000D03*
X110390000Y-51210000D03*
D31*
X109452500Y-52147500D03*
X108952500Y-52147500D03*
X108452500Y-52147500D03*
X107952500Y-52147500D03*
X107452500Y-52147500D03*
D32*
X108452500Y-50210000D03*
D33*
X85480000Y-55020000D03*
X86500000Y-55020000D03*
D34*
X88540000Y-44450000D03*
X88540000Y-40550000D03*
X87270000Y-44450000D03*
X87270000Y-40550000D03*
X86000000Y-44450000D03*
X86000000Y-40550000D03*
X84730000Y-44450000D03*
X84730000Y-40550000D03*
X83460000Y-44450000D03*
X83460000Y-40550000D03*
D14*
X114520000Y-47530000D03*
X115480000Y-47530000D03*
D19*
X107480000Y-53500000D03*
X106520000Y-53500000D03*
D16*
X97825000Y-54000000D03*
X96175000Y-54000000D03*
D35*
X110500000Y-53490000D03*
X110500000Y-54510000D03*
D36*
X81500000Y-42020000D03*
X81500000Y-42980000D03*
D19*
X102220000Y-45270000D03*
X101260000Y-45270000D03*
D37*
X98079411Y-43609411D03*
X97400589Y-42930589D03*
D38*
X97750000Y-50937500D03*
X97250000Y-50937500D03*
X96750000Y-50937500D03*
X96250000Y-50937500D03*
X95750000Y-50937500D03*
X95250000Y-50937500D03*
X94750000Y-50937500D03*
X94250000Y-50937500D03*
D39*
X93562500Y-50250000D03*
X93562500Y-49750000D03*
X93562500Y-49250000D03*
X93562500Y-48750000D03*
X93562500Y-48250000D03*
X93562500Y-47750000D03*
X93562500Y-47250000D03*
X93562500Y-46750000D03*
D38*
X94250000Y-46062500D03*
X94750000Y-46062500D03*
X95250000Y-46062500D03*
X95750000Y-46062500D03*
X96250000Y-46062500D03*
X96750000Y-46062500D03*
X97250000Y-46062500D03*
X97750000Y-46062500D03*
D39*
X98437500Y-46750000D03*
X98437500Y-47250000D03*
X98437500Y-47750000D03*
X98437500Y-48250000D03*
X98437500Y-48750000D03*
X98437500Y-49250000D03*
X98437500Y-49750000D03*
X98437500Y-50250000D03*
D40*
X96000000Y-48500000D03*
D41*
X81100000Y-57000000D03*
X83900000Y-57000000D03*
D36*
X106500000Y-44020000D03*
X106500000Y-44980000D03*
D42*
X87137500Y-47550000D03*
X87137500Y-48500000D03*
X87137500Y-49450000D03*
X84862500Y-49450000D03*
X84862500Y-48500000D03*
X84862500Y-47550000D03*
D36*
X117500000Y-50520000D03*
X117500000Y-51480000D03*
D33*
X97480000Y-41520000D03*
X98500000Y-41520000D03*
D19*
X87720000Y-51520000D03*
X86760000Y-51520000D03*
D27*
X101000000Y-54500000D03*
X99980000Y-54500000D03*
D25*
X100400589Y-52859411D03*
X101079411Y-52180589D03*
D14*
X108520000Y-53500000D03*
X109480000Y-53500000D03*
D24*
X93225000Y-57000000D03*
X94775000Y-57000000D03*
D19*
X98470000Y-40520000D03*
X97510000Y-40520000D03*
G36*
X124506061Y-51700597D02*
G01*
X124682934Y-51718017D01*
X124706775Y-51722759D01*
X124870998Y-51772575D01*
X124893456Y-51781878D01*
X125044798Y-51862772D01*
X125065010Y-51876277D01*
X125197666Y-51985145D01*
X125214854Y-52002333D01*
X125323722Y-52134989D01*
X125337227Y-52155201D01*
X125418121Y-52306543D01*
X125427424Y-52329001D01*
X125477240Y-52493224D01*
X125481982Y-52517065D01*
X125499403Y-52693938D01*
X125500000Y-52706092D01*
X125500000Y-56490749D01*
X125499999Y-56491311D01*
X125499962Y-56499479D01*
X125499952Y-56500577D01*
X125499843Y-56508717D01*
X125499834Y-56509268D01*
X125498602Y-56578349D01*
X125498473Y-56582221D01*
X125495692Y-56638840D01*
X125495070Y-56646560D01*
X125488764Y-56702857D01*
X125488273Y-56706700D01*
X125467285Y-56852680D01*
X125466577Y-56857051D01*
X125455079Y-56920779D01*
X125453197Y-56929428D01*
X125437188Y-56992150D01*
X125436017Y-56996419D01*
X125397063Y-57129082D01*
X125395741Y-57133306D01*
X125375301Y-57194719D01*
X125372207Y-57203013D01*
X125347427Y-57262837D01*
X125345660Y-57266896D01*
X125288234Y-57392641D01*
X125286324Y-57396632D01*
X125257336Y-57454544D01*
X125253092Y-57462317D01*
X125220064Y-57517980D01*
X125217739Y-57521743D01*
X125142988Y-57638058D01*
X125140529Y-57641739D01*
X125103605Y-57694920D01*
X125098301Y-57702005D01*
X125057691Y-57752400D01*
X125054852Y-57755798D01*
X124964293Y-57860308D01*
X124961337Y-57863599D01*
X124917234Y-57910971D01*
X124910971Y-57917234D01*
X124863599Y-57961337D01*
X124860308Y-57964293D01*
X124755798Y-58054852D01*
X124752400Y-58057691D01*
X124702005Y-58098301D01*
X124694920Y-58103605D01*
X124641732Y-58140534D01*
X124638053Y-58142992D01*
X124593283Y-58171765D01*
X124577753Y-58180245D01*
X124482262Y-58223854D01*
X124448399Y-58233798D01*
X124344494Y-58248738D01*
X124326846Y-58250000D01*
X104006093Y-58250000D01*
X103993939Y-58249403D01*
X103817065Y-58231982D01*
X103793224Y-58227240D01*
X103629001Y-58177424D01*
X103606543Y-58168121D01*
X103455201Y-58087227D01*
X103434989Y-58073722D01*
X103302333Y-57964854D01*
X103285145Y-57947666D01*
X103176277Y-57815010D01*
X103162772Y-57794798D01*
X103081878Y-57643456D01*
X103072575Y-57620998D01*
X103022759Y-57456775D01*
X103018017Y-57432934D01*
X103000597Y-57256061D01*
X103000000Y-57243907D01*
X103000000Y-53006092D01*
X103000597Y-52993938D01*
X103018017Y-52817065D01*
X103022759Y-52793224D01*
X103072575Y-52629001D01*
X103081878Y-52606543D01*
X103162772Y-52455201D01*
X103176277Y-52434989D01*
X103285145Y-52302333D01*
X103302333Y-52285145D01*
X103434989Y-52176277D01*
X103455201Y-52162772D01*
X103606543Y-52081878D01*
X103629001Y-52072575D01*
X103793224Y-52022759D01*
X103817065Y-52018017D01*
X103993939Y-52000597D01*
X104006093Y-52000000D01*
X104493907Y-52000000D01*
X104506061Y-52000597D01*
X104682934Y-52018017D01*
X104706775Y-52022759D01*
X104870998Y-52072575D01*
X104893456Y-52081878D01*
X105044798Y-52162772D01*
X105065010Y-52176277D01*
X105197666Y-52285145D01*
X105214854Y-52302333D01*
X105323722Y-52434989D01*
X105337227Y-52455201D01*
X105418121Y-52606543D01*
X105427424Y-52629001D01*
X105477240Y-52793224D01*
X105481982Y-52817065D01*
X105499403Y-52993938D01*
X105500000Y-53006092D01*
X105500000Y-54999996D01*
X105519214Y-55195088D01*
X105576122Y-55382687D01*
X105576123Y-55382690D01*
X105668526Y-55555564D01*
X105668531Y-55555571D01*
X105792892Y-55707107D01*
X105944428Y-55831468D01*
X105944435Y-55831473D01*
X106117309Y-55923876D01*
X106117312Y-55923877D01*
X106304913Y-55980785D01*
X106304909Y-55980785D01*
X106500003Y-56000000D01*
X122049997Y-56000000D01*
X122235334Y-55981746D01*
X122413551Y-55927684D01*
X122577795Y-55839893D01*
X122721751Y-55721751D01*
X122839893Y-55577795D01*
X122927684Y-55413551D01*
X122981746Y-55235334D01*
X122999999Y-55050000D01*
X122981746Y-54864665D01*
X122927684Y-54686448D01*
X122839893Y-54522204D01*
X122721751Y-54378248D01*
X122577795Y-54260106D01*
X122413551Y-54172315D01*
X122235334Y-54118253D01*
X122049997Y-54100000D01*
X120906093Y-54100000D01*
X120893939Y-54099403D01*
X120717065Y-54081982D01*
X120693224Y-54077240D01*
X120529001Y-54027424D01*
X120506543Y-54018121D01*
X120355201Y-53937227D01*
X120334989Y-53923722D01*
X120202333Y-53814854D01*
X120185145Y-53797666D01*
X120076277Y-53665010D01*
X120062772Y-53644798D01*
X119981878Y-53493456D01*
X119972575Y-53470998D01*
X119922759Y-53306775D01*
X119918017Y-53282934D01*
X119900597Y-53106061D01*
X119900000Y-53093907D01*
X119900000Y-52706092D01*
X119900597Y-52693938D01*
X119918017Y-52517065D01*
X119922759Y-52493224D01*
X119972575Y-52329001D01*
X119981878Y-52306543D01*
X120062772Y-52155201D01*
X120076277Y-52134989D01*
X120185145Y-52002333D01*
X120202333Y-51985145D01*
X120334989Y-51876277D01*
X120355201Y-51862772D01*
X120506543Y-51781878D01*
X120529001Y-51772575D01*
X120693224Y-51722759D01*
X120717065Y-51718017D01*
X120893939Y-51700597D01*
X120906093Y-51700000D01*
X124493907Y-51700000D01*
X124506061Y-51700597D01*
G37*
G36*
X124344493Y-38751262D02*
G01*
X124448399Y-38766201D01*
X124482264Y-38776145D01*
X124577749Y-38819752D01*
X124593277Y-38828231D01*
X124638059Y-38857011D01*
X124641739Y-38859470D01*
X124694920Y-38896394D01*
X124702005Y-38901698D01*
X124752400Y-38942308D01*
X124755798Y-38945147D01*
X124860308Y-39035706D01*
X124863599Y-39038662D01*
X124910971Y-39082765D01*
X124917234Y-39089028D01*
X124961337Y-39136400D01*
X124964293Y-39139691D01*
X125054852Y-39244201D01*
X125057691Y-39247599D01*
X125098301Y-39297994D01*
X125103605Y-39305079D01*
X125140529Y-39358260D01*
X125142988Y-39361941D01*
X125217739Y-39478256D01*
X125220064Y-39482019D01*
X125253092Y-39537682D01*
X125257336Y-39545455D01*
X125286324Y-39603367D01*
X125288234Y-39607358D01*
X125345660Y-39733103D01*
X125347427Y-39737162D01*
X125372207Y-39796986D01*
X125375301Y-39805280D01*
X125395741Y-39866693D01*
X125397063Y-39870917D01*
X125436017Y-40003580D01*
X125437188Y-40007849D01*
X125453197Y-40070571D01*
X125455079Y-40079220D01*
X125466577Y-40142948D01*
X125467285Y-40147319D01*
X125488273Y-40293299D01*
X125488764Y-40297142D01*
X125495070Y-40353439D01*
X125495692Y-40361159D01*
X125498473Y-40417778D01*
X125498602Y-40421650D01*
X125499834Y-40490731D01*
X125499843Y-40491282D01*
X125499952Y-40499422D01*
X125499962Y-40500520D01*
X125499999Y-40508688D01*
X125500000Y-40509250D01*
X125500000Y-44293907D01*
X125499403Y-44306061D01*
X125481982Y-44482934D01*
X125477240Y-44506775D01*
X125427424Y-44670998D01*
X125418121Y-44693456D01*
X125337227Y-44844798D01*
X125323722Y-44865010D01*
X125214854Y-44997666D01*
X125197666Y-45014854D01*
X125065010Y-45123722D01*
X125044798Y-45137227D01*
X124893456Y-45218121D01*
X124870998Y-45227424D01*
X124706775Y-45277240D01*
X124682934Y-45281982D01*
X124506061Y-45299403D01*
X124493907Y-45300000D01*
X120906093Y-45300000D01*
X120893939Y-45299403D01*
X120717065Y-45281982D01*
X120693224Y-45277240D01*
X120529001Y-45227424D01*
X120506543Y-45218121D01*
X120355201Y-45137227D01*
X120334989Y-45123722D01*
X120202333Y-45014854D01*
X120185145Y-44997666D01*
X120076277Y-44865010D01*
X120062772Y-44844798D01*
X119981878Y-44693456D01*
X119972575Y-44670998D01*
X119922759Y-44506775D01*
X119918017Y-44482934D01*
X119900597Y-44306061D01*
X119900000Y-44293907D01*
X119900000Y-43906092D01*
X119900597Y-43893938D01*
X119918017Y-43717065D01*
X119922759Y-43693224D01*
X119972575Y-43529001D01*
X119981878Y-43506543D01*
X120062772Y-43355201D01*
X120076277Y-43334989D01*
X120185145Y-43202333D01*
X120202333Y-43185145D01*
X120334989Y-43076277D01*
X120355201Y-43062772D01*
X120506543Y-42981878D01*
X120529001Y-42972575D01*
X120693224Y-42922759D01*
X120717065Y-42918017D01*
X120893939Y-42900597D01*
X120906093Y-42900000D01*
X122049997Y-42900000D01*
X122235334Y-42881746D01*
X122413551Y-42827684D01*
X122577795Y-42739893D01*
X122721751Y-42621751D01*
X122839893Y-42477795D01*
X122927684Y-42313551D01*
X122981746Y-42135334D01*
X122999999Y-41950000D01*
X122981746Y-41764665D01*
X122927684Y-41586448D01*
X122839893Y-41422204D01*
X122721751Y-41278248D01*
X122577795Y-41160106D01*
X122413551Y-41072315D01*
X122235334Y-41018253D01*
X122049997Y-41000000D01*
X106500003Y-41000000D01*
X106304911Y-41019214D01*
X106117312Y-41076122D01*
X106117309Y-41076123D01*
X105944435Y-41168526D01*
X105944428Y-41168531D01*
X105792892Y-41292892D01*
X105668531Y-41444428D01*
X105668526Y-41444435D01*
X105576123Y-41617309D01*
X105576122Y-41617312D01*
X105519214Y-41804911D01*
X105500000Y-42000003D01*
X105500000Y-43993907D01*
X105499403Y-44006061D01*
X105481982Y-44182934D01*
X105477240Y-44206775D01*
X105427424Y-44370998D01*
X105418121Y-44393456D01*
X105337227Y-44544798D01*
X105323722Y-44565010D01*
X105214854Y-44697666D01*
X105197666Y-44714854D01*
X105065010Y-44823722D01*
X105044798Y-44837227D01*
X104893456Y-44918121D01*
X104870998Y-44927424D01*
X104706775Y-44977240D01*
X104682934Y-44981982D01*
X104506061Y-44999403D01*
X104493907Y-45000000D01*
X104006093Y-45000000D01*
X103993939Y-44999403D01*
X103817065Y-44981982D01*
X103793224Y-44977240D01*
X103629001Y-44927424D01*
X103606543Y-44918121D01*
X103455201Y-44837227D01*
X103434989Y-44823722D01*
X103302333Y-44714854D01*
X103285145Y-44697666D01*
X103176277Y-44565010D01*
X103162772Y-44544798D01*
X103081878Y-44393456D01*
X103072575Y-44370998D01*
X103022759Y-44206775D01*
X103018017Y-44182934D01*
X103000597Y-44006061D01*
X103000000Y-43993907D01*
X103000000Y-39756092D01*
X103000597Y-39743938D01*
X103018017Y-39567065D01*
X103022759Y-39543224D01*
X103072575Y-39379001D01*
X103081878Y-39356543D01*
X103162772Y-39205201D01*
X103176277Y-39184989D01*
X103285145Y-39052333D01*
X103302333Y-39035145D01*
X103434989Y-38926277D01*
X103455201Y-38912772D01*
X103606543Y-38831878D01*
X103629001Y-38822575D01*
X103793224Y-38772759D01*
X103817065Y-38768017D01*
X103993939Y-38750597D01*
X104006093Y-38750000D01*
X124326846Y-38750000D01*
X124344493Y-38751262D01*
G37*
%LPD*%
M02*
