G04 #@! TF.GenerationSoftware,KiCad,Pcbnew,9.0.0*
G04 #@! TF.CreationDate,2025-04-06T23:20:39+02:00*
G04 #@! TF.ProjectId,RF-to-USB,52462d74-6f2d-4555-9342-2e6b69636164,rev?*
G04 #@! TF.SameCoordinates,Original*
G04 #@! TF.FileFunction,Copper,L4,Bot*
G04 #@! TF.FilePolarity,Positive*
%FSLAX46Y46*%
G04 Gerber Fmt 4.6, Leading zero omitted, Abs format (unit mm)*
G04 Created by KiCad (PCBNEW 9.0.0) date 2025-04-06 23:20:39*
%MOMM*%
%LPD*%
G01*
G04 APERTURE LIST*
G04 Aperture macros list*
%AMRoundRect*
0 Rectangle with rounded corners*
0 $1 Rounding radius*
0 $2 $3 $4 $5 $6 $7 $8 $9 X,Y pos of 4 corners*
0 Add a 4 corners polygon primitive as box body*
4,1,4,$2,$3,$4,$5,$6,$7,$8,$9,$2,$3,0*
0 Add four circle primitives for the rounded corners*
1,1,$1+$1,$2,$3*
1,1,$1+$1,$4,$5*
1,1,$1+$1,$6,$7*
1,1,$1+$1,$8,$9*
0 Add four rect primitives between the rounded corners*
20,1,$1+$1,$2,$3,$4,$5,0*
20,1,$1+$1,$4,$5,$6,$7,0*
20,1,$1+$1,$6,$7,$8,$9,0*
20,1,$1+$1,$8,$9,$2,$3,0*%
G04 Aperture macros list end*
G04 #@! TA.AperFunction,HeatsinkPad*
%ADD10O,3.200000X1.300000*%
G04 #@! TD*
G04 #@! TA.AperFunction,SMDPad,CuDef*
%ADD11RoundRect,0.140000X-0.140000X-0.170000X0.140000X-0.170000X0.140000X0.170000X-0.140000X0.170000X0*%
G04 #@! TD*
G04 #@! TA.AperFunction,SMDPad,CuDef*
%ADD12RoundRect,0.147500X-0.147500X-0.172500X0.147500X-0.172500X0.147500X0.172500X-0.147500X0.172500X0*%
G04 #@! TD*
G04 #@! TA.AperFunction,SMDPad,CuDef*
%ADD13RoundRect,0.200000X0.200000X0.275000X-0.200000X0.275000X-0.200000X-0.275000X0.200000X-0.275000X0*%
G04 #@! TD*
G04 #@! TA.AperFunction,SMDPad,CuDef*
%ADD14RoundRect,0.150000X-0.150000X0.512500X-0.150000X-0.512500X0.150000X-0.512500X0.150000X0.512500X0*%
G04 #@! TD*
G04 #@! TA.AperFunction,SMDPad,CuDef*
%ADD15RoundRect,0.147500X0.172500X-0.147500X0.172500X0.147500X-0.172500X0.147500X-0.172500X-0.147500X0*%
G04 #@! TD*
G04 #@! TA.AperFunction,SMDPad,CuDef*
%ADD16RoundRect,0.140000X0.140000X0.170000X-0.140000X0.170000X-0.140000X-0.170000X0.140000X-0.170000X0*%
G04 #@! TD*
G04 #@! TA.AperFunction,SMDPad,CuDef*
%ADD17RoundRect,0.135000X0.185000X-0.135000X0.185000X0.135000X-0.185000X0.135000X-0.185000X-0.135000X0*%
G04 #@! TD*
G04 #@! TA.AperFunction,SMDPad,CuDef*
%ADD18R,5.080000X2.290000*%
G04 #@! TD*
G04 #@! TA.AperFunction,SMDPad,CuDef*
%ADD19R,5.080000X2.420000*%
G04 #@! TD*
G04 #@! TA.AperFunction,SMDPad,CuDef*
%ADD20R,0.950000X0.460000*%
G04 #@! TD*
G04 #@! TA.AperFunction,ComponentPad*
%ADD21C,0.970000*%
G04 #@! TD*
G04 #@! TA.AperFunction,SMDPad,CuDef*
%ADD22RoundRect,0.140000X0.170000X-0.140000X0.170000X0.140000X-0.170000X0.140000X-0.170000X-0.140000X0*%
G04 #@! TD*
G04 #@! TA.AperFunction,SMDPad,CuDef*
%ADD23RoundRect,0.225000X-0.225000X-0.250000X0.225000X-0.250000X0.225000X0.250000X-0.225000X0.250000X0*%
G04 #@! TD*
G04 #@! TA.AperFunction,SMDPad,CuDef*
%ADD24RoundRect,0.140000X0.021213X-0.219203X0.219203X-0.021213X-0.021213X0.219203X-0.219203X0.021213X0*%
G04 #@! TD*
G04 #@! TA.AperFunction,SMDPad,CuDef*
%ADD25R,1.400000X1.150000*%
G04 #@! TD*
G04 #@! TA.AperFunction,SMDPad,CuDef*
%ADD26RoundRect,0.135000X0.135000X0.185000X-0.135000X0.185000X-0.135000X-0.185000X0.135000X-0.185000X0*%
G04 #@! TD*
G04 #@! TA.AperFunction,SMDPad,CuDef*
%ADD27RoundRect,0.140000X-0.021213X0.219203X-0.219203X0.021213X0.021213X-0.219203X0.219203X-0.021213X0*%
G04 #@! TD*
G04 #@! TA.AperFunction,SMDPad,CuDef*
%ADD28RoundRect,0.218750X0.218750X0.381250X-0.218750X0.381250X-0.218750X-0.381250X0.218750X-0.381250X0*%
G04 #@! TD*
G04 #@! TA.AperFunction,SMDPad,CuDef*
%ADD29RoundRect,0.062500X-0.350000X-0.062500X0.350000X-0.062500X0.350000X0.062500X-0.350000X0.062500X0*%
G04 #@! TD*
G04 #@! TA.AperFunction,SMDPad,CuDef*
%ADD30RoundRect,0.062500X-0.062500X-0.350000X0.062500X-0.350000X0.062500X0.350000X-0.062500X0.350000X0*%
G04 #@! TD*
G04 #@! TA.AperFunction,HeatsinkPad*
%ADD31R,2.500000X2.500000*%
G04 #@! TD*
G04 #@! TA.AperFunction,SMDPad,CuDef*
%ADD32RoundRect,0.135000X-0.135000X-0.185000X0.135000X-0.185000X0.135000X0.185000X-0.135000X0.185000X0*%
G04 #@! TD*
G04 #@! TA.AperFunction,SMDPad,CuDef*
%ADD33R,0.740000X2.400000*%
G04 #@! TD*
G04 #@! TA.AperFunction,SMDPad,CuDef*
%ADD34RoundRect,0.135000X-0.185000X0.135000X-0.185000X-0.135000X0.185000X-0.135000X0.185000X0.135000X0*%
G04 #@! TD*
G04 #@! TA.AperFunction,SMDPad,CuDef*
%ADD35RoundRect,0.140000X-0.170000X0.140000X-0.170000X-0.140000X0.170000X-0.140000X0.170000X0.140000X0*%
G04 #@! TD*
G04 #@! TA.AperFunction,SMDPad,CuDef*
%ADD36RoundRect,0.140000X0.219203X0.021213X0.021213X0.219203X-0.219203X-0.021213X-0.021213X-0.219203X0*%
G04 #@! TD*
G04 #@! TA.AperFunction,SMDPad,CuDef*
%ADD37RoundRect,0.062500X0.062500X-0.375000X0.062500X0.375000X-0.062500X0.375000X-0.062500X-0.375000X0*%
G04 #@! TD*
G04 #@! TA.AperFunction,SMDPad,CuDef*
%ADD38RoundRect,0.062500X0.375000X-0.062500X0.375000X0.062500X-0.375000X0.062500X-0.375000X-0.062500X0*%
G04 #@! TD*
G04 #@! TA.AperFunction,HeatsinkPad*
%ADD39R,3.450000X3.450000*%
G04 #@! TD*
G04 #@! TA.AperFunction,SMDPad,CuDef*
%ADD40RoundRect,0.250000X-0.375000X-0.625000X0.375000X-0.625000X0.375000X0.625000X-0.375000X0.625000X0*%
G04 #@! TD*
G04 #@! TA.AperFunction,SMDPad,CuDef*
%ADD41RoundRect,0.150000X0.512500X0.150000X-0.512500X0.150000X-0.512500X-0.150000X0.512500X-0.150000X0*%
G04 #@! TD*
G04 #@! TA.AperFunction,ViaPad*
%ADD42C,0.700000*%
G04 #@! TD*
G04 #@! TA.AperFunction,Conductor*
%ADD43C,0.280000*%
G04 #@! TD*
G04 #@! TA.AperFunction,Conductor*
%ADD44C,0.500000*%
G04 #@! TD*
G04 #@! TA.AperFunction,Conductor*
%ADD45C,0.345000*%
G04 #@! TD*
G04 #@! TA.AperFunction,Conductor*
%ADD46C,0.300000*%
G04 #@! TD*
G04 APERTURE END LIST*
D10*
X78075000Y-54350000D03*
X78075000Y-42650000D03*
D11*
X107270000Y-47000000D03*
X108230000Y-47000000D03*
D12*
X113515000Y-50500000D03*
X114485000Y-50500000D03*
D13*
X97825000Y-55500000D03*
X96175000Y-55500000D03*
D14*
X89550000Y-54862500D03*
X91450000Y-54862500D03*
X90500000Y-57137500D03*
D15*
X113500000Y-49485000D03*
X113500000Y-48515000D03*
D16*
X100970000Y-55500000D03*
X100010000Y-55500000D03*
D11*
X108520000Y-54500000D03*
X109480000Y-54500000D03*
D17*
X100750000Y-51010000D03*
X100750000Y-49990000D03*
D18*
X122430000Y-48500000D03*
D19*
X122430000Y-52880000D03*
X122430000Y-44120000D03*
D20*
X119440000Y-52880000D03*
X119440000Y-44120000D03*
D21*
X118990000Y-52880000D03*
X118990000Y-44120000D03*
D22*
X112500000Y-44980000D03*
X112500000Y-44020000D03*
D23*
X93225000Y-55000000D03*
X94775000Y-55000000D03*
D11*
X85510000Y-53770000D03*
X86470000Y-53770000D03*
D24*
X99160589Y-52589411D03*
X99839411Y-51910589D03*
D25*
X110600000Y-45300000D03*
X108400000Y-45300000D03*
X108400000Y-43700000D03*
X110600000Y-43700000D03*
D24*
X111660589Y-52839411D03*
X112339411Y-52160589D03*
D26*
X110260000Y-47000000D03*
X109240000Y-47000000D03*
D11*
X93410000Y-53270000D03*
X94370000Y-53270000D03*
X114520000Y-48500000D03*
X115480000Y-48500000D03*
D16*
X89950000Y-51520000D03*
X88990000Y-51520000D03*
D27*
X92829411Y-44680589D03*
X92150589Y-45359411D03*
D15*
X112500000Y-50485000D03*
X112500000Y-49515000D03*
D28*
X88062500Y-57000000D03*
X85937500Y-57000000D03*
D11*
X115520000Y-50500000D03*
X116480000Y-50500000D03*
D16*
X98470000Y-39520000D03*
X97510000Y-39520000D03*
D29*
X106515000Y-51210000D03*
X106515000Y-50710000D03*
X106515000Y-50210000D03*
X106515000Y-49710000D03*
X106515000Y-49210000D03*
D30*
X107452500Y-48272500D03*
X107952500Y-48272500D03*
X108452500Y-48272500D03*
X108952500Y-48272500D03*
X109452500Y-48272500D03*
D29*
X110390000Y-49210000D03*
X110390000Y-49710000D03*
X110390000Y-50210000D03*
X110390000Y-50710000D03*
X110390000Y-51210000D03*
D30*
X109452500Y-52147500D03*
X108952500Y-52147500D03*
X108452500Y-52147500D03*
X107952500Y-52147500D03*
X107452500Y-52147500D03*
D31*
X108452500Y-50210000D03*
D32*
X85480000Y-55020000D03*
X86500000Y-55020000D03*
D33*
X88540000Y-44450000D03*
X88540000Y-40550000D03*
X87270000Y-44450000D03*
X87270000Y-40550000D03*
X86000000Y-44450000D03*
X86000000Y-40550000D03*
X84730000Y-44450000D03*
X84730000Y-40550000D03*
X83460000Y-44450000D03*
X83460000Y-40550000D03*
D11*
X114520000Y-47530000D03*
X115480000Y-47530000D03*
D16*
X107480000Y-53500000D03*
X106520000Y-53500000D03*
D13*
X97825000Y-54000000D03*
X96175000Y-54000000D03*
D34*
X110500000Y-53490000D03*
X110500000Y-54510000D03*
D35*
X81500000Y-42020000D03*
X81500000Y-42980000D03*
D16*
X102220000Y-45270000D03*
X101260000Y-45270000D03*
D36*
X98079411Y-43609411D03*
X97400589Y-42930589D03*
D37*
X97750000Y-50937500D03*
X97250000Y-50937500D03*
X96750000Y-50937500D03*
X96250000Y-50937500D03*
X95750000Y-50937500D03*
X95250000Y-50937500D03*
X94750000Y-50937500D03*
X94250000Y-50937500D03*
D38*
X93562500Y-50250000D03*
X93562500Y-49750000D03*
X93562500Y-49250000D03*
X93562500Y-48750000D03*
X93562500Y-48250000D03*
X93562500Y-47750000D03*
X93562500Y-47250000D03*
X93562500Y-46750000D03*
D37*
X94250000Y-46062500D03*
X94750000Y-46062500D03*
X95250000Y-46062500D03*
X95750000Y-46062500D03*
X96250000Y-46062500D03*
X96750000Y-46062500D03*
X97250000Y-46062500D03*
X97750000Y-46062500D03*
D38*
X98437500Y-46750000D03*
X98437500Y-47250000D03*
X98437500Y-47750000D03*
X98437500Y-48250000D03*
X98437500Y-48750000D03*
X98437500Y-49250000D03*
X98437500Y-49750000D03*
X98437500Y-50250000D03*
D39*
X96000000Y-48500000D03*
D40*
X81100000Y-57000000D03*
X83900000Y-57000000D03*
D35*
X106500000Y-44020000D03*
X106500000Y-44980000D03*
D41*
X87137500Y-47550000D03*
X87137500Y-48500000D03*
X87137500Y-49450000D03*
X84862500Y-49450000D03*
X84862500Y-48500000D03*
X84862500Y-47550000D03*
D35*
X117500000Y-50520000D03*
X117500000Y-51480000D03*
D32*
X97480000Y-41520000D03*
X98500000Y-41520000D03*
D16*
X87720000Y-51520000D03*
X86760000Y-51520000D03*
D26*
X101000000Y-54500000D03*
X99980000Y-54500000D03*
D24*
X100400589Y-52859411D03*
X101079411Y-52180589D03*
D11*
X108520000Y-53500000D03*
X109480000Y-53500000D03*
D23*
X93225000Y-57000000D03*
X94775000Y-57000000D03*
D16*
X98470000Y-40520000D03*
X97510000Y-40520000D03*
D42*
X82750000Y-47500000D03*
X82750000Y-49500000D03*
X90706684Y-46986684D03*
X92240000Y-46520000D03*
X91490000Y-47520000D03*
X99490000Y-40520000D03*
X86740000Y-50520000D03*
X99490000Y-39520000D03*
X87740000Y-50520000D03*
X106490000Y-54720000D03*
X109250000Y-49500000D03*
X83490000Y-46270000D03*
X107750000Y-49500000D03*
X110500000Y-55500000D03*
X101990000Y-52270000D03*
X96490000Y-40520000D03*
X112500000Y-43000000D03*
X113250000Y-52750000D03*
X110500000Y-42250000D03*
X111500000Y-54500000D03*
X82175000Y-45770000D03*
X105490000Y-45520000D03*
X94190000Y-57850000D03*
X85990000Y-46270000D03*
X111351119Y-51102413D03*
X116500000Y-48500000D03*
X88990000Y-47520000D03*
X88832500Y-54862500D03*
X117490000Y-52270000D03*
X87490000Y-53770000D03*
X80740000Y-43770000D03*
X116500000Y-47500000D03*
X99521300Y-50997108D03*
X91490000Y-46020000D03*
X89550000Y-53520000D03*
X107750000Y-51000000D03*
X87240000Y-46270000D03*
X84990000Y-46270000D03*
X98990000Y-57520000D03*
X109480000Y-55500000D03*
X115500000Y-46500000D03*
X82175000Y-45020000D03*
X96490000Y-39520000D03*
X79990000Y-43770000D03*
X104240000Y-45619997D03*
X113500000Y-44000000D03*
X96490000Y-41520000D03*
X95290000Y-57820000D03*
X81490000Y-43770000D03*
X101990000Y-53520000D03*
X82175000Y-44270000D03*
X82240000Y-52770000D03*
X81425000Y-53270000D03*
X82240000Y-52020000D03*
X80675000Y-53270000D03*
X79925000Y-53270000D03*
X82240000Y-51270000D03*
X90990000Y-50961000D03*
X91490000Y-53520000D03*
X99137557Y-45682185D03*
X110500000Y-52000000D03*
X97750000Y-52250000D03*
X90740000Y-53520000D03*
X107590000Y-55120000D03*
X87490000Y-55020000D03*
X90690000Y-54862500D03*
X112500000Y-53750000D03*
X89490000Y-43820000D03*
X98990000Y-54520000D03*
X95750000Y-52250000D03*
X93990000Y-44680589D03*
X105002625Y-46560000D03*
X104112896Y-49114309D03*
X91990000Y-50961000D03*
X99490000Y-42520000D03*
X104750000Y-49750000D03*
X99490000Y-47060000D03*
X96740000Y-52270000D03*
X82490000Y-39770000D03*
X88990000Y-50532096D03*
X99514191Y-41520000D03*
X89950000Y-50520000D03*
X101740000Y-56500000D03*
X84490000Y-55020000D03*
X98990000Y-56190000D03*
X96175000Y-57520000D03*
D43*
X86090000Y-52520000D02*
X93822541Y-52520000D01*
X85510000Y-53100000D02*
X86090000Y-52520000D01*
X93822541Y-52520000D02*
X94750000Y-51592541D01*
X94750000Y-51592541D02*
X94750000Y-50937500D01*
X85510000Y-53770000D02*
X85510000Y-53100000D01*
X91701000Y-50250000D02*
X93562500Y-50250000D01*
X90990000Y-50961000D02*
X91701000Y-50250000D01*
X90990000Y-51020000D02*
X90990000Y-50961000D01*
X87270000Y-39240000D02*
X87270000Y-40550000D01*
X92146472Y-38941000D02*
X87569000Y-38941000D01*
X97750000Y-44544528D02*
X92146472Y-38941000D01*
X97750000Y-46062500D02*
X97750000Y-44544528D01*
X87569000Y-38941000D02*
X87270000Y-39240000D01*
X97400589Y-42430589D02*
X96490000Y-41520000D01*
X97400589Y-42930589D02*
X97400589Y-42430589D01*
D44*
X88860000Y-44450000D02*
X88540000Y-44450000D01*
X89490000Y-43820000D02*
X88860000Y-44450000D01*
D45*
X82800000Y-47550000D02*
X82750000Y-47500000D01*
X84862500Y-47550000D02*
X82800000Y-47550000D01*
X84862500Y-49450000D02*
X82800000Y-49450000D01*
X82800000Y-49450000D02*
X82750000Y-49500000D01*
X117661573Y-50520000D02*
X117500000Y-50520000D01*
X116500000Y-50520000D02*
X116480000Y-50500000D01*
X117500000Y-50520000D02*
X116500000Y-50520000D01*
X122430000Y-48500000D02*
X121338427Y-48500000D01*
X119924213Y-49085787D02*
X119075786Y-49934214D01*
X117661573Y-50520000D02*
G75*
G03*
X119075800Y-49934228I27J2000000D01*
G01*
X119924213Y-49085787D02*
G75*
G02*
X121338427Y-48500019I1414187J-1414213D01*
G01*
X111750000Y-49515000D02*
X111578500Y-49686500D01*
X112500000Y-49515000D02*
X113470000Y-49515000D01*
X112500000Y-49515000D02*
X111750000Y-49515000D01*
D46*
X111250000Y-49710000D02*
X110390000Y-49710000D01*
D45*
X113470000Y-49515000D02*
X113500000Y-49485000D01*
X111578500Y-49686500D02*
X111250000Y-49686500D01*
D46*
X110500000Y-53490000D02*
X110500000Y-53195000D01*
X110500000Y-53195000D02*
X109452500Y-52147500D01*
X113500000Y-48515000D02*
X111485000Y-48515000D01*
X111485000Y-48515000D02*
X110790000Y-49210000D01*
X114520000Y-47530000D02*
X114520000Y-48500000D01*
X113500000Y-48515000D02*
X114505000Y-48515000D01*
X110790000Y-49210000D02*
X110390000Y-49210000D01*
X114505000Y-48515000D02*
X114520000Y-48500000D01*
D43*
X99498000Y-48749000D02*
X98437500Y-48749000D01*
X104732778Y-50710000D02*
X102773778Y-48751000D01*
X102773778Y-48751000D02*
X99500000Y-48751000D01*
X106515000Y-50710000D02*
X104732778Y-50710000D01*
X99500000Y-48751000D02*
X99498000Y-48749000D01*
D46*
X110260000Y-45640000D02*
X110600000Y-45300000D01*
X109452500Y-47807500D02*
X110260000Y-47000000D01*
X110600000Y-45300000D02*
X112180000Y-45300000D01*
X109452500Y-48272500D02*
X109452500Y-47807500D01*
X112180000Y-45300000D02*
X112500000Y-44980000D01*
X110260000Y-47000000D02*
X110260000Y-45640000D01*
X109451000Y-46789000D02*
X109451000Y-44451000D01*
X108700000Y-43700000D02*
X108400000Y-43700000D01*
X108400000Y-43700000D02*
X106820000Y-43700000D01*
X106820000Y-43700000D02*
X106500000Y-44020000D01*
X109240000Y-47000000D02*
X109451000Y-46789000D01*
X108952500Y-48272500D02*
X108952500Y-47287500D01*
X108952500Y-47287500D02*
X109240000Y-47000000D01*
X109451000Y-44451000D02*
X108700000Y-43700000D01*
D45*
X113515000Y-50500000D02*
X112515000Y-50500000D01*
D46*
X110390000Y-50210000D02*
X111250000Y-50210000D01*
D45*
X112515000Y-50500000D02*
X112500000Y-50485000D01*
X112485000Y-50500000D02*
X112500000Y-50485000D01*
X111750000Y-50500000D02*
X111483500Y-50233500D01*
X111750000Y-50500000D02*
X112485000Y-50500000D01*
X111483500Y-50233500D02*
X111250000Y-50233500D01*
D46*
X107952500Y-52147500D02*
X107952500Y-53027500D01*
X107952500Y-53027500D02*
X107480000Y-53500000D01*
D43*
X91345000Y-49250000D02*
X93562500Y-49250000D01*
X90706684Y-46986684D02*
X90706684Y-48611684D01*
X90706684Y-48611684D02*
X91345000Y-49250000D01*
X92240000Y-47520000D02*
X92970000Y-48250000D01*
X92970000Y-48250000D02*
X93562500Y-48250000D01*
X92240000Y-46520000D02*
X92240000Y-47520000D01*
X91490000Y-47542778D02*
X92697222Y-48750000D01*
X92697222Y-48750000D02*
X93562500Y-48750000D01*
X91490000Y-47520000D02*
X91490000Y-47542778D01*
X98470000Y-40520000D02*
X99490000Y-40520000D01*
X86760000Y-50540000D02*
X86760000Y-51520000D01*
X86740000Y-50520000D02*
X86760000Y-50540000D01*
X98470000Y-39520000D02*
X99490000Y-39520000D01*
X87720000Y-50540000D02*
X87720000Y-51520000D01*
X87740000Y-50520000D02*
X87720000Y-50540000D01*
D44*
X83460000Y-42975000D02*
X83460000Y-44450000D01*
X85581000Y-42520000D02*
X83915000Y-42520000D01*
D43*
X97480000Y-41520000D02*
X96490000Y-41520000D01*
X101079411Y-51339411D02*
X100750000Y-51010000D01*
D46*
X109480000Y-53500000D02*
X109480000Y-54500000D01*
D44*
X82355000Y-44450000D02*
X82175000Y-44270000D01*
D43*
X83460000Y-46240000D02*
X83490000Y-46270000D01*
D44*
X87090000Y-42520000D02*
X85581000Y-42520000D01*
D43*
X101990000Y-53520000D02*
X101990000Y-53091178D01*
X99839411Y-51315219D02*
X99524192Y-51000000D01*
X87490000Y-53770000D02*
X86470000Y-53770000D01*
X117500000Y-51480000D02*
X117500000Y-52260000D01*
D46*
X111351119Y-51102413D02*
X111351119Y-51172297D01*
D43*
X83460000Y-44450000D02*
X83460000Y-46240000D01*
D46*
X115480000Y-47530000D02*
X115480000Y-48500000D01*
X106520000Y-53500000D02*
X106520000Y-53080000D01*
X112500000Y-44020000D02*
X112500000Y-43000000D01*
D43*
X102569997Y-45619997D02*
X102220000Y-45270000D01*
D46*
X108452500Y-48272500D02*
X108452500Y-50210000D01*
D43*
X98437500Y-50250000D02*
X99990000Y-50250000D01*
D46*
X115480000Y-47530000D02*
X116470000Y-47530000D01*
D43*
X100750000Y-51010000D02*
X100740000Y-51010000D01*
D46*
X108400000Y-45300000D02*
X106820000Y-45300000D01*
X115480000Y-48500000D02*
X116500000Y-48500000D01*
D44*
X87270000Y-42700000D02*
X87090000Y-42520000D01*
D46*
X109480000Y-55480000D02*
X109480000Y-54500000D01*
D43*
X97825000Y-54000000D02*
X97825000Y-55500000D01*
X92150589Y-45359411D02*
X91490000Y-46020000D01*
X100010000Y-55500000D02*
X97825000Y-55500000D01*
D46*
X110600000Y-43700000D02*
X112180000Y-43700000D01*
D43*
X117500000Y-52260000D02*
X117490000Y-52270000D01*
D46*
X108230000Y-45470000D02*
X108400000Y-45300000D01*
X110600000Y-43700000D02*
X110600000Y-42350000D01*
X108952500Y-52147500D02*
X108952500Y-50710000D01*
D43*
X87137500Y-48500000D02*
X86475001Y-48500000D01*
D46*
X112500000Y-44020000D02*
X113480000Y-44020000D01*
D43*
X97510000Y-39520000D02*
X96490000Y-39520000D01*
X101990000Y-52270000D02*
X101168822Y-52270000D01*
D44*
X87270000Y-44450000D02*
X87270000Y-42700000D01*
D43*
X101079411Y-52180589D02*
X100809411Y-51910589D01*
D46*
X108452500Y-47222500D02*
X108230000Y-47000000D01*
X106490000Y-54260000D02*
X106490000Y-54720000D01*
D44*
X94775000Y-53675000D02*
X94370000Y-53270000D01*
D43*
X84990000Y-46270000D02*
X85990000Y-46270000D01*
D46*
X111490000Y-54510000D02*
X111500000Y-54500000D01*
X108452500Y-48272500D02*
X108452500Y-47222500D01*
X112660589Y-52160589D02*
X113250000Y-52750000D01*
X108452500Y-50202500D02*
X107750000Y-49500000D01*
D43*
X86000000Y-44450000D02*
X86000000Y-46260000D01*
X86475001Y-48500000D02*
X85990000Y-48014999D01*
D46*
X115480000Y-46520000D02*
X115500000Y-46500000D01*
D43*
X88010000Y-48500000D02*
X87137500Y-48500000D01*
X100010000Y-56568856D02*
X100010000Y-55500000D01*
D46*
X109500000Y-55500000D02*
X109480000Y-55480000D01*
D44*
X94775000Y-55000000D02*
X94775000Y-53675000D01*
X89550000Y-53520000D02*
X89550000Y-54862500D01*
D43*
X101079411Y-52180589D02*
X101079411Y-51339411D01*
D46*
X106820000Y-45300000D02*
X106500000Y-44980000D01*
D44*
X83915000Y-42520000D02*
X83460000Y-42975000D01*
D43*
X100737108Y-50997108D02*
X100750000Y-51010000D01*
D46*
X108400000Y-45300000D02*
X107950000Y-45300000D01*
D43*
X94190000Y-57850000D02*
X94260000Y-57850000D01*
X87270000Y-46240000D02*
X87240000Y-46270000D01*
D46*
X116470000Y-47530000D02*
X116500000Y-47500000D01*
D44*
X81500000Y-43760000D02*
X81490000Y-43770000D01*
X94775000Y-57000000D02*
X94775000Y-57305000D01*
X79990000Y-43770000D02*
X81490000Y-43770000D01*
D46*
X106520000Y-53500000D02*
X106520000Y-54690000D01*
X112180000Y-43700000D02*
X112500000Y-44020000D01*
D43*
X88990000Y-47520000D02*
X88010000Y-48500000D01*
D46*
X111351119Y-51172297D02*
X112339411Y-52160589D01*
D43*
X93562500Y-46750000D02*
X93541178Y-46750000D01*
D46*
X110500000Y-54510000D02*
X110500000Y-55500000D01*
D43*
X97510000Y-40520000D02*
X96490000Y-40520000D01*
D46*
X108452500Y-50297500D02*
X107750000Y-51000000D01*
D44*
X81500000Y-42980000D02*
X81500000Y-43760000D01*
D46*
X106520000Y-53080000D02*
X107452500Y-52147500D01*
D44*
X86000000Y-42939000D02*
X85581000Y-42520000D01*
X86000000Y-44450000D02*
X86000000Y-42939000D01*
D46*
X113480000Y-44020000D02*
X113500000Y-44000000D01*
D43*
X94260000Y-57850000D02*
X94775000Y-57335000D01*
D46*
X110500000Y-54510000D02*
X109490000Y-54510000D01*
X110390000Y-50710000D02*
X108952500Y-50710000D01*
D44*
X94775000Y-57305000D02*
X95290000Y-57820000D01*
X82175000Y-44270000D02*
X82175000Y-45770000D01*
D43*
X99990000Y-50250000D02*
X100750000Y-51010000D01*
D46*
X109490000Y-54510000D02*
X109480000Y-54500000D01*
D43*
X100809411Y-51910589D02*
X99839411Y-51910589D01*
X118100000Y-52880000D02*
X117490000Y-52270000D01*
X118990000Y-52880000D02*
X118100000Y-52880000D01*
D44*
X88832500Y-54862500D02*
X89550000Y-54862500D01*
D43*
X93541178Y-46750000D02*
X92150589Y-45359411D01*
X87270000Y-44450000D02*
X87270000Y-46240000D01*
D46*
X110958706Y-50710000D02*
X110390000Y-50710000D01*
D43*
X101990000Y-53091178D02*
X101079411Y-52180589D01*
D46*
X110600000Y-42350000D02*
X110500000Y-42250000D01*
X106520000Y-54690000D02*
X106490000Y-54720000D01*
D43*
X104240000Y-45619997D02*
X102569997Y-45619997D01*
D46*
X108540000Y-50210000D02*
X109250000Y-49500000D01*
D44*
X83460000Y-44450000D02*
X82355000Y-44450000D01*
D43*
X99058856Y-57520000D02*
X100010000Y-56568856D01*
D44*
X87270000Y-44450000D02*
X86000000Y-44450000D01*
D43*
X99839411Y-51910589D02*
X99839411Y-51315219D01*
X86000000Y-46260000D02*
X85990000Y-46270000D01*
D46*
X108452500Y-50210000D02*
X108452500Y-50297500D01*
X108452500Y-50210000D02*
X108452500Y-50202500D01*
X108952500Y-50710000D02*
X108452500Y-50210000D01*
D43*
X99521300Y-50997108D02*
X100737108Y-50997108D01*
D44*
X94775000Y-55000000D02*
X94775000Y-57000000D01*
D46*
X105960000Y-45520000D02*
X106500000Y-44980000D01*
X110500000Y-54510000D02*
X111490000Y-54510000D01*
D43*
X94775000Y-57335000D02*
X94775000Y-57000000D01*
D46*
X115480000Y-47530000D02*
X115480000Y-46520000D01*
D43*
X85990000Y-48014999D02*
X85990000Y-46270000D01*
D46*
X105490000Y-45520000D02*
X105960000Y-45520000D01*
X108452500Y-50210000D02*
X108540000Y-50210000D01*
X111351119Y-51102413D02*
X110958706Y-50710000D01*
X112339411Y-52160589D02*
X112660589Y-52160589D01*
X108230000Y-47000000D02*
X108230000Y-45470000D01*
D43*
X100740000Y-51010000D02*
X99839411Y-51910589D01*
X101168822Y-52270000D02*
X101079411Y-52180589D01*
D46*
X84862500Y-48500000D02*
X85628500Y-48500000D01*
X85990000Y-48861500D02*
X85990000Y-50020000D01*
D44*
X81740000Y-50770000D02*
X82240000Y-51270000D01*
X82418214Y-48699000D02*
X81740000Y-49377214D01*
X84862500Y-48500000D02*
X82641389Y-48500000D01*
X81740000Y-49377214D02*
X81740000Y-50770000D01*
D46*
X83990000Y-52020000D02*
X82240000Y-52020000D01*
X85990000Y-50020000D02*
X83990000Y-52020000D01*
X85628500Y-48500000D02*
X85990000Y-48861500D01*
D44*
X82442389Y-48699000D02*
X82418214Y-48699000D01*
X82641389Y-48500000D02*
X82442389Y-48699000D01*
D43*
X106522500Y-48272500D02*
X105501000Y-47251000D01*
X102221000Y-47251000D02*
X101339000Y-46369000D01*
X105501000Y-47251000D02*
X102221000Y-47251000D01*
X101339000Y-46369000D02*
X99427964Y-46369000D01*
X99427964Y-46369000D02*
X99423779Y-46373185D01*
X107452500Y-48272500D02*
X106522500Y-48272500D01*
X98814315Y-46373185D02*
X98437500Y-46750000D01*
X99423779Y-46373185D02*
X98814315Y-46373185D01*
D46*
X107952500Y-47773490D02*
X107270000Y-47090990D01*
D44*
X91587500Y-55000000D02*
X91450000Y-54862500D01*
D46*
X110500000Y-52000000D02*
X110821178Y-52000000D01*
D43*
X92868089Y-44680589D02*
X94250000Y-46062500D01*
D46*
X105201625Y-46759000D02*
X105002625Y-46560000D01*
D43*
X99137557Y-45682185D02*
X99549742Y-45270000D01*
D44*
X91450000Y-54862500D02*
X90747500Y-54862500D01*
X91490000Y-53520000D02*
X91490000Y-54822500D01*
X93225000Y-55000000D02*
X91587500Y-55000000D01*
X93410000Y-53270000D02*
X93010000Y-53670000D01*
D46*
X110390000Y-51890000D02*
X110500000Y-52000000D01*
D43*
X95750000Y-50937500D02*
X95750000Y-52250000D01*
D44*
X93010000Y-54785000D02*
X93225000Y-55000000D01*
D46*
X107270000Y-47000000D02*
X107029000Y-46759000D01*
X110390000Y-51210000D02*
X110390000Y-51890000D01*
D44*
X91490000Y-54822500D02*
X91450000Y-54862500D01*
D46*
X108210000Y-54500000D02*
X108365000Y-54345000D01*
X107952500Y-48272500D02*
X107952500Y-47773490D01*
D43*
X99980000Y-54500000D02*
X99010000Y-54500000D01*
D46*
X108452500Y-52147500D02*
X108452500Y-53432500D01*
X107029000Y-46759000D02*
X105201625Y-46759000D01*
D43*
X99137557Y-44667557D02*
X98079411Y-43609411D01*
X92829411Y-44680589D02*
X93990000Y-44680589D01*
X86500000Y-55020000D02*
X87490000Y-55020000D01*
X99137557Y-45682185D02*
X99137557Y-44667557D01*
X97750000Y-50937500D02*
X97750000Y-52250000D01*
D46*
X108520000Y-53500000D02*
X108520000Y-54500000D01*
X107590000Y-55120000D02*
X108210000Y-54500000D01*
D43*
X97750000Y-50937500D02*
X97750000Y-51178822D01*
D44*
X90747500Y-54862500D02*
X90690000Y-54920000D01*
D46*
X110821178Y-52000000D02*
X111660589Y-52839411D01*
X107270000Y-47090990D02*
X107270000Y-47000000D01*
D44*
X90740000Y-53520000D02*
X91490000Y-53520000D01*
D43*
X99160589Y-52589411D02*
X99430589Y-52859411D01*
X97750000Y-51178822D02*
X99160589Y-52589411D01*
X99430589Y-52859411D02*
X100400589Y-52859411D01*
D46*
X111660589Y-52839411D02*
X111660589Y-52910589D01*
D43*
X99549742Y-45270000D02*
X101260000Y-45270000D01*
D46*
X108365000Y-54345000D02*
X108520000Y-54500000D01*
X111660589Y-52910589D02*
X112500000Y-53750000D01*
D44*
X93010000Y-53670000D02*
X93010000Y-54785000D01*
D43*
X92829411Y-44680589D02*
X92868089Y-44680589D01*
X93990000Y-44680589D02*
X93990000Y-44770000D01*
D46*
X108452500Y-53432500D02*
X108520000Y-53500000D01*
D43*
X99010000Y-54500000D02*
X98990000Y-54520000D01*
X97250000Y-46062500D02*
X97250000Y-44724764D01*
X93075236Y-40550000D02*
X88540000Y-40550000D01*
X97250000Y-44724764D02*
X93075236Y-40550000D01*
X105710000Y-49710000D02*
X104755000Y-48755000D01*
X104755000Y-48755000D02*
X104250000Y-48250000D01*
X106515000Y-49710000D02*
X105710000Y-49710000D01*
X104630000Y-48630000D02*
X104597205Y-48630000D01*
X104755000Y-48755000D02*
X104630000Y-48630000D01*
X104250000Y-48250000D02*
X98437500Y-48250000D01*
X104597205Y-48630000D02*
X104112896Y-49114309D01*
X93989544Y-42859349D02*
X93989544Y-43049000D01*
X96750000Y-44905000D02*
X96750000Y-46062500D01*
X93629544Y-42619349D02*
X93749544Y-42619349D01*
X94229544Y-43289000D02*
X94349544Y-43289000D01*
X87710000Y-47550000D02*
X91971000Y-43289000D01*
X95134000Y-43289000D02*
X96750000Y-44905000D01*
X93389544Y-43049000D02*
X93389544Y-42859349D01*
X91971000Y-43289000D02*
X93149544Y-43289000D01*
X94349544Y-43289000D02*
X95134000Y-43289000D01*
X87137500Y-47550000D02*
X87710000Y-47550000D01*
X93389544Y-42859349D02*
G75*
G02*
X93629544Y-42619344I239956J49D01*
G01*
X93749544Y-42619349D02*
G75*
G02*
X93989451Y-42859349I-44J-239951D01*
G01*
X93149544Y-43289000D02*
G75*
G03*
X93389500Y-43049000I-44J240000D01*
G01*
X93989544Y-43049000D02*
G75*
G03*
X94229544Y-43288956I239956J0D01*
G01*
X102250000Y-49250000D02*
X104210000Y-51210000D01*
X98437500Y-49250000D02*
X102250000Y-49250000D01*
X104210000Y-51210000D02*
X106515000Y-51210000D01*
X100510000Y-49750000D02*
X100750000Y-49990000D01*
X98437500Y-49750000D02*
X100510000Y-49750000D01*
X91990000Y-50961000D02*
X94226500Y-50961000D01*
X94226500Y-50961000D02*
X94250000Y-50937500D01*
X105988284Y-49210000D02*
X106515000Y-49210000D01*
X98437500Y-47750000D02*
X104528284Y-47750000D01*
X104528284Y-47750000D02*
X105988284Y-49210000D01*
X105210000Y-50210000D02*
X104750000Y-49750000D01*
X106515000Y-50210000D02*
X105750000Y-50210000D01*
X99490000Y-47060000D02*
X99300000Y-47250000D01*
X99300000Y-47250000D02*
X98437500Y-47250000D01*
X105750000Y-50210000D02*
X105210000Y-50210000D01*
X96250000Y-50937500D02*
X96250000Y-51772778D01*
X83270000Y-40550000D02*
X82490000Y-39770000D01*
X96250000Y-51772778D02*
X96740000Y-52262778D01*
D44*
X82210000Y-40550000D02*
X83460000Y-40550000D01*
X81500000Y-41260000D02*
X82210000Y-40550000D01*
D43*
X83460000Y-40550000D02*
X83270000Y-40550000D01*
X96740000Y-52262778D02*
X96740000Y-52270000D01*
D44*
X81500000Y-42020000D02*
X81500000Y-41260000D01*
D43*
X88460000Y-49450000D02*
X89990000Y-47920000D01*
X87137500Y-49450000D02*
X88460000Y-49450000D01*
X89990000Y-46020000D02*
X92240000Y-43770000D01*
X89990000Y-47920000D02*
X89990000Y-46020000D01*
X96250000Y-45085236D02*
X96250000Y-46062500D01*
X94934764Y-43770000D02*
X96250000Y-45085236D01*
X92240000Y-43770000D02*
X94934764Y-43770000D01*
D44*
X88200000Y-57137500D02*
X88062500Y-57000000D01*
X93225000Y-57000000D02*
X90637500Y-57000000D01*
X90637500Y-57000000D02*
X90500000Y-57137500D01*
X90500000Y-57137500D02*
X88200000Y-57137500D01*
D43*
X88990000Y-51520000D02*
X88990000Y-50532096D01*
X98500000Y-41520000D02*
X99514191Y-41520000D01*
X89950000Y-50540000D02*
X89950000Y-51520000D01*
X89970000Y-50520000D02*
X89950000Y-50540000D01*
X101000000Y-55470000D02*
X100970000Y-55500000D01*
X101000000Y-54500000D02*
X101000000Y-55470000D01*
X101740000Y-56000000D02*
X101240000Y-55500000D01*
X99100000Y-53720000D02*
X100690000Y-53720000D01*
X95250000Y-50937500D02*
X95250000Y-51772778D01*
X95059000Y-52536222D02*
X95542778Y-53020000D01*
X101000000Y-54030000D02*
X101000000Y-54500000D01*
X101740000Y-56500000D02*
X101740000Y-56000000D01*
X95059000Y-51963778D02*
X95059000Y-52536222D01*
X100690000Y-53720000D02*
X101000000Y-54030000D01*
X101240000Y-55500000D02*
X100970000Y-55500000D01*
X95542778Y-53020000D02*
X98400000Y-53020000D01*
X98400000Y-53020000D02*
X99100000Y-53720000D01*
X95250000Y-51772778D02*
X95059000Y-51963778D01*
X85480000Y-53800000D02*
X85510000Y-53770000D01*
X84490000Y-55020000D02*
X85480000Y-55020000D01*
X85480000Y-55020000D02*
X85480000Y-53800000D01*
D45*
X115520000Y-50500000D02*
X114485000Y-50500000D01*
D43*
X96175000Y-54000000D02*
X97000000Y-54825000D01*
X97290000Y-56520000D02*
X98660000Y-56520000D01*
X97000000Y-54825000D02*
X97000000Y-56230000D01*
X98660000Y-56520000D02*
X98990000Y-56190000D01*
X97000000Y-56230000D02*
X97290000Y-56520000D01*
X96175000Y-57520000D02*
X96175000Y-55500000D01*
D44*
X83900000Y-57000000D02*
X85937500Y-57000000D01*
G04 #@! TA.AperFunction,Conductor*
G36*
X123504418Y-38800816D02*
G01*
X123733020Y-38817165D01*
X123750529Y-38819683D01*
X123970144Y-38867458D01*
X123987103Y-38872437D01*
X124197694Y-38950983D01*
X124213777Y-38958327D01*
X124411036Y-39066040D01*
X124425919Y-39075605D01*
X124605836Y-39210289D01*
X124619207Y-39221875D01*
X124778124Y-39380792D01*
X124789710Y-39394163D01*
X124924394Y-39574080D01*
X124933959Y-39588963D01*
X125041669Y-39786217D01*
X125049019Y-39802311D01*
X125127559Y-40012887D01*
X125132543Y-40029862D01*
X125180316Y-40249470D01*
X125182834Y-40266982D01*
X125199184Y-40495581D01*
X125199500Y-40504427D01*
X125199500Y-44954701D01*
X125179815Y-45021740D01*
X125154164Y-45050555D01*
X125065008Y-45123723D01*
X125044798Y-45137227D01*
X124893457Y-45218121D01*
X124870998Y-45227424D01*
X124706775Y-45277240D01*
X124682934Y-45281982D01*
X124506061Y-45299403D01*
X124493907Y-45300000D01*
X120906093Y-45300000D01*
X120893939Y-45299403D01*
X120717065Y-45281982D01*
X120693224Y-45277240D01*
X120529001Y-45227424D01*
X120506543Y-45218121D01*
X120355201Y-45137227D01*
X120334989Y-45123722D01*
X120202333Y-45014854D01*
X120185145Y-44997666D01*
X120076277Y-44865010D01*
X120062772Y-44844798D01*
X120051507Y-44823722D01*
X119981877Y-44693453D01*
X119972575Y-44670998D01*
X119922757Y-44506769D01*
X119918018Y-44482941D01*
X119900597Y-44306061D01*
X119900000Y-44293907D01*
X119900000Y-43906092D01*
X119900597Y-43893938D01*
X119918018Y-43717056D01*
X119922757Y-43693232D01*
X119972577Y-43528994D01*
X119981875Y-43506549D01*
X120062775Y-43355195D01*
X120076272Y-43334995D01*
X120185149Y-43202328D01*
X120202328Y-43185149D01*
X120334995Y-43076272D01*
X120355195Y-43062775D01*
X120506549Y-42981875D01*
X120528994Y-42972577D01*
X120693232Y-42922757D01*
X120717056Y-42918018D01*
X120893939Y-42900597D01*
X120906093Y-42900000D01*
X122049997Y-42900000D01*
X122050000Y-42900000D01*
X122235336Y-42881746D01*
X122413549Y-42827686D01*
X122577792Y-42739896D01*
X122721751Y-42621751D01*
X122839896Y-42477792D01*
X122927686Y-42313549D01*
X122981746Y-42135336D01*
X123000000Y-41950000D01*
X122981746Y-41764664D01*
X122927686Y-41586451D01*
X122839896Y-41422208D01*
X122839893Y-41422204D01*
X122721751Y-41278248D01*
X122577795Y-41160106D01*
X122577793Y-41160105D01*
X122577792Y-41160104D01*
X122413549Y-41072314D01*
X122324442Y-41045284D01*
X122235334Y-41018253D01*
X122099849Y-41004909D01*
X122050000Y-41000000D01*
X122049997Y-41000000D01*
X106500003Y-41000000D01*
X106500000Y-41000000D01*
X106451844Y-41004743D01*
X106304911Y-41019214D01*
X106194149Y-41052813D01*
X106117317Y-41076120D01*
X106117314Y-41076121D01*
X106117312Y-41076122D01*
X106117309Y-41076123D01*
X105944435Y-41168526D01*
X105944428Y-41168531D01*
X105792892Y-41292892D01*
X105668531Y-41444428D01*
X105668526Y-41444435D01*
X105576123Y-41617309D01*
X105576122Y-41617312D01*
X105519214Y-41804911D01*
X105500000Y-42000003D01*
X105500000Y-43993907D01*
X105499403Y-44006061D01*
X105481982Y-44182934D01*
X105477240Y-44206775D01*
X105427424Y-44370998D01*
X105418121Y-44393456D01*
X105337227Y-44544798D01*
X105323722Y-44565010D01*
X105214854Y-44697666D01*
X105197666Y-44714854D01*
X105065010Y-44823722D01*
X105044798Y-44837227D01*
X104893456Y-44918121D01*
X104870998Y-44927424D01*
X104706775Y-44977240D01*
X104682934Y-44981982D01*
X104506061Y-44999403D01*
X104493907Y-45000000D01*
X104006093Y-45000000D01*
X103993939Y-44999403D01*
X103817065Y-44981982D01*
X103793224Y-44977240D01*
X103629001Y-44927424D01*
X103606543Y-44918121D01*
X103455201Y-44837227D01*
X103434989Y-44823722D01*
X103302333Y-44714854D01*
X103285145Y-44697666D01*
X103176277Y-44565010D01*
X103162772Y-44544798D01*
X103081877Y-44393453D01*
X103072575Y-44370998D01*
X103052877Y-44306061D01*
X103022757Y-44206769D01*
X103018018Y-44182941D01*
X103000597Y-44006061D01*
X103000000Y-43993907D01*
X103000000Y-39756092D01*
X103000597Y-39743938D01*
X103014248Y-39605336D01*
X103018018Y-39567056D01*
X103022757Y-39543232D01*
X103072577Y-39378994D01*
X103081875Y-39356549D01*
X103162775Y-39205195D01*
X103176272Y-39184995D01*
X103285149Y-39052328D01*
X103302328Y-39035149D01*
X103434995Y-38926272D01*
X103455195Y-38912775D01*
X103606549Y-38831875D01*
X103628998Y-38822576D01*
X103666816Y-38811104D01*
X103684176Y-38805839D01*
X103720170Y-38800500D01*
X123452405Y-38800500D01*
X123495572Y-38800500D01*
X123504418Y-38800816D01*
G37*
G04 #@! TD.AperFunction*
G04 #@! TA.AperFunction,Conductor*
G36*
X94503318Y-52939685D02*
G01*
X94526740Y-52959189D01*
X95072179Y-53540991D01*
X95206463Y-53684227D01*
X95237953Y-53746598D01*
X95240000Y-53769036D01*
X95240000Y-57896000D01*
X95220315Y-57963039D01*
X95167511Y-58008794D01*
X95116000Y-58020000D01*
X94364000Y-58020000D01*
X94296961Y-58000315D01*
X94251206Y-57947511D01*
X94240000Y-57896000D01*
X94240000Y-54270000D01*
X94126319Y-54156319D01*
X94111615Y-54129391D01*
X94095023Y-54103573D01*
X94094131Y-54097372D01*
X94092834Y-54094996D01*
X94090000Y-54068638D01*
X94090000Y-53819079D01*
X94107267Y-53755959D01*
X94142494Y-53696395D01*
X94187643Y-53540993D01*
X94190500Y-53504690D01*
X94190500Y-53109207D01*
X94199144Y-53079766D01*
X94205668Y-53049780D01*
X94209422Y-53044764D01*
X94210185Y-53042168D01*
X94226819Y-53021526D01*
X94292026Y-52956319D01*
X94353349Y-52922834D01*
X94379707Y-52920000D01*
X94436279Y-52920000D01*
X94503318Y-52939685D01*
G37*
G04 #@! TD.AperFunction*
G04 #@! TA.AperFunction,Conductor*
G36*
X89860291Y-53180185D02*
G01*
X89906046Y-53232989D01*
X89915990Y-53302147D01*
X89914869Y-53308691D01*
X89889500Y-53436228D01*
X89889500Y-53603771D01*
X89922182Y-53768074D01*
X89922184Y-53768082D01*
X89980561Y-53909015D01*
X89990000Y-53956468D01*
X89990000Y-54341650D01*
X89970315Y-54408689D01*
X89969102Y-54410540D01*
X89936298Y-54459634D01*
X89936296Y-54459638D01*
X89872184Y-54614417D01*
X89872182Y-54614425D01*
X89839500Y-54778728D01*
X89839500Y-54946271D01*
X89872182Y-55110574D01*
X89872184Y-55110582D01*
X89936295Y-55265360D01*
X89936296Y-55265362D01*
X89936297Y-55265363D01*
X89969102Y-55314459D01*
X89974752Y-55332504D01*
X89984977Y-55348414D01*
X89989428Y-55379373D01*
X89989980Y-55381135D01*
X89990000Y-55383349D01*
X89990000Y-55396000D01*
X89970315Y-55463039D01*
X89917511Y-55508794D01*
X89866000Y-55520000D01*
X88389047Y-55520000D01*
X88322008Y-55500315D01*
X88276253Y-55447511D01*
X88266309Y-55378353D01*
X88274486Y-55348547D01*
X88292439Y-55305204D01*
X88307816Y-55268082D01*
X88340500Y-55103767D01*
X88340500Y-54936233D01*
X88307816Y-54771918D01*
X88249439Y-54630984D01*
X88240000Y-54583531D01*
X88240000Y-54120000D01*
X86414500Y-54120000D01*
X86347461Y-54100315D01*
X86301706Y-54047511D01*
X86290500Y-53996000D01*
X86290500Y-53535317D01*
X86290499Y-53535302D01*
X86287643Y-53499008D01*
X86287642Y-53499005D01*
X86272266Y-53446082D01*
X86268334Y-53432545D01*
X86268371Y-53419252D01*
X86263726Y-53406797D01*
X86268469Y-53384991D01*
X86268533Y-53362678D01*
X86276082Y-53349994D01*
X86278578Y-53338524D01*
X86299723Y-53310276D01*
X86413183Y-53196816D01*
X86474504Y-53163334D01*
X86500862Y-53160500D01*
X89793252Y-53160500D01*
X89860291Y-53180185D01*
G37*
G04 #@! TD.AperFunction*
G04 #@! TA.AperFunction,Conductor*
G36*
X82326120Y-48239685D02*
G01*
X82327972Y-48240898D01*
X82347130Y-48253699D01*
X82347134Y-48253701D01*
X82347137Y-48253703D01*
X82501918Y-48317816D01*
X82621585Y-48341619D01*
X82666228Y-48350499D01*
X82666232Y-48350500D01*
X82666233Y-48350500D01*
X82833767Y-48350500D01*
X82882362Y-48340833D01*
X82891156Y-48341619D01*
X82900594Y-48338593D01*
X82925585Y-48337391D01*
X83505885Y-48225251D01*
X83529412Y-48223000D01*
X83922531Y-48223000D01*
X83985651Y-48240267D01*
X84089602Y-48301744D01*
X84131224Y-48313836D01*
X84247426Y-48347597D01*
X84247429Y-48347597D01*
X84247431Y-48347598D01*
X84284306Y-48350500D01*
X84284314Y-48350500D01*
X85366000Y-48350500D01*
X85374685Y-48353050D01*
X85383647Y-48351762D01*
X85407687Y-48362740D01*
X85433039Y-48370185D01*
X85438966Y-48377025D01*
X85447203Y-48380787D01*
X85461492Y-48403021D01*
X85478794Y-48422989D01*
X85481081Y-48433503D01*
X85484977Y-48439565D01*
X85490000Y-48474500D01*
X85490000Y-48525500D01*
X85470315Y-48592539D01*
X85417511Y-48638294D01*
X85366000Y-48649500D01*
X84284298Y-48649500D01*
X84247432Y-48652401D01*
X84247426Y-48652402D01*
X84089606Y-48698254D01*
X84089603Y-48698255D01*
X83997488Y-48752732D01*
X83934367Y-48770000D01*
X83493193Y-48770000D01*
X83469666Y-48767748D01*
X82925591Y-48662609D01*
X82874040Y-48655376D01*
X82869973Y-48655204D01*
X82851029Y-48652933D01*
X82833767Y-48649500D01*
X82666233Y-48649500D01*
X82666228Y-48649500D01*
X82501925Y-48682182D01*
X82501917Y-48682184D01*
X82347139Y-48746295D01*
X82207837Y-48839373D01*
X82089373Y-48957837D01*
X81996295Y-49097139D01*
X81932184Y-49251917D01*
X81932182Y-49251925D01*
X81899500Y-49416228D01*
X81899500Y-49583771D01*
X81932182Y-49748074D01*
X81932184Y-49748082D01*
X81980561Y-49864874D01*
X81990000Y-49912325D01*
X81990000Y-50420000D01*
X85314665Y-50420000D01*
X85314665Y-50421747D01*
X85345115Y-50418472D01*
X85407596Y-50449743D01*
X85443252Y-50509829D01*
X85440763Y-50579655D01*
X85406518Y-50632255D01*
X85089999Y-50919999D01*
X85802319Y-51632319D01*
X85835804Y-51693642D01*
X85830820Y-51763334D01*
X85802319Y-51807681D01*
X83590000Y-54019999D01*
X83590000Y-55390500D01*
X83570315Y-55457539D01*
X83517511Y-55503294D01*
X83466000Y-55514500D01*
X83114000Y-55514500D01*
X83113991Y-55514500D01*
X83113990Y-55514501D01*
X83069457Y-55519289D01*
X83056202Y-55520000D01*
X82240000Y-55520000D01*
X82240000Y-57896000D01*
X82220315Y-57963039D01*
X82167511Y-58008794D01*
X82116000Y-58020000D01*
X79614000Y-58020000D01*
X79546961Y-58000315D01*
X79501206Y-57947511D01*
X79490000Y-57896000D01*
X79490000Y-55480294D01*
X79509685Y-55413255D01*
X79557704Y-55369810D01*
X79627994Y-55333996D01*
X79774501Y-55227553D01*
X79902553Y-55099501D01*
X80008996Y-54952994D01*
X80091211Y-54791639D01*
X80147171Y-54619409D01*
X80168607Y-54484070D01*
X80175500Y-54440551D01*
X80175500Y-54259448D01*
X80159019Y-54155397D01*
X80147171Y-54080591D01*
X80091211Y-53908361D01*
X80091211Y-53908360D01*
X80062740Y-53852484D01*
X80008996Y-53747006D01*
X79917183Y-53620635D01*
X79902558Y-53600505D01*
X79902554Y-53600500D01*
X79774499Y-53472445D01*
X79774494Y-53472441D01*
X79627995Y-53366004D01*
X79557704Y-53330188D01*
X79506908Y-53282213D01*
X79490000Y-53219704D01*
X79490000Y-48344000D01*
X79509685Y-48276961D01*
X79562489Y-48231206D01*
X79614000Y-48220000D01*
X82259081Y-48220000D01*
X82326120Y-48239685D01*
G37*
G04 #@! TD.AperFunction*
G04 #@! TA.AperFunction,Conductor*
G36*
X93677539Y-56289685D02*
G01*
X93723294Y-56342489D01*
X93734500Y-56394000D01*
X93734500Y-57065188D01*
X93714815Y-57132227D01*
X93679394Y-57168288D01*
X93647836Y-57189375D01*
X93647831Y-57189380D01*
X93529376Y-57307834D01*
X93529373Y-57307837D01*
X93436295Y-57447139D01*
X93372184Y-57601917D01*
X93372182Y-57601925D01*
X93339500Y-57766228D01*
X93339500Y-57896000D01*
X93319815Y-57963039D01*
X93267011Y-58008794D01*
X93215500Y-58020000D01*
X87614000Y-58020000D01*
X87546961Y-58000315D01*
X87501206Y-57947511D01*
X87490000Y-57896000D01*
X87490000Y-56394000D01*
X87509685Y-56326961D01*
X87562489Y-56281206D01*
X87614000Y-56270000D01*
X93610500Y-56270000D01*
X93677539Y-56289685D01*
G37*
G04 #@! TD.AperFunction*
G04 #@! TA.AperFunction,Conductor*
G36*
X124506061Y-51700597D02*
G01*
X124682941Y-51718018D01*
X124706769Y-51722757D01*
X124871001Y-51772576D01*
X124893453Y-51781877D01*
X125044798Y-51862772D01*
X125065006Y-51876274D01*
X125154165Y-51949444D01*
X125193499Y-52007189D01*
X125199500Y-52045297D01*
X125199500Y-56495572D01*
X125199184Y-56504418D01*
X125182834Y-56733017D01*
X125180316Y-56750529D01*
X125132543Y-56970137D01*
X125127559Y-56987112D01*
X125049019Y-57197688D01*
X125041669Y-57213782D01*
X124933959Y-57411036D01*
X124924394Y-57425919D01*
X124789710Y-57605836D01*
X124778124Y-57619207D01*
X124619207Y-57778124D01*
X124605836Y-57789710D01*
X124425919Y-57924394D01*
X124411036Y-57933959D01*
X124213782Y-58041669D01*
X124197688Y-58049019D01*
X123987112Y-58127559D01*
X123970137Y-58132543D01*
X123750529Y-58180316D01*
X123733017Y-58182834D01*
X123504418Y-58199184D01*
X123495572Y-58199500D01*
X103720170Y-58199500D01*
X103684176Y-58194161D01*
X103628999Y-58177423D01*
X103606543Y-58168121D01*
X103455201Y-58087227D01*
X103434989Y-58073722D01*
X103302333Y-57964854D01*
X103285145Y-57947666D01*
X103176277Y-57815010D01*
X103162772Y-57794798D01*
X103081877Y-57643453D01*
X103072575Y-57620998D01*
X103023282Y-57458498D01*
X103022757Y-57456769D01*
X103018018Y-57432941D01*
X103000597Y-57256061D01*
X103000000Y-57243907D01*
X103000000Y-53006092D01*
X103000597Y-52993938D01*
X103018018Y-52817056D01*
X103022757Y-52793232D01*
X103072577Y-52628994D01*
X103081875Y-52606549D01*
X103162775Y-52455195D01*
X103176272Y-52434995D01*
X103285149Y-52302328D01*
X103302328Y-52285149D01*
X103434995Y-52176272D01*
X103455195Y-52162775D01*
X103606549Y-52081875D01*
X103628994Y-52072577D01*
X103793232Y-52022757D01*
X103817056Y-52018018D01*
X103993939Y-52000597D01*
X104006093Y-52000000D01*
X104493907Y-52000000D01*
X104506061Y-52000597D01*
X104682941Y-52018018D01*
X104706769Y-52022757D01*
X104871001Y-52072576D01*
X104893453Y-52081877D01*
X105044798Y-52162772D01*
X105065010Y-52176277D01*
X105197666Y-52285145D01*
X105214854Y-52302333D01*
X105323722Y-52434989D01*
X105337227Y-52455201D01*
X105418121Y-52606543D01*
X105427424Y-52629001D01*
X105477240Y-52793224D01*
X105481982Y-52817065D01*
X105499403Y-52993938D01*
X105500000Y-53006092D01*
X105500000Y-54999996D01*
X105519214Y-55195088D01*
X105519215Y-55195090D01*
X105576120Y-55382683D01*
X105576121Y-55382686D01*
X105576122Y-55382687D01*
X105576123Y-55382690D01*
X105668526Y-55555564D01*
X105668531Y-55555571D01*
X105792892Y-55707107D01*
X105898344Y-55793648D01*
X105944430Y-55831470D01*
X105944433Y-55831471D01*
X105944435Y-55831473D01*
X106117309Y-55923876D01*
X106117310Y-55923876D01*
X106117317Y-55923880D01*
X106304910Y-55980785D01*
X106304909Y-55980785D01*
X106353682Y-55985588D01*
X106500000Y-56000000D01*
X122049997Y-56000000D01*
X122050000Y-56000000D01*
X122235336Y-55981746D01*
X122413549Y-55927686D01*
X122577792Y-55839896D01*
X122721751Y-55721751D01*
X122839896Y-55577792D01*
X122927686Y-55413549D01*
X122981746Y-55235336D01*
X123000000Y-55050000D01*
X122981746Y-54864664D01*
X122927686Y-54686451D01*
X122839896Y-54522208D01*
X122839893Y-54522204D01*
X122721751Y-54378248D01*
X122577795Y-54260106D01*
X122577793Y-54260105D01*
X122577792Y-54260104D01*
X122413549Y-54172314D01*
X122324442Y-54145284D01*
X122235334Y-54118253D01*
X122099849Y-54104909D01*
X122050000Y-54100000D01*
X122049997Y-54100000D01*
X120906093Y-54100000D01*
X120893939Y-54099403D01*
X120717065Y-54081982D01*
X120693224Y-54077240D01*
X120529001Y-54027424D01*
X120506543Y-54018121D01*
X120355201Y-53937227D01*
X120334989Y-53923722D01*
X120202333Y-53814854D01*
X120185145Y-53797666D01*
X120076277Y-53665010D01*
X120062772Y-53644798D01*
X119981878Y-53493456D01*
X119972575Y-53470998D01*
X119922757Y-53306769D01*
X119918018Y-53282941D01*
X119900597Y-53106061D01*
X119900000Y-53093907D01*
X119900000Y-52706092D01*
X119900597Y-52693938D01*
X119906993Y-52629001D01*
X119918018Y-52517056D01*
X119922757Y-52493232D01*
X119972577Y-52328994D01*
X119981875Y-52306549D01*
X120062775Y-52155195D01*
X120076272Y-52134995D01*
X120185149Y-52002328D01*
X120202328Y-51985149D01*
X120334995Y-51876272D01*
X120355195Y-51862775D01*
X120506549Y-51781875D01*
X120528994Y-51772577D01*
X120693232Y-51722757D01*
X120717056Y-51718018D01*
X120893939Y-51700597D01*
X120906093Y-51700000D01*
X124493907Y-51700000D01*
X124506061Y-51700597D01*
G37*
G04 #@! TD.AperFunction*
G04 #@! TA.AperFunction,Conductor*
G36*
X84208888Y-42227819D02*
G01*
X84252508Y-42244088D01*
X84252511Y-42244088D01*
X84252517Y-42244091D01*
X84312127Y-42250500D01*
X85147872Y-42250499D01*
X85207483Y-42244091D01*
X85251114Y-42227817D01*
X85256742Y-42226802D01*
X85259511Y-42225023D01*
X85294446Y-42220000D01*
X85435554Y-42220000D01*
X85478888Y-42227819D01*
X85522508Y-42244088D01*
X85522511Y-42244088D01*
X85522517Y-42244091D01*
X85582127Y-42250500D01*
X86417872Y-42250499D01*
X86477483Y-42244091D01*
X86521114Y-42227817D01*
X86526742Y-42226802D01*
X86529511Y-42225023D01*
X86564446Y-42220000D01*
X86705554Y-42220000D01*
X86748888Y-42227819D01*
X86792508Y-42244088D01*
X86792511Y-42244089D01*
X86792517Y-42244091D01*
X86852127Y-42250500D01*
X87466000Y-42250499D01*
X87533039Y-42270183D01*
X87578794Y-42322987D01*
X87590000Y-42374499D01*
X87590000Y-46496000D01*
X87570315Y-46563039D01*
X87517511Y-46608794D01*
X87466000Y-46620000D01*
X85590000Y-46620000D01*
X81790000Y-46620000D01*
X79614000Y-46620000D01*
X79546961Y-46600315D01*
X79501206Y-46547511D01*
X79490000Y-46496000D01*
X79490000Y-43780294D01*
X79509685Y-43713255D01*
X79557704Y-43669810D01*
X79627994Y-43633996D01*
X79774501Y-43527553D01*
X79902553Y-43399501D01*
X80008996Y-43252994D01*
X80091211Y-43091639D01*
X80114488Y-43020000D01*
X83740000Y-43020000D01*
X83740000Y-43059382D01*
X83740000Y-45870000D01*
X83837417Y-45870000D01*
X83904456Y-45889685D01*
X83936683Y-45919688D01*
X84002455Y-46007547D01*
X84117664Y-46093793D01*
X84117671Y-46093797D01*
X84252517Y-46144091D01*
X84252516Y-46144091D01*
X84259444Y-46144835D01*
X84312127Y-46150500D01*
X85147872Y-46150499D01*
X85207483Y-46144091D01*
X85342331Y-46093796D01*
X85457546Y-46007546D01*
X85543796Y-45892331D01*
X85552125Y-45870000D01*
X85590000Y-45870000D01*
X85590000Y-45768451D01*
X85594091Y-45757483D01*
X85600500Y-45697873D01*
X85600499Y-43202128D01*
X85594091Y-43142517D01*
X85590000Y-43131548D01*
X85590000Y-43020000D01*
X85548395Y-43020000D01*
X85543796Y-43007669D01*
X85507963Y-42959802D01*
X85507962Y-42959800D01*
X85477704Y-42919382D01*
X85457546Y-42892454D01*
X85457544Y-42892453D01*
X85457544Y-42892452D01*
X85342335Y-42806206D01*
X85342328Y-42806202D01*
X85207482Y-42755908D01*
X85207483Y-42755908D01*
X85147883Y-42749501D01*
X85147881Y-42749500D01*
X85147873Y-42749500D01*
X85147864Y-42749500D01*
X84312129Y-42749500D01*
X84312123Y-42749501D01*
X84252516Y-42755908D01*
X84117671Y-42806202D01*
X84117664Y-42806206D01*
X84002455Y-42892452D01*
X83944169Y-42970312D01*
X83888235Y-43012182D01*
X83882409Y-43014192D01*
X83864106Y-43020000D01*
X83740000Y-43020000D01*
X80114488Y-43020000D01*
X80147171Y-42919409D01*
X80162441Y-42822992D01*
X80162737Y-42821400D01*
X80177820Y-42791624D01*
X80192116Y-42761467D01*
X80193547Y-42760575D01*
X80194310Y-42759071D01*
X80223086Y-42742183D01*
X80251428Y-42724536D01*
X80253680Y-42724228D01*
X80254569Y-42723707D01*
X80256830Y-42723798D01*
X80284660Y-42720000D01*
X80984739Y-42720000D01*
X81047857Y-42737267D01*
X81073605Y-42752494D01*
X81073608Y-42752494D01*
X81073610Y-42752496D01*
X81229002Y-42797642D01*
X81229005Y-42797642D01*
X81229007Y-42797643D01*
X81265310Y-42800500D01*
X81265318Y-42800500D01*
X81734682Y-42800500D01*
X81734690Y-42800500D01*
X81770993Y-42797643D01*
X81770995Y-42797642D01*
X81770997Y-42797642D01*
X81926389Y-42752496D01*
X81926389Y-42752495D01*
X81926395Y-42752494D01*
X81952142Y-42737267D01*
X82015261Y-42720000D01*
X83190000Y-42720000D01*
X83623183Y-42286816D01*
X83684504Y-42253333D01*
X83710860Y-42250499D01*
X83877872Y-42250499D01*
X83937483Y-42244091D01*
X83981114Y-42227817D01*
X83986742Y-42226802D01*
X83989511Y-42225023D01*
X84024446Y-42220000D01*
X84165554Y-42220000D01*
X84208888Y-42227819D01*
G37*
G04 #@! TD.AperFunction*
G04 #@! TA.AperFunction,Conductor*
G36*
X93183039Y-53180185D02*
G01*
X93228794Y-53232989D01*
X93240000Y-53284500D01*
X93240000Y-54020000D01*
X93464975Y-54020000D01*
X93496564Y-54029275D01*
X93528453Y-54037480D01*
X93529930Y-54039073D01*
X93532014Y-54039685D01*
X93553563Y-54064554D01*
X93575965Y-54088708D01*
X93576715Y-54091273D01*
X93577769Y-54092489D01*
X93587047Y-54122218D01*
X93587803Y-54126455D01*
X93590231Y-54149036D01*
X93598873Y-54202385D01*
X93602808Y-54212941D01*
X93605184Y-54223861D01*
X93605189Y-54223889D01*
X93609995Y-54245976D01*
X93609997Y-54245981D01*
X93609998Y-54245986D01*
X93610000Y-54245990D01*
X93636099Y-54303141D01*
X93637942Y-54307177D01*
X93649136Y-54337200D01*
X93650433Y-54339576D01*
X93652278Y-54338568D01*
X93666380Y-54369447D01*
X93666384Y-54369454D01*
X93669770Y-54376868D01*
X93669772Y-54376872D01*
X93674210Y-54383778D01*
X93678718Y-54391376D01*
X93682653Y-54398582D01*
X93682655Y-54398584D01*
X93709766Y-54434800D01*
X93734184Y-54500264D01*
X93734500Y-54509111D01*
X93734500Y-55396000D01*
X93714815Y-55463039D01*
X93662011Y-55508794D01*
X93610500Y-55520000D01*
X91114000Y-55520000D01*
X91046961Y-55500315D01*
X91001206Y-55447511D01*
X90990000Y-55396000D01*
X90990000Y-55020000D01*
X90614000Y-55020000D01*
X90546961Y-55000315D01*
X90501206Y-54947511D01*
X90490000Y-54896000D01*
X90490000Y-53284500D01*
X90509685Y-53217461D01*
X90562489Y-53171706D01*
X90614000Y-53160500D01*
X93116000Y-53160500D01*
X93183039Y-53180185D01*
G37*
G04 #@! TD.AperFunction*
G04 #@! TA.AperFunction,Conductor*
G36*
X86433039Y-56039685D02*
G01*
X86478794Y-56092489D01*
X86490000Y-56144000D01*
X86490000Y-57896000D01*
X86470315Y-57963039D01*
X86417511Y-58008794D01*
X86366000Y-58020000D01*
X83114000Y-58020000D01*
X83046961Y-58000315D01*
X83001206Y-57947511D01*
X82990000Y-57896000D01*
X82990000Y-56144000D01*
X83009685Y-56076961D01*
X83062489Y-56031206D01*
X83114000Y-56020000D01*
X86366000Y-56020000D01*
X86433039Y-56039685D01*
G37*
G04 #@! TD.AperFunction*
G04 #@! TA.AperFunction,Conductor*
G36*
X90757677Y-43239685D02*
G01*
X90803432Y-43292489D01*
X90813376Y-43361647D01*
X90784351Y-43425203D01*
X90778319Y-43431681D01*
X88919227Y-45290772D01*
X88857904Y-45324257D01*
X88849082Y-45325845D01*
X88331536Y-45399780D01*
X88262387Y-45389774D01*
X88209624Y-45343971D01*
X88190000Y-45277026D01*
X88190000Y-43344000D01*
X88209685Y-43276961D01*
X88262489Y-43231206D01*
X88314000Y-43220000D01*
X90690638Y-43220000D01*
X90757677Y-43239685D01*
G37*
G04 #@! TD.AperFunction*
G04 #@! TA.AperFunction,Conductor*
G36*
X97632539Y-39239685D02*
G01*
X97678294Y-39292489D01*
X97689500Y-39344000D01*
X97689500Y-39754697D01*
X97692356Y-39790991D01*
X97692357Y-39790997D01*
X97737505Y-39946394D01*
X97743708Y-39956884D01*
X97760887Y-40024608D01*
X97743708Y-40083116D01*
X97737505Y-40093605D01*
X97692357Y-40249002D01*
X97692356Y-40249008D01*
X97689500Y-40285302D01*
X97689500Y-40754697D01*
X97692356Y-40790991D01*
X97692357Y-40790997D01*
X97737504Y-40946390D01*
X97737505Y-40946393D01*
X97762910Y-40989351D01*
X97780093Y-41057075D01*
X97775254Y-41087067D01*
X97732335Y-41234791D01*
X97732334Y-41234797D01*
X97729500Y-41270811D01*
X97729500Y-41769169D01*
X97729501Y-41769191D01*
X97732334Y-41805200D01*
X97777131Y-41959392D01*
X97779800Y-41965559D01*
X97790000Y-42014810D01*
X97790000Y-42756732D01*
X97770315Y-42823771D01*
X97725739Y-42865393D01*
X97721154Y-42867913D01*
X97721148Y-42867917D01*
X97693469Y-42891558D01*
X97693449Y-42891577D01*
X97435832Y-43149194D01*
X97374509Y-43182679D01*
X97304817Y-43177695D01*
X97260470Y-43149194D01*
X93542957Y-39431681D01*
X93509472Y-39370358D01*
X93514456Y-39300666D01*
X93556328Y-39244733D01*
X93621792Y-39220316D01*
X93630638Y-39220000D01*
X97565500Y-39220000D01*
X97632539Y-39239685D01*
G37*
G04 #@! TD.AperFunction*
G04 #@! TA.AperFunction,Conductor*
G36*
X83733039Y-39339685D02*
G01*
X83778794Y-39392489D01*
X83790000Y-39444000D01*
X83790000Y-41596000D01*
X83770315Y-41663039D01*
X83717511Y-41708794D01*
X83666000Y-41720000D01*
X83089999Y-41720000D01*
X82626319Y-42183681D01*
X82564996Y-42217166D01*
X82538638Y-42220000D01*
X81849367Y-42220000D01*
X81814772Y-42215076D01*
X81799123Y-42210529D01*
X81770994Y-42202357D01*
X81770991Y-42202356D01*
X81734697Y-42199500D01*
X81734690Y-42199500D01*
X81314000Y-42199500D01*
X81246961Y-42179815D01*
X81201206Y-42127011D01*
X81190000Y-42075500D01*
X81190000Y-39444000D01*
X81209685Y-39376961D01*
X81262489Y-39331206D01*
X81314000Y-39320000D01*
X83666000Y-39320000D01*
X83733039Y-39339685D01*
G37*
G04 #@! TD.AperFunction*
G04 #@! TA.AperFunction,Conductor*
G36*
X99980010Y-50410185D02*
G01*
X100019703Y-50451379D01*
X100058862Y-50517594D01*
X100058869Y-50517603D01*
X100172396Y-50631130D01*
X100172400Y-50631133D01*
X100172402Y-50631135D01*
X100310607Y-50712869D01*
X100335152Y-50720000D01*
X100464791Y-50757664D01*
X100464794Y-50757664D01*
X100464796Y-50757665D01*
X100500819Y-50760500D01*
X100999180Y-50760499D01*
X101035204Y-50757665D01*
X101145917Y-50725500D01*
X101147900Y-50724924D01*
X101182495Y-50720000D01*
X102366000Y-50720000D01*
X102433039Y-50739685D01*
X102478794Y-50792489D01*
X102490000Y-50844000D01*
X102490000Y-53796000D01*
X102470315Y-53863039D01*
X102417511Y-53908794D01*
X102366000Y-53920000D01*
X101730563Y-53920000D01*
X101663524Y-53900315D01*
X101617769Y-53847511D01*
X101616001Y-53843452D01*
X101615886Y-53843175D01*
X101615886Y-53843173D01*
X101601676Y-53808865D01*
X101567604Y-53726609D01*
X101523431Y-53660500D01*
X101497509Y-53621704D01*
X101426319Y-53550514D01*
X101392834Y-53489191D01*
X101390000Y-53462833D01*
X101390000Y-53019999D01*
X101293425Y-52915994D01*
X101262233Y-52853474D01*
X101260292Y-52831619D01*
X101260292Y-52799714D01*
X101260291Y-52799706D01*
X101220047Y-52642965D01*
X101142088Y-52501157D01*
X101142087Y-52501155D01*
X101118437Y-52473465D01*
X101118422Y-52473449D01*
X100786550Y-52141577D01*
X100786533Y-52141561D01*
X100758846Y-52117914D01*
X100758842Y-52117911D01*
X100617034Y-52039952D01*
X100460293Y-51999708D01*
X100460290Y-51999708D01*
X100298462Y-51999708D01*
X100298458Y-51999708D01*
X100141717Y-52039952D01*
X99999909Y-52117911D01*
X99999906Y-52117913D01*
X99975411Y-52138835D01*
X99911650Y-52167406D01*
X99842565Y-52156969D01*
X99807198Y-52132226D01*
X99546550Y-51871577D01*
X99546533Y-51871561D01*
X99518846Y-51847914D01*
X99518842Y-51847911D01*
X99377036Y-51769953D01*
X99359999Y-51765579D01*
X99303156Y-51733156D01*
X98411818Y-50841818D01*
X98397169Y-50814991D01*
X98380589Y-50789301D01*
X98379668Y-50782940D01*
X98378333Y-50780495D01*
X98375499Y-50754376D01*
X98375499Y-50525600D01*
X98375051Y-50522199D01*
X98375037Y-50514739D01*
X98383754Y-50484836D01*
X98390556Y-50454434D01*
X98393453Y-50451570D01*
X98394593Y-50447662D01*
X98418090Y-50427221D01*
X98440251Y-50405320D01*
X98444498Y-50404249D01*
X98447308Y-50401805D01*
X98463630Y-50399425D01*
X98499037Y-50390500D01*
X99912971Y-50390500D01*
X99980010Y-50410185D01*
G37*
G04 #@! TD.AperFunction*
G04 #@! TA.AperFunction,Conductor*
G36*
X91387232Y-50377794D02*
G01*
X91573205Y-50563767D01*
X91576632Y-50572040D01*
X91575358Y-50577349D01*
X91555692Y-50615972D01*
X91553540Y-50618935D01*
X91549490Y-50622985D01*
X91477016Y-50748512D01*
X91477014Y-50748516D01*
X91464901Y-50793726D01*
X91464026Y-50796007D01*
X91286972Y-51143747D01*
X91280165Y-51149564D01*
X91271237Y-51148864D01*
X91270077Y-51148186D01*
X90991258Y-50963012D01*
X90987987Y-50959741D01*
X90802814Y-50680924D01*
X90801092Y-50672138D01*
X90806088Y-50664707D01*
X90807240Y-50664033D01*
X91373653Y-50375640D01*
X91382578Y-50374941D01*
X91387232Y-50377794D01*
G37*
G04 #@! TD.AperFunction*
G04 #@! TA.AperFunction,Conductor*
G36*
X97079214Y-41911224D02*
G01*
X96881224Y-42109214D01*
X96295550Y-41811014D01*
X96489293Y-41519293D01*
X96781014Y-41325550D01*
X97079214Y-41911224D01*
G37*
G04 #@! TD.AperFunction*
G04 #@! TA.AperFunction,Conductor*
G36*
X89490707Y-43819293D02*
G01*
X89684450Y-44111014D01*
X89176558Y-44486996D01*
X88823004Y-44133442D01*
X89198986Y-43625550D01*
X89490707Y-43819293D01*
G37*
G04 #@! TD.AperFunction*
G04 #@! TA.AperFunction,Conductor*
G36*
X82830975Y-47161209D02*
G01*
X83435473Y-47374744D01*
X83442131Y-47380730D01*
X83443275Y-47385775D01*
X83443275Y-47712844D01*
X83439848Y-47721117D01*
X83433795Y-47724331D01*
X82829675Y-47841073D01*
X82820902Y-47839279D01*
X82815986Y-47831901D01*
X82791957Y-47712844D01*
X82749467Y-47502313D01*
X82749467Y-47497685D01*
X82815617Y-47169927D01*
X82820613Y-47162497D01*
X82829401Y-47160774D01*
X82830975Y-47161209D01*
G37*
G04 #@! TD.AperFunction*
G04 #@! TA.AperFunction,Conductor*
G36*
X83433795Y-49275668D02*
G01*
X83441268Y-49280602D01*
X83443275Y-49287155D01*
X83443275Y-49614224D01*
X83439848Y-49622497D01*
X83435472Y-49625256D01*
X82830983Y-49838788D01*
X82822041Y-49838312D01*
X82816054Y-49831653D01*
X82815617Y-49830071D01*
X82749467Y-49502315D01*
X82749467Y-49497685D01*
X82815986Y-49168096D01*
X82820982Y-49160667D01*
X82829673Y-49158926D01*
X83433795Y-49275668D01*
G37*
G04 #@! TD.AperFunction*
G04 #@! TA.AperFunction,Conductor*
G36*
X91037086Y-47052367D02*
G01*
X91044516Y-47057363D01*
X91046239Y-47066151D01*
X91045896Y-47067455D01*
X90849312Y-47671878D01*
X90843495Y-47678685D01*
X90838186Y-47679959D01*
X90575182Y-47679959D01*
X90566909Y-47676532D01*
X90564056Y-47671878D01*
X90367471Y-47067455D01*
X90368171Y-47058527D01*
X90374978Y-47052710D01*
X90376267Y-47052370D01*
X90704370Y-46986151D01*
X90708998Y-46986151D01*
X91037086Y-47052367D01*
G37*
G04 #@! TD.AperFunction*
G04 #@! TA.AperFunction,Conductor*
G36*
X92570402Y-46585683D02*
G01*
X92577832Y-46590679D01*
X92579555Y-46599467D01*
X92579212Y-46600771D01*
X92382628Y-47205194D01*
X92376811Y-47212001D01*
X92371502Y-47213275D01*
X92108498Y-47213275D01*
X92100225Y-47209848D01*
X92097372Y-47205194D01*
X91900787Y-46600771D01*
X91901487Y-46591843D01*
X91908294Y-46586026D01*
X91909583Y-46585686D01*
X92237686Y-46519467D01*
X92242314Y-46519467D01*
X92570402Y-46585683D01*
G37*
G04 #@! TD.AperFunction*
G04 #@! TA.AperFunction,Conductor*
G36*
X91786034Y-47336260D02*
G01*
X91786834Y-47337667D01*
X91903497Y-47580528D01*
X91904252Y-47582566D01*
X91922703Y-47651425D01*
X91967533Y-47729073D01*
X91980212Y-47741752D01*
X91982485Y-47744959D01*
X92064234Y-47915137D01*
X92064728Y-47924078D01*
X92061961Y-47928476D01*
X91875993Y-48114444D01*
X91867720Y-48117871D01*
X91862168Y-48116470D01*
X91306840Y-47817100D01*
X91301184Y-47810158D01*
X91302093Y-47801249D01*
X91302636Y-47800343D01*
X91487989Y-47521255D01*
X91491255Y-47517989D01*
X91769816Y-47332986D01*
X91778603Y-47331264D01*
X91786034Y-47336260D01*
G37*
G04 #@! TD.AperFunction*
G04 #@! TA.AperFunction,Conductor*
G36*
X99418156Y-40181487D02*
G01*
X99423973Y-40188294D01*
X99424316Y-40189598D01*
X99490532Y-40517685D01*
X99490532Y-40522315D01*
X99424316Y-40850401D01*
X99419320Y-40857832D01*
X99410532Y-40859555D01*
X99409228Y-40859212D01*
X98804806Y-40662628D01*
X98797999Y-40656811D01*
X98796725Y-40651502D01*
X98796725Y-40388497D01*
X98800152Y-40380224D01*
X98804803Y-40377372D01*
X99409228Y-40180787D01*
X99418156Y-40181487D01*
G37*
G04 #@! TD.AperFunction*
G04 #@! TA.AperFunction,Conductor*
G36*
X87028896Y-50577307D02*
G01*
X87070774Y-50585759D01*
X87078205Y-50590755D01*
X87079928Y-50599543D01*
X87079686Y-50600520D01*
X86902466Y-51204867D01*
X86896850Y-51211842D01*
X86891239Y-51213275D01*
X86628244Y-51213275D01*
X86619971Y-51209848D01*
X86617226Y-51205511D01*
X86616996Y-51204867D01*
X86401272Y-50601010D01*
X86401716Y-50592068D01*
X86408354Y-50586058D01*
X86409964Y-50585609D01*
X86737686Y-50519467D01*
X86742314Y-50519467D01*
X87028896Y-50577307D01*
G37*
G04 #@! TD.AperFunction*
G04 #@! TA.AperFunction,Conductor*
G36*
X99418156Y-39181487D02*
G01*
X99423973Y-39188294D01*
X99424316Y-39189598D01*
X99490532Y-39517685D01*
X99490532Y-39522315D01*
X99424316Y-39850401D01*
X99419320Y-39857832D01*
X99410532Y-39859555D01*
X99409228Y-39859212D01*
X98804806Y-39662628D01*
X98797999Y-39656811D01*
X98796725Y-39651502D01*
X98796725Y-39388497D01*
X98800152Y-39380224D01*
X98804803Y-39377372D01*
X99409228Y-39180787D01*
X99418156Y-39181487D01*
G37*
G04 #@! TD.AperFunction*
G04 #@! TA.AperFunction,Conductor*
G36*
X88070025Y-50585607D02*
G01*
X88077455Y-50590603D01*
X88079178Y-50599391D01*
X88078727Y-50601012D01*
X87862774Y-51205511D01*
X87856764Y-51212149D01*
X87851756Y-51213275D01*
X87588761Y-51213275D01*
X87580488Y-51209848D01*
X87577534Y-51204867D01*
X87400313Y-50600518D01*
X87401273Y-50591617D01*
X87408248Y-50586001D01*
X87409221Y-50585759D01*
X87737686Y-50519467D01*
X87742314Y-50519467D01*
X88070025Y-50585607D01*
G37*
G04 #@! TD.AperFunction*
G04 #@! TA.AperFunction,Conductor*
G36*
X97183275Y-41380000D02*
G01*
X97183275Y-41660000D01*
X96558282Y-41863275D01*
X96489000Y-41520000D01*
X96558282Y-41176725D01*
X97183275Y-41380000D01*
G37*
G04 #@! TD.AperFunction*
G04 #@! TA.AperFunction,Conductor*
G36*
X102281014Y-53325550D02*
G01*
X101990707Y-53520707D01*
X101646725Y-53451718D01*
X101704009Y-53003177D01*
X101901999Y-52805187D01*
X102281014Y-53325550D01*
G37*
G04 #@! TD.AperFunction*
G04 #@! TA.AperFunction,Conductor*
G36*
X99979411Y-51558617D02*
G01*
X99699411Y-51558617D01*
X99326850Y-51288122D01*
X99521300Y-50996108D01*
X99864575Y-50928826D01*
X99979411Y-51558617D01*
G37*
G04 #@! TD.AperFunction*
G04 #@! TA.AperFunction,Conductor*
G36*
X87491000Y-53770000D02*
G01*
X87421718Y-54113275D01*
X86796725Y-53910000D01*
X86796725Y-53630000D01*
X87421718Y-53426725D01*
X87491000Y-53770000D01*
G37*
G04 #@! TD.AperFunction*
G04 #@! TA.AperFunction,Conductor*
G36*
X117639644Y-51580152D02*
G01*
X117642549Y-51584968D01*
X117829451Y-52189352D01*
X117828621Y-52198269D01*
X117821730Y-52203987D01*
X117820588Y-52204278D01*
X117492315Y-52270532D01*
X117487685Y-52270532D01*
X117159786Y-52204354D01*
X117152355Y-52199358D01*
X117150632Y-52190570D01*
X117151025Y-52189116D01*
X117357297Y-51584645D01*
X117363212Y-51577923D01*
X117368370Y-51576725D01*
X117631371Y-51576725D01*
X117639644Y-51580152D01*
G37*
G04 #@! TD.AperFunction*
G04 #@! TA.AperFunction,Conductor*
G36*
X83833275Y-46201718D02*
G01*
X83490000Y-46271000D01*
X83146725Y-46201718D01*
X83320000Y-45576725D01*
X83600000Y-45576725D01*
X83833275Y-46201718D01*
G37*
G04 #@! TD.AperFunction*
G04 #@! TA.AperFunction,Conductor*
G36*
X112830588Y-43065721D02*
G01*
X112838019Y-43070717D01*
X112839742Y-43079505D01*
X112839451Y-43080647D01*
X112652549Y-43685032D01*
X112646831Y-43691923D01*
X112641371Y-43693275D01*
X112358629Y-43693275D01*
X112350356Y-43689848D01*
X112347451Y-43685032D01*
X112327722Y-43621236D01*
X112160548Y-43080645D01*
X112161378Y-43071730D01*
X112168269Y-43066012D01*
X112169399Y-43065724D01*
X112497686Y-42999467D01*
X112502314Y-42999467D01*
X112830588Y-43065721D01*
G37*
G04 #@! TD.AperFunction*
G04 #@! TA.AperFunction,Conductor*
G36*
X116427931Y-47161716D02*
G01*
X116433941Y-47168354D01*
X116434392Y-47169975D01*
X116500532Y-47497685D01*
X116500532Y-47502315D01*
X116434166Y-47831141D01*
X116429170Y-47838572D01*
X116420382Y-47840295D01*
X116419745Y-47840147D01*
X115815468Y-47682284D01*
X115808329Y-47676877D01*
X115806725Y-47670964D01*
X115806725Y-47388244D01*
X115810152Y-47379971D01*
X115814487Y-47377226D01*
X116418989Y-47161272D01*
X116427931Y-47161716D01*
G37*
G04 #@! TD.AperFunction*
G04 #@! TA.AperFunction,Conductor*
G36*
X116428269Y-48161378D02*
G01*
X116433987Y-48168269D01*
X116434278Y-48169411D01*
X116500532Y-48497685D01*
X116500532Y-48502315D01*
X116434278Y-48830588D01*
X116429282Y-48838019D01*
X116420494Y-48839742D01*
X116419352Y-48839451D01*
X116414721Y-48838019D01*
X115814968Y-48652549D01*
X115808077Y-48646831D01*
X115806725Y-48641371D01*
X115806725Y-48358628D01*
X115810152Y-48350355D01*
X115814964Y-48347451D01*
X116419354Y-48160548D01*
X116428269Y-48161378D01*
G37*
G04 #@! TD.AperFunction*
G04 #@! TA.AperFunction,Conductor*
G36*
X109629644Y-54810152D02*
G01*
X109632549Y-54814968D01*
X109819451Y-55419352D01*
X109818621Y-55428269D01*
X109811730Y-55433987D01*
X109810588Y-55434278D01*
X109482315Y-55500532D01*
X109477685Y-55500532D01*
X109149411Y-55434278D01*
X109141980Y-55429282D01*
X109140257Y-55420494D01*
X109140542Y-55419372D01*
X109327451Y-54814968D01*
X109333169Y-54808077D01*
X109338629Y-54806725D01*
X109621371Y-54806725D01*
X109629644Y-54810152D01*
G37*
G04 #@! TD.AperFunction*
G04 #@! TA.AperFunction,Conductor*
G36*
X91887232Y-45436794D02*
G01*
X92073205Y-45622767D01*
X92076632Y-45631040D01*
X92075358Y-45636349D01*
X91786972Y-46202746D01*
X91780165Y-46208563D01*
X91771237Y-46207863D01*
X91770073Y-46207183D01*
X91491259Y-46022013D01*
X91487987Y-46018741D01*
X91302814Y-45739924D01*
X91301092Y-45731138D01*
X91306088Y-45723707D01*
X91307240Y-45723033D01*
X91873653Y-45434640D01*
X91882578Y-45433941D01*
X91887232Y-45436794D01*
G37*
G04 #@! TD.AperFunction*
G04 #@! TA.AperFunction,Conductor*
G36*
X110832344Y-42316075D02*
G01*
X110839774Y-42321071D01*
X110841594Y-42329307D01*
X110751515Y-42920200D01*
X110746881Y-42927862D01*
X110739949Y-42930137D01*
X110457256Y-42930137D01*
X110448983Y-42926710D01*
X110446775Y-42923638D01*
X110213547Y-42453642D01*
X110212940Y-42444708D01*
X110217504Y-42438729D01*
X110495949Y-42251720D01*
X110504723Y-42249953D01*
X110832344Y-42316075D01*
G37*
G04 #@! TD.AperFunction*
G04 #@! TA.AperFunction,Conductor*
G36*
X113428043Y-43661599D02*
G01*
X113433958Y-43668322D01*
X113434354Y-43669786D01*
X113500532Y-43997685D01*
X113500532Y-44002315D01*
X113434203Y-44330957D01*
X113429207Y-44338388D01*
X113420419Y-44340111D01*
X113419608Y-44339917D01*
X112815299Y-44172377D01*
X112808242Y-44166864D01*
X112806725Y-44161102D01*
X112806725Y-43878370D01*
X112810152Y-43870097D01*
X112814646Y-43867297D01*
X113419107Y-43661028D01*
X113428043Y-43661599D01*
G37*
G04 #@! TD.AperFunction*
G04 #@! TA.AperFunction,Conductor*
G36*
X96570771Y-39180787D02*
G01*
X97183275Y-39380000D01*
X97183275Y-39660000D01*
X96558282Y-39863275D01*
X96489000Y-39520000D01*
X96555684Y-39189596D01*
X96560679Y-39182167D01*
X96569467Y-39180444D01*
X96570771Y-39180787D01*
G37*
G04 #@! TD.AperFunction*
G04 #@! TA.AperFunction,Conductor*
G36*
X101991000Y-52270000D02*
G01*
X101921718Y-52613275D01*
X101296725Y-52410000D01*
X101296725Y-52130000D01*
X101921718Y-51926725D01*
X101991000Y-52270000D01*
G37*
G04 #@! TD.AperFunction*
G04 #@! TA.AperFunction,Conductor*
G36*
X106641239Y-54263427D02*
G01*
X106643299Y-54266213D01*
X106776065Y-54516232D01*
X106776919Y-54525146D01*
X106772255Y-54531432D01*
X106496523Y-54716619D01*
X106487745Y-54718387D01*
X106483477Y-54716619D01*
X106207744Y-54531432D01*
X106202786Y-54523974D01*
X106203934Y-54516232D01*
X106336701Y-54266213D01*
X106343607Y-54260513D01*
X106347034Y-54260000D01*
X106632966Y-54260000D01*
X106641239Y-54263427D01*
G37*
G04 #@! TD.AperFunction*
G04 #@! TA.AperFunction,Conductor*
G36*
X85991000Y-46270000D02*
G01*
X85921718Y-46613275D01*
X85296725Y-46410000D01*
X85296725Y-46130000D01*
X85921718Y-45926725D01*
X85991000Y-46270000D01*
G37*
G04 #@! TD.AperFunction*
G04 #@! TA.AperFunction,Conductor*
G36*
X85683275Y-46130000D02*
G01*
X85683275Y-46410000D01*
X85058282Y-46613275D01*
X84989000Y-46270000D01*
X85058282Y-45926725D01*
X85683275Y-46130000D01*
G37*
G04 #@! TD.AperFunction*
G04 #@! TA.AperFunction,Conductor*
G36*
X112873477Y-52157740D02*
G01*
X113433003Y-52452946D01*
X113438721Y-52459837D01*
X113437891Y-52468754D01*
X113437289Y-52469767D01*
X113252013Y-52748740D01*
X113248740Y-52752013D01*
X112969767Y-52937289D01*
X112960979Y-52939012D01*
X112953548Y-52934016D01*
X112952951Y-52933011D01*
X112657740Y-52373477D01*
X112656911Y-52364561D01*
X112659814Y-52359747D01*
X112859746Y-52159815D01*
X112868018Y-52156389D01*
X112873477Y-52157740D01*
G37*
G04 #@! TD.AperFunction*
G04 #@! TA.AperFunction,Conductor*
G36*
X108046451Y-49315983D02*
G01*
X108047053Y-49316996D01*
X108342258Y-49876521D01*
X108343088Y-49885438D01*
X108340183Y-49890254D01*
X108140254Y-50090183D01*
X108131981Y-50093610D01*
X108126521Y-50092258D01*
X107566996Y-49797053D01*
X107561278Y-49790162D01*
X107562108Y-49781245D01*
X107562703Y-49780242D01*
X107747989Y-49501255D01*
X107751255Y-49497989D01*
X108030233Y-49312709D01*
X108039020Y-49310987D01*
X108046451Y-49315983D01*
G37*
G04 #@! TD.AperFunction*
G04 #@! TA.AperFunction,Conductor*
G36*
X86333275Y-46201718D02*
G01*
X85990000Y-46271000D01*
X85646725Y-46201718D01*
X85860000Y-45576725D01*
X86140000Y-45576725D01*
X86333275Y-46201718D01*
G37*
G04 #@! TD.AperFunction*
G04 #@! TA.AperFunction,Conductor*
G36*
X89893275Y-53588282D02*
G01*
X89800000Y-54213275D01*
X89300000Y-54213275D01*
X89206725Y-53588282D01*
X89550000Y-53519000D01*
X89893275Y-53588282D01*
G37*
G04 #@! TD.AperFunction*
G04 #@! TA.AperFunction,Conductor*
G36*
X80683275Y-43520000D02*
G01*
X80683275Y-44020000D01*
X80058282Y-44113275D01*
X79989000Y-43770000D01*
X80058282Y-43426725D01*
X80683275Y-43520000D01*
G37*
G04 #@! TD.AperFunction*
G04 #@! TA.AperFunction,Conductor*
G36*
X80733275Y-43771532D02*
G01*
X80733275Y-44020000D01*
X80396725Y-43838282D01*
X80733275Y-43520000D01*
X80733275Y-43771532D01*
G37*
G04 #@! TD.AperFunction*
G04 #@! TA.AperFunction,Conductor*
G36*
X81491000Y-43770000D02*
G01*
X81421718Y-44113275D01*
X80796725Y-44020000D01*
X80796725Y-43520000D01*
X81421718Y-43426725D01*
X81491000Y-43770000D01*
G37*
G04 #@! TD.AperFunction*
G04 #@! TA.AperFunction,Conductor*
G36*
X106669237Y-54030152D02*
G01*
X106672284Y-54035468D01*
X106830146Y-54639740D01*
X106828922Y-54648610D01*
X106821783Y-54654017D01*
X106821141Y-54654166D01*
X106492315Y-54720532D01*
X106487685Y-54720532D01*
X106159975Y-54654392D01*
X106152544Y-54649396D01*
X106150821Y-54640608D01*
X106151268Y-54639000D01*
X106367226Y-54034488D01*
X106373236Y-54027851D01*
X106378244Y-54026725D01*
X106660964Y-54026725D01*
X106669237Y-54030152D01*
G37*
G04 #@! TD.AperFunction*
G04 #@! TA.AperFunction,Conductor*
G36*
X88708762Y-47332135D02*
G01*
X88709917Y-47332810D01*
X88988741Y-47517987D01*
X88992013Y-47521259D01*
X89177184Y-47800073D01*
X89178907Y-47808861D01*
X89173911Y-47816292D01*
X89172747Y-47816972D01*
X88606349Y-48105358D01*
X88597421Y-48106058D01*
X88592767Y-48103205D01*
X88406794Y-47917232D01*
X88403367Y-47908959D01*
X88404639Y-47903655D01*
X88693028Y-47337250D01*
X88699834Y-47331435D01*
X88708762Y-47332135D01*
G37*
G04 #@! TD.AperFunction*
G04 #@! TA.AperFunction,Conductor*
G36*
X111646775Y-50918924D02*
G01*
X111647736Y-50920680D01*
X111909233Y-51514180D01*
X111909433Y-51523132D01*
X111906799Y-51527170D01*
X111706915Y-51727054D01*
X111698642Y-51730481D01*
X111692435Y-51728699D01*
X111166858Y-51399803D01*
X111161663Y-51392509D01*
X111163147Y-51383678D01*
X111163269Y-51383488D01*
X111349108Y-51103668D01*
X111352374Y-51100402D01*
X111630557Y-50915650D01*
X111639344Y-50913928D01*
X111646775Y-50918924D01*
G37*
G04 #@! TD.AperFunction*
G04 #@! TA.AperFunction,Conductor*
G36*
X110649644Y-54810152D02*
G01*
X110652549Y-54814968D01*
X110839451Y-55419352D01*
X110838621Y-55428269D01*
X110831730Y-55433987D01*
X110830588Y-55434278D01*
X110502315Y-55500532D01*
X110497685Y-55500532D01*
X110169411Y-55434278D01*
X110161980Y-55429282D01*
X110160257Y-55420494D01*
X110160542Y-55419372D01*
X110347451Y-54814968D01*
X110353169Y-54808077D01*
X110358629Y-54806725D01*
X110641371Y-54806725D01*
X110649644Y-54810152D01*
G37*
G04 #@! TD.AperFunction*
G04 #@! TA.AperFunction,Conductor*
G36*
X97183275Y-40380000D02*
G01*
X97183275Y-40660000D01*
X96558282Y-40863275D01*
X96489000Y-40520000D01*
X96558282Y-40176725D01*
X97183275Y-40380000D01*
G37*
G04 #@! TD.AperFunction*
G04 #@! TA.AperFunction,Conductor*
G36*
X108140254Y-50409816D02*
G01*
X108340183Y-50609745D01*
X108343610Y-50618018D01*
X108342258Y-50623478D01*
X108047053Y-51183003D01*
X108040162Y-51188721D01*
X108031245Y-51187891D01*
X108030232Y-51187289D01*
X107751259Y-51002013D01*
X107747987Y-50998741D01*
X107562709Y-50719766D01*
X107560987Y-50710979D01*
X107565983Y-50703548D01*
X107566979Y-50702955D01*
X108126522Y-50407740D01*
X108135438Y-50406911D01*
X108140254Y-50409816D01*
G37*
G04 #@! TD.AperFunction*
G04 #@! TA.AperFunction,Conductor*
G36*
X81833275Y-43701718D02*
G01*
X81490000Y-43771000D01*
X81146725Y-43701718D01*
X81250000Y-43076725D01*
X81750000Y-43076725D01*
X81833275Y-43701718D01*
G37*
G04 #@! TD.AperFunction*
G04 #@! TA.AperFunction,Conductor*
G36*
X94814214Y-57493776D02*
G01*
X94495808Y-58020000D01*
X94495807Y-58020000D01*
X94487331Y-58034009D01*
X94480116Y-58039313D01*
X94471264Y-58037962D01*
X94470848Y-58037698D01*
X94444199Y-58020000D01*
X94240000Y-57884383D01*
X94191258Y-57852012D01*
X94187987Y-57848741D01*
X94003347Y-57570727D01*
X94001625Y-57561940D01*
X94006621Y-57554509D01*
X94008521Y-57553485D01*
X94616224Y-57295786D01*
X94814214Y-57493776D01*
G37*
G04 #@! TD.AperFunction*
G04 #@! TA.AperFunction,Conductor*
G36*
X95454153Y-57506558D02*
G01*
X95475513Y-57522370D01*
X95480124Y-57530047D01*
X95478298Y-57538247D01*
X95292013Y-57818740D01*
X95288740Y-57822013D01*
X95240000Y-57854383D01*
X94998986Y-58014450D01*
X94623004Y-57506558D01*
X94976558Y-57153004D01*
X95454153Y-57506558D01*
G37*
G04 #@! TD.AperFunction*
G04 #@! TA.AperFunction,Conductor*
G36*
X81831725Y-45088282D02*
G01*
X81925000Y-45013275D01*
X82425000Y-45013275D01*
X81831725Y-45088282D01*
G37*
G04 #@! TD.AperFunction*
G04 #@! TA.AperFunction,Conductor*
G36*
X82518275Y-45701718D02*
G01*
X82175000Y-45771000D01*
X81831725Y-45701718D01*
X81925000Y-45076725D01*
X82425000Y-45076725D01*
X82518275Y-45701718D01*
G37*
G04 #@! TD.AperFunction*
G04 #@! TA.AperFunction,Conductor*
G36*
X82518275Y-44338282D02*
G01*
X82425000Y-44963275D01*
X81925000Y-44963275D01*
X81831725Y-44338282D01*
X82175000Y-44269000D01*
X82518275Y-44338282D01*
G37*
G04 #@! TD.AperFunction*
G04 #@! TA.AperFunction,Conductor*
G36*
X117786292Y-52086088D02*
G01*
X117786972Y-52087252D01*
X118028191Y-52561014D01*
X118075358Y-52653650D01*
X118076058Y-52662578D01*
X118073205Y-52667232D01*
X117887232Y-52853205D01*
X117878959Y-52856632D01*
X117873651Y-52855358D01*
X117307252Y-52566972D01*
X117301435Y-52560165D01*
X117302135Y-52551237D01*
X117302805Y-52550089D01*
X117487989Y-52271255D01*
X117491255Y-52267989D01*
X117770075Y-52082814D01*
X117778861Y-52081092D01*
X117786292Y-52086088D01*
G37*
G04 #@! TD.AperFunction*
G04 #@! TA.AperFunction,Conductor*
G36*
X118726026Y-52484928D02*
G01*
X118986349Y-52874191D01*
X118988099Y-52882973D01*
X118986338Y-52887215D01*
X118726102Y-53274987D01*
X118718646Y-53279947D01*
X118711494Y-53279095D01*
X117966284Y-52936038D01*
X117960202Y-52929466D01*
X117960549Y-52920517D01*
X117962901Y-52917140D01*
X118147482Y-52732559D01*
X118150993Y-52730146D01*
X118711546Y-52480741D01*
X118720496Y-52480510D01*
X118726026Y-52484928D01*
G37*
G04 #@! TD.AperFunction*
G04 #@! TA.AperFunction,Conductor*
G36*
X89525775Y-54612500D02*
G01*
X89525775Y-55112500D01*
X88900782Y-55205775D01*
X88831500Y-54862500D01*
X88900782Y-54519225D01*
X89525775Y-54612500D01*
G37*
G04 #@! TD.AperFunction*
G04 #@! TA.AperFunction,Conductor*
G36*
X87583275Y-46201718D02*
G01*
X87240000Y-46271000D01*
X86896725Y-46201718D01*
X87130000Y-45576725D01*
X87410000Y-45576725D01*
X87583275Y-46201718D01*
G37*
G04 #@! TD.AperFunction*
G04 #@! TA.AperFunction,Conductor*
G36*
X104168156Y-45281484D02*
G01*
X104173973Y-45288291D01*
X104174316Y-45289595D01*
X104240532Y-45617682D01*
X104240532Y-45622312D01*
X104174316Y-45950398D01*
X104169320Y-45957829D01*
X104160532Y-45959552D01*
X104159228Y-45959209D01*
X103554806Y-45762625D01*
X103547999Y-45756808D01*
X103546725Y-45751499D01*
X103546725Y-45488494D01*
X103550152Y-45480221D01*
X103554803Y-45477369D01*
X104159228Y-45280784D01*
X104168156Y-45281484D01*
G37*
G04 #@! TD.AperFunction*
G04 #@! TA.AperFunction,Conductor*
G36*
X108968754Y-49312108D02*
G01*
X108969765Y-49312709D01*
X109248741Y-49497987D01*
X109252013Y-49501259D01*
X109437289Y-49780232D01*
X109439012Y-49789020D01*
X109434016Y-49796451D01*
X109433003Y-49797053D01*
X108873478Y-50092258D01*
X108864561Y-50093088D01*
X108859745Y-50090183D01*
X108659816Y-49890254D01*
X108656389Y-49881981D01*
X108657740Y-49876523D01*
X108952947Y-49316994D01*
X108959837Y-49311278D01*
X108968754Y-49312108D01*
G37*
G04 #@! TD.AperFunction*
G04 #@! TA.AperFunction,Conductor*
G36*
X82821999Y-44200000D02*
G01*
X82821999Y-44700000D01*
X82106718Y-44613275D01*
X82174000Y-44270000D01*
X82369450Y-43978986D01*
X82821999Y-44200000D01*
G37*
G04 #@! TD.AperFunction*
G04 #@! TA.AperFunction,Conductor*
G36*
X99421236Y-56970798D02*
G01*
X99607165Y-57156727D01*
X99610592Y-57165000D01*
X99608910Y-57171045D01*
X99287326Y-57703988D01*
X99280117Y-57709301D01*
X99271263Y-57707961D01*
X99270835Y-57707689D01*
X98991259Y-57522013D01*
X98987987Y-57518741D01*
X98803338Y-57240713D01*
X98801616Y-57231926D01*
X98806612Y-57224495D01*
X98808501Y-57223476D01*
X99408385Y-56968304D01*
X99417338Y-56968220D01*
X99421236Y-56970798D01*
G37*
G04 #@! TD.AperFunction*
G04 #@! TA.AperFunction,Conductor*
G36*
X100214575Y-50857108D02*
G01*
X100214575Y-51137108D01*
X99589582Y-51340383D01*
X99520300Y-50997108D01*
X99589582Y-50653833D01*
X100214575Y-50857108D01*
G37*
G04 #@! TD.AperFunction*
G04 #@! TA.AperFunction,Conductor*
G36*
X111428156Y-54161487D02*
G01*
X111433973Y-54168294D01*
X111434316Y-54169598D01*
X111500532Y-54497685D01*
X111500532Y-54502315D01*
X111434240Y-54830774D01*
X111429244Y-54838205D01*
X111420456Y-54839928D01*
X111419479Y-54839686D01*
X110815133Y-54662465D01*
X110808158Y-54656849D01*
X110806725Y-54651238D01*
X110806725Y-54368497D01*
X110810152Y-54360224D01*
X110814803Y-54357372D01*
X111419228Y-54160787D01*
X111428156Y-54161487D01*
G37*
G04 #@! TD.AperFunction*
G04 #@! TA.AperFunction,Conductor*
G36*
X115830214Y-46565646D02*
G01*
X115837644Y-46570641D01*
X115839367Y-46579429D01*
X115838971Y-46580893D01*
X115632703Y-47185354D01*
X115626788Y-47192077D01*
X115621630Y-47193275D01*
X115338898Y-47193275D01*
X115330625Y-47189848D01*
X115327623Y-47184701D01*
X115160082Y-46580391D01*
X115161174Y-46571503D01*
X115168231Y-46565990D01*
X115169039Y-46565796D01*
X115497686Y-46499467D01*
X115502314Y-46499467D01*
X115830214Y-46565646D01*
G37*
G04 #@! TD.AperFunction*
G04 #@! TA.AperFunction,Conductor*
G36*
X86333275Y-46338282D02*
G01*
X86241648Y-46620000D01*
X86132628Y-46955194D01*
X86126811Y-46962001D01*
X86121502Y-46963275D01*
X85858498Y-46963275D01*
X85850225Y-46959848D01*
X85847372Y-46955194D01*
X85738352Y-46620000D01*
X85646725Y-46338282D01*
X85990000Y-46269000D01*
X86333275Y-46338282D01*
G37*
G04 #@! TD.AperFunction*
G04 #@! TA.AperFunction,Conductor*
G36*
X106008172Y-45255418D02*
G01*
X106014427Y-45258669D01*
X106213624Y-45457866D01*
X106217051Y-45466139D01*
X106213624Y-45474412D01*
X106211626Y-45476014D01*
X105694073Y-45804898D01*
X105685253Y-45806443D01*
X105678088Y-45801550D01*
X105647352Y-45755829D01*
X105492012Y-45524752D01*
X105490241Y-45515978D01*
X105556038Y-45187913D01*
X105561024Y-45180478D01*
X105569523Y-45178691D01*
X106008172Y-45255418D01*
G37*
G04 #@! TD.AperFunction*
G04 #@! TA.AperFunction,Conductor*
G36*
X110835774Y-50565115D02*
G01*
X111409629Y-50755889D01*
X111416399Y-50761751D01*
X111417420Y-50769242D01*
X111353056Y-51097627D01*
X111348101Y-51105087D01*
X111348059Y-51105115D01*
X111070714Y-51289797D01*
X111061928Y-51291531D01*
X111054491Y-51286544D01*
X111053972Y-51285687D01*
X111004442Y-51195422D01*
X111002999Y-51189794D01*
X111002999Y-51121599D01*
X110987740Y-51044883D01*
X110987739Y-51044882D01*
X110929612Y-50957888D01*
X110929611Y-50957887D01*
X110844344Y-50900913D01*
X110840587Y-50896813D01*
X110821830Y-50862629D01*
X110820387Y-50857001D01*
X110820387Y-50576219D01*
X110823814Y-50567946D01*
X110832087Y-50564519D01*
X110835774Y-50565115D01*
G37*
G04 #@! TD.AperFunction*
G04 #@! TA.AperFunction,Conductor*
G36*
X82434450Y-50978986D02*
G01*
X82240707Y-51270707D01*
X81948986Y-51464450D01*
X81573004Y-50956558D01*
X81926558Y-50603004D01*
X82434450Y-50978986D01*
G37*
G04 #@! TD.AperFunction*
G04 #@! TA.AperFunction,Conductor*
G36*
X82933275Y-51870000D02*
G01*
X82933275Y-52170000D01*
X82308282Y-52363275D01*
X82239000Y-52020000D01*
X82308282Y-51676725D01*
X82933275Y-51870000D01*
G37*
G04 #@! TD.AperFunction*
G04 #@! TA.AperFunction,Conductor*
G36*
X99653441Y-45135989D02*
G01*
X99659430Y-45142647D01*
X99660099Y-45146547D01*
X99660099Y-45407256D01*
X99658880Y-45412456D01*
X99434476Y-45864732D01*
X99427729Y-45870620D01*
X99418795Y-45870013D01*
X99417515Y-45869272D01*
X99323761Y-45806842D01*
X99140616Y-45684887D01*
X99135629Y-45677450D01*
X99135619Y-45677399D01*
X99131953Y-45658695D01*
X99071217Y-45348820D01*
X99072989Y-45340046D01*
X99078798Y-45335542D01*
X99644499Y-45135516D01*
X99653441Y-45135989D01*
G37*
G04 #@! TD.AperFunction*
G04 #@! TA.AperFunction,Conductor*
G36*
X91383275Y-54612500D02*
G01*
X91383275Y-55112500D01*
X90990000Y-55171193D01*
X90989999Y-55171193D01*
X90769278Y-55204133D01*
X90760590Y-55201965D01*
X90756082Y-55194876D01*
X90756081Y-55194870D01*
X90720788Y-55020000D01*
X90689000Y-54862500D01*
X90758282Y-54519225D01*
X91383275Y-54612500D01*
G37*
G04 #@! TD.AperFunction*
G04 #@! TA.AperFunction,Conductor*
G36*
X91833275Y-53588282D02*
G01*
X91740000Y-54213275D01*
X91240000Y-54213275D01*
X91146725Y-53588282D01*
X91490000Y-53519000D01*
X91833275Y-53588282D01*
G37*
G04 #@! TD.AperFunction*
G04 #@! TA.AperFunction,Conductor*
G36*
X95889775Y-51560152D02*
G01*
X95892628Y-51564806D01*
X95908926Y-51614915D01*
X95909500Y-51618534D01*
X95909500Y-51817608D01*
X95932703Y-51904203D01*
X95977533Y-51981851D01*
X96000522Y-52004840D01*
X96001977Y-52006613D01*
X96017000Y-52029096D01*
X96017004Y-52029101D01*
X96024981Y-52037080D01*
X96026839Y-52039502D01*
X96070716Y-52115497D01*
X96071885Y-52118319D01*
X96085874Y-52170527D01*
X96084705Y-52179405D01*
X96077601Y-52184856D01*
X96076888Y-52185024D01*
X95752314Y-52250532D01*
X95747684Y-52250532D01*
X95419598Y-52184316D01*
X95412167Y-52179320D01*
X95410444Y-52170532D01*
X95410787Y-52169228D01*
X95446408Y-52059706D01*
X95449254Y-52055063D01*
X95522468Y-51981850D01*
X95567295Y-51904206D01*
X95590499Y-51817608D01*
X95590500Y-51817608D01*
X95590500Y-51618534D01*
X95591074Y-51614915D01*
X95607372Y-51564806D01*
X95613189Y-51557999D01*
X95618498Y-51556725D01*
X95881502Y-51556725D01*
X95889775Y-51560152D01*
G37*
G04 #@! TD.AperFunction*
G04 #@! TA.AperFunction,Conductor*
G36*
X110541178Y-51327432D02*
G01*
X110543280Y-51330297D01*
X110786174Y-51796266D01*
X110786959Y-51805186D01*
X110782322Y-51811387D01*
X110504052Y-51998278D01*
X110495274Y-52000046D01*
X110495214Y-52000034D01*
X110167493Y-51933891D01*
X110160062Y-51928895D01*
X110158216Y-51920834D01*
X110174014Y-51805550D01*
X110238614Y-51334116D01*
X110243133Y-51326385D01*
X110250206Y-51324005D01*
X110532905Y-51324005D01*
X110541178Y-51327432D01*
G37*
G04 #@! TD.AperFunction*
G04 #@! TA.AperFunction,Conductor*
G36*
X99070504Y-54180309D02*
G01*
X99674867Y-54357534D01*
X99681842Y-54363150D01*
X99683275Y-54368761D01*
X99683275Y-54631755D01*
X99679848Y-54640028D01*
X99675511Y-54642773D01*
X99071012Y-54858727D01*
X99062068Y-54858283D01*
X99056058Y-54851645D01*
X99055609Y-54850031D01*
X98989467Y-54522313D01*
X98989467Y-54517685D01*
X99055759Y-54189225D01*
X99060755Y-54181794D01*
X99069543Y-54180071D01*
X99070504Y-54180309D01*
G37*
G04 #@! TD.AperFunction*
G04 #@! TA.AperFunction,Conductor*
G36*
X105206353Y-46276154D02*
G01*
X105206964Y-46276593D01*
X105634523Y-46605488D01*
X105638991Y-46613248D01*
X105639089Y-46614761D01*
X105639089Y-46897204D01*
X105635662Y-46905477D01*
X105627389Y-46908904D01*
X105627294Y-46908904D01*
X104948441Y-46903389D01*
X104940196Y-46899895D01*
X104936836Y-46891594D01*
X104937053Y-46889448D01*
X105001171Y-46562311D01*
X105002938Y-46558043D01*
X105190119Y-46279342D01*
X105197575Y-46274386D01*
X105206353Y-46276154D01*
G37*
G04 #@! TD.AperFunction*
G04 #@! TA.AperFunction,Conductor*
G36*
X93918156Y-44342076D02*
G01*
X93923973Y-44348883D01*
X93924316Y-44350187D01*
X93990532Y-44678274D01*
X93990532Y-44682904D01*
X93924316Y-45010990D01*
X93919320Y-45018421D01*
X93910532Y-45020144D01*
X93909228Y-45019801D01*
X93304806Y-44823217D01*
X93297999Y-44817400D01*
X93296725Y-44812091D01*
X93296725Y-44549086D01*
X93300152Y-44540813D01*
X93304803Y-44537961D01*
X93909228Y-44341376D01*
X93918156Y-44342076D01*
G37*
G04 #@! TD.AperFunction*
G04 #@! TA.AperFunction,Conductor*
G36*
X87418156Y-54681487D02*
G01*
X87423973Y-54688294D01*
X87424316Y-54689598D01*
X87490532Y-55017685D01*
X87490532Y-55022315D01*
X87424316Y-55350401D01*
X87419320Y-55357832D01*
X87410532Y-55359555D01*
X87409228Y-55359212D01*
X86804806Y-55162628D01*
X86797999Y-55156811D01*
X86796725Y-55151502D01*
X86796725Y-54888497D01*
X86800152Y-54880224D01*
X86804803Y-54877372D01*
X87409228Y-54680787D01*
X87418156Y-54681487D01*
G37*
G04 #@! TD.AperFunction*
G04 #@! TA.AperFunction,Conductor*
G36*
X99277332Y-44992337D02*
G01*
X99280185Y-44996991D01*
X99476769Y-45601413D01*
X99476069Y-45610341D01*
X99469262Y-45616158D01*
X99467958Y-45616501D01*
X99139872Y-45682717D01*
X99135242Y-45682717D01*
X98807155Y-45616501D01*
X98799724Y-45611505D01*
X98798001Y-45602717D01*
X98798344Y-45601413D01*
X98994929Y-44996991D01*
X99000746Y-44990184D01*
X99006055Y-44988910D01*
X99269059Y-44988910D01*
X99277332Y-44992337D01*
G37*
G04 #@! TD.AperFunction*
G04 #@! TA.AperFunction,Conductor*
G36*
X97889775Y-51560152D02*
G01*
X97892628Y-51564806D01*
X98089212Y-52169228D01*
X98088512Y-52178156D01*
X98081705Y-52183973D01*
X98080401Y-52184316D01*
X97752315Y-52250532D01*
X97747685Y-52250532D01*
X97419598Y-52184316D01*
X97412167Y-52179320D01*
X97410444Y-52170532D01*
X97410787Y-52169228D01*
X97607372Y-51564806D01*
X97613189Y-51557999D01*
X97618498Y-51556725D01*
X97881502Y-51556725D01*
X97889775Y-51560152D01*
G37*
G04 #@! TD.AperFunction*
G04 #@! TA.AperFunction,Conductor*
G36*
X107980254Y-54529816D02*
G01*
X108180183Y-54729745D01*
X108183610Y-54738018D01*
X108182258Y-54743478D01*
X107887053Y-55303003D01*
X107880162Y-55308721D01*
X107871245Y-55307891D01*
X107870232Y-55307289D01*
X107591259Y-55122013D01*
X107587987Y-55118741D01*
X107402709Y-54839766D01*
X107400987Y-54830979D01*
X107405983Y-54823548D01*
X107406979Y-54822955D01*
X107966522Y-54527740D01*
X107975438Y-54526911D01*
X107980254Y-54529816D01*
G37*
G04 #@! TD.AperFunction*
G04 #@! TA.AperFunction,Conductor*
G36*
X110703147Y-51717018D02*
G01*
X110704470Y-51718052D01*
X111187707Y-52155266D01*
X111191542Y-52163358D01*
X111188533Y-52171792D01*
X111188130Y-52172215D01*
X110988409Y-52371936D01*
X110980136Y-52375363D01*
X110979452Y-52375343D01*
X110445098Y-52344058D01*
X110437039Y-52340153D01*
X110434102Y-52331694D01*
X110434299Y-52330133D01*
X110498839Y-52001603D01*
X110500607Y-51997337D01*
X110686911Y-51720200D01*
X110694370Y-51715246D01*
X110703147Y-51717018D01*
G37*
G04 #@! TD.AperFunction*
G04 #@! TA.AperFunction,Conductor*
G36*
X91491000Y-53520000D02*
G01*
X91421718Y-53863275D01*
X90796725Y-53770000D01*
X90796725Y-53270000D01*
X91421718Y-53176725D01*
X91491000Y-53520000D01*
G37*
G04 #@! TD.AperFunction*
G04 #@! TA.AperFunction,Conductor*
G36*
X91433275Y-53270000D02*
G01*
X91433275Y-53770000D01*
X90808282Y-53863275D01*
X90739000Y-53520000D01*
X90808282Y-53176725D01*
X91433275Y-53270000D01*
G37*
G04 #@! TD.AperFunction*
G04 #@! TA.AperFunction,Conductor*
G36*
X112123477Y-53157740D02*
G01*
X112683003Y-53452946D01*
X112688721Y-53459837D01*
X112687891Y-53468754D01*
X112687289Y-53469767D01*
X112502013Y-53748740D01*
X112498740Y-53752013D01*
X112219767Y-53937289D01*
X112210979Y-53939012D01*
X112203548Y-53934016D01*
X112202951Y-53933011D01*
X111907740Y-53373477D01*
X111906911Y-53364561D01*
X111909814Y-53359747D01*
X112109746Y-53159815D01*
X112118018Y-53156389D01*
X112123477Y-53157740D01*
G37*
G04 #@! TD.AperFunction*
G04 #@! TA.AperFunction,Conductor*
G36*
X104604391Y-48503572D02*
G01*
X104605564Y-48508678D01*
X104605564Y-48767947D01*
X104604865Y-48771930D01*
X104459591Y-49173143D01*
X104453552Y-49179756D01*
X104446314Y-49180636D01*
X104116670Y-49115255D01*
X104109221Y-49110285D01*
X104109202Y-49110256D01*
X103925862Y-48834451D01*
X103924136Y-48825664D01*
X103929129Y-48818230D01*
X103930487Y-48817454D01*
X104588760Y-48498150D01*
X104597697Y-48497624D01*
X104604391Y-48503572D01*
G37*
G04 #@! TD.AperFunction*
G04 #@! TA.AperFunction,Conductor*
G36*
X92070771Y-50621787D02*
G01*
X92675195Y-50818372D01*
X92682001Y-50824188D01*
X92683275Y-50829497D01*
X92683275Y-51092502D01*
X92679848Y-51100775D01*
X92675194Y-51103628D01*
X92070771Y-51300212D01*
X92061843Y-51299512D01*
X92056026Y-51292705D01*
X92055685Y-51291412D01*
X91989467Y-50963313D01*
X91989467Y-50958685D01*
X92055684Y-50630596D01*
X92060679Y-50623167D01*
X92069467Y-50621444D01*
X92070771Y-50621787D01*
G37*
G04 #@! TD.AperFunction*
G04 #@! TA.AperFunction,Conductor*
G36*
X105092614Y-49685341D02*
G01*
X105096931Y-49690621D01*
X105251860Y-50067864D01*
X105252737Y-50072309D01*
X105252737Y-50332016D01*
X105249310Y-50340289D01*
X105241037Y-50343716D01*
X105236296Y-50342713D01*
X104568232Y-50046634D01*
X104562057Y-50040149D01*
X104562276Y-50031196D01*
X104563222Y-50029472D01*
X104746306Y-49754051D01*
X104753738Y-49749060D01*
X105083834Y-49683590D01*
X105092614Y-49685341D01*
G37*
G04 #@! TD.AperFunction*
G04 #@! TA.AperFunction,Conductor*
G36*
X99302068Y-46778728D02*
G01*
X99302468Y-46779287D01*
X99488278Y-47055947D01*
X99490046Y-47064725D01*
X99490034Y-47064785D01*
X99423657Y-47393666D01*
X99418661Y-47401097D01*
X99411918Y-47403048D01*
X98858573Y-47390264D01*
X98850381Y-47386647D01*
X98847143Y-47378567D01*
X98847143Y-47115800D01*
X98850570Y-47107527D01*
X98851752Y-47106494D01*
X98909525Y-47062557D01*
X98914326Y-47060397D01*
X98915117Y-47060240D01*
X99002112Y-47002112D01*
X99014569Y-46983467D01*
X99017200Y-46980671D01*
X99285673Y-46776496D01*
X99294332Y-46774217D01*
X99302068Y-46778728D01*
G37*
G04 #@! TD.AperFunction*
G04 #@! TA.AperFunction,Conductor*
G36*
X83079214Y-40161224D02*
G01*
X82881224Y-40359214D01*
X82295550Y-40061014D01*
X82489293Y-39769293D01*
X82781014Y-39575550D01*
X83079214Y-40161224D01*
G37*
G04 #@! TD.AperFunction*
G04 #@! TA.AperFunction,Conductor*
G36*
X96359989Y-51681117D02*
G01*
X96922877Y-51972985D01*
X96928644Y-51979836D01*
X96927878Y-51988758D01*
X96927237Y-51989845D01*
X96742013Y-52268740D01*
X96738740Y-52272013D01*
X96460007Y-52457129D01*
X96451219Y-52458852D01*
X96443788Y-52453856D01*
X96443073Y-52452622D01*
X96295189Y-52156801D01*
X96294363Y-52154623D01*
X96262984Y-52037515D01*
X96262983Y-52037514D01*
X96262983Y-52037512D01*
X96190511Y-51911988D01*
X96190507Y-51911983D01*
X96162316Y-51883792D01*
X96158889Y-51875519D01*
X96162316Y-51867246D01*
X96346331Y-51683230D01*
X96354603Y-51679804D01*
X96359989Y-51681117D01*
G37*
G04 #@! TD.AperFunction*
G04 #@! TA.AperFunction,Conductor*
G36*
X89320402Y-50597779D02*
G01*
X89327832Y-50602775D01*
X89329555Y-50611563D01*
X89329212Y-50612867D01*
X89132628Y-51217290D01*
X89126811Y-51224097D01*
X89121502Y-51225371D01*
X88858498Y-51225371D01*
X88850225Y-51221944D01*
X88847372Y-51217290D01*
X88650787Y-50612867D01*
X88651487Y-50603939D01*
X88658294Y-50598122D01*
X88659583Y-50597782D01*
X88987686Y-50531563D01*
X88992314Y-50531563D01*
X89320402Y-50597779D01*
G37*
G04 #@! TD.AperFunction*
G04 #@! TA.AperFunction,Conductor*
G36*
X99442347Y-41181487D02*
G01*
X99448164Y-41188294D01*
X99448507Y-41189598D01*
X99514723Y-41517685D01*
X99514723Y-41522315D01*
X99448507Y-41850401D01*
X99443511Y-41857832D01*
X99434723Y-41859555D01*
X99433419Y-41859212D01*
X98828997Y-41662628D01*
X98822190Y-41656811D01*
X98820916Y-41651502D01*
X98820916Y-41388497D01*
X98824343Y-41380224D01*
X98828994Y-41377372D01*
X99433419Y-41180787D01*
X99442347Y-41181487D01*
G37*
G04 #@! TD.AperFunction*
G04 #@! TA.AperFunction,Conductor*
G36*
X90280402Y-50585683D02*
G01*
X90287832Y-50590679D01*
X90289555Y-50599467D01*
X90289212Y-50600771D01*
X90092628Y-51205194D01*
X90086811Y-51212001D01*
X90081502Y-51213275D01*
X89818498Y-51213275D01*
X89810225Y-51209848D01*
X89807372Y-51205194D01*
X89610787Y-50600771D01*
X89611487Y-50591843D01*
X89618294Y-50586026D01*
X89619583Y-50585686D01*
X89947686Y-50519467D01*
X89952314Y-50519467D01*
X90280402Y-50585683D01*
G37*
G04 #@! TD.AperFunction*
G04 #@! TA.AperFunction,Conductor*
G36*
X101708337Y-55774876D02*
G01*
X101710064Y-55777076D01*
X102025214Y-56296000D01*
X102026580Y-56304850D01*
X102021741Y-56311783D01*
X101744754Y-56497986D01*
X101735977Y-56499758D01*
X101735926Y-56499748D01*
X101408515Y-56434082D01*
X101401078Y-56429095D01*
X101399344Y-56420309D01*
X101399400Y-56420047D01*
X101503587Y-55965605D01*
X101506716Y-55959951D01*
X101691792Y-55774875D01*
X101700064Y-55771449D01*
X101708337Y-55774876D01*
G37*
G04 #@! TD.AperFunction*
G04 #@! TA.AperFunction,Conductor*
G36*
X84570771Y-54680787D02*
G01*
X85175195Y-54877372D01*
X85182001Y-54883188D01*
X85183275Y-54888497D01*
X85183275Y-55151502D01*
X85179848Y-55159775D01*
X85175194Y-55162628D01*
X84570771Y-55359212D01*
X84561843Y-55358512D01*
X84556026Y-55351705D01*
X84555685Y-55350412D01*
X84489467Y-55022313D01*
X84489467Y-55017685D01*
X84555684Y-54689596D01*
X84560679Y-54682167D01*
X84569467Y-54680444D01*
X84570771Y-54680787D01*
G37*
G04 #@! TD.AperFunction*
G04 #@! TA.AperFunction,Conductor*
G36*
X98708560Y-56001925D02*
G01*
X98986940Y-56187297D01*
X98991927Y-56194734D01*
X98991937Y-56194785D01*
X99056046Y-56521868D01*
X99054274Y-56530645D01*
X99046889Y-56535585D01*
X98447441Y-56657155D01*
X98438652Y-56655440D01*
X98433649Y-56648013D01*
X98433416Y-56645688D01*
X98433416Y-56383649D01*
X98435489Y-56376999D01*
X98692450Y-56005011D01*
X98699970Y-56000154D01*
X98708560Y-56001925D01*
G37*
G04 #@! TD.AperFunction*
G04 #@! TA.AperFunction,Conductor*
G36*
X96314775Y-56830152D02*
G01*
X96317628Y-56834806D01*
X96514212Y-57439228D01*
X96513512Y-57448156D01*
X96506705Y-57453973D01*
X96505401Y-57454316D01*
X96177315Y-57520532D01*
X96172685Y-57520532D01*
X95844598Y-57454316D01*
X95837167Y-57449320D01*
X95835444Y-57440532D01*
X95835787Y-57439228D01*
X96032372Y-56834806D01*
X96038189Y-56827999D01*
X96043498Y-56826725D01*
X96306502Y-56826725D01*
X96314775Y-56830152D01*
G37*
G04 #@! TD.AperFunction*
M02*
