G04 #@! TF.GenerationSoftware,KiCad,Pcbnew,9.0.0*
G04 #@! TF.CreationDate,2025-04-06T23:20:39+02:00*
G04 #@! TF.ProjectId,RF-to-USB,52462d74-6f2d-4555-9342-2e6b69636164,rev?*
G04 #@! TF.SameCoordinates,Original*
G04 #@! TF.FileFunction,Legend,Top*
G04 #@! TF.FilePolarity,Positive*
%FSLAX46Y46*%
G04 Gerber Fmt 4.6, Leading zero omitted, Abs format (unit mm)*
G04 Created by KiCad (PCBNEW 9.0.0) date 2025-04-06 23:20:39*
%MOMM*%
%LPD*%
G01*
G04 APERTURE LIST*
G04 Aperture macros list*
%AMRoundRect*
0 Rectangle with rounded corners*
0 $1 Rounding radius*
0 $2 $3 $4 $5 $6 $7 $8 $9 X,Y pos of 4 corners*
0 Add a 4 corners polygon primitive as box body*
4,1,4,$2,$3,$4,$5,$6,$7,$8,$9,$2,$3,0*
0 Add four circle primitives for the rounded corners*
1,1,$1+$1,$2,$3*
1,1,$1+$1,$4,$5*
1,1,$1+$1,$6,$7*
1,1,$1+$1,$8,$9*
0 Add four rect primitives between the rounded corners*
20,1,$1+$1,$2,$3,$4,$5,0*
20,1,$1+$1,$4,$5,$6,$7,0*
20,1,$1+$1,$6,$7,$8,$9,0*
20,1,$1+$1,$8,$9,$2,$3,0*%
G04 Aperture macros list end*
%ADD10C,0.200000*%
%ADD11C,0.300000*%
%ADD12C,0.100000*%
%ADD13C,0.350000*%
%ADD14C,0.120000*%
%ADD15RoundRect,0.060000X-0.940000X-0.140000X0.940000X-0.140000X0.940000X0.140000X-0.940000X0.140000X0*%
%ADD16C,1.100000*%
%ADD17RoundRect,0.300000X0.700000X0.300000X-0.700000X0.300000X-0.700000X-0.300000X0.700000X-0.300000X0*%
%ADD18O,3.200000X1.300000*%
%ADD19RoundRect,0.210000X-0.590000X-0.490000X0.590000X-0.490000X0.590000X0.490000X-0.590000X0.490000X0*%
%ADD20RoundRect,0.237500X-0.287500X-0.237500X0.287500X-0.237500X0.287500X0.237500X-0.287500X0.237500X0*%
%ADD21R,5.080000X2.420000*%
G04 APERTURE END LIST*
D10*
G36*
X94421043Y-56075038D02*
G01*
X94466406Y-56088301D01*
X94507058Y-56110093D01*
X94540851Y-56139152D01*
X94567901Y-56174917D01*
X94588430Y-56217896D01*
X94600891Y-56265379D01*
X94605234Y-56319599D01*
X94601108Y-56371511D01*
X94589232Y-56417339D01*
X94569965Y-56458133D01*
X94542835Y-56493574D01*
X94507649Y-56522132D01*
X94463084Y-56544156D01*
X94616420Y-56852000D01*
X94427278Y-56852000D01*
X94290698Y-56564379D01*
X94168723Y-56564379D01*
X94168723Y-56852000D01*
X93998583Y-56852000D01*
X93998583Y-56420569D01*
X94168723Y-56420569D01*
X94347802Y-56420569D01*
X94382832Y-56415414D01*
X94407641Y-56401323D01*
X94419409Y-56387100D01*
X94426797Y-56368664D01*
X94429477Y-56344707D01*
X94429477Y-56296347D01*
X94426797Y-56272391D01*
X94419409Y-56253954D01*
X94407641Y-56239732D01*
X94382832Y-56225640D01*
X94347802Y-56220485D01*
X94168723Y-56220485D01*
X94168723Y-56420569D01*
X93998583Y-56420569D01*
X93998583Y-56070422D01*
X94369051Y-56070422D01*
X94421043Y-56075038D01*
G37*
G36*
X94679532Y-57031176D02*
G01*
X94803363Y-56840374D01*
X94680948Y-56656019D01*
X94801213Y-56656019D01*
X94871409Y-56773939D01*
X94874242Y-56773939D01*
X94942288Y-56656019D01*
X95053956Y-56656019D01*
X94929392Y-56843939D01*
X95054689Y-57031176D01*
X94934375Y-57031176D01*
X94862079Y-56909006D01*
X94859197Y-56909006D01*
X94789783Y-57031176D01*
X94679532Y-57031176D01*
G37*
G36*
X94374718Y-53720485D02*
G01*
X94374718Y-54352000D01*
X94204578Y-54352000D01*
X94204578Y-53720485D01*
X93993064Y-53720485D01*
X93993064Y-53570422D01*
X94586232Y-53570422D01*
X94586232Y-53720485D01*
X94374718Y-53720485D01*
G37*
G36*
X94629121Y-54531176D02*
G01*
X94752952Y-54340374D01*
X94630537Y-54156019D01*
X94750802Y-54156019D01*
X94820998Y-54273939D01*
X94823831Y-54273939D01*
X94891877Y-54156019D01*
X95003545Y-54156019D01*
X94878981Y-54343939D01*
X95004278Y-54531176D01*
X94883964Y-54531176D01*
X94811668Y-54409006D01*
X94808786Y-54409006D01*
X94739372Y-54531176D01*
X94629121Y-54531176D01*
G37*
D11*
G36*
X110499636Y-54879986D02*
G01*
X110552356Y-54909931D01*
X110577363Y-54940154D01*
X110593063Y-54979331D01*
X110598756Y-55030239D01*
X110598756Y-55133004D01*
X110593063Y-55183912D01*
X110577363Y-55223089D01*
X110552356Y-55253312D01*
X110499636Y-55283257D01*
X110425198Y-55294211D01*
X110044655Y-55294211D01*
X110044655Y-54869033D01*
X110425198Y-54869033D01*
X110499636Y-54879986D01*
G37*
G36*
X118083287Y-55537065D02*
G01*
X118130717Y-55565760D01*
X118161330Y-55611210D01*
X118172342Y-55675791D01*
X118172342Y-55756342D01*
X118161330Y-55820924D01*
X118130717Y-55866374D01*
X118083287Y-55895069D01*
X118017676Y-55905404D01*
X117601529Y-55905404D01*
X117601529Y-55526730D01*
X118017676Y-55526730D01*
X118083287Y-55537065D01*
G37*
G36*
X118025845Y-54866531D02*
G01*
X118072380Y-54896540D01*
X118102137Y-54943389D01*
X118112863Y-55009167D01*
X118112863Y-55080999D01*
X118102140Y-55146794D01*
X118072380Y-55193729D01*
X118025854Y-55223659D01*
X117960688Y-55234420D01*
X117601529Y-55234420D01*
X117601529Y-54855746D01*
X117960688Y-54855746D01*
X118025845Y-54866531D01*
G37*
G36*
X118736999Y-56426463D02*
G01*
X109494219Y-56426463D01*
X109494219Y-54869033D01*
X109683108Y-54869033D01*
X109683108Y-55294211D01*
X109683108Y-56211001D01*
X110044655Y-56211001D01*
X110044655Y-55599807D01*
X110303852Y-55599807D01*
X110594085Y-56211001D01*
X110996011Y-56211001D01*
X111285830Y-56211001D01*
X111647377Y-56211001D01*
X111647377Y-55526730D01*
X112277670Y-55526730D01*
X112277670Y-55207846D01*
X111647377Y-55207846D01*
X111647377Y-54949999D01*
X112594373Y-54949999D01*
X112905990Y-55068854D01*
X112939207Y-54979687D01*
X112963445Y-54940307D01*
X112992770Y-54905987D01*
X113027574Y-54877353D01*
X113068858Y-54854915D01*
X113115330Y-54840854D01*
X113172349Y-54835816D01*
X113251967Y-54847649D01*
X113289416Y-54862561D01*
X113322137Y-54883150D01*
X113349986Y-54909656D01*
X113372067Y-54942318D01*
X113386195Y-54979858D01*
X113391167Y-55025049D01*
X113391167Y-55058162D01*
X113387812Y-55109030D01*
X113378087Y-55155114D01*
X113361262Y-55199451D01*
X113335217Y-55246253D01*
X113302147Y-55291611D01*
X113257987Y-55340818D01*
X113141416Y-55448462D01*
X112630081Y-55885889D01*
X112630081Y-56211001D01*
X113805030Y-56211001D01*
X113805030Y-55912047D01*
X113020174Y-55912047D01*
X113329300Y-55670393D01*
X113498188Y-55530051D01*
X113498961Y-55529325D01*
X114094849Y-55529325D01*
X114104106Y-55705945D01*
X114129311Y-55846651D01*
X114158177Y-55933254D01*
X114195933Y-56006300D01*
X114242249Y-56067648D01*
X114298613Y-56119738D01*
X114365480Y-56162515D01*
X114444354Y-56196053D01*
X114575570Y-56226325D01*
X114746421Y-56237574D01*
X114917352Y-56226321D01*
X115048489Y-56196053D01*
X115127430Y-56162510D01*
X115194330Y-56119732D01*
X115250697Y-56067648D01*
X115297014Y-56006300D01*
X115316168Y-55969243D01*
X115662485Y-55969243D01*
X115738177Y-56042957D01*
X115824256Y-56107414D01*
X115921681Y-56162836D01*
X116025734Y-56202967D01*
X116148255Y-56228497D01*
X116292674Y-56237574D01*
X116442382Y-56227302D01*
X116568583Y-56198440D01*
X116682127Y-56150100D01*
X116771933Y-56087994D01*
X116844222Y-56009550D01*
X116896809Y-55916926D01*
X116928649Y-55813639D01*
X116939576Y-55698524D01*
X116930945Y-55591203D01*
X116906715Y-55501894D01*
X116868367Y-55427284D01*
X116815946Y-55364901D01*
X116751778Y-55314725D01*
X116669461Y-55271046D01*
X116565422Y-55234625D01*
X116435403Y-55206912D01*
X116271290Y-55180754D01*
X116175545Y-55156748D01*
X116120257Y-55126361D01*
X116095632Y-55097810D01*
X116079764Y-55058084D01*
X116073857Y-55003354D01*
X116080665Y-54955884D01*
X116100231Y-54917165D01*
X116133336Y-54885018D01*
X116175331Y-54863032D01*
X116233917Y-54848114D01*
X116314161Y-54842459D01*
X116398948Y-54847865D01*
X116469056Y-54862901D01*
X116526958Y-54886264D01*
X116605586Y-54936515D01*
X116670829Y-54998579D01*
X116812438Y-54855746D01*
X117239982Y-54855746D01*
X117239982Y-55234420D01*
X117239982Y-55526730D01*
X117239982Y-55905404D01*
X117239982Y-56211001D01*
X118120026Y-56211001D01*
X118209872Y-56201662D01*
X118291197Y-56174254D01*
X118364408Y-56130622D01*
X118426764Y-56073461D01*
X118477203Y-56004455D01*
X118515931Y-55922843D01*
X118539964Y-55834174D01*
X118548110Y-55739007D01*
X118538272Y-55637604D01*
X118511260Y-55558805D01*
X118469154Y-55491026D01*
X118419706Y-55439016D01*
X118362012Y-55398811D01*
X118299501Y-55371440D01*
X118234464Y-55355208D01*
X118174730Y-55350057D01*
X118174730Y-55335836D01*
X118237371Y-55328877D01*
X118294726Y-55313207D01*
X118347066Y-55287223D01*
X118392301Y-55249887D01*
X118429013Y-55202151D01*
X118458839Y-55140063D01*
X118477121Y-55069025D01*
X118483856Y-54977611D01*
X118476043Y-54882116D01*
X118453791Y-54800049D01*
X118418034Y-54729017D01*
X118368531Y-54667239D01*
X118307543Y-54617553D01*
X118235136Y-54581216D01*
X118149034Y-54558295D01*
X118046222Y-54550149D01*
X117239982Y-54550149D01*
X117239982Y-54855746D01*
X116812438Y-54855746D01*
X116911030Y-54756302D01*
X116838350Y-54686371D01*
X116756995Y-54628773D01*
X116666054Y-54582951D01*
X116569236Y-54550799D01*
X116459726Y-54530634D01*
X116335545Y-54523576D01*
X116192783Y-54533258D01*
X116072715Y-54560426D01*
X115964433Y-54605608D01*
X115877669Y-54663710D01*
X115807125Y-54736857D01*
X115755181Y-54822840D01*
X115723343Y-54919056D01*
X115712414Y-55027021D01*
X115720743Y-55130401D01*
X115744434Y-55219065D01*
X115782429Y-55295612D01*
X115834902Y-55361994D01*
X115899171Y-55415265D01*
X115982260Y-55460221D01*
X116088066Y-55496058D01*
X116221361Y-55521021D01*
X116385474Y-55542300D01*
X116461984Y-55558959D01*
X116510842Y-55580458D01*
X116540037Y-55605101D01*
X116568272Y-55655817D01*
X116578133Y-55719804D01*
X116570725Y-55776827D01*
X116549449Y-55824217D01*
X116513879Y-55864298D01*
X116467836Y-55892630D01*
X116403908Y-55911558D01*
X116316445Y-55918691D01*
X116197007Y-55906710D01*
X116089479Y-55871675D01*
X115991171Y-55813338D01*
X115900298Y-55729354D01*
X115662485Y-55969243D01*
X115316168Y-55969243D01*
X115334770Y-55933254D01*
X115363635Y-55846651D01*
X115388841Y-55705945D01*
X115398098Y-55529325D01*
X115398098Y-54550149D01*
X115046101Y-54550149D01*
X115046101Y-55568770D01*
X115037054Y-55684618D01*
X115013009Y-55769907D01*
X114977072Y-55831807D01*
X114924756Y-55877732D01*
X114850465Y-55907521D01*
X114746421Y-55918691D01*
X114642378Y-55907521D01*
X114568087Y-55877732D01*
X114515771Y-55831807D01*
X114479892Y-55769915D01*
X114455881Y-55684627D01*
X114446845Y-55568770D01*
X114446845Y-54550149D01*
X114094849Y-54550149D01*
X114094849Y-55529325D01*
X113498961Y-55529325D01*
X113574674Y-55458238D01*
X113639672Y-55383689D01*
X113694260Y-55303346D01*
X113736001Y-55218330D01*
X113762516Y-55126975D01*
X113771709Y-55023180D01*
X113762007Y-54919102D01*
X113733613Y-54824605D01*
X113686932Y-54739132D01*
X113623063Y-54666305D01*
X113543819Y-54607616D01*
X113445871Y-54561671D01*
X113336492Y-54533580D01*
X113205670Y-54523576D01*
X113081149Y-54532364D01*
X112974916Y-54557208D01*
X112878165Y-54597842D01*
X112797724Y-54649696D01*
X112728877Y-54713555D01*
X112672848Y-54786509D01*
X112628151Y-54866545D01*
X112594373Y-54949999D01*
X111647377Y-54949999D01*
X111647377Y-54869033D01*
X112386974Y-54869033D01*
X112386974Y-54550149D01*
X111285830Y-54550149D01*
X111285830Y-56211001D01*
X110996011Y-56211001D01*
X110670173Y-55556833D01*
X110764872Y-55510031D01*
X110839643Y-55449346D01*
X110897295Y-55374035D01*
X110938236Y-55287346D01*
X110963473Y-55189962D01*
X110972240Y-55079649D01*
X110963011Y-54964432D01*
X110936532Y-54863531D01*
X110892909Y-54772201D01*
X110835428Y-54696200D01*
X110763616Y-54634450D01*
X110677232Y-54588141D01*
X110580836Y-54559957D01*
X110470352Y-54550149D01*
X109683108Y-54550149D01*
X109683108Y-54869033D01*
X109494219Y-54869033D01*
X109494219Y-54334687D01*
X118736999Y-54334687D01*
X118736999Y-56426463D01*
G37*
D12*
X97890476Y-45314895D02*
X97890476Y-45962514D01*
X97890476Y-45962514D02*
X97928571Y-46038704D01*
X97928571Y-46038704D02*
X97966666Y-46076800D01*
X97966666Y-46076800D02*
X98042857Y-46114895D01*
X98042857Y-46114895D02*
X98195238Y-46114895D01*
X98195238Y-46114895D02*
X98271428Y-46076800D01*
X98271428Y-46076800D02*
X98309523Y-46038704D01*
X98309523Y-46038704D02*
X98347619Y-45962514D01*
X98347619Y-45962514D02*
X98347619Y-45314895D01*
X99109523Y-45314895D02*
X98728571Y-45314895D01*
X98728571Y-45314895D02*
X98690475Y-45695847D01*
X98690475Y-45695847D02*
X98728571Y-45657752D01*
X98728571Y-45657752D02*
X98804761Y-45619657D01*
X98804761Y-45619657D02*
X98995237Y-45619657D01*
X98995237Y-45619657D02*
X99071428Y-45657752D01*
X99071428Y-45657752D02*
X99109523Y-45695847D01*
X99109523Y-45695847D02*
X99147618Y-45772038D01*
X99147618Y-45772038D02*
X99147618Y-45962514D01*
X99147618Y-45962514D02*
X99109523Y-46038704D01*
X99109523Y-46038704D02*
X99071428Y-46076800D01*
X99071428Y-46076800D02*
X98995237Y-46114895D01*
X98995237Y-46114895D02*
X98804761Y-46114895D01*
X98804761Y-46114895D02*
X98728571Y-46076800D01*
X98728571Y-46076800D02*
X98690475Y-46038704D01*
X77733333Y-48064895D02*
X77733333Y-48636323D01*
X77733333Y-48636323D02*
X77695238Y-48750609D01*
X77695238Y-48750609D02*
X77619047Y-48826800D01*
X77619047Y-48826800D02*
X77504762Y-48864895D01*
X77504762Y-48864895D02*
X77428571Y-48864895D01*
X78533333Y-48864895D02*
X78076190Y-48864895D01*
X78304762Y-48864895D02*
X78304762Y-48064895D01*
X78304762Y-48064895D02*
X78228571Y-48179180D01*
X78228571Y-48179180D02*
X78152381Y-48255371D01*
X78152381Y-48255371D02*
X78076190Y-48293466D01*
X102933332Y-55326800D02*
X103047618Y-55364895D01*
X103047618Y-55364895D02*
X103238094Y-55364895D01*
X103238094Y-55364895D02*
X103314285Y-55326800D01*
X103314285Y-55326800D02*
X103352380Y-55288704D01*
X103352380Y-55288704D02*
X103390475Y-55212514D01*
X103390475Y-55212514D02*
X103390475Y-55136323D01*
X103390475Y-55136323D02*
X103352380Y-55060133D01*
X103352380Y-55060133D02*
X103314285Y-55022038D01*
X103314285Y-55022038D02*
X103238094Y-54983942D01*
X103238094Y-54983942D02*
X103085713Y-54945847D01*
X103085713Y-54945847D02*
X103009523Y-54907752D01*
X103009523Y-54907752D02*
X102971428Y-54869657D01*
X102971428Y-54869657D02*
X102933332Y-54793466D01*
X102933332Y-54793466D02*
X102933332Y-54717276D01*
X102933332Y-54717276D02*
X102971428Y-54641085D01*
X102971428Y-54641085D02*
X103009523Y-54602990D01*
X103009523Y-54602990D02*
X103085713Y-54564895D01*
X103085713Y-54564895D02*
X103276190Y-54564895D01*
X103276190Y-54564895D02*
X103390475Y-54602990D01*
X103657142Y-54564895D02*
X103847618Y-55364895D01*
X103847618Y-55364895D02*
X103999999Y-54793466D01*
X103999999Y-54793466D02*
X104152380Y-55364895D01*
X104152380Y-55364895D02*
X104342857Y-54564895D01*
X104609523Y-54641085D02*
X104647619Y-54602990D01*
X104647619Y-54602990D02*
X104723809Y-54564895D01*
X104723809Y-54564895D02*
X104914285Y-54564895D01*
X104914285Y-54564895D02*
X104990476Y-54602990D01*
X104990476Y-54602990D02*
X105028571Y-54641085D01*
X105028571Y-54641085D02*
X105066666Y-54717276D01*
X105066666Y-54717276D02*
X105066666Y-54793466D01*
X105066666Y-54793466D02*
X105028571Y-54907752D01*
X105028571Y-54907752D02*
X104571428Y-55364895D01*
X104571428Y-55364895D02*
X105066666Y-55364895D01*
X88433332Y-55326800D02*
X88547618Y-55364895D01*
X88547618Y-55364895D02*
X88738094Y-55364895D01*
X88738094Y-55364895D02*
X88814285Y-55326800D01*
X88814285Y-55326800D02*
X88852380Y-55288704D01*
X88852380Y-55288704D02*
X88890475Y-55212514D01*
X88890475Y-55212514D02*
X88890475Y-55136323D01*
X88890475Y-55136323D02*
X88852380Y-55060133D01*
X88852380Y-55060133D02*
X88814285Y-55022038D01*
X88814285Y-55022038D02*
X88738094Y-54983942D01*
X88738094Y-54983942D02*
X88585713Y-54945847D01*
X88585713Y-54945847D02*
X88509523Y-54907752D01*
X88509523Y-54907752D02*
X88471428Y-54869657D01*
X88471428Y-54869657D02*
X88433332Y-54793466D01*
X88433332Y-54793466D02*
X88433332Y-54717276D01*
X88433332Y-54717276D02*
X88471428Y-54641085D01*
X88471428Y-54641085D02*
X88509523Y-54602990D01*
X88509523Y-54602990D02*
X88585713Y-54564895D01*
X88585713Y-54564895D02*
X88776190Y-54564895D01*
X88776190Y-54564895D02*
X88890475Y-54602990D01*
X89157142Y-54564895D02*
X89347618Y-55364895D01*
X89347618Y-55364895D02*
X89499999Y-54793466D01*
X89499999Y-54793466D02*
X89652380Y-55364895D01*
X89652380Y-55364895D02*
X89842857Y-54564895D01*
X90566666Y-55364895D02*
X90109523Y-55364895D01*
X90338095Y-55364895D02*
X90338095Y-54564895D01*
X90338095Y-54564895D02*
X90261904Y-54679180D01*
X90261904Y-54679180D02*
X90185714Y-54755371D01*
X90185714Y-54755371D02*
X90109523Y-54793466D01*
X95909524Y-54364895D02*
X95909524Y-53564895D01*
X95909524Y-53564895D02*
X96100000Y-53564895D01*
X96100000Y-53564895D02*
X96214286Y-53602990D01*
X96214286Y-53602990D02*
X96290476Y-53679180D01*
X96290476Y-53679180D02*
X96328571Y-53755371D01*
X96328571Y-53755371D02*
X96366667Y-53907752D01*
X96366667Y-53907752D02*
X96366667Y-54022038D01*
X96366667Y-54022038D02*
X96328571Y-54174419D01*
X96328571Y-54174419D02*
X96290476Y-54250609D01*
X96290476Y-54250609D02*
X96214286Y-54326800D01*
X96214286Y-54326800D02*
X96100000Y-54364895D01*
X96100000Y-54364895D02*
X95909524Y-54364895D01*
X97128571Y-54364895D02*
X96671428Y-54364895D01*
X96900000Y-54364895D02*
X96900000Y-53564895D01*
X96900000Y-53564895D02*
X96823809Y-53679180D01*
X96823809Y-53679180D02*
X96747619Y-53755371D01*
X96747619Y-53755371D02*
X96671428Y-53793466D01*
X95909524Y-56864895D02*
X95909524Y-56064895D01*
X95909524Y-56064895D02*
X96100000Y-56064895D01*
X96100000Y-56064895D02*
X96214286Y-56102990D01*
X96214286Y-56102990D02*
X96290476Y-56179180D01*
X96290476Y-56179180D02*
X96328571Y-56255371D01*
X96328571Y-56255371D02*
X96366667Y-56407752D01*
X96366667Y-56407752D02*
X96366667Y-56522038D01*
X96366667Y-56522038D02*
X96328571Y-56674419D01*
X96328571Y-56674419D02*
X96290476Y-56750609D01*
X96290476Y-56750609D02*
X96214286Y-56826800D01*
X96214286Y-56826800D02*
X96100000Y-56864895D01*
X96100000Y-56864895D02*
X95909524Y-56864895D01*
X96671428Y-56141085D02*
X96709524Y-56102990D01*
X96709524Y-56102990D02*
X96785714Y-56064895D01*
X96785714Y-56064895D02*
X96976190Y-56064895D01*
X96976190Y-56064895D02*
X97052381Y-56102990D01*
X97052381Y-56102990D02*
X97090476Y-56141085D01*
X97090476Y-56141085D02*
X97128571Y-56217276D01*
X97128571Y-56217276D02*
X97128571Y-56293466D01*
X97128571Y-56293466D02*
X97090476Y-56407752D01*
X97090476Y-56407752D02*
X96633333Y-56864895D01*
X96633333Y-56864895D02*
X97128571Y-56864895D01*
X83390000Y-39890000D02*
X113610000Y-39890000D01*
X113610000Y-51610000D01*
X83390000Y-51610000D01*
X83390000Y-39890000D01*
D13*
X85175000Y-41500000D02*
G75*
G02*
X84825000Y-41500000I-175000J0D01*
G01*
X84825000Y-41500000D02*
G75*
G02*
X85175000Y-41500000I175000J0D01*
G01*
D14*
X76215000Y-42390000D02*
X75945000Y-42390000D01*
X76215000Y-54610000D02*
X75945000Y-54610000D01*
X80000000Y-44140000D02*
X80000000Y-43100000D01*
X80000000Y-53900000D02*
X80000000Y-52860000D01*
X81620000Y-44140000D02*
X80000000Y-44140000D01*
X82100000Y-52860000D02*
X80000000Y-52860000D01*
X82100000Y-52860000D02*
X82100000Y-52400000D01*
D12*
X101640000Y-52640000D02*
X106360000Y-52640000D01*
X106360000Y-57360000D01*
X101640000Y-57360000D01*
X101640000Y-52640000D01*
X87140000Y-52640000D02*
X91860000Y-52640000D01*
X91860000Y-57360000D01*
X87140000Y-57360000D01*
X87140000Y-52640000D01*
D14*
X95215000Y-53175000D02*
X95215000Y-54645000D01*
X95215000Y-54645000D02*
X97675000Y-54645000D01*
X97675000Y-53175000D02*
X95215000Y-53175000D01*
X95215000Y-55765000D02*
X95215000Y-57235000D01*
X95215000Y-57235000D02*
X97675000Y-57235000D01*
X97675000Y-55765000D02*
X95215000Y-55765000D01*
%LPC*%
D15*
X102000000Y-50300000D03*
X102000000Y-49650000D03*
X102000000Y-49000000D03*
X102000000Y-48350000D03*
X102000000Y-47700000D03*
X102000000Y-47050000D03*
X102000000Y-46400000D03*
X102000000Y-45750000D03*
X102000000Y-45100000D03*
X102000000Y-44450000D03*
X102000000Y-43800000D03*
X102000000Y-43150000D03*
X102000000Y-42500000D03*
X102000000Y-41850000D03*
X102000000Y-41200000D03*
D16*
X78075000Y-50750000D03*
X78075000Y-46250000D03*
D17*
X80675000Y-52000000D03*
X80675000Y-49500000D03*
X80675000Y-47500000D03*
X80675000Y-45000000D03*
D18*
X78075000Y-54350000D03*
X78075000Y-42650000D03*
D19*
X100400000Y-56500000D03*
X107600000Y-56500000D03*
X100400000Y-53500000D03*
X107600000Y-53500000D03*
X85900000Y-56500000D03*
X93100000Y-56500000D03*
X85900000Y-53500000D03*
X93100000Y-53500000D03*
D20*
X96000000Y-53910000D03*
X97750000Y-53910000D03*
X96000000Y-56500000D03*
X97750000Y-56500000D03*
D21*
X122430000Y-52880000D03*
X122430000Y-44120000D03*
%LPD*%
M02*
