%TF.GenerationSoftware,KiCad,Pcbnew,9.0.0*%
%TF.CreationDate,2025-04-06T23:20:58+02:00*%
%TF.ProjectId,RF-to-USB,52462d74-6f2d-4555-9342-2e6b69636164,rev?*%
%TF.SameCoordinates,Original*%
%TF.FileFunction,Drillmap*%
%TF.FilePolarity,Positive*%
%FSLAX45Y45*%
G04 Gerber Fmt 4.5, Leading zero omitted, Abs format (unit mm)*
G04 Created by KiCad (PCBNEW 9.0.0) date 2025-04-06 23:20:58*
%MOMM*%
%LPD*%
G01*
G04 APERTURE LIST*
%ADD10C,0.050000*%
%ADD11C,0.200000*%
%ADD12C,0.100000*%
G04 APERTURE END LIST*
D10*
X7750000Y-3850000D02*
X12350000Y-3850000D01*
X12350000Y-3850000D02*
G75*
G02*
X12550000Y-4050000I0J-200000D01*
G01*
X12550000Y-5650000D02*
G75*
G02*
X12350000Y-5850000I-200000J0D01*
G01*
X12350000Y-5850000D02*
X7750000Y-5850000D01*
X7550000Y-4050000D02*
G75*
G02*
X7750000Y-3850000I200000J0D01*
G01*
X7750000Y-5850000D02*
G75*
G02*
X7550000Y-5650000I0J200000D01*
G01*
X12550000Y-4050000D02*
X12550000Y-5650000D01*
X7550000Y-5650000D02*
X7550000Y-4050000D01*
D11*
D12*
X7977500Y-5312000D02*
X8007500Y-5342000D01*
X8007500Y-5312000D02*
X7977500Y-5342000D01*
X7984000Y-4362000D02*
X8014000Y-4392000D01*
X8014000Y-4362000D02*
X7984000Y-4392000D01*
X8052500Y-5312000D02*
X8082500Y-5342000D01*
X8082500Y-5312000D02*
X8052500Y-5342000D01*
X8059000Y-4362000D02*
X8089000Y-4392000D01*
X8089000Y-4362000D02*
X8059000Y-4392000D01*
X8127500Y-5312000D02*
X8157500Y-5342000D01*
X8157500Y-5312000D02*
X8127500Y-5342000D01*
X8134000Y-4362000D02*
X8164000Y-4392000D01*
X8164000Y-4362000D02*
X8134000Y-4392000D01*
X8202500Y-4412000D02*
X8232500Y-4442000D01*
X8232500Y-4412000D02*
X8202500Y-4442000D01*
X8202500Y-4487000D02*
X8232500Y-4517000D01*
X8232500Y-4487000D02*
X8202500Y-4517000D01*
X8202500Y-4562000D02*
X8232500Y-4592000D01*
X8232500Y-4562000D02*
X8202500Y-4592000D01*
X8209000Y-5112000D02*
X8239000Y-5142000D01*
X8239000Y-5112000D02*
X8209000Y-5142000D01*
X8209000Y-5187000D02*
X8239000Y-5217000D01*
X8239000Y-5187000D02*
X8209000Y-5217000D01*
X8209000Y-5262000D02*
X8239000Y-5292000D01*
X8239000Y-5262000D02*
X8209000Y-5292000D01*
X8234000Y-3962000D02*
X8264000Y-3992000D01*
X8264000Y-3962000D02*
X8234000Y-3992000D01*
X8260000Y-4735000D02*
X8290000Y-4765000D01*
X8290000Y-4735000D02*
X8260000Y-4765000D01*
X8260000Y-4935000D02*
X8290000Y-4965000D01*
X8290000Y-4935000D02*
X8260000Y-4965000D01*
X8334000Y-4612000D02*
X8364000Y-4642000D01*
X8364000Y-4612000D02*
X8334000Y-4642000D01*
X8434000Y-5487000D02*
X8464000Y-5517000D01*
X8464000Y-5487000D02*
X8434000Y-5517000D01*
X8484000Y-4612000D02*
X8514000Y-4642000D01*
X8514000Y-4612000D02*
X8484000Y-4642000D01*
X8584000Y-4612000D02*
X8614000Y-4642000D01*
X8614000Y-4612000D02*
X8584000Y-4642000D01*
X8659000Y-5037000D02*
X8689000Y-5067000D01*
X8689000Y-5037000D02*
X8659000Y-5067000D01*
X8709000Y-4612000D02*
X8739000Y-4642000D01*
X8739000Y-4612000D02*
X8709000Y-4642000D01*
X8734000Y-5362000D02*
X8764000Y-5392000D01*
X8764000Y-5362000D02*
X8734000Y-5392000D01*
X8734000Y-5487000D02*
X8764000Y-5517000D01*
X8764000Y-5487000D02*
X8734000Y-5517000D01*
X8759000Y-5037000D02*
X8789000Y-5067000D01*
X8789000Y-5037000D02*
X8759000Y-5067000D01*
X8868250Y-5471250D02*
X8898250Y-5501250D01*
X8898250Y-5471250D02*
X8868250Y-5501250D01*
X8884000Y-4737000D02*
X8914000Y-4767000D01*
X8914000Y-4737000D02*
X8884000Y-4767000D01*
X8884000Y-5038210D02*
X8914000Y-5068210D01*
X8914000Y-5038210D02*
X8884000Y-5068210D01*
X8934000Y-4367000D02*
X8964000Y-4397000D01*
X8964000Y-4367000D02*
X8934000Y-4397000D01*
X8940000Y-5337000D02*
X8970000Y-5367000D01*
X8970000Y-5337000D02*
X8940000Y-5367000D01*
X8980000Y-5037000D02*
X9010000Y-5067000D01*
X9010000Y-5037000D02*
X8980000Y-5067000D01*
X9054000Y-5471250D02*
X9084000Y-5501250D01*
X9084000Y-5471250D02*
X9054000Y-5501250D01*
X9055668Y-4683668D02*
X9085668Y-4713668D01*
X9085668Y-4683668D02*
X9055668Y-4713668D01*
X9059000Y-5337000D02*
X9089000Y-5367000D01*
X9089000Y-5337000D02*
X9059000Y-5367000D01*
X9084000Y-5081100D02*
X9114000Y-5111100D01*
X9114000Y-5081100D02*
X9084000Y-5111100D01*
X9134000Y-4587000D02*
X9164000Y-4617000D01*
X9164000Y-4587000D02*
X9134000Y-4617000D01*
X9134000Y-4737000D02*
X9164000Y-4767000D01*
X9164000Y-4737000D02*
X9134000Y-4767000D01*
X9134000Y-5337000D02*
X9164000Y-5367000D01*
X9164000Y-5337000D02*
X9134000Y-5367000D01*
X9184000Y-5081100D02*
X9214000Y-5111100D01*
X9214000Y-5081100D02*
X9184000Y-5111100D01*
X9209000Y-4637000D02*
X9239000Y-4667000D01*
X9239000Y-4637000D02*
X9209000Y-4667000D01*
X9384000Y-4453059D02*
X9414000Y-4483059D01*
X9414000Y-4453059D02*
X9384000Y-4483059D01*
X9404000Y-5770000D02*
X9434000Y-5800000D01*
X9434000Y-5770000D02*
X9404000Y-5800000D01*
X9514000Y-5767000D02*
X9544000Y-5797000D01*
X9544000Y-5767000D02*
X9514000Y-5797000D01*
X9560000Y-5210000D02*
X9590000Y-5240000D01*
X9590000Y-5210000D02*
X9560000Y-5240000D01*
X9602500Y-5737000D02*
X9632500Y-5767000D01*
X9632500Y-5737000D02*
X9602500Y-5767000D01*
X9634000Y-3937000D02*
X9664000Y-3967000D01*
X9664000Y-3937000D02*
X9634000Y-3967000D01*
X9634000Y-4037000D02*
X9664000Y-4067000D01*
X9664000Y-4037000D02*
X9634000Y-4067000D01*
X9634000Y-4137000D02*
X9664000Y-4167000D01*
X9664000Y-4137000D02*
X9634000Y-4167000D01*
X9659000Y-5212000D02*
X9689000Y-5242000D01*
X9689000Y-5212000D02*
X9659000Y-5242000D01*
X9760000Y-5210000D02*
X9790000Y-5240000D01*
X9790000Y-5210000D02*
X9760000Y-5240000D01*
X9884000Y-5437000D02*
X9914000Y-5467000D01*
X9914000Y-5437000D02*
X9884000Y-5467000D01*
X9884000Y-5604000D02*
X9914000Y-5634000D01*
X9914000Y-5604000D02*
X9884000Y-5634000D01*
X9884000Y-5737000D02*
X9914000Y-5767000D01*
X9914000Y-5737000D02*
X9884000Y-5767000D01*
X9898756Y-4553219D02*
X9928756Y-4583219D01*
X9928756Y-4553219D02*
X9898756Y-4583219D01*
X9934000Y-3937000D02*
X9964000Y-3967000D01*
X9964000Y-3937000D02*
X9934000Y-3967000D01*
X9934000Y-4037000D02*
X9964000Y-4067000D01*
X9964000Y-4037000D02*
X9934000Y-4067000D01*
X9934000Y-4237000D02*
X9964000Y-4267000D01*
X9964000Y-4237000D02*
X9934000Y-4267000D01*
X9934000Y-4691000D02*
X9964000Y-4721000D01*
X9964000Y-4691000D02*
X9934000Y-4721000D01*
X9936419Y-4137000D02*
X9966419Y-4167000D01*
X9966419Y-4137000D02*
X9936419Y-4167000D01*
X9937130Y-5084711D02*
X9967130Y-5114711D01*
X9967130Y-5084711D02*
X9937130Y-5114711D01*
X10159000Y-5635000D02*
X10189000Y-5665000D01*
X10189000Y-5635000D02*
X10159000Y-5665000D01*
X10184000Y-5212000D02*
X10214000Y-5242000D01*
X10214000Y-5212000D02*
X10184000Y-5242000D01*
X10184000Y-5337000D02*
X10214000Y-5367000D01*
X10214000Y-5337000D02*
X10184000Y-5367000D01*
X10396290Y-4896431D02*
X10426290Y-4926431D01*
X10426290Y-4896431D02*
X10396290Y-4926431D01*
X10409000Y-4547000D02*
X10439000Y-4577000D01*
X10439000Y-4547000D02*
X10409000Y-4577000D01*
X10460000Y-4960000D02*
X10490000Y-4990000D01*
X10490000Y-4960000D02*
X10460000Y-4990000D01*
X10485263Y-4641000D02*
X10515263Y-4671000D01*
X10515263Y-4641000D02*
X10485263Y-4671000D01*
X10534000Y-4537000D02*
X10564000Y-4567000D01*
X10564000Y-4537000D02*
X10534000Y-4567000D01*
X10634000Y-5457000D02*
X10664000Y-5487000D01*
X10664000Y-5457000D02*
X10634000Y-5487000D01*
X10744000Y-5497000D02*
X10774000Y-5527000D01*
X10774000Y-5497000D02*
X10744000Y-5527000D01*
X10760000Y-4935000D02*
X10790000Y-4965000D01*
X10790000Y-4935000D02*
X10760000Y-4965000D01*
X10760000Y-5085000D02*
X10790000Y-5115000D01*
X10790000Y-5085000D02*
X10760000Y-5115000D01*
X10910000Y-4935000D02*
X10940000Y-4965000D01*
X10940000Y-4935000D02*
X10910000Y-4965000D01*
X10933000Y-5535000D02*
X10963000Y-5565000D01*
X10963000Y-5535000D02*
X10933000Y-5565000D01*
X11035000Y-4210000D02*
X11065000Y-4240000D01*
X11065000Y-4210000D02*
X11035000Y-4240000D01*
X11035000Y-5185000D02*
X11065000Y-5215000D01*
X11065000Y-5185000D02*
X11035000Y-5215000D01*
X11035000Y-5535000D02*
X11065000Y-5565000D01*
X11065000Y-5535000D02*
X11035000Y-5565000D01*
X11120112Y-5095241D02*
X11150112Y-5125241D01*
X11150112Y-5095241D02*
X11120112Y-5125241D01*
X11135000Y-5435000D02*
X11165000Y-5465000D01*
X11165000Y-5435000D02*
X11135000Y-5465000D01*
X11235000Y-4285000D02*
X11265000Y-4315000D01*
X11265000Y-4285000D02*
X11235000Y-4315000D01*
X11235000Y-5360000D02*
X11265000Y-5390000D01*
X11265000Y-5360000D02*
X11235000Y-5390000D01*
X11310000Y-5260000D02*
X11340000Y-5290000D01*
X11340000Y-5260000D02*
X11310000Y-5290000D01*
X11335000Y-4385000D02*
X11365000Y-4415000D01*
X11365000Y-4385000D02*
X11335000Y-4415000D01*
X11535000Y-4635000D02*
X11565000Y-4665000D01*
X11565000Y-4635000D02*
X11535000Y-4665000D01*
X11635000Y-4735000D02*
X11665000Y-4765000D01*
X11665000Y-4735000D02*
X11635000Y-4765000D01*
X11635000Y-4835000D02*
X11665000Y-4865000D01*
X11665000Y-4835000D02*
X11635000Y-4865000D01*
X11734000Y-5212000D02*
X11764000Y-5242000D01*
X11764000Y-5212000D02*
X11734000Y-5242000D01*
X11922000Y-4412000D02*
G75*
G02*
X11876000Y-4412000I-23000J0D01*
G01*
X11876000Y-4412000D02*
G75*
G02*
X11922000Y-4412000I23000J0D01*
G01*
X11922000Y-5288000D02*
G75*
G02*
X11876000Y-5288000I-23000J0D01*
G01*
X11876000Y-5288000D02*
G75*
G02*
X11922000Y-5288000I23000J0D01*
G01*
X7807500Y-4230000D02*
X7807500Y-4300000D01*
X7772500Y-4265000D02*
X7842500Y-4265000D01*
X7897500Y-4230000D02*
X7717500Y-4230000D01*
X7717500Y-4300000D02*
G75*
G02*
X7717500Y-4230000I0J35000D01*
G01*
X7717500Y-4300000D02*
X7897500Y-4300000D01*
X7897500Y-4300000D02*
G75*
G03*
X7897500Y-4230000I0J35000D01*
G01*
X7807500Y-5400000D02*
X7807500Y-5470000D01*
X7772500Y-5435000D02*
X7842500Y-5435000D01*
X7897500Y-5400000D02*
X7717500Y-5400000D01*
X7717500Y-5470000D02*
G75*
G02*
X7717500Y-5400000I0J35000D01*
G01*
X7717500Y-5470000D02*
X7897500Y-5470000D01*
X7897500Y-5470000D02*
G75*
G03*
X7897500Y-5400000I0J35000D01*
G01*
D11*
X7808277Y-6163984D02*
X7808277Y-5963984D01*
X7808277Y-5963984D02*
X7855896Y-5963984D01*
X7855896Y-5963984D02*
X7884467Y-5973508D01*
X7884467Y-5973508D02*
X7903515Y-5992555D01*
X7903515Y-5992555D02*
X7913039Y-6011603D01*
X7913039Y-6011603D02*
X7922562Y-6049698D01*
X7922562Y-6049698D02*
X7922562Y-6078269D01*
X7922562Y-6078269D02*
X7913039Y-6116365D01*
X7913039Y-6116365D02*
X7903515Y-6135412D01*
X7903515Y-6135412D02*
X7884467Y-6154460D01*
X7884467Y-6154460D02*
X7855896Y-6163984D01*
X7855896Y-6163984D02*
X7808277Y-6163984D01*
X8008277Y-6163984D02*
X8008277Y-6030650D01*
X8008277Y-6068746D02*
X8017801Y-6049698D01*
X8017801Y-6049698D02*
X8027324Y-6040174D01*
X8027324Y-6040174D02*
X8046372Y-6030650D01*
X8046372Y-6030650D02*
X8065420Y-6030650D01*
X8132086Y-6163984D02*
X8132086Y-6030650D01*
X8132086Y-5963984D02*
X8122562Y-5973508D01*
X8122562Y-5973508D02*
X8132086Y-5983031D01*
X8132086Y-5983031D02*
X8141610Y-5973508D01*
X8141610Y-5973508D02*
X8132086Y-5963984D01*
X8132086Y-5963984D02*
X8132086Y-5983031D01*
X8255896Y-6163984D02*
X8236848Y-6154460D01*
X8236848Y-6154460D02*
X8227324Y-6135412D01*
X8227324Y-6135412D02*
X8227324Y-5963984D01*
X8360658Y-6163984D02*
X8341610Y-6154460D01*
X8341610Y-6154460D02*
X8332086Y-6135412D01*
X8332086Y-6135412D02*
X8332086Y-5963984D01*
X8589229Y-6163984D02*
X8589229Y-5963984D01*
X8589229Y-5963984D02*
X8655896Y-6106841D01*
X8655896Y-6106841D02*
X8722563Y-5963984D01*
X8722563Y-5963984D02*
X8722563Y-6163984D01*
X8903515Y-6163984D02*
X8903515Y-6059222D01*
X8903515Y-6059222D02*
X8893991Y-6040174D01*
X8893991Y-6040174D02*
X8874944Y-6030650D01*
X8874944Y-6030650D02*
X8836848Y-6030650D01*
X8836848Y-6030650D02*
X8817801Y-6040174D01*
X8903515Y-6154460D02*
X8884467Y-6163984D01*
X8884467Y-6163984D02*
X8836848Y-6163984D01*
X8836848Y-6163984D02*
X8817801Y-6154460D01*
X8817801Y-6154460D02*
X8808277Y-6135412D01*
X8808277Y-6135412D02*
X8808277Y-6116365D01*
X8808277Y-6116365D02*
X8817801Y-6097317D01*
X8817801Y-6097317D02*
X8836848Y-6087793D01*
X8836848Y-6087793D02*
X8884467Y-6087793D01*
X8884467Y-6087793D02*
X8903515Y-6078269D01*
X8998753Y-6030650D02*
X8998753Y-6230650D01*
X8998753Y-6040174D02*
X9017801Y-6030650D01*
X9017801Y-6030650D02*
X9055896Y-6030650D01*
X9055896Y-6030650D02*
X9074944Y-6040174D01*
X9074944Y-6040174D02*
X9084467Y-6049698D01*
X9084467Y-6049698D02*
X9093991Y-6068746D01*
X9093991Y-6068746D02*
X9093991Y-6125888D01*
X9093991Y-6125888D02*
X9084467Y-6144936D01*
X9084467Y-6144936D02*
X9074944Y-6154460D01*
X9074944Y-6154460D02*
X9055896Y-6163984D01*
X9055896Y-6163984D02*
X9017801Y-6163984D01*
X9017801Y-6163984D02*
X8998753Y-6154460D01*
X9179705Y-6144936D02*
X9189229Y-6154460D01*
X9189229Y-6154460D02*
X9179705Y-6163984D01*
X9179705Y-6163984D02*
X9170182Y-6154460D01*
X9170182Y-6154460D02*
X9179705Y-6144936D01*
X9179705Y-6144936D02*
X9179705Y-6163984D01*
X9179705Y-6040174D02*
X9189229Y-6049698D01*
X9189229Y-6049698D02*
X9179705Y-6059222D01*
X9179705Y-6059222D02*
X9170182Y-6049698D01*
X9170182Y-6049698D02*
X9179705Y-6040174D01*
X9179705Y-6040174D02*
X9179705Y-6059222D01*
D12*
X7517500Y-6477500D02*
X7547500Y-6507500D01*
X7547500Y-6477500D02*
X7517500Y-6507500D01*
D11*
X7846372Y-6383984D02*
X7865420Y-6383984D01*
X7865420Y-6383984D02*
X7884467Y-6393508D01*
X7884467Y-6393508D02*
X7893991Y-6403031D01*
X7893991Y-6403031D02*
X7903515Y-6422079D01*
X7903515Y-6422079D02*
X7913039Y-6460174D01*
X7913039Y-6460174D02*
X7913039Y-6507793D01*
X7913039Y-6507793D02*
X7903515Y-6545888D01*
X7903515Y-6545888D02*
X7893991Y-6564936D01*
X7893991Y-6564936D02*
X7884467Y-6574460D01*
X7884467Y-6574460D02*
X7865420Y-6583984D01*
X7865420Y-6583984D02*
X7846372Y-6583984D01*
X7846372Y-6583984D02*
X7827324Y-6574460D01*
X7827324Y-6574460D02*
X7817801Y-6564936D01*
X7817801Y-6564936D02*
X7808277Y-6545888D01*
X7808277Y-6545888D02*
X7798753Y-6507793D01*
X7798753Y-6507793D02*
X7798753Y-6460174D01*
X7798753Y-6460174D02*
X7808277Y-6422079D01*
X7808277Y-6422079D02*
X7817801Y-6403031D01*
X7817801Y-6403031D02*
X7827324Y-6393508D01*
X7827324Y-6393508D02*
X7846372Y-6383984D01*
X7998753Y-6564936D02*
X8008277Y-6574460D01*
X8008277Y-6574460D02*
X7998753Y-6583984D01*
X7998753Y-6583984D02*
X7989229Y-6574460D01*
X7989229Y-6574460D02*
X7998753Y-6564936D01*
X7998753Y-6564936D02*
X7998753Y-6583984D01*
X8074943Y-6383984D02*
X8198753Y-6383984D01*
X8198753Y-6383984D02*
X8132086Y-6460174D01*
X8132086Y-6460174D02*
X8160658Y-6460174D01*
X8160658Y-6460174D02*
X8179705Y-6469698D01*
X8179705Y-6469698D02*
X8189229Y-6479222D01*
X8189229Y-6479222D02*
X8198753Y-6498269D01*
X8198753Y-6498269D02*
X8198753Y-6545888D01*
X8198753Y-6545888D02*
X8189229Y-6564936D01*
X8189229Y-6564936D02*
X8179705Y-6574460D01*
X8179705Y-6574460D02*
X8160658Y-6583984D01*
X8160658Y-6583984D02*
X8103515Y-6583984D01*
X8103515Y-6583984D02*
X8084467Y-6574460D01*
X8084467Y-6574460D02*
X8074943Y-6564936D01*
X8322562Y-6383984D02*
X8341610Y-6383984D01*
X8341610Y-6383984D02*
X8360658Y-6393508D01*
X8360658Y-6393508D02*
X8370182Y-6403031D01*
X8370182Y-6403031D02*
X8379705Y-6422079D01*
X8379705Y-6422079D02*
X8389229Y-6460174D01*
X8389229Y-6460174D02*
X8389229Y-6507793D01*
X8389229Y-6507793D02*
X8379705Y-6545888D01*
X8379705Y-6545888D02*
X8370182Y-6564936D01*
X8370182Y-6564936D02*
X8360658Y-6574460D01*
X8360658Y-6574460D02*
X8341610Y-6583984D01*
X8341610Y-6583984D02*
X8322562Y-6583984D01*
X8322562Y-6583984D02*
X8303515Y-6574460D01*
X8303515Y-6574460D02*
X8293991Y-6564936D01*
X8293991Y-6564936D02*
X8284467Y-6545888D01*
X8284467Y-6545888D02*
X8274943Y-6507793D01*
X8274943Y-6507793D02*
X8274943Y-6460174D01*
X8274943Y-6460174D02*
X8284467Y-6422079D01*
X8284467Y-6422079D02*
X8293991Y-6403031D01*
X8293991Y-6403031D02*
X8303515Y-6393508D01*
X8303515Y-6393508D02*
X8322562Y-6383984D01*
X8513039Y-6383984D02*
X8532086Y-6383984D01*
X8532086Y-6383984D02*
X8551134Y-6393508D01*
X8551134Y-6393508D02*
X8560658Y-6403031D01*
X8560658Y-6403031D02*
X8570182Y-6422079D01*
X8570182Y-6422079D02*
X8579705Y-6460174D01*
X8579705Y-6460174D02*
X8579705Y-6507793D01*
X8579705Y-6507793D02*
X8570182Y-6545888D01*
X8570182Y-6545888D02*
X8560658Y-6564936D01*
X8560658Y-6564936D02*
X8551134Y-6574460D01*
X8551134Y-6574460D02*
X8532086Y-6583984D01*
X8532086Y-6583984D02*
X8513039Y-6583984D01*
X8513039Y-6583984D02*
X8493991Y-6574460D01*
X8493991Y-6574460D02*
X8484467Y-6564936D01*
X8484467Y-6564936D02*
X8474944Y-6545888D01*
X8474944Y-6545888D02*
X8465420Y-6507793D01*
X8465420Y-6507793D02*
X8465420Y-6460174D01*
X8465420Y-6460174D02*
X8474944Y-6422079D01*
X8474944Y-6422079D02*
X8484467Y-6403031D01*
X8484467Y-6403031D02*
X8493991Y-6393508D01*
X8493991Y-6393508D02*
X8513039Y-6383984D01*
X8665420Y-6583984D02*
X8665420Y-6450650D01*
X8665420Y-6469698D02*
X8674944Y-6460174D01*
X8674944Y-6460174D02*
X8693991Y-6450650D01*
X8693991Y-6450650D02*
X8722563Y-6450650D01*
X8722563Y-6450650D02*
X8741610Y-6460174D01*
X8741610Y-6460174D02*
X8751134Y-6479222D01*
X8751134Y-6479222D02*
X8751134Y-6583984D01*
X8751134Y-6479222D02*
X8760658Y-6460174D01*
X8760658Y-6460174D02*
X8779705Y-6450650D01*
X8779705Y-6450650D02*
X8808277Y-6450650D01*
X8808277Y-6450650D02*
X8827325Y-6460174D01*
X8827325Y-6460174D02*
X8836848Y-6479222D01*
X8836848Y-6479222D02*
X8836848Y-6583984D01*
X8932086Y-6583984D02*
X8932086Y-6450650D01*
X8932086Y-6469698D02*
X8941610Y-6460174D01*
X8941610Y-6460174D02*
X8960658Y-6450650D01*
X8960658Y-6450650D02*
X8989229Y-6450650D01*
X8989229Y-6450650D02*
X9008277Y-6460174D01*
X9008277Y-6460174D02*
X9017801Y-6479222D01*
X9017801Y-6479222D02*
X9017801Y-6583984D01*
X9017801Y-6479222D02*
X9027325Y-6460174D01*
X9027325Y-6460174D02*
X9046372Y-6450650D01*
X9046372Y-6450650D02*
X9074944Y-6450650D01*
X9074944Y-6450650D02*
X9093991Y-6460174D01*
X9093991Y-6460174D02*
X9103515Y-6479222D01*
X9103515Y-6479222D02*
X9103515Y-6583984D01*
X9493991Y-6374460D02*
X9322563Y-6631603D01*
X9751134Y-6383984D02*
X9770182Y-6383984D01*
X9770182Y-6383984D02*
X9789229Y-6393508D01*
X9789229Y-6393508D02*
X9798753Y-6403031D01*
X9798753Y-6403031D02*
X9808277Y-6422079D01*
X9808277Y-6422079D02*
X9817801Y-6460174D01*
X9817801Y-6460174D02*
X9817801Y-6507793D01*
X9817801Y-6507793D02*
X9808277Y-6545888D01*
X9808277Y-6545888D02*
X9798753Y-6564936D01*
X9798753Y-6564936D02*
X9789229Y-6574460D01*
X9789229Y-6574460D02*
X9770182Y-6583984D01*
X9770182Y-6583984D02*
X9751134Y-6583984D01*
X9751134Y-6583984D02*
X9732087Y-6574460D01*
X9732087Y-6574460D02*
X9722563Y-6564936D01*
X9722563Y-6564936D02*
X9713039Y-6545888D01*
X9713039Y-6545888D02*
X9703515Y-6507793D01*
X9703515Y-6507793D02*
X9703515Y-6460174D01*
X9703515Y-6460174D02*
X9713039Y-6422079D01*
X9713039Y-6422079D02*
X9722563Y-6403031D01*
X9722563Y-6403031D02*
X9732087Y-6393508D01*
X9732087Y-6393508D02*
X9751134Y-6383984D01*
X9903515Y-6564936D02*
X9913039Y-6574460D01*
X9913039Y-6574460D02*
X9903515Y-6583984D01*
X9903515Y-6583984D02*
X9893991Y-6574460D01*
X9893991Y-6574460D02*
X9903515Y-6564936D01*
X9903515Y-6564936D02*
X9903515Y-6583984D01*
X10036848Y-6383984D02*
X10055896Y-6383984D01*
X10055896Y-6383984D02*
X10074944Y-6393508D01*
X10074944Y-6393508D02*
X10084468Y-6403031D01*
X10084468Y-6403031D02*
X10093991Y-6422079D01*
X10093991Y-6422079D02*
X10103515Y-6460174D01*
X10103515Y-6460174D02*
X10103515Y-6507793D01*
X10103515Y-6507793D02*
X10093991Y-6545888D01*
X10093991Y-6545888D02*
X10084468Y-6564936D01*
X10084468Y-6564936D02*
X10074944Y-6574460D01*
X10074944Y-6574460D02*
X10055896Y-6583984D01*
X10055896Y-6583984D02*
X10036848Y-6583984D01*
X10036848Y-6583984D02*
X10017801Y-6574460D01*
X10017801Y-6574460D02*
X10008277Y-6564936D01*
X10008277Y-6564936D02*
X9998753Y-6545888D01*
X9998753Y-6545888D02*
X9989229Y-6507793D01*
X9989229Y-6507793D02*
X9989229Y-6460174D01*
X9989229Y-6460174D02*
X9998753Y-6422079D01*
X9998753Y-6422079D02*
X10008277Y-6403031D01*
X10008277Y-6403031D02*
X10017801Y-6393508D01*
X10017801Y-6393508D02*
X10036848Y-6383984D01*
X10293991Y-6583984D02*
X10179706Y-6583984D01*
X10236848Y-6583984D02*
X10236848Y-6383984D01*
X10236848Y-6383984D02*
X10217801Y-6412555D01*
X10217801Y-6412555D02*
X10198753Y-6431603D01*
X10198753Y-6431603D02*
X10179706Y-6441127D01*
X10484468Y-6583984D02*
X10370182Y-6583984D01*
X10427325Y-6583984D02*
X10427325Y-6383984D01*
X10427325Y-6383984D02*
X10408277Y-6412555D01*
X10408277Y-6412555D02*
X10389229Y-6431603D01*
X10389229Y-6431603D02*
X10370182Y-6441127D01*
X10598753Y-6469698D02*
X10579706Y-6460174D01*
X10579706Y-6460174D02*
X10570182Y-6450650D01*
X10570182Y-6450650D02*
X10560658Y-6431603D01*
X10560658Y-6431603D02*
X10560658Y-6422079D01*
X10560658Y-6422079D02*
X10570182Y-6403031D01*
X10570182Y-6403031D02*
X10579706Y-6393508D01*
X10579706Y-6393508D02*
X10598753Y-6383984D01*
X10598753Y-6383984D02*
X10636849Y-6383984D01*
X10636849Y-6383984D02*
X10655896Y-6393508D01*
X10655896Y-6393508D02*
X10665420Y-6403031D01*
X10665420Y-6403031D02*
X10674944Y-6422079D01*
X10674944Y-6422079D02*
X10674944Y-6431603D01*
X10674944Y-6431603D02*
X10665420Y-6450650D01*
X10665420Y-6450650D02*
X10655896Y-6460174D01*
X10655896Y-6460174D02*
X10636849Y-6469698D01*
X10636849Y-6469698D02*
X10598753Y-6469698D01*
X10598753Y-6469698D02*
X10579706Y-6479222D01*
X10579706Y-6479222D02*
X10570182Y-6488746D01*
X10570182Y-6488746D02*
X10560658Y-6507793D01*
X10560658Y-6507793D02*
X10560658Y-6545888D01*
X10560658Y-6545888D02*
X10570182Y-6564936D01*
X10570182Y-6564936D02*
X10579706Y-6574460D01*
X10579706Y-6574460D02*
X10598753Y-6583984D01*
X10598753Y-6583984D02*
X10636849Y-6583984D01*
X10636849Y-6583984D02*
X10655896Y-6574460D01*
X10655896Y-6574460D02*
X10665420Y-6564936D01*
X10665420Y-6564936D02*
X10674944Y-6545888D01*
X10674944Y-6545888D02*
X10674944Y-6507793D01*
X10674944Y-6507793D02*
X10665420Y-6488746D01*
X10665420Y-6488746D02*
X10655896Y-6479222D01*
X10655896Y-6479222D02*
X10636849Y-6469698D01*
X10751134Y-6383984D02*
X10751134Y-6422079D01*
X10827325Y-6383984D02*
X10827325Y-6422079D01*
X11122563Y-6660174D02*
X11113039Y-6650650D01*
X11113039Y-6650650D02*
X11093991Y-6622079D01*
X11093991Y-6622079D02*
X11084468Y-6603031D01*
X11084468Y-6603031D02*
X11074944Y-6574460D01*
X11074944Y-6574460D02*
X11065420Y-6526841D01*
X11065420Y-6526841D02*
X11065420Y-6488746D01*
X11065420Y-6488746D02*
X11074944Y-6441127D01*
X11074944Y-6441127D02*
X11084468Y-6412555D01*
X11084468Y-6412555D02*
X11093991Y-6393508D01*
X11093991Y-6393508D02*
X11113039Y-6364936D01*
X11113039Y-6364936D02*
X11122563Y-6355412D01*
X11227325Y-6469698D02*
X11208277Y-6460174D01*
X11208277Y-6460174D02*
X11198753Y-6450650D01*
X11198753Y-6450650D02*
X11189229Y-6431603D01*
X11189229Y-6431603D02*
X11189229Y-6422079D01*
X11189229Y-6422079D02*
X11198753Y-6403031D01*
X11198753Y-6403031D02*
X11208277Y-6393508D01*
X11208277Y-6393508D02*
X11227325Y-6383984D01*
X11227325Y-6383984D02*
X11265420Y-6383984D01*
X11265420Y-6383984D02*
X11284468Y-6393508D01*
X11284468Y-6393508D02*
X11293991Y-6403031D01*
X11293991Y-6403031D02*
X11303515Y-6422079D01*
X11303515Y-6422079D02*
X11303515Y-6431603D01*
X11303515Y-6431603D02*
X11293991Y-6450650D01*
X11293991Y-6450650D02*
X11284468Y-6460174D01*
X11284468Y-6460174D02*
X11265420Y-6469698D01*
X11265420Y-6469698D02*
X11227325Y-6469698D01*
X11227325Y-6469698D02*
X11208277Y-6479222D01*
X11208277Y-6479222D02*
X11198753Y-6488746D01*
X11198753Y-6488746D02*
X11189229Y-6507793D01*
X11189229Y-6507793D02*
X11189229Y-6545888D01*
X11189229Y-6545888D02*
X11198753Y-6564936D01*
X11198753Y-6564936D02*
X11208277Y-6574460D01*
X11208277Y-6574460D02*
X11227325Y-6583984D01*
X11227325Y-6583984D02*
X11265420Y-6583984D01*
X11265420Y-6583984D02*
X11284468Y-6574460D01*
X11284468Y-6574460D02*
X11293991Y-6564936D01*
X11293991Y-6564936D02*
X11303515Y-6545888D01*
X11303515Y-6545888D02*
X11303515Y-6507793D01*
X11303515Y-6507793D02*
X11293991Y-6488746D01*
X11293991Y-6488746D02*
X11284468Y-6479222D01*
X11284468Y-6479222D02*
X11265420Y-6469698D01*
X11474944Y-6383984D02*
X11436848Y-6383984D01*
X11436848Y-6383984D02*
X11417801Y-6393508D01*
X11417801Y-6393508D02*
X11408277Y-6403031D01*
X11408277Y-6403031D02*
X11389229Y-6431603D01*
X11389229Y-6431603D02*
X11379706Y-6469698D01*
X11379706Y-6469698D02*
X11379706Y-6545888D01*
X11379706Y-6545888D02*
X11389229Y-6564936D01*
X11389229Y-6564936D02*
X11398753Y-6574460D01*
X11398753Y-6574460D02*
X11417801Y-6583984D01*
X11417801Y-6583984D02*
X11455896Y-6583984D01*
X11455896Y-6583984D02*
X11474944Y-6574460D01*
X11474944Y-6574460D02*
X11484468Y-6564936D01*
X11484468Y-6564936D02*
X11493991Y-6545888D01*
X11493991Y-6545888D02*
X11493991Y-6498269D01*
X11493991Y-6498269D02*
X11484468Y-6479222D01*
X11484468Y-6479222D02*
X11474944Y-6469698D01*
X11474944Y-6469698D02*
X11455896Y-6460174D01*
X11455896Y-6460174D02*
X11417801Y-6460174D01*
X11417801Y-6460174D02*
X11398753Y-6469698D01*
X11398753Y-6469698D02*
X11389229Y-6479222D01*
X11389229Y-6479222D02*
X11379706Y-6498269D01*
X11732087Y-6583984D02*
X11732087Y-6383984D01*
X11817801Y-6583984D02*
X11817801Y-6479222D01*
X11817801Y-6479222D02*
X11808277Y-6460174D01*
X11808277Y-6460174D02*
X11789230Y-6450650D01*
X11789230Y-6450650D02*
X11760658Y-6450650D01*
X11760658Y-6450650D02*
X11741610Y-6460174D01*
X11741610Y-6460174D02*
X11732087Y-6469698D01*
X11941610Y-6583984D02*
X11922563Y-6574460D01*
X11922563Y-6574460D02*
X11913039Y-6564936D01*
X11913039Y-6564936D02*
X11903515Y-6545888D01*
X11903515Y-6545888D02*
X11903515Y-6488746D01*
X11903515Y-6488746D02*
X11913039Y-6469698D01*
X11913039Y-6469698D02*
X11922563Y-6460174D01*
X11922563Y-6460174D02*
X11941610Y-6450650D01*
X11941610Y-6450650D02*
X11970182Y-6450650D01*
X11970182Y-6450650D02*
X11989230Y-6460174D01*
X11989230Y-6460174D02*
X11998753Y-6469698D01*
X11998753Y-6469698D02*
X12008277Y-6488746D01*
X12008277Y-6488746D02*
X12008277Y-6545888D01*
X12008277Y-6545888D02*
X11998753Y-6564936D01*
X11998753Y-6564936D02*
X11989230Y-6574460D01*
X11989230Y-6574460D02*
X11970182Y-6583984D01*
X11970182Y-6583984D02*
X11941610Y-6583984D01*
X12122563Y-6583984D02*
X12103515Y-6574460D01*
X12103515Y-6574460D02*
X12093991Y-6555412D01*
X12093991Y-6555412D02*
X12093991Y-6383984D01*
X12274944Y-6574460D02*
X12255896Y-6583984D01*
X12255896Y-6583984D02*
X12217801Y-6583984D01*
X12217801Y-6583984D02*
X12198753Y-6574460D01*
X12198753Y-6574460D02*
X12189230Y-6555412D01*
X12189230Y-6555412D02*
X12189230Y-6479222D01*
X12189230Y-6479222D02*
X12198753Y-6460174D01*
X12198753Y-6460174D02*
X12217801Y-6450650D01*
X12217801Y-6450650D02*
X12255896Y-6450650D01*
X12255896Y-6450650D02*
X12274944Y-6460174D01*
X12274944Y-6460174D02*
X12284468Y-6479222D01*
X12284468Y-6479222D02*
X12284468Y-6498269D01*
X12284468Y-6498269D02*
X12189230Y-6517317D01*
X12360658Y-6574460D02*
X12379706Y-6583984D01*
X12379706Y-6583984D02*
X12417801Y-6583984D01*
X12417801Y-6583984D02*
X12436849Y-6574460D01*
X12436849Y-6574460D02*
X12446372Y-6555412D01*
X12446372Y-6555412D02*
X12446372Y-6545888D01*
X12446372Y-6545888D02*
X12436849Y-6526841D01*
X12436849Y-6526841D02*
X12417801Y-6517317D01*
X12417801Y-6517317D02*
X12389230Y-6517317D01*
X12389230Y-6517317D02*
X12370182Y-6507793D01*
X12370182Y-6507793D02*
X12360658Y-6488746D01*
X12360658Y-6488746D02*
X12360658Y-6479222D01*
X12360658Y-6479222D02*
X12370182Y-6460174D01*
X12370182Y-6460174D02*
X12389230Y-6450650D01*
X12389230Y-6450650D02*
X12417801Y-6450650D01*
X12417801Y-6450650D02*
X12436849Y-6460174D01*
X12513039Y-6660174D02*
X12522563Y-6650650D01*
X12522563Y-6650650D02*
X12541611Y-6622079D01*
X12541611Y-6622079D02*
X12551134Y-6603031D01*
X12551134Y-6603031D02*
X12560658Y-6574460D01*
X12560658Y-6574460D02*
X12570182Y-6526841D01*
X12570182Y-6526841D02*
X12570182Y-6488746D01*
X12570182Y-6488746D02*
X12560658Y-6441127D01*
X12560658Y-6441127D02*
X12551134Y-6412555D01*
X12551134Y-6412555D02*
X12541611Y-6393508D01*
X12541611Y-6393508D02*
X12522563Y-6364936D01*
X12522563Y-6364936D02*
X12513039Y-6355412D01*
D12*
X7547500Y-6756500D02*
G75*
G02*
X7501500Y-6756500I-23000J0D01*
G01*
X7501500Y-6756500D02*
G75*
G02*
X7547500Y-6756500I23000J0D01*
G01*
D11*
X7846372Y-6647984D02*
X7865420Y-6647984D01*
X7865420Y-6647984D02*
X7884467Y-6657508D01*
X7884467Y-6657508D02*
X7893991Y-6667031D01*
X7893991Y-6667031D02*
X7903515Y-6686079D01*
X7903515Y-6686079D02*
X7913039Y-6724174D01*
X7913039Y-6724174D02*
X7913039Y-6771793D01*
X7913039Y-6771793D02*
X7903515Y-6809888D01*
X7903515Y-6809888D02*
X7893991Y-6828936D01*
X7893991Y-6828936D02*
X7884467Y-6838460D01*
X7884467Y-6838460D02*
X7865420Y-6847984D01*
X7865420Y-6847984D02*
X7846372Y-6847984D01*
X7846372Y-6847984D02*
X7827324Y-6838460D01*
X7827324Y-6838460D02*
X7817801Y-6828936D01*
X7817801Y-6828936D02*
X7808277Y-6809888D01*
X7808277Y-6809888D02*
X7798753Y-6771793D01*
X7798753Y-6771793D02*
X7798753Y-6724174D01*
X7798753Y-6724174D02*
X7808277Y-6686079D01*
X7808277Y-6686079D02*
X7817801Y-6667031D01*
X7817801Y-6667031D02*
X7827324Y-6657508D01*
X7827324Y-6657508D02*
X7846372Y-6647984D01*
X7998753Y-6828936D02*
X8008277Y-6838460D01*
X8008277Y-6838460D02*
X7998753Y-6847984D01*
X7998753Y-6847984D02*
X7989229Y-6838460D01*
X7989229Y-6838460D02*
X7998753Y-6828936D01*
X7998753Y-6828936D02*
X7998753Y-6847984D01*
X8179705Y-6714650D02*
X8179705Y-6847984D01*
X8132086Y-6638460D02*
X8084467Y-6781317D01*
X8084467Y-6781317D02*
X8208277Y-6781317D01*
X8370182Y-6647984D02*
X8332086Y-6647984D01*
X8332086Y-6647984D02*
X8313039Y-6657508D01*
X8313039Y-6657508D02*
X8303515Y-6667031D01*
X8303515Y-6667031D02*
X8284467Y-6695603D01*
X8284467Y-6695603D02*
X8274943Y-6733698D01*
X8274943Y-6733698D02*
X8274943Y-6809888D01*
X8274943Y-6809888D02*
X8284467Y-6828936D01*
X8284467Y-6828936D02*
X8293991Y-6838460D01*
X8293991Y-6838460D02*
X8313039Y-6847984D01*
X8313039Y-6847984D02*
X8351134Y-6847984D01*
X8351134Y-6847984D02*
X8370182Y-6838460D01*
X8370182Y-6838460D02*
X8379705Y-6828936D01*
X8379705Y-6828936D02*
X8389229Y-6809888D01*
X8389229Y-6809888D02*
X8389229Y-6762269D01*
X8389229Y-6762269D02*
X8379705Y-6743222D01*
X8379705Y-6743222D02*
X8370182Y-6733698D01*
X8370182Y-6733698D02*
X8351134Y-6724174D01*
X8351134Y-6724174D02*
X8313039Y-6724174D01*
X8313039Y-6724174D02*
X8293991Y-6733698D01*
X8293991Y-6733698D02*
X8284467Y-6743222D01*
X8284467Y-6743222D02*
X8274943Y-6762269D01*
X8513039Y-6647984D02*
X8532086Y-6647984D01*
X8532086Y-6647984D02*
X8551134Y-6657508D01*
X8551134Y-6657508D02*
X8560658Y-6667031D01*
X8560658Y-6667031D02*
X8570182Y-6686079D01*
X8570182Y-6686079D02*
X8579705Y-6724174D01*
X8579705Y-6724174D02*
X8579705Y-6771793D01*
X8579705Y-6771793D02*
X8570182Y-6809888D01*
X8570182Y-6809888D02*
X8560658Y-6828936D01*
X8560658Y-6828936D02*
X8551134Y-6838460D01*
X8551134Y-6838460D02*
X8532086Y-6847984D01*
X8532086Y-6847984D02*
X8513039Y-6847984D01*
X8513039Y-6847984D02*
X8493991Y-6838460D01*
X8493991Y-6838460D02*
X8484467Y-6828936D01*
X8484467Y-6828936D02*
X8474944Y-6809888D01*
X8474944Y-6809888D02*
X8465420Y-6771793D01*
X8465420Y-6771793D02*
X8465420Y-6724174D01*
X8465420Y-6724174D02*
X8474944Y-6686079D01*
X8474944Y-6686079D02*
X8484467Y-6667031D01*
X8484467Y-6667031D02*
X8493991Y-6657508D01*
X8493991Y-6657508D02*
X8513039Y-6647984D01*
X8665420Y-6847984D02*
X8665420Y-6714650D01*
X8665420Y-6733698D02*
X8674944Y-6724174D01*
X8674944Y-6724174D02*
X8693991Y-6714650D01*
X8693991Y-6714650D02*
X8722563Y-6714650D01*
X8722563Y-6714650D02*
X8741610Y-6724174D01*
X8741610Y-6724174D02*
X8751134Y-6743222D01*
X8751134Y-6743222D02*
X8751134Y-6847984D01*
X8751134Y-6743222D02*
X8760658Y-6724174D01*
X8760658Y-6724174D02*
X8779705Y-6714650D01*
X8779705Y-6714650D02*
X8808277Y-6714650D01*
X8808277Y-6714650D02*
X8827325Y-6724174D01*
X8827325Y-6724174D02*
X8836848Y-6743222D01*
X8836848Y-6743222D02*
X8836848Y-6847984D01*
X8932086Y-6847984D02*
X8932086Y-6714650D01*
X8932086Y-6733698D02*
X8941610Y-6724174D01*
X8941610Y-6724174D02*
X8960658Y-6714650D01*
X8960658Y-6714650D02*
X8989229Y-6714650D01*
X8989229Y-6714650D02*
X9008277Y-6724174D01*
X9008277Y-6724174D02*
X9017801Y-6743222D01*
X9017801Y-6743222D02*
X9017801Y-6847984D01*
X9017801Y-6743222D02*
X9027325Y-6724174D01*
X9027325Y-6724174D02*
X9046372Y-6714650D01*
X9046372Y-6714650D02*
X9074944Y-6714650D01*
X9074944Y-6714650D02*
X9093991Y-6724174D01*
X9093991Y-6724174D02*
X9103515Y-6743222D01*
X9103515Y-6743222D02*
X9103515Y-6847984D01*
X9493991Y-6638460D02*
X9322563Y-6895603D01*
X9751134Y-6647984D02*
X9770182Y-6647984D01*
X9770182Y-6647984D02*
X9789229Y-6657508D01*
X9789229Y-6657508D02*
X9798753Y-6667031D01*
X9798753Y-6667031D02*
X9808277Y-6686079D01*
X9808277Y-6686079D02*
X9817801Y-6724174D01*
X9817801Y-6724174D02*
X9817801Y-6771793D01*
X9817801Y-6771793D02*
X9808277Y-6809888D01*
X9808277Y-6809888D02*
X9798753Y-6828936D01*
X9798753Y-6828936D02*
X9789229Y-6838460D01*
X9789229Y-6838460D02*
X9770182Y-6847984D01*
X9770182Y-6847984D02*
X9751134Y-6847984D01*
X9751134Y-6847984D02*
X9732087Y-6838460D01*
X9732087Y-6838460D02*
X9722563Y-6828936D01*
X9722563Y-6828936D02*
X9713039Y-6809888D01*
X9713039Y-6809888D02*
X9703515Y-6771793D01*
X9703515Y-6771793D02*
X9703515Y-6724174D01*
X9703515Y-6724174D02*
X9713039Y-6686079D01*
X9713039Y-6686079D02*
X9722563Y-6667031D01*
X9722563Y-6667031D02*
X9732087Y-6657508D01*
X9732087Y-6657508D02*
X9751134Y-6647984D01*
X9903515Y-6828936D02*
X9913039Y-6838460D01*
X9913039Y-6838460D02*
X9903515Y-6847984D01*
X9903515Y-6847984D02*
X9893991Y-6838460D01*
X9893991Y-6838460D02*
X9903515Y-6828936D01*
X9903515Y-6828936D02*
X9903515Y-6847984D01*
X10036848Y-6647984D02*
X10055896Y-6647984D01*
X10055896Y-6647984D02*
X10074944Y-6657508D01*
X10074944Y-6657508D02*
X10084468Y-6667031D01*
X10084468Y-6667031D02*
X10093991Y-6686079D01*
X10093991Y-6686079D02*
X10103515Y-6724174D01*
X10103515Y-6724174D02*
X10103515Y-6771793D01*
X10103515Y-6771793D02*
X10093991Y-6809888D01*
X10093991Y-6809888D02*
X10084468Y-6828936D01*
X10084468Y-6828936D02*
X10074944Y-6838460D01*
X10074944Y-6838460D02*
X10055896Y-6847984D01*
X10055896Y-6847984D02*
X10036848Y-6847984D01*
X10036848Y-6847984D02*
X10017801Y-6838460D01*
X10017801Y-6838460D02*
X10008277Y-6828936D01*
X10008277Y-6828936D02*
X9998753Y-6809888D01*
X9998753Y-6809888D02*
X9989229Y-6771793D01*
X9989229Y-6771793D02*
X9989229Y-6724174D01*
X9989229Y-6724174D02*
X9998753Y-6686079D01*
X9998753Y-6686079D02*
X10008277Y-6667031D01*
X10008277Y-6667031D02*
X10017801Y-6657508D01*
X10017801Y-6657508D02*
X10036848Y-6647984D01*
X10293991Y-6847984D02*
X10179706Y-6847984D01*
X10236848Y-6847984D02*
X10236848Y-6647984D01*
X10236848Y-6647984D02*
X10217801Y-6676555D01*
X10217801Y-6676555D02*
X10198753Y-6695603D01*
X10198753Y-6695603D02*
X10179706Y-6705127D01*
X10408277Y-6733698D02*
X10389229Y-6724174D01*
X10389229Y-6724174D02*
X10379706Y-6714650D01*
X10379706Y-6714650D02*
X10370182Y-6695603D01*
X10370182Y-6695603D02*
X10370182Y-6686079D01*
X10370182Y-6686079D02*
X10379706Y-6667031D01*
X10379706Y-6667031D02*
X10389229Y-6657508D01*
X10389229Y-6657508D02*
X10408277Y-6647984D01*
X10408277Y-6647984D02*
X10446372Y-6647984D01*
X10446372Y-6647984D02*
X10465420Y-6657508D01*
X10465420Y-6657508D02*
X10474944Y-6667031D01*
X10474944Y-6667031D02*
X10484468Y-6686079D01*
X10484468Y-6686079D02*
X10484468Y-6695603D01*
X10484468Y-6695603D02*
X10474944Y-6714650D01*
X10474944Y-6714650D02*
X10465420Y-6724174D01*
X10465420Y-6724174D02*
X10446372Y-6733698D01*
X10446372Y-6733698D02*
X10408277Y-6733698D01*
X10408277Y-6733698D02*
X10389229Y-6743222D01*
X10389229Y-6743222D02*
X10379706Y-6752746D01*
X10379706Y-6752746D02*
X10370182Y-6771793D01*
X10370182Y-6771793D02*
X10370182Y-6809888D01*
X10370182Y-6809888D02*
X10379706Y-6828936D01*
X10379706Y-6828936D02*
X10389229Y-6838460D01*
X10389229Y-6838460D02*
X10408277Y-6847984D01*
X10408277Y-6847984D02*
X10446372Y-6847984D01*
X10446372Y-6847984D02*
X10465420Y-6838460D01*
X10465420Y-6838460D02*
X10474944Y-6828936D01*
X10474944Y-6828936D02*
X10484468Y-6809888D01*
X10484468Y-6809888D02*
X10484468Y-6771793D01*
X10484468Y-6771793D02*
X10474944Y-6752746D01*
X10474944Y-6752746D02*
X10465420Y-6743222D01*
X10465420Y-6743222D02*
X10446372Y-6733698D01*
X10674944Y-6847984D02*
X10560658Y-6847984D01*
X10617801Y-6847984D02*
X10617801Y-6647984D01*
X10617801Y-6647984D02*
X10598753Y-6676555D01*
X10598753Y-6676555D02*
X10579706Y-6695603D01*
X10579706Y-6695603D02*
X10560658Y-6705127D01*
X10751134Y-6647984D02*
X10751134Y-6686079D01*
X10827325Y-6647984D02*
X10827325Y-6686079D01*
X11122563Y-6924174D02*
X11113039Y-6914650D01*
X11113039Y-6914650D02*
X11093991Y-6886079D01*
X11093991Y-6886079D02*
X11084468Y-6867031D01*
X11084468Y-6867031D02*
X11074944Y-6838460D01*
X11074944Y-6838460D02*
X11065420Y-6790841D01*
X11065420Y-6790841D02*
X11065420Y-6752746D01*
X11065420Y-6752746D02*
X11074944Y-6705127D01*
X11074944Y-6705127D02*
X11084468Y-6676555D01*
X11084468Y-6676555D02*
X11093991Y-6657508D01*
X11093991Y-6657508D02*
X11113039Y-6628936D01*
X11113039Y-6628936D02*
X11122563Y-6619412D01*
X11189229Y-6667031D02*
X11198753Y-6657508D01*
X11198753Y-6657508D02*
X11217801Y-6647984D01*
X11217801Y-6647984D02*
X11265420Y-6647984D01*
X11265420Y-6647984D02*
X11284468Y-6657508D01*
X11284468Y-6657508D02*
X11293991Y-6667031D01*
X11293991Y-6667031D02*
X11303515Y-6686079D01*
X11303515Y-6686079D02*
X11303515Y-6705127D01*
X11303515Y-6705127D02*
X11293991Y-6733698D01*
X11293991Y-6733698D02*
X11179706Y-6847984D01*
X11179706Y-6847984D02*
X11303515Y-6847984D01*
X11541610Y-6847984D02*
X11541610Y-6647984D01*
X11627325Y-6847984D02*
X11627325Y-6743222D01*
X11627325Y-6743222D02*
X11617801Y-6724174D01*
X11617801Y-6724174D02*
X11598753Y-6714650D01*
X11598753Y-6714650D02*
X11570182Y-6714650D01*
X11570182Y-6714650D02*
X11551134Y-6724174D01*
X11551134Y-6724174D02*
X11541610Y-6733698D01*
X11751134Y-6847984D02*
X11732087Y-6838460D01*
X11732087Y-6838460D02*
X11722563Y-6828936D01*
X11722563Y-6828936D02*
X11713039Y-6809888D01*
X11713039Y-6809888D02*
X11713039Y-6752746D01*
X11713039Y-6752746D02*
X11722563Y-6733698D01*
X11722563Y-6733698D02*
X11732087Y-6724174D01*
X11732087Y-6724174D02*
X11751134Y-6714650D01*
X11751134Y-6714650D02*
X11779706Y-6714650D01*
X11779706Y-6714650D02*
X11798753Y-6724174D01*
X11798753Y-6724174D02*
X11808277Y-6733698D01*
X11808277Y-6733698D02*
X11817801Y-6752746D01*
X11817801Y-6752746D02*
X11817801Y-6809888D01*
X11817801Y-6809888D02*
X11808277Y-6828936D01*
X11808277Y-6828936D02*
X11798753Y-6838460D01*
X11798753Y-6838460D02*
X11779706Y-6847984D01*
X11779706Y-6847984D02*
X11751134Y-6847984D01*
X11932087Y-6847984D02*
X11913039Y-6838460D01*
X11913039Y-6838460D02*
X11903515Y-6819412D01*
X11903515Y-6819412D02*
X11903515Y-6647984D01*
X12084468Y-6838460D02*
X12065420Y-6847984D01*
X12065420Y-6847984D02*
X12027325Y-6847984D01*
X12027325Y-6847984D02*
X12008277Y-6838460D01*
X12008277Y-6838460D02*
X11998753Y-6819412D01*
X11998753Y-6819412D02*
X11998753Y-6743222D01*
X11998753Y-6743222D02*
X12008277Y-6724174D01*
X12008277Y-6724174D02*
X12027325Y-6714650D01*
X12027325Y-6714650D02*
X12065420Y-6714650D01*
X12065420Y-6714650D02*
X12084468Y-6724174D01*
X12084468Y-6724174D02*
X12093991Y-6743222D01*
X12093991Y-6743222D02*
X12093991Y-6762269D01*
X12093991Y-6762269D02*
X11998753Y-6781317D01*
X12170182Y-6838460D02*
X12189230Y-6847984D01*
X12189230Y-6847984D02*
X12227325Y-6847984D01*
X12227325Y-6847984D02*
X12246372Y-6838460D01*
X12246372Y-6838460D02*
X12255896Y-6819412D01*
X12255896Y-6819412D02*
X12255896Y-6809888D01*
X12255896Y-6809888D02*
X12246372Y-6790841D01*
X12246372Y-6790841D02*
X12227325Y-6781317D01*
X12227325Y-6781317D02*
X12198753Y-6781317D01*
X12198753Y-6781317D02*
X12179706Y-6771793D01*
X12179706Y-6771793D02*
X12170182Y-6752746D01*
X12170182Y-6752746D02*
X12170182Y-6743222D01*
X12170182Y-6743222D02*
X12179706Y-6724174D01*
X12179706Y-6724174D02*
X12198753Y-6714650D01*
X12198753Y-6714650D02*
X12227325Y-6714650D01*
X12227325Y-6714650D02*
X12246372Y-6724174D01*
X12322563Y-6924174D02*
X12332087Y-6914650D01*
X12332087Y-6914650D02*
X12351134Y-6886079D01*
X12351134Y-6886079D02*
X12360658Y-6867031D01*
X12360658Y-6867031D02*
X12370182Y-6838460D01*
X12370182Y-6838460D02*
X12379706Y-6790841D01*
X12379706Y-6790841D02*
X12379706Y-6752746D01*
X12379706Y-6752746D02*
X12370182Y-6705127D01*
X12370182Y-6705127D02*
X12360658Y-6676555D01*
X12360658Y-6676555D02*
X12351134Y-6657508D01*
X12351134Y-6657508D02*
X12332087Y-6628936D01*
X12332087Y-6628936D02*
X12322563Y-6619412D01*
D12*
X7512500Y-6985500D02*
X7512500Y-7055500D01*
X7477500Y-7020500D02*
X7547500Y-7020500D01*
D11*
X7846372Y-6911984D02*
X7865420Y-6911984D01*
X7865420Y-6911984D02*
X7884467Y-6921508D01*
X7884467Y-6921508D02*
X7893991Y-6931031D01*
X7893991Y-6931031D02*
X7903515Y-6950079D01*
X7903515Y-6950079D02*
X7913039Y-6988174D01*
X7913039Y-6988174D02*
X7913039Y-7035793D01*
X7913039Y-7035793D02*
X7903515Y-7073888D01*
X7903515Y-7073888D02*
X7893991Y-7092936D01*
X7893991Y-7092936D02*
X7884467Y-7102460D01*
X7884467Y-7102460D02*
X7865420Y-7111984D01*
X7865420Y-7111984D02*
X7846372Y-7111984D01*
X7846372Y-7111984D02*
X7827324Y-7102460D01*
X7827324Y-7102460D02*
X7817801Y-7092936D01*
X7817801Y-7092936D02*
X7808277Y-7073888D01*
X7808277Y-7073888D02*
X7798753Y-7035793D01*
X7798753Y-7035793D02*
X7798753Y-6988174D01*
X7798753Y-6988174D02*
X7808277Y-6950079D01*
X7808277Y-6950079D02*
X7817801Y-6931031D01*
X7817801Y-6931031D02*
X7827324Y-6921508D01*
X7827324Y-6921508D02*
X7846372Y-6911984D01*
X7998753Y-7092936D02*
X8008277Y-7102460D01*
X8008277Y-7102460D02*
X7998753Y-7111984D01*
X7998753Y-7111984D02*
X7989229Y-7102460D01*
X7989229Y-7102460D02*
X7998753Y-7092936D01*
X7998753Y-7092936D02*
X7998753Y-7111984D01*
X8074943Y-6911984D02*
X8208277Y-6911984D01*
X8208277Y-6911984D02*
X8122562Y-7111984D01*
X8322562Y-6911984D02*
X8341610Y-6911984D01*
X8341610Y-6911984D02*
X8360658Y-6921508D01*
X8360658Y-6921508D02*
X8370182Y-6931031D01*
X8370182Y-6931031D02*
X8379705Y-6950079D01*
X8379705Y-6950079D02*
X8389229Y-6988174D01*
X8389229Y-6988174D02*
X8389229Y-7035793D01*
X8389229Y-7035793D02*
X8379705Y-7073888D01*
X8379705Y-7073888D02*
X8370182Y-7092936D01*
X8370182Y-7092936D02*
X8360658Y-7102460D01*
X8360658Y-7102460D02*
X8341610Y-7111984D01*
X8341610Y-7111984D02*
X8322562Y-7111984D01*
X8322562Y-7111984D02*
X8303515Y-7102460D01*
X8303515Y-7102460D02*
X8293991Y-7092936D01*
X8293991Y-7092936D02*
X8284467Y-7073888D01*
X8284467Y-7073888D02*
X8274943Y-7035793D01*
X8274943Y-7035793D02*
X8274943Y-6988174D01*
X8274943Y-6988174D02*
X8284467Y-6950079D01*
X8284467Y-6950079D02*
X8293991Y-6931031D01*
X8293991Y-6931031D02*
X8303515Y-6921508D01*
X8303515Y-6921508D02*
X8322562Y-6911984D01*
X8513039Y-6911984D02*
X8532086Y-6911984D01*
X8532086Y-6911984D02*
X8551134Y-6921508D01*
X8551134Y-6921508D02*
X8560658Y-6931031D01*
X8560658Y-6931031D02*
X8570182Y-6950079D01*
X8570182Y-6950079D02*
X8579705Y-6988174D01*
X8579705Y-6988174D02*
X8579705Y-7035793D01*
X8579705Y-7035793D02*
X8570182Y-7073888D01*
X8570182Y-7073888D02*
X8560658Y-7092936D01*
X8560658Y-7092936D02*
X8551134Y-7102460D01*
X8551134Y-7102460D02*
X8532086Y-7111984D01*
X8532086Y-7111984D02*
X8513039Y-7111984D01*
X8513039Y-7111984D02*
X8493991Y-7102460D01*
X8493991Y-7102460D02*
X8484467Y-7092936D01*
X8484467Y-7092936D02*
X8474944Y-7073888D01*
X8474944Y-7073888D02*
X8465420Y-7035793D01*
X8465420Y-7035793D02*
X8465420Y-6988174D01*
X8465420Y-6988174D02*
X8474944Y-6950079D01*
X8474944Y-6950079D02*
X8484467Y-6931031D01*
X8484467Y-6931031D02*
X8493991Y-6921508D01*
X8493991Y-6921508D02*
X8513039Y-6911984D01*
X8665420Y-7111984D02*
X8665420Y-6978650D01*
X8665420Y-6997698D02*
X8674944Y-6988174D01*
X8674944Y-6988174D02*
X8693991Y-6978650D01*
X8693991Y-6978650D02*
X8722563Y-6978650D01*
X8722563Y-6978650D02*
X8741610Y-6988174D01*
X8741610Y-6988174D02*
X8751134Y-7007222D01*
X8751134Y-7007222D02*
X8751134Y-7111984D01*
X8751134Y-7007222D02*
X8760658Y-6988174D01*
X8760658Y-6988174D02*
X8779705Y-6978650D01*
X8779705Y-6978650D02*
X8808277Y-6978650D01*
X8808277Y-6978650D02*
X8827325Y-6988174D01*
X8827325Y-6988174D02*
X8836848Y-7007222D01*
X8836848Y-7007222D02*
X8836848Y-7111984D01*
X8932086Y-7111984D02*
X8932086Y-6978650D01*
X8932086Y-6997698D02*
X8941610Y-6988174D01*
X8941610Y-6988174D02*
X8960658Y-6978650D01*
X8960658Y-6978650D02*
X8989229Y-6978650D01*
X8989229Y-6978650D02*
X9008277Y-6988174D01*
X9008277Y-6988174D02*
X9017801Y-7007222D01*
X9017801Y-7007222D02*
X9017801Y-7111984D01*
X9017801Y-7007222D02*
X9027325Y-6988174D01*
X9027325Y-6988174D02*
X9046372Y-6978650D01*
X9046372Y-6978650D02*
X9074944Y-6978650D01*
X9074944Y-6978650D02*
X9093991Y-6988174D01*
X9093991Y-6988174D02*
X9103515Y-7007222D01*
X9103515Y-7007222D02*
X9103515Y-7111984D01*
X9493991Y-6902460D02*
X9322563Y-7159603D01*
X9751134Y-6911984D02*
X9770182Y-6911984D01*
X9770182Y-6911984D02*
X9789229Y-6921508D01*
X9789229Y-6921508D02*
X9798753Y-6931031D01*
X9798753Y-6931031D02*
X9808277Y-6950079D01*
X9808277Y-6950079D02*
X9817801Y-6988174D01*
X9817801Y-6988174D02*
X9817801Y-7035793D01*
X9817801Y-7035793D02*
X9808277Y-7073888D01*
X9808277Y-7073888D02*
X9798753Y-7092936D01*
X9798753Y-7092936D02*
X9789229Y-7102460D01*
X9789229Y-7102460D02*
X9770182Y-7111984D01*
X9770182Y-7111984D02*
X9751134Y-7111984D01*
X9751134Y-7111984D02*
X9732087Y-7102460D01*
X9732087Y-7102460D02*
X9722563Y-7092936D01*
X9722563Y-7092936D02*
X9713039Y-7073888D01*
X9713039Y-7073888D02*
X9703515Y-7035793D01*
X9703515Y-7035793D02*
X9703515Y-6988174D01*
X9703515Y-6988174D02*
X9713039Y-6950079D01*
X9713039Y-6950079D02*
X9722563Y-6931031D01*
X9722563Y-6931031D02*
X9732087Y-6921508D01*
X9732087Y-6921508D02*
X9751134Y-6911984D01*
X9903515Y-7092936D02*
X9913039Y-7102460D01*
X9913039Y-7102460D02*
X9903515Y-7111984D01*
X9903515Y-7111984D02*
X9893991Y-7102460D01*
X9893991Y-7102460D02*
X9903515Y-7092936D01*
X9903515Y-7092936D02*
X9903515Y-7111984D01*
X10036848Y-6911984D02*
X10055896Y-6911984D01*
X10055896Y-6911984D02*
X10074944Y-6921508D01*
X10074944Y-6921508D02*
X10084468Y-6931031D01*
X10084468Y-6931031D02*
X10093991Y-6950079D01*
X10093991Y-6950079D02*
X10103515Y-6988174D01*
X10103515Y-6988174D02*
X10103515Y-7035793D01*
X10103515Y-7035793D02*
X10093991Y-7073888D01*
X10093991Y-7073888D02*
X10084468Y-7092936D01*
X10084468Y-7092936D02*
X10074944Y-7102460D01*
X10074944Y-7102460D02*
X10055896Y-7111984D01*
X10055896Y-7111984D02*
X10036848Y-7111984D01*
X10036848Y-7111984D02*
X10017801Y-7102460D01*
X10017801Y-7102460D02*
X10008277Y-7092936D01*
X10008277Y-7092936D02*
X9998753Y-7073888D01*
X9998753Y-7073888D02*
X9989229Y-7035793D01*
X9989229Y-7035793D02*
X9989229Y-6988174D01*
X9989229Y-6988174D02*
X9998753Y-6950079D01*
X9998753Y-6950079D02*
X10008277Y-6931031D01*
X10008277Y-6931031D02*
X10017801Y-6921508D01*
X10017801Y-6921508D02*
X10036848Y-6911984D01*
X10179706Y-6931031D02*
X10189229Y-6921508D01*
X10189229Y-6921508D02*
X10208277Y-6911984D01*
X10208277Y-6911984D02*
X10255896Y-6911984D01*
X10255896Y-6911984D02*
X10274944Y-6921508D01*
X10274944Y-6921508D02*
X10284468Y-6931031D01*
X10284468Y-6931031D02*
X10293991Y-6950079D01*
X10293991Y-6950079D02*
X10293991Y-6969127D01*
X10293991Y-6969127D02*
X10284468Y-6997698D01*
X10284468Y-6997698D02*
X10170182Y-7111984D01*
X10170182Y-7111984D02*
X10293991Y-7111984D01*
X10360658Y-6911984D02*
X10493991Y-6911984D01*
X10493991Y-6911984D02*
X10408277Y-7111984D01*
X10655896Y-6911984D02*
X10617801Y-6911984D01*
X10617801Y-6911984D02*
X10598753Y-6921508D01*
X10598753Y-6921508D02*
X10589229Y-6931031D01*
X10589229Y-6931031D02*
X10570182Y-6959603D01*
X10570182Y-6959603D02*
X10560658Y-6997698D01*
X10560658Y-6997698D02*
X10560658Y-7073888D01*
X10560658Y-7073888D02*
X10570182Y-7092936D01*
X10570182Y-7092936D02*
X10579706Y-7102460D01*
X10579706Y-7102460D02*
X10598753Y-7111984D01*
X10598753Y-7111984D02*
X10636849Y-7111984D01*
X10636849Y-7111984D02*
X10655896Y-7102460D01*
X10655896Y-7102460D02*
X10665420Y-7092936D01*
X10665420Y-7092936D02*
X10674944Y-7073888D01*
X10674944Y-7073888D02*
X10674944Y-7026269D01*
X10674944Y-7026269D02*
X10665420Y-7007222D01*
X10665420Y-7007222D02*
X10655896Y-6997698D01*
X10655896Y-6997698D02*
X10636849Y-6988174D01*
X10636849Y-6988174D02*
X10598753Y-6988174D01*
X10598753Y-6988174D02*
X10579706Y-6997698D01*
X10579706Y-6997698D02*
X10570182Y-7007222D01*
X10570182Y-7007222D02*
X10560658Y-7026269D01*
X10751134Y-6911984D02*
X10751134Y-6950079D01*
X10827325Y-6911984D02*
X10827325Y-6950079D01*
X11122563Y-7188174D02*
X11113039Y-7178650D01*
X11113039Y-7178650D02*
X11093991Y-7150079D01*
X11093991Y-7150079D02*
X11084468Y-7131031D01*
X11084468Y-7131031D02*
X11074944Y-7102460D01*
X11074944Y-7102460D02*
X11065420Y-7054841D01*
X11065420Y-7054841D02*
X11065420Y-7016746D01*
X11065420Y-7016746D02*
X11074944Y-6969127D01*
X11074944Y-6969127D02*
X11084468Y-6940555D01*
X11084468Y-6940555D02*
X11093991Y-6921508D01*
X11093991Y-6921508D02*
X11113039Y-6892936D01*
X11113039Y-6892936D02*
X11122563Y-6883412D01*
X11236848Y-6911984D02*
X11255896Y-6911984D01*
X11255896Y-6911984D02*
X11274944Y-6921508D01*
X11274944Y-6921508D02*
X11284468Y-6931031D01*
X11284468Y-6931031D02*
X11293991Y-6950079D01*
X11293991Y-6950079D02*
X11303515Y-6988174D01*
X11303515Y-6988174D02*
X11303515Y-7035793D01*
X11303515Y-7035793D02*
X11293991Y-7073888D01*
X11293991Y-7073888D02*
X11284468Y-7092936D01*
X11284468Y-7092936D02*
X11274944Y-7102460D01*
X11274944Y-7102460D02*
X11255896Y-7111984D01*
X11255896Y-7111984D02*
X11236848Y-7111984D01*
X11236848Y-7111984D02*
X11217801Y-7102460D01*
X11217801Y-7102460D02*
X11208277Y-7092936D01*
X11208277Y-7092936D02*
X11198753Y-7073888D01*
X11198753Y-7073888D02*
X11189229Y-7035793D01*
X11189229Y-7035793D02*
X11189229Y-6988174D01*
X11189229Y-6988174D02*
X11198753Y-6950079D01*
X11198753Y-6950079D02*
X11208277Y-6931031D01*
X11208277Y-6931031D02*
X11217801Y-6921508D01*
X11217801Y-6921508D02*
X11236848Y-6911984D01*
X11541610Y-7111984D02*
X11541610Y-6911984D01*
X11627325Y-7111984D02*
X11627325Y-7007222D01*
X11627325Y-7007222D02*
X11617801Y-6988174D01*
X11617801Y-6988174D02*
X11598753Y-6978650D01*
X11598753Y-6978650D02*
X11570182Y-6978650D01*
X11570182Y-6978650D02*
X11551134Y-6988174D01*
X11551134Y-6988174D02*
X11541610Y-6997698D01*
X11751134Y-7111984D02*
X11732087Y-7102460D01*
X11732087Y-7102460D02*
X11722563Y-7092936D01*
X11722563Y-7092936D02*
X11713039Y-7073888D01*
X11713039Y-7073888D02*
X11713039Y-7016746D01*
X11713039Y-7016746D02*
X11722563Y-6997698D01*
X11722563Y-6997698D02*
X11732087Y-6988174D01*
X11732087Y-6988174D02*
X11751134Y-6978650D01*
X11751134Y-6978650D02*
X11779706Y-6978650D01*
X11779706Y-6978650D02*
X11798753Y-6988174D01*
X11798753Y-6988174D02*
X11808277Y-6997698D01*
X11808277Y-6997698D02*
X11817801Y-7016746D01*
X11817801Y-7016746D02*
X11817801Y-7073888D01*
X11817801Y-7073888D02*
X11808277Y-7092936D01*
X11808277Y-7092936D02*
X11798753Y-7102460D01*
X11798753Y-7102460D02*
X11779706Y-7111984D01*
X11779706Y-7111984D02*
X11751134Y-7111984D01*
X11932087Y-7111984D02*
X11913039Y-7102460D01*
X11913039Y-7102460D02*
X11903515Y-7083412D01*
X11903515Y-7083412D02*
X11903515Y-6911984D01*
X12084468Y-7102460D02*
X12065420Y-7111984D01*
X12065420Y-7111984D02*
X12027325Y-7111984D01*
X12027325Y-7111984D02*
X12008277Y-7102460D01*
X12008277Y-7102460D02*
X11998753Y-7083412D01*
X11998753Y-7083412D02*
X11998753Y-7007222D01*
X11998753Y-7007222D02*
X12008277Y-6988174D01*
X12008277Y-6988174D02*
X12027325Y-6978650D01*
X12027325Y-6978650D02*
X12065420Y-6978650D01*
X12065420Y-6978650D02*
X12084468Y-6988174D01*
X12084468Y-6988174D02*
X12093991Y-7007222D01*
X12093991Y-7007222D02*
X12093991Y-7026269D01*
X12093991Y-7026269D02*
X11998753Y-7045317D01*
X12170182Y-7102460D02*
X12189230Y-7111984D01*
X12189230Y-7111984D02*
X12227325Y-7111984D01*
X12227325Y-7111984D02*
X12246372Y-7102460D01*
X12246372Y-7102460D02*
X12255896Y-7083412D01*
X12255896Y-7083412D02*
X12255896Y-7073888D01*
X12255896Y-7073888D02*
X12246372Y-7054841D01*
X12246372Y-7054841D02*
X12227325Y-7045317D01*
X12227325Y-7045317D02*
X12198753Y-7045317D01*
X12198753Y-7045317D02*
X12179706Y-7035793D01*
X12179706Y-7035793D02*
X12170182Y-7016746D01*
X12170182Y-7016746D02*
X12170182Y-7007222D01*
X12170182Y-7007222D02*
X12179706Y-6988174D01*
X12179706Y-6988174D02*
X12198753Y-6978650D01*
X12198753Y-6978650D02*
X12227325Y-6978650D01*
X12227325Y-6978650D02*
X12246372Y-6988174D01*
X12493992Y-7035793D02*
X12646373Y-7035793D01*
X12570182Y-7111984D02*
X12570182Y-6959603D01*
X12884468Y-6931031D02*
X12893992Y-6921508D01*
X12893992Y-6921508D02*
X12913039Y-6911984D01*
X12913039Y-6911984D02*
X12960658Y-6911984D01*
X12960658Y-6911984D02*
X12979706Y-6921508D01*
X12979706Y-6921508D02*
X12989230Y-6931031D01*
X12989230Y-6931031D02*
X12998753Y-6950079D01*
X12998753Y-6950079D02*
X12998753Y-6969127D01*
X12998753Y-6969127D02*
X12989230Y-6997698D01*
X12989230Y-6997698D02*
X12874944Y-7111984D01*
X12874944Y-7111984D02*
X12998753Y-7111984D01*
X13227325Y-7102460D02*
X13246373Y-7111984D01*
X13246373Y-7111984D02*
X13284468Y-7111984D01*
X13284468Y-7111984D02*
X13303515Y-7102460D01*
X13303515Y-7102460D02*
X13313039Y-7083412D01*
X13313039Y-7083412D02*
X13313039Y-7073888D01*
X13313039Y-7073888D02*
X13303515Y-7054841D01*
X13303515Y-7054841D02*
X13284468Y-7045317D01*
X13284468Y-7045317D02*
X13255896Y-7045317D01*
X13255896Y-7045317D02*
X13236849Y-7035793D01*
X13236849Y-7035793D02*
X13227325Y-7016746D01*
X13227325Y-7016746D02*
X13227325Y-7007222D01*
X13227325Y-7007222D02*
X13236849Y-6988174D01*
X13236849Y-6988174D02*
X13255896Y-6978650D01*
X13255896Y-6978650D02*
X13284468Y-6978650D01*
X13284468Y-6978650D02*
X13303515Y-6988174D01*
X13427325Y-7111984D02*
X13408277Y-7102460D01*
X13408277Y-7102460D02*
X13398754Y-7083412D01*
X13398754Y-7083412D02*
X13398754Y-6911984D01*
X13532087Y-7111984D02*
X13513039Y-7102460D01*
X13513039Y-7102460D02*
X13503515Y-7092936D01*
X13503515Y-7092936D02*
X13493992Y-7073888D01*
X13493992Y-7073888D02*
X13493992Y-7016746D01*
X13493992Y-7016746D02*
X13503515Y-6997698D01*
X13503515Y-6997698D02*
X13513039Y-6988174D01*
X13513039Y-6988174D02*
X13532087Y-6978650D01*
X13532087Y-6978650D02*
X13560658Y-6978650D01*
X13560658Y-6978650D02*
X13579706Y-6988174D01*
X13579706Y-6988174D02*
X13589230Y-6997698D01*
X13589230Y-6997698D02*
X13598754Y-7016746D01*
X13598754Y-7016746D02*
X13598754Y-7073888D01*
X13598754Y-7073888D02*
X13589230Y-7092936D01*
X13589230Y-7092936D02*
X13579706Y-7102460D01*
X13579706Y-7102460D02*
X13560658Y-7111984D01*
X13560658Y-7111984D02*
X13532087Y-7111984D01*
X13655896Y-6978650D02*
X13732087Y-6978650D01*
X13684468Y-6911984D02*
X13684468Y-7083412D01*
X13684468Y-7083412D02*
X13693992Y-7102460D01*
X13693992Y-7102460D02*
X13713039Y-7111984D01*
X13713039Y-7111984D02*
X13732087Y-7111984D01*
X13789230Y-7102460D02*
X13808277Y-7111984D01*
X13808277Y-7111984D02*
X13846373Y-7111984D01*
X13846373Y-7111984D02*
X13865420Y-7102460D01*
X13865420Y-7102460D02*
X13874944Y-7083412D01*
X13874944Y-7083412D02*
X13874944Y-7073888D01*
X13874944Y-7073888D02*
X13865420Y-7054841D01*
X13865420Y-7054841D02*
X13846373Y-7045317D01*
X13846373Y-7045317D02*
X13817801Y-7045317D01*
X13817801Y-7045317D02*
X13798754Y-7035793D01*
X13798754Y-7035793D02*
X13789230Y-7016746D01*
X13789230Y-7016746D02*
X13789230Y-7007222D01*
X13789230Y-7007222D02*
X13798754Y-6988174D01*
X13798754Y-6988174D02*
X13817801Y-6978650D01*
X13817801Y-6978650D02*
X13846373Y-6978650D01*
X13846373Y-6978650D02*
X13865420Y-6988174D01*
X13941611Y-7188174D02*
X13951135Y-7178650D01*
X13951135Y-7178650D02*
X13970182Y-7150079D01*
X13970182Y-7150079D02*
X13979706Y-7131031D01*
X13979706Y-7131031D02*
X13989230Y-7102460D01*
X13989230Y-7102460D02*
X13998754Y-7054841D01*
X13998754Y-7054841D02*
X13998754Y-7016746D01*
X13998754Y-7016746D02*
X13989230Y-6969127D01*
X13989230Y-6969127D02*
X13979706Y-6940555D01*
X13979706Y-6940555D02*
X13970182Y-6921508D01*
X13970182Y-6921508D02*
X13951135Y-6892936D01*
X13951135Y-6892936D02*
X13941611Y-6883412D01*
M02*
