G04 #@! TF.GenerationSoftware,KiCad,Pcbnew,9.0.0*
G04 #@! TF.CreationDate,2025-04-06T23:20:39+02:00*
G04 #@! TF.ProjectId,RF-to-USB,52462d74-6f2d-4555-9342-2e6b69636164,rev?*
G04 #@! TF.SameCoordinates,Original*
G04 #@! TF.FileFunction,Paste,Bot*
G04 #@! TF.FilePolarity,Positive*
%FSLAX46Y46*%
G04 Gerber Fmt 4.6, Leading zero omitted, Abs format (unit mm)*
G04 Created by KiCad (PCBNEW 9.0.0) date 2025-04-06 23:20:39*
%MOMM*%
%LPD*%
G01*
G04 APERTURE LIST*
G04 Aperture macros list*
%AMRoundRect*
0 Rectangle with rounded corners*
0 $1 Rounding radius*
0 $2 $3 $4 $5 $6 $7 $8 $9 X,Y pos of 4 corners*
0 Add a 4 corners polygon primitive as box body*
4,1,4,$2,$3,$4,$5,$6,$7,$8,$9,$2,$3,0*
0 Add four circle primitives for the rounded corners*
1,1,$1+$1,$2,$3*
1,1,$1+$1,$4,$5*
1,1,$1+$1,$6,$7*
1,1,$1+$1,$8,$9*
0 Add four rect primitives between the rounded corners*
20,1,$1+$1,$2,$3,$4,$5,0*
20,1,$1+$1,$4,$5,$6,$7,0*
20,1,$1+$1,$6,$7,$8,$9,0*
20,1,$1+$1,$8,$9,$2,$3,0*%
G04 Aperture macros list end*
%ADD10RoundRect,0.140000X-0.140000X-0.170000X0.140000X-0.170000X0.140000X0.170000X-0.140000X0.170000X0*%
%ADD11RoundRect,0.147500X-0.147500X-0.172500X0.147500X-0.172500X0.147500X0.172500X-0.147500X0.172500X0*%
%ADD12RoundRect,0.200000X0.200000X0.275000X-0.200000X0.275000X-0.200000X-0.275000X0.200000X-0.275000X0*%
%ADD13RoundRect,0.150000X-0.150000X0.512500X-0.150000X-0.512500X0.150000X-0.512500X0.150000X0.512500X0*%
%ADD14RoundRect,0.147500X0.172500X-0.147500X0.172500X0.147500X-0.172500X0.147500X-0.172500X-0.147500X0*%
%ADD15RoundRect,0.140000X0.140000X0.170000X-0.140000X0.170000X-0.140000X-0.170000X0.140000X-0.170000X0*%
%ADD16RoundRect,0.135000X0.185000X-0.135000X0.185000X0.135000X-0.185000X0.135000X-0.185000X-0.135000X0*%
%ADD17R,5.080000X2.290000*%
%ADD18R,5.080000X2.420000*%
%ADD19RoundRect,0.140000X0.170000X-0.140000X0.170000X0.140000X-0.170000X0.140000X-0.170000X-0.140000X0*%
%ADD20RoundRect,0.225000X-0.225000X-0.250000X0.225000X-0.250000X0.225000X0.250000X-0.225000X0.250000X0*%
%ADD21RoundRect,0.140000X0.021213X-0.219203X0.219203X-0.021213X-0.021213X0.219203X-0.219203X0.021213X0*%
%ADD22R,1.400000X1.150000*%
%ADD23RoundRect,0.135000X0.135000X0.185000X-0.135000X0.185000X-0.135000X-0.185000X0.135000X-0.185000X0*%
%ADD24RoundRect,0.140000X-0.021213X0.219203X-0.219203X0.021213X0.021213X-0.219203X0.219203X-0.021213X0*%
%ADD25RoundRect,0.218750X0.218750X0.381250X-0.218750X0.381250X-0.218750X-0.381250X0.218750X-0.381250X0*%
%ADD26RoundRect,0.250000X-0.255000X-0.255000X0.255000X-0.255000X0.255000X0.255000X-0.255000X0.255000X0*%
%ADD27RoundRect,0.062500X-0.350000X-0.062500X0.350000X-0.062500X0.350000X0.062500X-0.350000X0.062500X0*%
%ADD28RoundRect,0.062500X-0.062500X-0.350000X0.062500X-0.350000X0.062500X0.350000X-0.062500X0.350000X0*%
%ADD29RoundRect,0.135000X-0.135000X-0.185000X0.135000X-0.185000X0.135000X0.185000X-0.135000X0.185000X0*%
%ADD30R,0.740000X2.400000*%
%ADD31RoundRect,0.135000X-0.185000X0.135000X-0.185000X-0.135000X0.185000X-0.135000X0.185000X0.135000X0*%
%ADD32RoundRect,0.140000X-0.170000X0.140000X-0.170000X-0.140000X0.170000X-0.140000X0.170000X0.140000X0*%
%ADD33RoundRect,0.140000X0.219203X0.021213X0.021213X0.219203X-0.219203X-0.021213X-0.021213X-0.219203X0*%
%ADD34RoundRect,0.232500X0.232500X-0.232500X0.232500X0.232500X-0.232500X0.232500X-0.232500X-0.232500X0*%
%ADD35RoundRect,0.062500X0.062500X-0.375000X0.062500X0.375000X-0.062500X0.375000X-0.062500X-0.375000X0*%
%ADD36RoundRect,0.062500X0.375000X-0.062500X0.375000X0.062500X-0.375000X0.062500X-0.375000X-0.062500X0*%
%ADD37RoundRect,0.250000X-0.375000X-0.625000X0.375000X-0.625000X0.375000X0.625000X-0.375000X0.625000X0*%
%ADD38RoundRect,0.150000X0.512500X0.150000X-0.512500X0.150000X-0.512500X-0.150000X0.512500X-0.150000X0*%
G04 APERTURE END LIST*
D10*
X107270000Y-47000000D03*
X108230000Y-47000000D03*
D11*
X113515000Y-50500000D03*
X114485000Y-50500000D03*
D12*
X97825000Y-55500000D03*
X96175000Y-55500000D03*
D13*
X89550000Y-54862500D03*
X91450000Y-54862500D03*
X90500000Y-57137500D03*
D14*
X113500000Y-49485000D03*
X113500000Y-48515000D03*
D15*
X100970000Y-55500000D03*
X100010000Y-55500000D03*
D10*
X108520000Y-54500000D03*
X109480000Y-54500000D03*
D16*
X100750000Y-51010000D03*
X100750000Y-49990000D03*
D17*
X122430000Y-48500000D03*
D18*
X122430000Y-52880000D03*
X122430000Y-44120000D03*
D19*
X112500000Y-44980000D03*
X112500000Y-44020000D03*
D20*
X93225000Y-55000000D03*
X94775000Y-55000000D03*
D10*
X85510000Y-53770000D03*
X86470000Y-53770000D03*
D21*
X99160589Y-52589411D03*
X99839411Y-51910589D03*
D22*
X110600000Y-45300000D03*
X108400000Y-45300000D03*
X108400000Y-43700000D03*
X110600000Y-43700000D03*
D21*
X111660589Y-52839411D03*
X112339411Y-52160589D03*
D23*
X110260000Y-47000000D03*
X109240000Y-47000000D03*
D10*
X93410000Y-53270000D03*
X94370000Y-53270000D03*
X114520000Y-48500000D03*
X115480000Y-48500000D03*
D15*
X89950000Y-51520000D03*
X88990000Y-51520000D03*
D24*
X92829411Y-44680589D03*
X92150589Y-45359411D03*
D14*
X112500000Y-50485000D03*
X112500000Y-49515000D03*
D25*
X88062500Y-57000000D03*
X85937500Y-57000000D03*
D10*
X115520000Y-50500000D03*
X116480000Y-50500000D03*
D15*
X98470000Y-39520000D03*
X97510000Y-39520000D03*
D26*
X107827500Y-49585000D03*
X107827500Y-50835000D03*
X109077500Y-49585000D03*
X109077500Y-50835000D03*
D27*
X106515000Y-51210000D03*
X106515000Y-50710000D03*
X106515000Y-50210000D03*
X106515000Y-49710000D03*
X106515000Y-49210000D03*
D28*
X107452500Y-48272500D03*
X107952500Y-48272500D03*
X108452500Y-48272500D03*
X108952500Y-48272500D03*
X109452500Y-48272500D03*
D27*
X110390000Y-49210000D03*
X110390000Y-49710000D03*
X110390000Y-50210000D03*
X110390000Y-50710000D03*
X110390000Y-51210000D03*
D28*
X109452500Y-52147500D03*
X108952500Y-52147500D03*
X108452500Y-52147500D03*
X107952500Y-52147500D03*
X107452500Y-52147500D03*
D29*
X85480000Y-55020000D03*
X86500000Y-55020000D03*
D30*
X88540000Y-44450000D03*
X88540000Y-40550000D03*
X87270000Y-44450000D03*
X87270000Y-40550000D03*
X86000000Y-44450000D03*
X86000000Y-40550000D03*
X84730000Y-44450000D03*
X84730000Y-40550000D03*
X83460000Y-44450000D03*
X83460000Y-40550000D03*
D10*
X114520000Y-47530000D03*
X115480000Y-47530000D03*
D15*
X107480000Y-53500000D03*
X106520000Y-53500000D03*
D12*
X97825000Y-54000000D03*
X96175000Y-54000000D03*
D31*
X110500000Y-53490000D03*
X110500000Y-54510000D03*
D32*
X81500000Y-42020000D03*
X81500000Y-42980000D03*
D15*
X102220000Y-45270000D03*
X101260000Y-45270000D03*
D33*
X98079411Y-43609411D03*
X97400589Y-42930589D03*
D34*
X94850000Y-49650000D03*
X96000000Y-49650000D03*
X97150000Y-49650000D03*
X94850000Y-48500000D03*
X96000000Y-48500000D03*
X97150000Y-48500000D03*
X94850000Y-47350000D03*
X96000000Y-47350000D03*
X97150000Y-47350000D03*
D35*
X97750000Y-50937500D03*
X97250000Y-50937500D03*
X96750000Y-50937500D03*
X96250000Y-50937500D03*
X95750000Y-50937500D03*
X95250000Y-50937500D03*
X94750000Y-50937500D03*
X94250000Y-50937500D03*
D36*
X93562500Y-50250000D03*
X93562500Y-49750000D03*
X93562500Y-49250000D03*
X93562500Y-48750000D03*
X93562500Y-48250000D03*
X93562500Y-47750000D03*
X93562500Y-47250000D03*
X93562500Y-46750000D03*
D35*
X94250000Y-46062500D03*
X94750000Y-46062500D03*
X95250000Y-46062500D03*
X95750000Y-46062500D03*
X96250000Y-46062500D03*
X96750000Y-46062500D03*
X97250000Y-46062500D03*
X97750000Y-46062500D03*
D36*
X98437500Y-46750000D03*
X98437500Y-47250000D03*
X98437500Y-47750000D03*
X98437500Y-48250000D03*
X98437500Y-48750000D03*
X98437500Y-49250000D03*
X98437500Y-49750000D03*
X98437500Y-50250000D03*
D37*
X81100000Y-57000000D03*
X83900000Y-57000000D03*
D32*
X106500000Y-44020000D03*
X106500000Y-44980000D03*
D38*
X87137500Y-47550000D03*
X87137500Y-48500000D03*
X87137500Y-49450000D03*
X84862500Y-49450000D03*
X84862500Y-48500000D03*
X84862500Y-47550000D03*
D32*
X117500000Y-50520000D03*
X117500000Y-51480000D03*
D29*
X97480000Y-41520000D03*
X98500000Y-41520000D03*
D15*
X87720000Y-51520000D03*
X86760000Y-51520000D03*
D23*
X101000000Y-54500000D03*
X99980000Y-54500000D03*
D21*
X100400589Y-52859411D03*
X101079411Y-52180589D03*
D10*
X108520000Y-53500000D03*
X109480000Y-53500000D03*
D20*
X93225000Y-57000000D03*
X94775000Y-57000000D03*
D15*
X98470000Y-40520000D03*
X97510000Y-40520000D03*
M02*
