G04 #@! TF.GenerationSoftware,KiCad,Pcbnew,9.0.0*
G04 #@! TF.CreationDate,2025-04-06T23:20:39+02:00*
G04 #@! TF.ProjectId,RF-to-USB,52462d74-6f2d-4555-9342-2e6b69636164,rev?*
G04 #@! TF.SameCoordinates,Original*
G04 #@! TF.FileFunction,Soldermask,Bot*
G04 #@! TF.FilePolarity,Negative*
%FSLAX46Y46*%
G04 Gerber Fmt 4.6, Leading zero omitted, Abs format (unit mm)*
G04 Created by KiCad (PCBNEW 9.0.0) date 2025-04-06 23:20:39*
%MOMM*%
%LPD*%
G01*
G04 APERTURE LIST*
G04 Aperture macros list*
%AMRoundRect*
0 Rectangle with rounded corners*
0 $1 Rounding radius*
0 $2 $3 $4 $5 $6 $7 $8 $9 X,Y pos of 4 corners*
0 Add a 4 corners polygon primitive as box body*
4,1,4,$2,$3,$4,$5,$6,$7,$8,$9,$2,$3,0*
0 Add four circle primitives for the rounded corners*
1,1,$1+$1,$2,$3*
1,1,$1+$1,$4,$5*
1,1,$1+$1,$6,$7*
1,1,$1+$1,$8,$9*
0 Add four rect primitives between the rounded corners*
20,1,$1+$1,$2,$3,$4,$5,0*
20,1,$1+$1,$4,$5,$6,$7,0*
20,1,$1+$1,$6,$7,$8,$9,0*
20,1,$1+$1,$8,$9,$2,$3,0*%
G04 Aperture macros list end*
%ADD10C,1.100000*%
%ADD11O,3.200000X1.300000*%
%ADD12RoundRect,0.140000X-0.140000X-0.170000X0.140000X-0.170000X0.140000X0.170000X-0.140000X0.170000X0*%
%ADD13RoundRect,0.147500X-0.147500X-0.172500X0.147500X-0.172500X0.147500X0.172500X-0.147500X0.172500X0*%
%ADD14RoundRect,0.200000X0.200000X0.275000X-0.200000X0.275000X-0.200000X-0.275000X0.200000X-0.275000X0*%
%ADD15RoundRect,0.150000X-0.150000X0.512500X-0.150000X-0.512500X0.150000X-0.512500X0.150000X0.512500X0*%
%ADD16RoundRect,0.147500X0.172500X-0.147500X0.172500X0.147500X-0.172500X0.147500X-0.172500X-0.147500X0*%
%ADD17RoundRect,0.140000X0.140000X0.170000X-0.140000X0.170000X-0.140000X-0.170000X0.140000X-0.170000X0*%
%ADD18RoundRect,0.135000X0.185000X-0.135000X0.185000X0.135000X-0.185000X0.135000X-0.185000X-0.135000X0*%
%ADD19R,5.080000X2.290000*%
%ADD20R,5.080000X2.420000*%
%ADD21RoundRect,0.140000X0.170000X-0.140000X0.170000X0.140000X-0.170000X0.140000X-0.170000X-0.140000X0*%
%ADD22RoundRect,0.225000X-0.225000X-0.250000X0.225000X-0.250000X0.225000X0.250000X-0.225000X0.250000X0*%
%ADD23RoundRect,0.140000X0.021213X-0.219203X0.219203X-0.021213X-0.021213X0.219203X-0.219203X0.021213X0*%
%ADD24R,1.400000X1.150000*%
%ADD25RoundRect,0.135000X0.135000X0.185000X-0.135000X0.185000X-0.135000X-0.185000X0.135000X-0.185000X0*%
%ADD26RoundRect,0.140000X-0.021213X0.219203X-0.219203X0.021213X0.021213X-0.219203X0.219203X-0.021213X0*%
%ADD27RoundRect,0.218750X0.218750X0.381250X-0.218750X0.381250X-0.218750X-0.381250X0.218750X-0.381250X0*%
%ADD28RoundRect,0.062500X-0.350000X-0.062500X0.350000X-0.062500X0.350000X0.062500X-0.350000X0.062500X0*%
%ADD29RoundRect,0.062500X-0.062500X-0.350000X0.062500X-0.350000X0.062500X0.350000X-0.062500X0.350000X0*%
%ADD30R,2.500000X2.500000*%
%ADD31RoundRect,0.135000X-0.135000X-0.185000X0.135000X-0.185000X0.135000X0.185000X-0.135000X0.185000X0*%
%ADD32R,0.740000X2.400000*%
%ADD33RoundRect,0.135000X-0.185000X0.135000X-0.185000X-0.135000X0.185000X-0.135000X0.185000X0.135000X0*%
%ADD34RoundRect,0.140000X-0.170000X0.140000X-0.170000X-0.140000X0.170000X-0.140000X0.170000X0.140000X0*%
%ADD35RoundRect,0.140000X0.219203X0.021213X0.021213X0.219203X-0.219203X-0.021213X-0.021213X-0.219203X0*%
%ADD36RoundRect,0.062500X0.062500X-0.375000X0.062500X0.375000X-0.062500X0.375000X-0.062500X-0.375000X0*%
%ADD37RoundRect,0.062500X0.375000X-0.062500X0.375000X0.062500X-0.375000X0.062500X-0.375000X-0.062500X0*%
%ADD38R,3.450000X3.450000*%
%ADD39RoundRect,0.250000X-0.375000X-0.625000X0.375000X-0.625000X0.375000X0.625000X-0.375000X0.625000X0*%
%ADD40RoundRect,0.150000X0.512500X0.150000X-0.512500X0.150000X-0.512500X-0.150000X0.512500X-0.150000X0*%
G04 APERTURE END LIST*
D10*
X78075000Y-50750000D03*
X78075000Y-46250000D03*
D11*
X78075000Y-54350000D03*
X78075000Y-42650000D03*
D12*
X107270000Y-47000000D03*
X108230000Y-47000000D03*
D13*
X113515000Y-50500000D03*
X114485000Y-50500000D03*
D14*
X97825000Y-55500000D03*
X96175000Y-55500000D03*
D15*
X89550000Y-54862500D03*
X91450000Y-54862500D03*
X90500000Y-57137500D03*
D16*
X113500000Y-49485000D03*
X113500000Y-48515000D03*
D17*
X100970000Y-55500000D03*
X100010000Y-55500000D03*
D12*
X108520000Y-54500000D03*
X109480000Y-54500000D03*
D18*
X100750000Y-51010000D03*
X100750000Y-49990000D03*
D19*
X122430000Y-48500000D03*
D20*
X122430000Y-52880000D03*
X122430000Y-44120000D03*
D21*
X112500000Y-44980000D03*
X112500000Y-44020000D03*
D22*
X93225000Y-55000000D03*
X94775000Y-55000000D03*
D12*
X85510000Y-53770000D03*
X86470000Y-53770000D03*
D23*
X99160589Y-52589411D03*
X99839411Y-51910589D03*
D24*
X110600000Y-45300000D03*
X108400000Y-45300000D03*
X108400000Y-43700000D03*
X110600000Y-43700000D03*
D23*
X111660589Y-52839411D03*
X112339411Y-52160589D03*
D25*
X110260000Y-47000000D03*
X109240000Y-47000000D03*
D12*
X93410000Y-53270000D03*
X94370000Y-53270000D03*
X114520000Y-48500000D03*
X115480000Y-48500000D03*
D17*
X89950000Y-51520000D03*
X88990000Y-51520000D03*
D26*
X92829411Y-44680589D03*
X92150589Y-45359411D03*
D16*
X112500000Y-50485000D03*
X112500000Y-49515000D03*
D27*
X88062500Y-57000000D03*
X85937500Y-57000000D03*
D12*
X115520000Y-50500000D03*
X116480000Y-50500000D03*
D17*
X98470000Y-39520000D03*
X97510000Y-39520000D03*
D28*
X106515000Y-51210000D03*
X106515000Y-50710000D03*
X106515000Y-50210000D03*
X106515000Y-49710000D03*
X106515000Y-49210000D03*
D29*
X107452500Y-48272500D03*
X107952500Y-48272500D03*
X108452500Y-48272500D03*
X108952500Y-48272500D03*
X109452500Y-48272500D03*
D28*
X110390000Y-49210000D03*
X110390000Y-49710000D03*
X110390000Y-50210000D03*
X110390000Y-50710000D03*
X110390000Y-51210000D03*
D29*
X109452500Y-52147500D03*
X108952500Y-52147500D03*
X108452500Y-52147500D03*
X107952500Y-52147500D03*
X107452500Y-52147500D03*
D30*
X108452500Y-50210000D03*
D31*
X85480000Y-55020000D03*
X86500000Y-55020000D03*
D32*
X88540000Y-44450000D03*
X88540000Y-40550000D03*
X87270000Y-44450000D03*
X87270000Y-40550000D03*
X86000000Y-44450000D03*
X86000000Y-40550000D03*
X84730000Y-44450000D03*
X84730000Y-40550000D03*
X83460000Y-44450000D03*
X83460000Y-40550000D03*
D12*
X114520000Y-47530000D03*
X115480000Y-47530000D03*
D17*
X107480000Y-53500000D03*
X106520000Y-53500000D03*
D14*
X97825000Y-54000000D03*
X96175000Y-54000000D03*
D33*
X110500000Y-53490000D03*
X110500000Y-54510000D03*
D34*
X81500000Y-42020000D03*
X81500000Y-42980000D03*
D17*
X102220000Y-45270000D03*
X101260000Y-45270000D03*
D35*
X98079411Y-43609411D03*
X97400589Y-42930589D03*
D36*
X97750000Y-50937500D03*
X97250000Y-50937500D03*
X96750000Y-50937500D03*
X96250000Y-50937500D03*
X95750000Y-50937500D03*
X95250000Y-50937500D03*
X94750000Y-50937500D03*
X94250000Y-50937500D03*
D37*
X93562500Y-50250000D03*
X93562500Y-49750000D03*
X93562500Y-49250000D03*
X93562500Y-48750000D03*
X93562500Y-48250000D03*
X93562500Y-47750000D03*
X93562500Y-47250000D03*
X93562500Y-46750000D03*
D36*
X94250000Y-46062500D03*
X94750000Y-46062500D03*
X95250000Y-46062500D03*
X95750000Y-46062500D03*
X96250000Y-46062500D03*
X96750000Y-46062500D03*
X97250000Y-46062500D03*
X97750000Y-46062500D03*
D37*
X98437500Y-46750000D03*
X98437500Y-47250000D03*
X98437500Y-47750000D03*
X98437500Y-48250000D03*
X98437500Y-48750000D03*
X98437500Y-49250000D03*
X98437500Y-49750000D03*
X98437500Y-50250000D03*
D38*
X96000000Y-48500000D03*
D39*
X81100000Y-57000000D03*
X83900000Y-57000000D03*
D34*
X106500000Y-44020000D03*
X106500000Y-44980000D03*
D40*
X87137500Y-47550000D03*
X87137500Y-48500000D03*
X87137500Y-49450000D03*
X84862500Y-49450000D03*
X84862500Y-48500000D03*
X84862500Y-47550000D03*
D34*
X117500000Y-50520000D03*
X117500000Y-51480000D03*
D31*
X97480000Y-41520000D03*
X98500000Y-41520000D03*
D17*
X87720000Y-51520000D03*
X86760000Y-51520000D03*
D25*
X101000000Y-54500000D03*
X99980000Y-54500000D03*
D23*
X100400589Y-52859411D03*
X101079411Y-52180589D03*
D12*
X108520000Y-53500000D03*
X109480000Y-53500000D03*
D22*
X93225000Y-57000000D03*
X94775000Y-57000000D03*
D17*
X98470000Y-40520000D03*
X97510000Y-40520000D03*
G36*
X124506061Y-51700597D02*
G01*
X124682934Y-51718017D01*
X124706775Y-51722759D01*
X124870998Y-51772575D01*
X124893456Y-51781878D01*
X125044798Y-51862772D01*
X125065010Y-51876277D01*
X125197666Y-51985145D01*
X125214854Y-52002333D01*
X125323722Y-52134989D01*
X125337227Y-52155201D01*
X125418121Y-52306543D01*
X125427424Y-52329001D01*
X125477240Y-52493224D01*
X125481982Y-52517065D01*
X125499403Y-52693938D01*
X125500000Y-52706092D01*
X125500000Y-56490749D01*
X125499999Y-56491311D01*
X125499962Y-56499479D01*
X125499952Y-56500577D01*
X125499843Y-56508717D01*
X125499834Y-56509268D01*
X125498602Y-56578349D01*
X125498473Y-56582221D01*
X125495692Y-56638840D01*
X125495070Y-56646560D01*
X125488764Y-56702857D01*
X125488273Y-56706700D01*
X125467285Y-56852680D01*
X125466577Y-56857051D01*
X125455079Y-56920779D01*
X125453197Y-56929428D01*
X125437188Y-56992150D01*
X125436017Y-56996419D01*
X125397063Y-57129082D01*
X125395741Y-57133306D01*
X125375301Y-57194719D01*
X125372207Y-57203013D01*
X125347427Y-57262837D01*
X125345660Y-57266896D01*
X125288234Y-57392641D01*
X125286324Y-57396632D01*
X125257336Y-57454544D01*
X125253092Y-57462317D01*
X125220064Y-57517980D01*
X125217739Y-57521743D01*
X125142988Y-57638058D01*
X125140529Y-57641739D01*
X125103605Y-57694920D01*
X125098301Y-57702005D01*
X125057691Y-57752400D01*
X125054852Y-57755798D01*
X124964293Y-57860308D01*
X124961337Y-57863599D01*
X124917234Y-57910971D01*
X124910971Y-57917234D01*
X124863599Y-57961337D01*
X124860308Y-57964293D01*
X124755798Y-58054852D01*
X124752400Y-58057691D01*
X124702005Y-58098301D01*
X124694920Y-58103605D01*
X124641732Y-58140534D01*
X124638053Y-58142992D01*
X124593283Y-58171765D01*
X124577753Y-58180245D01*
X124482262Y-58223854D01*
X124448399Y-58233798D01*
X124344494Y-58248738D01*
X124326846Y-58250000D01*
X104006093Y-58250000D01*
X103993939Y-58249403D01*
X103817065Y-58231982D01*
X103793224Y-58227240D01*
X103629001Y-58177424D01*
X103606543Y-58168121D01*
X103455201Y-58087227D01*
X103434989Y-58073722D01*
X103302333Y-57964854D01*
X103285145Y-57947666D01*
X103176277Y-57815010D01*
X103162772Y-57794798D01*
X103081878Y-57643456D01*
X103072575Y-57620998D01*
X103022759Y-57456775D01*
X103018017Y-57432934D01*
X103000597Y-57256061D01*
X103000000Y-57243907D01*
X103000000Y-53006092D01*
X103000597Y-52993938D01*
X103018017Y-52817065D01*
X103022759Y-52793224D01*
X103072575Y-52629001D01*
X103081878Y-52606543D01*
X103162772Y-52455201D01*
X103176277Y-52434989D01*
X103285145Y-52302333D01*
X103302333Y-52285145D01*
X103434989Y-52176277D01*
X103455201Y-52162772D01*
X103606543Y-52081878D01*
X103629001Y-52072575D01*
X103793224Y-52022759D01*
X103817065Y-52018017D01*
X103993939Y-52000597D01*
X104006093Y-52000000D01*
X104493907Y-52000000D01*
X104506061Y-52000597D01*
X104682934Y-52018017D01*
X104706775Y-52022759D01*
X104870998Y-52072575D01*
X104893456Y-52081878D01*
X105044798Y-52162772D01*
X105065010Y-52176277D01*
X105197666Y-52285145D01*
X105214854Y-52302333D01*
X105323722Y-52434989D01*
X105337227Y-52455201D01*
X105418121Y-52606543D01*
X105427424Y-52629001D01*
X105477240Y-52793224D01*
X105481982Y-52817065D01*
X105499403Y-52993938D01*
X105500000Y-53006092D01*
X105500000Y-54999996D01*
X105519214Y-55195088D01*
X105576122Y-55382687D01*
X105576123Y-55382690D01*
X105668526Y-55555564D01*
X105668531Y-55555571D01*
X105792892Y-55707107D01*
X105944428Y-55831468D01*
X105944435Y-55831473D01*
X106117309Y-55923876D01*
X106117312Y-55923877D01*
X106304913Y-55980785D01*
X106304909Y-55980785D01*
X106500003Y-56000000D01*
X122049997Y-56000000D01*
X122235334Y-55981746D01*
X122413551Y-55927684D01*
X122577795Y-55839893D01*
X122721751Y-55721751D01*
X122839893Y-55577795D01*
X122927684Y-55413551D01*
X122981746Y-55235334D01*
X122999999Y-55050000D01*
X122981746Y-54864665D01*
X122927684Y-54686448D01*
X122839893Y-54522204D01*
X122721751Y-54378248D01*
X122577795Y-54260106D01*
X122413551Y-54172315D01*
X122235334Y-54118253D01*
X122049997Y-54100000D01*
X120906093Y-54100000D01*
X120893939Y-54099403D01*
X120717065Y-54081982D01*
X120693224Y-54077240D01*
X120529001Y-54027424D01*
X120506543Y-54018121D01*
X120355201Y-53937227D01*
X120334989Y-53923722D01*
X120202333Y-53814854D01*
X120185145Y-53797666D01*
X120076277Y-53665010D01*
X120062772Y-53644798D01*
X119981878Y-53493456D01*
X119972575Y-53470998D01*
X119922759Y-53306775D01*
X119918017Y-53282934D01*
X119900597Y-53106061D01*
X119900000Y-53093907D01*
X119900000Y-52706092D01*
X119900597Y-52693938D01*
X119918017Y-52517065D01*
X119922759Y-52493224D01*
X119972575Y-52329001D01*
X119981878Y-52306543D01*
X120062772Y-52155201D01*
X120076277Y-52134989D01*
X120185145Y-52002333D01*
X120202333Y-51985145D01*
X120334989Y-51876277D01*
X120355201Y-51862772D01*
X120506543Y-51781878D01*
X120529001Y-51772575D01*
X120693224Y-51722759D01*
X120717065Y-51718017D01*
X120893939Y-51700597D01*
X120906093Y-51700000D01*
X124493907Y-51700000D01*
X124506061Y-51700597D01*
G37*
G36*
X124344493Y-38751262D02*
G01*
X124448399Y-38766201D01*
X124482264Y-38776145D01*
X124577749Y-38819752D01*
X124593277Y-38828231D01*
X124638059Y-38857011D01*
X124641739Y-38859470D01*
X124694920Y-38896394D01*
X124702005Y-38901698D01*
X124752400Y-38942308D01*
X124755798Y-38945147D01*
X124860308Y-39035706D01*
X124863599Y-39038662D01*
X124910971Y-39082765D01*
X124917234Y-39089028D01*
X124961337Y-39136400D01*
X124964293Y-39139691D01*
X125054852Y-39244201D01*
X125057691Y-39247599D01*
X125098301Y-39297994D01*
X125103605Y-39305079D01*
X125140529Y-39358260D01*
X125142988Y-39361941D01*
X125217739Y-39478256D01*
X125220064Y-39482019D01*
X125253092Y-39537682D01*
X125257336Y-39545455D01*
X125286324Y-39603367D01*
X125288234Y-39607358D01*
X125345660Y-39733103D01*
X125347427Y-39737162D01*
X125372207Y-39796986D01*
X125375301Y-39805280D01*
X125395741Y-39866693D01*
X125397063Y-39870917D01*
X125436017Y-40003580D01*
X125437188Y-40007849D01*
X125453197Y-40070571D01*
X125455079Y-40079220D01*
X125466577Y-40142948D01*
X125467285Y-40147319D01*
X125488273Y-40293299D01*
X125488764Y-40297142D01*
X125495070Y-40353439D01*
X125495692Y-40361159D01*
X125498473Y-40417778D01*
X125498602Y-40421650D01*
X125499834Y-40490731D01*
X125499843Y-40491282D01*
X125499952Y-40499422D01*
X125499962Y-40500520D01*
X125499999Y-40508688D01*
X125500000Y-40509250D01*
X125500000Y-44293907D01*
X125499403Y-44306061D01*
X125481982Y-44482934D01*
X125477240Y-44506775D01*
X125427424Y-44670998D01*
X125418121Y-44693456D01*
X125337227Y-44844798D01*
X125323722Y-44865010D01*
X125214854Y-44997666D01*
X125197666Y-45014854D01*
X125065010Y-45123722D01*
X125044798Y-45137227D01*
X124893456Y-45218121D01*
X124870998Y-45227424D01*
X124706775Y-45277240D01*
X124682934Y-45281982D01*
X124506061Y-45299403D01*
X124493907Y-45300000D01*
X120906093Y-45300000D01*
X120893939Y-45299403D01*
X120717065Y-45281982D01*
X120693224Y-45277240D01*
X120529001Y-45227424D01*
X120506543Y-45218121D01*
X120355201Y-45137227D01*
X120334989Y-45123722D01*
X120202333Y-45014854D01*
X120185145Y-44997666D01*
X120076277Y-44865010D01*
X120062772Y-44844798D01*
X119981878Y-44693456D01*
X119972575Y-44670998D01*
X119922759Y-44506775D01*
X119918017Y-44482934D01*
X119900597Y-44306061D01*
X119900000Y-44293907D01*
X119900000Y-43906092D01*
X119900597Y-43893938D01*
X119918017Y-43717065D01*
X119922759Y-43693224D01*
X119972575Y-43529001D01*
X119981878Y-43506543D01*
X120062772Y-43355201D01*
X120076277Y-43334989D01*
X120185145Y-43202333D01*
X120202333Y-43185145D01*
X120334989Y-43076277D01*
X120355201Y-43062772D01*
X120506543Y-42981878D01*
X120529001Y-42972575D01*
X120693224Y-42922759D01*
X120717065Y-42918017D01*
X120893939Y-42900597D01*
X120906093Y-42900000D01*
X122049997Y-42900000D01*
X122235334Y-42881746D01*
X122413551Y-42827684D01*
X122577795Y-42739893D01*
X122721751Y-42621751D01*
X122839893Y-42477795D01*
X122927684Y-42313551D01*
X122981746Y-42135334D01*
X122999999Y-41950000D01*
X122981746Y-41764665D01*
X122927684Y-41586448D01*
X122839893Y-41422204D01*
X122721751Y-41278248D01*
X122577795Y-41160106D01*
X122413551Y-41072315D01*
X122235334Y-41018253D01*
X122049997Y-41000000D01*
X106500003Y-41000000D01*
X106304911Y-41019214D01*
X106117312Y-41076122D01*
X106117309Y-41076123D01*
X105944435Y-41168526D01*
X105944428Y-41168531D01*
X105792892Y-41292892D01*
X105668531Y-41444428D01*
X105668526Y-41444435D01*
X105576123Y-41617309D01*
X105576122Y-41617312D01*
X105519214Y-41804911D01*
X105500000Y-42000003D01*
X105500000Y-43993907D01*
X105499403Y-44006061D01*
X105481982Y-44182934D01*
X105477240Y-44206775D01*
X105427424Y-44370998D01*
X105418121Y-44393456D01*
X105337227Y-44544798D01*
X105323722Y-44565010D01*
X105214854Y-44697666D01*
X105197666Y-44714854D01*
X105065010Y-44823722D01*
X105044798Y-44837227D01*
X104893456Y-44918121D01*
X104870998Y-44927424D01*
X104706775Y-44977240D01*
X104682934Y-44981982D01*
X104506061Y-44999403D01*
X104493907Y-45000000D01*
X104006093Y-45000000D01*
X103993939Y-44999403D01*
X103817065Y-44981982D01*
X103793224Y-44977240D01*
X103629001Y-44927424D01*
X103606543Y-44918121D01*
X103455201Y-44837227D01*
X103434989Y-44823722D01*
X103302333Y-44714854D01*
X103285145Y-44697666D01*
X103176277Y-44565010D01*
X103162772Y-44544798D01*
X103081878Y-44393456D01*
X103072575Y-44370998D01*
X103022759Y-44206775D01*
X103018017Y-44182934D01*
X103000597Y-44006061D01*
X103000000Y-43993907D01*
X103000000Y-39756092D01*
X103000597Y-39743938D01*
X103018017Y-39567065D01*
X103022759Y-39543224D01*
X103072575Y-39379001D01*
X103081878Y-39356543D01*
X103162772Y-39205201D01*
X103176277Y-39184989D01*
X103285145Y-39052333D01*
X103302333Y-39035145D01*
X103434989Y-38926277D01*
X103455201Y-38912772D01*
X103606543Y-38831878D01*
X103629001Y-38822575D01*
X103793224Y-38772759D01*
X103817065Y-38768017D01*
X103993939Y-38750597D01*
X104006093Y-38750000D01*
X124326846Y-38750000D01*
X124344493Y-38751262D01*
G37*
M02*
